<?xml version="1.0" encoding="UTF-8"?>
<!-- Generator: Adobe Illustrator 21.1.0, SVG Export Plug-In . SVG Version: 6.00 Build 0)  -->
<svg version="1.1" id="Layer_1" xmlns="http://www.w3.org/2000/svg" xmlns:xlink="http://www.w3.org/1999/xlink" x="0px" y="0px" viewBox="0 0 612 792" style="enable-background:new 0 0 612 792;" xml:space="preserve">
<style type="text/css">
	.st0{fill:#640000;}
	.st1{fill:#FDFCFD;}
	.st2{fill:#EEFEFE;}
	.st3{fill:#D4D2D5;}
	.st4{fill:#C31112;}
	.st5{fill:#EA1517;}
	.st6{fill:#D3D2D4;}
	.st7{fill:#4B0000;}
	.st8{fill:#670000;}
	.st9{fill:#FDFDFD;}
	.st10{fill:#770000;}
	.st11{fill:#D6EEEF;}
	.st12{fill:#F1F4FB;}
	.st13{fill:#E7EFFA;}
	.st14{fill:#B4BCCC;}
	.st15{fill:#BDD2E1;}
	.st16{fill:#F0F3FA;}
	.st17{fill:#DCE4F6;}
	.st18{fill:#7A0000;}
	.st19{fill:#7C0000;}
	.st20{fill:#000101;}
	.st21{fill:#590000;}
	.st22{fill:#620000;}
	.st23{fill:#FFA502;}
	.st24{fill:#FF9F02;}
	.st25{fill:#F58B02;}
	.st26{fill:#FF0000;}
	.st27{fill:#F48701;}
	.st28{fill:#FFA902;}
	.st29{fill:#F48A02;}
	.st30{fill:#FFA802;}
	.st31{fill:#F48902;}
	.st32{fill:#D07701;}
	.st33{fill:#FFAA02;}
	.st34{fill:#F48901;}
	.st35{fill:#FA9000;}
	.st36{fill:#D07902;}
	.st37{fill:#DB8900;}
	.st38{fill:#D27C01;}
	.st39{fill:#D17A02;}
	.st40{fill:#D17B02;}
	.st41{fill:#5E0000;}
	.st42{fill:#F4F8FC;}
	.st43{fill:#860002;}
	.st44{fill:#600000;}
	.st45{fill:#A90510;}
	.st46{fill:#DFFEFF;}
	.st47{fill:#5F0000;}
	.st48{fill:#FF0101;}
	.st49{fill:#FE0000;}
	.st50{fill:#6D0003;}
	.st51{fill:#430000;}
	.st52{fill:#B00004;}
	.st53{fill:#B38B71;}
	.st54{fill:#ED0C22;}
	.st55{fill:#AB715D;}
	.st56{fill:#870001;}
	.st57{fill:#AB0A19;}
	.st58{fill:#FAB492;}
	.st59{fill:#660000;}
	.st60{fill:#EE9C81;}
	.st61{fill:#B10003;}
	.st62{fill:#7E0000;}
	.st63{fill:#ED0E23;}
	.st64{fill:#F9A079;}
	.st65{fill:#B10207;}
	.st66{fill:#F8BA95;}
	.st67{fill:#ED0B1D;}
	.st68{fill:#690000;}
	.st69{fill:#EBFFFF;}
	.st70{fill:#C09076;}
	.st71{fill:#AF883C;}
	.st72{fill:#840000;}
	.st73{fill:#7D0000;}
	.st74{fill:#FBBC97;}
	.st75{fill:#480000;}
	.st76{fill:#A87060;}
	.st77{fill:#AB7463;}
	.st78{fill:#ED9B80;}
	.st79{fill:#860004;}
	.st80{fill:#7E0002;}
	.st81{fill:#AB0D1D;}
	.st82{fill:#F2AC8C;}
	.st83{fill:#AF0002;}
	.st84{fill:#EE9B7E;}
	.st85{fill:#AF843A;}
	.st86{fill:#ED0E22;}
	.st87{fill:#AF0007;}
	.st88{fill:#F8BE99;}
	.st89{fill:#AE8539;}
	.st90{fill:#F7BD98;}
	.st91{fill:#B50005;}
	.st92{fill:#AA7333;}
	.st93{fill:#AE8339;}
	.st94{fill:#830004;}
	.st95{fill:#AC715F;}
	.st96{fill:#8E1A1B;}
	.st97{fill:#F4F6FB;}
	.st98{fill:#AB7635;}
	.st99{fill:#3E0000;}
	.st100{fill:#B3893B;}
	.st101{fill:#7B0000;}
	.st102{fill:#630000;}
	.st103{fill:#BEE5F2;}
	.st104{fill:#610000;}
	.st105{fill:#B5BDCD;}
	.st106{fill:#E1F8F8;}
	.st107{fill:#F3AD8C;}
	.st108{fill:#8D622C;}
	.st109{fill:#EE9A7E;}
	.st110{fill:#8A0814;}
	.st111{fill:#D5977C;}
	.st112{fill:#D4D6D6;}
	.st113{fill:#F60B1A;}
	.st114{fill:#520000;}
	.st115{fill:#B00007;}
	.st116{fill:#B0893B;}
	.st117{fill:#C2806A;}
	.st118{fill:#936E38;}
	.st119{fill:#AB705F;}
	.st120{fill:#A90A1B;}
	.st121{fill:#BB0000;}
	.st122{fill:#6A0000;}
	.st123{fill:#350000;}
	.st124{fill:#AB715F;}
	.st125{fill:#AB0A1A;}
	.st126{fill:#BB866F;}
	.st127{fill:#460000;}
	.st128{fill:#EF9378;}
	.st129{fill:#B00003;}
	.st130{fill:#960002;}
	.st131{fill:#F4AC89;}
	.st132{fill:#750000;}
	.st133{fill:#E0E7F7;}
	.st134{fill:#BF0C1C;}
	.st135{fill:#ED0F24;}
	.st136{fill:#780000;}
	.st137{fill:#E8FDFF;}
	.st138{fill:#D7DFF3;}
	.st139{fill:#560000;}
	.st140{fill:#CD9278;}
	.st141{fill:#C2846E;}
	.st142{fill:#5A0000;}
	.st143{fill:#F4B392;}
	.st144{fill:#ED9C80;}
	.st145{fill:#920002;}
	.st146{fill:#C00D1E;}
	.st147{fill:#EC0F23;}
	.st148{fill:#BF0001;}
	.st149{fill:#D9E1F4;}
	.st150{fill:#510000;}
	.st151{fill:#CE977B;}
	.st152{fill:#C1806A;}
	.st153{fill:#FFBF9C;}
	.st154{fill:#6C0000;}
	.st155{fill:#CE9378;}
	.st156{fill:#CD9076;}
	.st157{fill:#790000;}
	.st158{fill:#FFB998;}
	.st159{fill:#570000;}
	.st160{fill:#BDE9FB;}
	.st161{fill:#CB8F75;}
	.st162{fill:#B6BFCE;}
	.st163{fill:#BEE1F5;}
	.st164{fill:#E6FFFF;}
	.st165{fill:#7F0000;}
	.st166{fill:#D8E1F4;}
	.st167{fill:#450000;}
	.st168{fill:#E6FAFF;}
	.st169{fill:#EAFEFF;}
	.st170{fill:#550000;}
	.st171{fill:#C8F0F9;}
	.st172{fill:#B6BECE;}
	.st173{fill:#BCD1E3;}
	.st174{fill:#D6D6D6;}
</style>
<g>
	<path class="st0" d="M225.5,71.9c11.2-8.4,26-11.3,39.6-8.6c9.5,1.9,18.2,7.5,23.7,15.5c4.3,6.4,6.4,14.1,6.8,21.8   c20.4,5.1,40.7,10.6,60.2,18.3c15.4,6.3,31.3,13.4,42.7,26c18.2,25.6,33.4,53.8,41.4,84.3c0.4,1.9,1.3,3.7,1.2,5.7   c-1.1,3.8,0.7,7.6,1.1,11.3c0.6,3.8,0.5,7.7,1.4,11.5c2.4,3.1,6,5.3,7.1,9.3c0.4,1.6,2.3,3.9,0.1,5c-1.1-2.9-1.8-6.1-4.1-8.3   c-1.9-2-4-3.9-6.1-5.8c0.2-1.2,0.4-2.4,0.6-3.6c0.6-3.6-0.8-7-1.3-10.5c-5.6-30-18.5-58.1-35-83.6c-4.3-6.4-8.1-13.4-14.1-18.5   c-7-6-15.3-10.5-23.6-14.4c-22.9-10.7-47.4-17.1-71.8-23.5c-0.6,11.9-6.4,23.5-16.1,30.5c1,1.8,1.9,3.6,2.8,5.5   c2.6,5.3,4.4,11.4,3,17.3c-0.6,2.3,0.4,4.5,1.5,6.6c-13.4,7.9-26.4,16.9-36.5,28.9c41.8-0.5,84.4,4.3,123.6,19.8   c1,0.4,1.9,0.8,2.9,1.2c-0.8,0.8-1.5,1.7-2.3,2.5c-35.6-14.6-74.2-19.9-112.5-20.4c-10.3,0-20.5-0.2-30.8,0.3   c-2.6-0.2-4.1,2.5-5.7,4.1c-10.5,11.6-18.3,26.6-17.6,42.6c12-4.5,25-5.4,37.7-6.2c30.9-1,61.8,2.6,92.2,8.3   c0.3,1.2,0.5,2.8,2.1,2.9c3.4,1,7.4,0.5,10.1,3.2c-10.8-2.3-21.5-4.7-32.4-6.1c-25.5-4.4-51.5-6.1-77.3-4.7   c-11.6,0.9-23.6,2.2-34.3,7.1c-0.3-0.7-1-2.2-1.4-3c-0.9-19.7,9.4-38.1,23.4-51.3c5.7-0.1,11.3-0.2,17-0.4c1.4-0.1,2.2-1.4,3.1-2.3   c9.8-11,21.7-20,34.4-27.4c-0.7-3.3-0.5-6.8,0.4-10.1c-0.7-5.8-3-11.1-5.6-16.2c-0.5,0.1-1.4,0.4-1.9,0.5c-7,4.1-15.3,5.6-23.3,5.3   c-15.1-0.5-29.1-9.9-36.2-23.1c-3.5-6.7-5.5-14.2-5.5-21.7C210.9,87,217.1,77.7,225.5,71.9 M246.6,66.3   c-11.9,2.1-23.5,8.8-29.7,19.5c-4.4,7.1-4,16.2-1.5,23.9l0.4,0.2c1.7,7.4,6.5,13.7,11.9,18.9c15.1,14,41.5,13.2,55.4-2.1   c14-15.1,12-42.4-5.1-54.4C269.1,65.8,257.3,64.3,246.6,66.3 M218.9,280.7c2.5-1.2,7.2-2.6,8.4,0.8c-0.4,3.9-0.4,9.1-4.8,10.6   c1.6-3.3,3.7-6.6,3.2-10.5C223.5,281.3,221.2,281,218.9,280.7 M210.8,292.3c0.3-4.2,2.8-8.4,6.5-10.5c-0.8,3.4-5.1,5.4-4.8,9.3   c0.6,2.4,3.5,2.4,5.4,3.2C215.5,295.1,211.6,295.6,210.8,292.3L210.8,292.3z"/>
	<path class="st1" d="M246.6,66.3c10.7-1.9,22.5-0.4,31.4,6.1c0,1.8,0.1,3.6,0.7,5.3c1.9,6.1,1.8,12.7,0.5,18.8   c-2.8,11.9-12.7,21.5-24.4,24.4c-12.4,3.5-26.5,0.2-35.7-8.9c-1-0.7-2.1-1.4-3.2-2l-0.4-0.2c-2.5-7.7-2.9-16.8,1.5-23.9   C223.1,75.1,234.7,68.4,246.6,66.3 M225.5,200c1.7-1.6,3.1-4.2,5.7-4.1c10.2-0.5,20.5-0.3,30.8-0.3c38.2,0.5,76.9,5.8,112.5,20.4   c5.6,2.2,10.9,4.9,16.3,7.5c-0.6,0.2-1.8,0.5-2.4,0.7c-8.9-3.8-17.6-8.6-27.1-10.8c0,9.8-6.4,18.2-13.9,23.7   c-2.9,2.4-6.5,3.6-9.2,6.3c4.8,0.4,9.6,1.4,14.2,2.8c15.9,3.5,31.5,8.3,46.7,14c15.1,6.1,30.1,12.8,43.2,22.6   c3.8,2.6,7.2,5.7,11.2,8.2c-1.4-8.3-2.8-16.8-6.8-24.2c-6.2-7.8-14.6-13.5-22.2-20c0.5-0.2,1.5-0.5,2-0.6   c4.9,3.8,9.7,7.6,14.2,11.9c2,1.9,4.1,3.8,6.1,5.8c2.3,2.2,3,5.5,4.1,8.3c2.8,7.7,4,15.8,4.7,23.9l-1.2-0.5   c-3.8-4.5-8.6-8.1-13.3-11.6c-14.7-10.5-31.2-18-48.1-24.1c-18-6.5-36.5-11.3-55.2-15.1c-30.4-5.7-61.3-9.3-92.2-8.3   c-12.7,0.8-25.7,1.7-37.7,6.2C207.2,226.6,214.9,211.5,225.5,200L225.5,200z"/>
	<path class="st2" d="M278,72.4c17.1,12,19.1,39.3,5.1,54.4c-13.9,15.2-40.3,16.1-55.4,2.1c-5.4-5.1-10.2-11.5-11.9-18.9   c1.1,0.6,2.2,1.3,3.2,2c-0.3,3,2,5.3,3.4,7.7c5.2,8.4,13.8,14.2,23.3,16.5c11.3,2.1,23.9,0,32.9-7.6c7.8-6.5,11.8-16.7,12.2-26.6   c-0.5-9.8-4.2-20-11.9-26.5c-0.1,0.6-0.2,1.7-0.3,2.3C278.1,76,278,74.2,278,72.4L278,72.4z"/>
	<path class="st3" d="M279,75.4c7.7,6.5,11.4,16.7,11.9,26.5c-0.5,10-4.4,20.1-12.2,26.6c-9,7.6-21.6,9.7-32.9,7.6   c-9.5-2.3-18.2-8.1-23.3-16.5c-1.4-2.4-3.6-4.7-3.4-7.7c9.2,9.1,23.3,12.4,35.7,8.9c11.8-2.9,21.7-12.5,24.4-24.4   c1.3-6.2,1.5-12.8-0.5-18.8C278.8,77.1,278.9,76,279,75.4L279,75.4z"/>
	<path class="st4" d="M295.5,103.8c24.4,6.3,48.9,12.8,71.8,23.5c8.3,4,16.6,8.4,23.6,14.4c6,5,9.8,12,14.1,18.5   c16.5,25.5,29.4,53.6,35,83.6c0.5,3.5,1.9,6.9,1.3,10.5c-18.8-17.3-41-31-64.6-40.8c-1-0.4-1.9-0.8-2.9-1.2c0.5,0,1.4-0.1,1.9-0.1   c2.7-12.8,4.8-25.9,3.5-39c-1-7.5-3.9-14.9-9.1-20.5c-6.1-6.5-14.6-9.9-22.4-13.7c-12.8-5.5-25.8-10.5-38.8-15.5   c-2.6,3.5-4.9,7.3-8.5,9.8c-5,3.8-11.3,5.1-17.5,5.2c-0.1,0.3-0.4,1-0.6,1.3c-0.9-1.8-1.9-3.6-2.8-5.5   C289.2,127.3,295,115.7,295.5,103.8L295.5,103.8z"/>
	<path class="st5" d="M300.3,133.2c3.6-2.5,5.9-6.3,8.5-9.8c13,5.1,26,10,38.8,15.5c7.9,3.8,16.3,7.2,22.4,13.7   c5.2,5.6,8.1,13,9.1,20.5c1.3,13.1-0.8,26.2-3.5,39c-0.5,0-1.4,0.1-1.9,0.1c-39.1-15.5-81.7-20.3-123.6-19.8   c10.1-12,23.1-21,36.5-28.9c-1-2-2.1-4.2-1.5-6.6c1.4-5.9-0.4-12-3-17.3c0.1-0.3,0.4-1,0.6-1.3C289,138.3,295.4,137,300.3,133.2   L300.3,133.2z"/>
	<path class="st6" d="M361.3,213.3c9.5,2.3,18.1,7.1,27.1,10.8c0.6-0.2,1.8-0.5,2.4-0.7c12.7,6.1,24.7,13.8,35.8,22.5   c-0.5,0.2-1.5,0.5-2,0.6c7.5,6.4,15.9,12.1,22.2,20c4,7.4,5.5,16,6.8,24.2c-3.9-2.5-7.4-5.5-11.2-8.2   c-13.1-9.7-28.1-16.5-43.2-22.6c-15.3-5.7-30.8-10.5-46.7-14c-4.6-1.4-9.4-2.4-14.2-2.8c2.7-2.6,6.3-3.9,9.2-6.3   C354.9,231.5,361.4,223.1,361.3,213.3L361.3,213.3z"/>
	<path class="st7" d="M374.4,216c0.8-0.8,1.5-1.7,2.3-2.5c23.6,9.8,45.8,23.5,64.6,40.8c-0.2,1.2-0.4,2.4-0.6,3.6   c-4.5-4.2-9.3-8.1-14.2-11.9c-11.1-8.8-23.1-16.4-35.8-22.5C385.3,220.9,380,218.2,374.4,216 M337.8,244.6   c18.7,3.8,37.2,8.6,55.2,15.1c16.9,6.1,33.4,13.7,48.1,24.1c4.7,3.5,9.5,7,13.3,11.6c1.3,2.4,2.3,4.9,3.3,7.5   c-0.4-0.2-1.1-0.5-1.5-0.7c-7.6-9.7-18-16.8-28.6-23c-21.7-12.3-45.4-20.5-69.5-26.5c-2.7-0.7-5.4-1.3-8.1-2   c-2.7-2.7-6.7-2.2-10.1-3.2C338.3,247.4,338.1,245.9,337.8,244.6L337.8,244.6z"/>
	<path class="st8" d="M442.3,246.3c-0.3-3.8-2.1-7.5-1.1-11.3c2.3,7.4,3.1,15.1,4.5,22.7c1.5,2.6,4.6,3.9,5.8,6.8   c3.9,9.3,6.3,19.2,7,29.3c0.4,2.9,0,5.9,0.8,8.8c4.8,18.5,4.6,38.3-0.5,56.8c-1.1,0.3-2.2,0.5-3.2,0.8c5.2-18.8,5.6-39,0.5-57.8   c0.4,0.2,1.2,0.5,1.5,0.7c-1-2.5-2-5.1-3.3-7.5l1.2,0.5c-0.7-8.1-1.9-16.3-4.7-23.9c2.2-1.1,0.2-3.4-0.1-5   c-1.1-3.9-4.7-6.2-7.1-9.3C442.8,254,442.9,250.1,442.3,246.3 M242.5,300.8c3.1-0.7,6.2-0.6,9.3-0.2c0.3,0.5,0.8,1.4,1,1.8   c1.7,0.7,3.4,1.6,4.9,2.6c-2-0.5-4-0.9-5.9-1.2c1.6,1.7,3.2,3.2,4.8,5c-0.7,0.9-1.4,1.8-2,2.7c-2.5-3-5.3-6-8.8-7.7   c-2.5-0.1-4.9,0.8-7.3,1.3c-4.9,1.2-9.9,1.9-14.8,3.3c9.4,6.8,14.4,18.7,13.4,30.2c-0.1,0.5-0.2,1.4-0.2,1.8   c-0.2-0.6-0.5-1.9-0.6-2.5c-0.8,0.1-1.7,0.2-2.5,0.3c1.2-11.5-4.7-23.5-15-29c-7.8,2.2-15.7,3.8-23.5,5.7c0.5,0.4,1.4,1.2,1.9,1.6   c-1.1,0.4-2.2,0.8-3.3,1.2c-0.8-0.6-1.7-1.1-2.5-1.6c-6.9,1.6-13.8,3.3-20.5,5.5c-0.6,1.4-1,2.9-1.5,4.3c-0.5-1.2-1.1-2.4-1.6-3.6   c-6.8,1.9-13.4,4.4-20.3,6.2c1.6,3.1,3,6.3,3.5,9.7c0,1.6,0,3.2,0,4.8c6.8,1.7,13.6,3.2,20.4,4.5l0.4,0.1c-0.1,0.6-0.2,1.1-0.4,1.7   c3.6,0.9,7.2,1.8,10.6,3.5c-3.3-0.5-6.6-1.1-9.8-1.9c1,4.8,2.3,9.5,3.9,14.2c2.2,6.2,4.9,12.1,8,17.9c-3-1.6-3.5-5.4-6.5-7.1   l-0.7-0.5c-3.6-7.8-6.1-16.1-7.7-24.6c-17.1-3.9-34.2-7.8-50.7-13.8c12.2-5.6,24.8-10.5,37.7-14.4c3-0.8,5.9-2.3,9-2.4   c2,0.3,4.5,0.6,5.3-1.7c2.3-0.8,4.6-1.5,7-2.2C199.1,310.3,220.8,305.4,242.5,300.8 M128.2,335.8c0.8,2.1,3.5,1.8,5.4,2.2   c4.6,2,9.5,2.8,14.2,4.4c-0.1-1.4-0.1-2.7-0.1-4.1c-0.6-3-1.5-6.2-3.8-8.4C138.6,331.8,133.5,334.1,128.2,335.8L128.2,335.8z"/>
	<path class="st9" d="M240.3,239.9c25.8-1.4,51.8,0.3,77.3,4.7c3.5,1.5,7.4,2,10.8,3.7c3.3,1.5,6.8,2.5,10.2,3.4   c5.7,1.8,11.3,4.1,16.8,6.5c-2.4,0.1-4.7,0.3-7.1,0.5c5.3,7.3,11.4,14.2,14.6,22.8c2.4,6.2,4.1,12.8,8.1,18.3   c2.4,2.4,4.3,5.3,5.7,8.5c0,1.9,0,3.7,0,5.6c-1.2,2.4-2.3,5.1-4.7,6.6c-1.9,1.3-4.2,1.7-6.4,2.2c-2.6,5.9-4.2,12.2-5,18.6   c0.3,5.1,1.6,10.5,0,15.6c-3.4,5.8-10.9,7.2-17.1,6.9c-4.6,1.3-7.5,5.3-10.7,8.5c-0.2,4.3-1.4,8.7-4.4,11.9   c-2.9,2.9-6.8,4.6-10.8,5.4c-3.4,0.7-6.8-0.4-10.1-0.2c-7.1,0.5-13.9,3.3-21,3.2c-2.8,0.1-5.7-0.1-8.4,0.7c-2,1.1-3.3,3.1-5.1,4.5   c-0.4-0.1-1.2-0.2-1.6-0.2c2-2.6,3.1-6.1,1.5-9.2c-3.3-7.3-15.4-7.2-18.6,0.1c-2.2,4.6,1,9.9,5.5,11.5c-0.6,0.3-1.7,0.9-2.2,1.2   c-1.3-0.8-2.5-1.7-3.6-2.7c-1.9-3.3-3.3-7.2-2.1-11c0.6-2.1,2.1-4.5,0.5-6.5c-3.5-3.9-8.2-6.4-12.8-9c-3.2-1.8-5.4-4.9-8.8-6.4   c-3.9-1.7-7.9-3.7-12.2-4c-3.6-0.3-7-2-10.6-2.3c1.8,2.7,4.5,5.5,3.7,9.1c0.2,2.7-2,4.4-3.8,6c-0.5-0.1-1.6-0.3-2.1-0.4   c2.9-1.7,4.6-5.6,3-8.8c-2.2-4-8.2-5.5-11.8-2.4c0-0.4,0.1-1.2,0.1-1.6c0.8-0.9,1.7-1.8,2.5-2.6c-1.6-0.9-3.3-1.8-4.9-2.7   c0.5-0.2,1.4-0.6,1.9-0.8c20.9,2.8,41.9,4.3,63,5c2.7,0.4,4.8-1.5,6.9-2.9c5.9-4.2,11.8-9,15.2-15.6c2.6-5,4-11.1,2-16.6   c-4.2-13.6-17.8-22.7-31.6-24.4c-3.1-0.4-6.3-0.4-9.3,0.2c-21.7,4.7-43.4,9.6-64.9,15.3c0.9-1.6,2.3-2.9,4-3.7   c5-0.1,11-2.8,11.9-8.2c1.4-6.7,2.1-13.7,5.2-19.9c3.5-6.5,7.1-13.1,12.3-18.5c4.4-6.9,9.3-13.3,13.7-20.2   c-5.3-0.4-11-1.1-15.5,2.4c-1.3-0.1-2.7-0.3-4-0.4l0.7-0.6C216.7,242.1,228.6,240.8,240.3,239.9 M279.5,278.6   c-5.1,1.9-7.3,8.2-5.1,13.1c1.8,6,10.3,9.4,15.2,4.9c4.5-4.9,3.4-13.5-1.7-17.6C285.6,276.9,282.1,277.5,279.5,278.6 M218.9,280.7   c-0.5,0.4-1.1,0.7-1.6,1.1c-3.7,2.1-6.3,6.3-6.5,10.5c0.8,3.3,4.7,2.7,7.2,2c1.6-0.6,3.6-0.8,4.6-2.1c4.4-1.6,4.4-6.8,4.8-10.6   C226.1,278.1,221.4,279.5,218.9,280.7 M364.3,302.9c-4.3,1.8-5.5,7.5-4.3,11.6c1.3,4.6,7.5,5.5,11.2,3.5c3.6-2.4,3.1-7.6,2.2-11.3   C372.6,302.8,367.7,301.4,364.3,302.9 M346.2,342.5c-6.3,2.6-7.2,12.3-1.7,16.2c4.9,3.8,13.3,1.1,14.6-5.1   C360.6,346.8,352.8,339.8,346.2,342.5 M314.7,363.3c-7.4,2.3-12.1,11.9-7.9,18.8c5.2,7.1,17.6,6,21.5-1.8   C332.6,372,323.8,360.6,314.7,363.3 M151.9,444.4c0.5-0.2,1.4-0.5,1.9-0.7c4.5,3.9,9.2,7.7,14,11.1c0.7,0.5,1.4,0.9,2.1,1.4   c0.2,2.1,1.4,3.7,3.1,5c12.2,12,27.6,20,43.1,26.9c39.5,16.8,82,25,124.3,31.3c1.6,0.2,3.2,0.4,4.8,0.6c-1.1,9.3-2.3,18.5-2.6,27.9   c0,4.8-0.2,9.6-0.5,14.4c-0.6,7.4,0.7,14.7,0.4,22.1c-0.1,10.1,0.3,20.1-0.9,30.1c-0.6,0.9-1.2,1.8-1.8,2.7c-1.4-3-2-6.2-2.2-9.4   c-1.2,0.7-2.4,1.4-3.7,1.9c-1.9,0.2-4.1-0.6-5.8,0.5c-4.3,2.2-8.4,4.8-12.6,7.3c-4.6,2.8-9.6,4.9-14.4,7.4   c-11.4,5.3-23.2,10.6-35.8,12c-6.7,1.8-13.7,0.7-20.5,2c-3.6,0.5-7.1-0.8-10.7-0.8c-14.2-0.5-28-4.6-40.7-10.7   c-6.3-2.4-12.4-5.2-18-9.1c-3.2-2.1-6-4.9-9.4-6.9c-1.7-1-3.3-2-4.7-3.4c-3.8-4.1-8.7-7-11.9-11.6c-5.9-5.5-9.7-12.6-14.2-19.2   c-4.5-8.1-8-16.6-10.4-25.6c-1.1-7.3-1-14.6-0.9-22c0.4-4.6,0.5-9.4,2.5-13.7c2.8-10.2,7.7-19.6,13-28.7   c3.6-6.4,9.1-11.4,13.6-17.2c3.9-4.2,7.3-9,9-14.5c0.3-1.3-0.7-2.2-1.4-3.1C157.6,449.8,154.6,447.3,151.9,444.4 M211.8,507.8   c-6.9,1.7-10.1,10-7.5,16.3c1.6,5.8,8.7,9.2,14.2,6.5c7.3-3.1,9.6-13.3,5.3-19.6C221.1,507.5,216,506.5,211.8,507.8 M196.5,581   c-5.4,1.8-9.4,7.1-9.1,12.8c0.8,6.8,7.5,11.9,14.1,12.6c8.1,0.8,14.3-8.3,12.1-15.7C211.5,583.7,203.5,578.6,196.5,581L196.5,581z"/>
	<path class="st10" d="M167.5,319c2.6-28.4,16.2-55.6,37.1-75c0.3,0.7,1,2.2,1.4,3l-0.7,0.6c-19,18.8-32.2,43.9-34.6,70.7   c-0.9,2.3-3.4,2-5.3,1.7l-0.7-0.4C165.3,319.4,166.8,319.1,167.5,319L167.5,319z"/>
	<path class="st11" d="M317.6,244.6c10.9,1.4,21.7,3.8,32.4,6.1c2.7,0.7,5.4,1.4,8.1,2c-0.5,0.4-1.3,1.1-1.8,1.4   c-6.3-0.7-12.3-3.2-18.6-3.8c0.2,0.3,0.7,1,0.9,1.4c-3.5-0.9-7-1.9-10.2-3.4C325,246.6,321.1,246.2,317.6,244.6L317.6,244.6z"/>
	<path class="st12" d="M209.3,248c4.5-3.4,10.2-2.7,15.5-2.4c-4.4,6.9-9.4,13.3-13.7,20.2c-5.2,5.4-8.7,12-12.3,18.5   c-3.1,6.2-3.8,13.2-5.2,19.9c-0.9,5.4-7,8.1-11.9,8.2c2.4-2.2,2.1-5.6,2.4-8.5c0.5-3.8-0.2-7.8,1.2-11.4c1.7-4.4,2.3-9.2,4.8-13.3   c1.9-3.1,2.6-6.8,4.5-9.9c5.8-7,11.8-13.9,17.6-20.8C211.4,248.3,210,248.1,209.3,248L209.3,248z"/>
	<path class="st13" d="M170.6,318.3c2.4-26.8,15.6-51.9,34.6-70.7c1.3,0.1,2.7,0.3,4,0.4c0.7,0.1,2.2,0.3,2.9,0.5   c-5.9,6.9-11.8,13.8-17.6,20.8c-2,3.1-2.7,6.7-4.5,9.9c-2.4,4.1-3.1,8.9-4.8,13.3c-1.4,3.6-0.7,7.6-1.2,11.4   c-0.4,2.9,0,6.4-2.4,8.5c-1.7,0.8-3.1,2-4,3.7C175.3,316.7,172.9,317.4,170.6,318.3L170.6,318.3z"/>
	<path class="st14" d="M337.7,250.3c6.3,0.7,12.3,3.1,18.6,3.8c3.9,1.9,8.3,2.2,12.4,3.6c27.1,8.1,54.4,18.2,76.5,36.3   c4.4,4,9.9,8.1,10.5,14.5c0.7,6,2,12,1.8,18.1c0.3,12-0.8,24.3-5,35.6c-5.9,9.9-14.2,18.3-23.6,24.8   c-16.6,11.2-35.7,17.9-55.1,22.4c-6.3,2-13,2.1-19.3,4c-7.7,0.8-15.4,1.6-23.1,1.8c-3.4,0.1-6.6,1.2-9.9,1.2   c-4.9,0.1-9.7,0-14.6-0.2c14.7-4,29.4-8.1,43.5-14c17.8-7.3,35.2-16.8,48.5-30.9c7.6-7.9,13-17.7,17.1-27.9   c5.1-13.1,7.4-27.3,6.2-41.3c-0.1-1.6-0.6-3.2-1.9-4.1c-16.3-13.8-34.2-25.9-53.5-35.1c-3.8-1.7-7.5-3.7-11.5-5   c-5.5-2.4-11-4.7-16.8-6.5C338.4,251.3,338,250.7,337.7,250.3L337.7,250.3z"/>
	<path class="st15" d="M358.1,252.7c24.1,6.1,47.8,14.3,69.5,26.5c10.6,6.2,20.9,13.3,28.6,23c5.1,18.8,4.7,39-0.5,57.8   c-1.6,5.5-5.6,9.7-9,14.2c-8.2,9.8-18.8,17.3-30.2,22.8c-16.6,8.2-34.5,13.3-52.6,17c-6.8,1.1-13.5,2.3-20.4,3   c-15.2,1.4-30.4,2.3-45.7,1.7c1.7-0.5,3.4-1,5.2-1.5c1.3-0.3,2.7-0.5,4-0.8c4.8,0.2,9.7,0.3,14.6,0.2c3.3-0.1,6.6-1.2,9.9-1.2   c7.7-0.2,15.4-1,23.1-1.8c6.3-1.9,13-1.9,19.3-4c19.4-4.5,38.5-11.3,55.1-22.4c9.4-6.6,17.7-14.9,23.6-24.8   c4.2-11.4,5.2-23.6,5-35.6c0.2-6.1-1.1-12.1-1.8-18.1c-0.7-6.4-6.1-10.5-10.5-14.5c-22.1-18.1-49.4-28.2-76.5-36.3   c-4.1-1.4-8.5-1.7-12.4-3.6C356.8,253.8,357.7,253.1,358.1,252.7L358.1,252.7z"/>
	<path class="st16" d="M348.4,258.7c2.3-0.2,4.7-0.4,7.1-0.5c4,1.4,7.7,3.3,11.5,5c-0.6,0.6-1.2,1.3-1.8,2c4.1,6.7,9,13.3,10.3,21.2   c1.5,7.1,3.6,14.6,1.2,21.8c-1.3-3.2-3.2-6-5.7-8.5c-3.9-5.5-5.7-12.1-8.1-18.3C359.8,272.9,353.7,266,348.4,258.7 M372,320.3   c2.4-1.5,3.5-4.2,4.7-6.6c0.5,6.4,0,12.8-1,19.2c-0.9,4.8-3.4,9.1-5.7,13.3c-4.4,10.7-12.8,19-20.7,27.2   c-6.5,5.9-14.8,9.3-22.2,13.8c-4.4,2.7-9.6,3.5-14.3,5.5c-3.9,1.8-8.2,1.8-12.3,3c-2.8,0.8-5.7,1.5-8.6,1.7   c-5.6,0.2-11.1,1.4-16.7,0.3c-4.6,4.4-12.1,7-17.9,3.2c0.6-0.3,1.7-0.9,2.2-1.2c4.1,1.5,8.5,0.3,11.7-2.4c0.4,0.1,1.2,0.2,1.6,0.2   c1.7-1.5,3.1-3.4,5.1-4.5c2.7-0.8,5.6-0.6,8.4-0.7c7.2,0.1,13.9-2.7,21-3.2c3.4-0.2,6.8,1,10.1,0.2c4-0.8,7.9-2.5,10.8-5.4   c3-3.2,4.3-7.6,4.4-11.9c3.2-3.2,6.1-7.3,10.7-8.5c6.2,0.3,13.7-1.1,17.1-6.9c1.7-5,0.4-10.4,0-15.6c0.8-6.4,2.3-12.7,5-18.6   C367.8,322.1,370.1,321.7,372,320.3L372,320.3z"/>
	<path class="st17" d="M366.9,263.2c19.3,9.2,37.1,21.3,53.5,35.1c1.3,0.9,1.9,2.5,1.9,4.1c1.2,14-1.1,28.3-6.2,41.3   c-4.1,10.1-9.5,19.9-17.1,27.9c-13.3,14.1-30.7,23.6-48.5,30.9c-14.1,5.9-28.8,10-43.5,14c-1.3,0.3-2.7,0.5-4,0.8   c-8.4-0.9-16.8,0.2-25.2-0.7c-8.1-1.6-16.4-1.9-24.6-2.6c-4.1-1.6-8.5-2-12.9-2.3c-3.7-0.2-7-2.5-10.8-2.5   c-2.5-0.1-4.9-0.3-7.2-1.3c-3.5-1.5-7.4-1.2-10.8-2.7c-2.3-1-4.8-1.4-7.2-2c-3.2-0.8-5.7-3.3-7.6-5.8c-5.8-7.2-10.4-15.3-14.4-23.6   c-2.1-3.5-2.7-7.7-4.8-11.2c-1-2.9-1.6-5.8-2.2-8.8c3.6,0.4,7,1.8,10.6,2.1c2.9,0.4,6.6,0.6,8,3.7c0.3,3.6-1.2,7.3,0,10.9   c1.3,2.4,3.3,4.5,5.7,5.8c2.7,1.5,5.8,0.1,8.7,0.4c1,0.6,1.8,1.6,2.7,2.4c-1.6,3.7-2.4,8.1-0.6,11.9c1.9,3.8,6.3,4.9,10.2,5.7   c5-0.2,8.8-3.7,12.5-6.7c4.6,0.4,8.6,2.9,13,4c2.9,0.7,5.4,2.4,7.6,4.4c1.2,1,2.4,1.9,3.6,2.7c5.7,3.7,13.3,1.2,17.9-3.2   c5.6,1,11.1-0.1,16.7-0.3c2.9-0.2,5.8-0.9,8.6-1.7c4-1.2,8.4-1.2,12.3-3c4.7-2,9.9-2.9,14.3-5.5c7.4-4.6,15.7-7.9,22.2-13.8   c7.9-8.2,16.3-16.5,20.7-27.2c2.4-4.2,4.8-8.5,5.7-13.3c1-6.3,1.5-12.8,1-19.2c0-1.9,0-3.7,0-5.6c2.3-7.2,0.3-14.7-1.2-21.8   c-1.3-7.9-6.2-14.5-10.3-21.2C365.7,264.5,366.3,263.9,366.9,263.2L366.9,263.2z"/>
	<path class="st18" d="M279.5,278.6c2.6-1.2,6.1-1.7,8.3,0.4c5.1,4.1,6.2,12.6,1.7,17.6c-4.9,4.5-13.4,1.1-15.2-4.9   C272.2,286.8,274.4,280.5,279.5,278.6 M282.2,281.2c-3.6,0.4-6.1,4-5.3,7.5c0.3,4.6,5.7,8.4,9.9,5.9c2.6-2,2.2-5.7,1.9-8.6   C287.9,283.4,285.6,279.8,282.2,281.2 M376.8,649.9c0.4,0.1,1.2,0.4,1.7,0.5c0.2,0.5,0.5,1.6,0.7,2.1c-0.3-0.1-0.9-0.5-1.3-0.6   c-0.6,5.6-1.1,11.2-1.9,16.7c-0.2,1.6-0.3,3.2-0.5,4.8c-0.2-0.1-0.7-0.2-0.9-0.2c-0.8-1.5-1.6-3.1-2.3-4.6c0.6-1.7,0.8-3.6,1-5.4   c0.1-0.9,0.3-1.9,0.4-2.8C377,658,375.9,653.3,376.8,649.9L376.8,649.9z"/>
	<path class="st19" d="M217.3,281.8c0.5-0.4,1.1-0.7,1.6-1.1c2.3,0.3,4.6,0.6,6.9,0.9c0.4,3.9-1.6,7.2-3.2,10.5   c-1.1,1.3-3.1,1.6-4.6,2.1c-1.9-0.8-4.8-0.8-5.4-3.2C212.2,287.3,216.5,285.3,217.3,281.8 M213.9,291.7c2.9-0.3,5.9-1.1,8.3-3   c1.7-1.7,1.4-4.3,1.8-6.4C219.2,283.3,215.1,286.9,213.9,291.7L213.9,291.7z"/>
	<path d="M282.2,281.2c3.4-1.4,5.7,2.1,6.6,4.9c0.3,2.9,0.7,6.5-1.9,8.6c-4.2,2.5-9.7-1.4-9.9-5.9   C276.2,285.2,278.6,281.6,282.2,281.2 M212.4,511.1c3.1-0.8,7.2-0.7,9.1,2.3c2.3,4.2,1.4,10.1-2.4,13.2c-2.9,2.3-7.8,2.4-10.2-0.7   C205.2,521.4,206.2,512.8,212.4,511.1 M197.1,584.2c5.1-2,10.9,1.6,13,6.3c1.7,4.5-0.5,10.2-5,12.1c-5.7,1.8-11.7-2.2-14.1-7.2   C189.5,590.8,192.7,585.7,197.1,584.2 M207.9,660c3.5-1,7.7,0.7,9,4.2c1.6,3.6-0.6,8.1-4.3,9.3c-3.5,1.4-7.9-0.5-9.4-4   C201.3,665.9,203.9,661,207.9,660L207.9,660z"/>
	<path class="st20" d="M213.9,291.7c1.2-4.8,5.2-8.4,10-9.4c-0.4,2.2-0.1,4.7-1.8,6.4C219.9,290.6,216.9,291.5,213.9,291.7   L213.9,291.7z"/>
	<path class="st21" d="M251.8,300.5c13.8,1.7,27.3,10.8,31.6,24.4c1.9,5.5,0.6,11.5-2,16.6c-3.4,6.5-9.3,11.4-15.2,15.6   c-2.1,1.4-4.2,3.3-6.9,2.9c-21-0.7-42.1-2.2-63-5c-4.7-0.8-9.5-1.3-14.3-2.2c-3.3-1.7-7-2.6-10.6-3.5c0.1-0.6,0.2-1.1,0.4-1.7   c0.8-7.3,0.6-14.9-2.5-21.6c0.5-1.5,1-2.9,1.5-4.3c4.3,8.1,5.4,17.5,4.5,26.6c1.4,0.3,2.8,0.5,4.2,0.8c1.1,0.2,2.2,0.3,3.4,0.5   c3.2,0.4,6.3,1.3,9.5,1.5c2,0.3,2.8-1.9,3.8-3.1c6.2-9,6.3-22.8-2.4-30.1c1.1-0.4,2.2-0.8,3.3-1.2c5.7,5.2,7.3,13.5,6.5,20.9   c-0.8,5.3-3,10.3-6.2,14.6c9.8,1.1,19.5,2.3,29.3,3c4.4-4,6.2-10.3,6.9-16.1l0.1-0.7c0.8-0.1,1.7-0.2,2.5-0.3   c0.2,0.6,0.5,1.9,0.6,2.5c-0.8,5.3-2.9,10.4-5.8,14.9c6.7,0.3,13.4,0.9,20.1,1.1c5.5-5.5,8.9-12.9,9.5-20.7   c1.1-8.5-1.1-17.4-6.1-24.3c0.7-0.9,1.3-1.8,2-2.7c5.3,6.9,7.8,15.7,7.6,24.4c0.1,8.6-3.3,16.9-8.4,23.7c2.3-0.1,4.8,0,6.8-1.4   c7.2-4.7,14.3-10.6,17.3-18.9c2.5-7.7-0.9-16-6.3-21.6c-4.1-5-10-7.8-15.9-10c-1.6-1-3.2-1.9-4.9-2.6   C252.6,301.9,252.1,301,251.8,300.5 M395.3,656.5c0.3-6.3-0.1-12.6,0.4-18.8c0.8,0.8,1.7,1.7,2.5,2.6c-1.5,6.9,0.1,14.1-1.1,21   c-0.5,0.1-1.3,0.4-1.8,0.5c-5.4-3.1-10.9-6.2-16.3-9.3c-0.2-0.5-0.5-1.5-0.7-2.1c-0.4-0.1-1.2-0.4-1.7-0.5   c-0.9,3.4,0.3,8.2-3.1,10.4c0.3-2.5,0.5-5.1,0.8-7.6c0.2-2.1,0.3-4.2,1.3-6.1c6.5,4,13.2,7.6,19.7,11.4   C395.4,657.6,395.4,656.9,395.3,656.5 M408.2,639.7c0.1-0.2,0.4-0.5,0.5-0.7c4.1,1.3,8.2,2.5,12.3,3.7c0.1,0.4,0.3,1.3,0.4,1.8   c-3.3-0.7-6.5-2-9.8-2.8c0.5,2.7,1.9,5.3,1,8.1C411.1,646.4,409.6,643.1,408.2,639.7L408.2,639.7z"/>
	<path class="st22" d="M364.3,302.9c3.4-1.5,8.3-0.1,9.2,3.9c0.8,3.7,1.3,8.8-2.2,11.3c-3.7,2-9.9,1.1-11.2-3.5   C358.8,310.4,360,304.8,364.3,302.9 M364.9,306.1c-2.5,1.9-3,6.4-1.1,9c2,0.8,5.6,1.5,6.7-0.8c0.4-2.2,0.4-4.6-0.1-6.8   C369.8,305.1,366.7,305.2,364.9,306.1 M217.8,379.2c5.4-1.8,12.7,2.7,11.4,8.9c-1.8,7.7-13.9,8.4-17.1,1.4   C209.9,385.1,213.3,380.1,217.8,379.2 M218,382.3c-2.5,0.7-4.6,4-2.8,6.4c2.4,4.4,11.1,3.1,10.8-2.5   C225.6,382.5,221.1,381.3,218,382.3 M254,388.3c3.2-7.3,15.3-7.4,18.6-0.1c1.6,3.1,0.5,6.6-1.5,9.2c-3.2,2.7-7.6,3.9-11.7,2.4   C255,398.2,251.8,392.9,254,388.3 M260.3,386.6c-2.4,1-4.7,3.3-3.9,6.1c2,5.8,11.9,5.9,13.9,0C271.2,387.4,264.4,384.7,260.3,386.6    M358.9,660.2c2.7-3.1,5.1-6.5,7.6-9.7c0.6,1.2,1.3,2.4,1.9,3.5c1.6,3,3,6.1,4.8,9.1c-0.2,1.8-0.4,3.6-1,5.4   c-2-3.8-4.1-7.6-5.9-11.5c-0.3,0.1-0.9,0.4-1.3,0.5c-4.1,1.1-5,6-8.7,7.8c0-0.3-0.1-1-0.2-1.4C357.1,662.7,358,661.5,358.9,660.2   L358.9,660.2z"/>
	<path class="st23" d="M238.5,305c2.4-0.5,4.8-1.4,7.3-1.3c3.6,1.7,6.4,4.6,8.8,7.7c5,6.9,7.2,15.8,6.1,24.3   c-1.7-1.8-1.5-4.2-1.7-6.4c-0.9-9-5.3-17.8-12.9-23c-2.1-1.2-4.6,0-6.7,0.5c-3.2,1.1-6.5,1.4-9.8,2.2c-1.2,1.2,0.9,2.5,1.4,3.5   c6.2,6.8,8,16.3,8.1,25.2l-0.1,0.6c-0.5,0-1.5,0.1-2,0.2c0.9-11.5-4-23.4-13.4-30.2C228.5,306.9,233.6,306.2,238.5,305L238.5,305z"/>
	<path class="st24" d="M251.9,303.7c2,0.3,4,0.7,5.9,1.2c5.9,2.2,11.8,5,15.9,10c5.4,5.6,8.8,13.9,6.3,21.6   c-3.1,8.3-10.1,14.2-17.3,18.9c-2,1.4-4.5,1.3-6.8,1.4c5-6.8,8.5-15.1,8.4-23.7c0.2-8.6-2.4-17.5-7.6-24.4   C255.1,307,253.4,305.4,251.9,303.7 M259.4,308.9c5,7.1,6.9,15.9,7.2,24.5l-0.5,0.6c-0.6,4.9-2.1,9.7-3.6,14.4   c-0.8,2-2.4,3.6-2.2,5.9c4.2-1.6,7.8-4.9,11.2-7.8c4.4-5.1,9.4-11.8,7.2-18.9c-0.7-3.6-2.3-7.8-5.8-9.5c0-0.3,0-1,0.1-1.3   c-3.6-2.5-6.7-5.8-10.7-7.6C261.5,308.6,260.4,308.8,259.4,308.9L259.4,308.9z"/>
	<path class="st25" d="M239.4,306.8c2.2-0.5,4.6-1.6,6.7-0.5c7.6,5.2,12,14,12.9,23c0.2,2.2,0,4.6,1.7,6.4c-0.6,7.7-4,15.2-9.5,20.7   c-6.7-0.2-13.4-0.8-20.1-1.1c2.9-4.5,5-9.6,5.8-14.9c0.1-0.5,0.2-1.4,0.2-1.8c0.5,0,1.5-0.1,2-0.2c-1,5.1-2.4,10.3-4.9,14.9   c4.5,1.6,9.5,0.9,14.2,1c2.4,0.3,4-1.7,5.2-3.4c3.2-4.5,4.9-9.8,5.8-15.2c-6.8,0.1-13.4,2.1-20.2,2.1c-0.1-8.9-2-18.4-8.1-25.2   c-0.6-1-2.6-2.3-1.4-3.5C232.9,308.2,236.3,307.9,239.4,306.8L239.4,306.8z"/>
	<path class="st26" d="M364.9,306.1c1.8-0.8,4.8-1,5.6,1.3c0.5,2.2,0.5,4.6,0.1,6.8c-1.1,2.4-4.8,1.7-6.7,0.8   C361.9,312.5,362.4,308,364.9,306.1 M346.2,346c4.7-3.3,11.6,2.4,9.8,7.7c-1.6,3.7-7.3,4.7-10.2,2   C343.3,353.1,343.6,348.5,346.2,346 M218,382.3c3.1-1,7.6,0.2,8,3.9c0.3,5.6-8.3,6.9-10.8,2.5C213.5,386.3,215.5,383,218,382.3    M260.3,386.6c4.1-1.9,10.9,0.8,10,6.1c-2,5.9-11.9,5.9-13.9,0C255.6,389.9,257.9,387.5,260.3,386.6L260.3,386.6z"/>
	<path class="st27" d="M259.4,308.9c1-0.2,2-0.3,2.9,0.2c4.1,1.8,7.1,5.1,10.7,7.6c0,0.3,0,1-0.1,1.3c-0.3,3.6,0,7.5-1.7,10.8   c-1,2-3,3.2-4.7,4.5C266.3,324.9,264.4,316,259.4,308.9L259.4,308.9z"/>
	<path class="st28" d="M195.3,314.8c7.8-1.9,15.8-3.5,23.5-5.7c10.2,5.5,16.1,17.5,15,29l-0.1,0.7l-1.3-0.1   c-0.4-10-4-20.8-12.8-26.5c-1.3-1.1-3.1-0.3-4.5,0.1c-4.7,1.8-10.2,1.4-14.4,4.5c2.2,3.6,4.2,7.5,4.8,11.8c0.4,3.7,0.2,7.4-0.1,11   c-0.4,0.1-1.1,0.3-1.4,0.4c-0.1-0.6-0.2-1.9-0.3-2.6c0.7-7.4-0.8-15.8-6.5-20.9C196.7,316,195.7,315.2,195.3,314.8L195.3,314.8z"/>
	<path class="st29" d="M215.1,312.2c1.5-0.4,3.2-1.2,4.5-0.1c8.8,5.7,12.4,16.5,12.8,26.5c-9,0.2-18,0.6-27.1,0.9   c0.3-3.7,0.5-7.4,0.1-11c-0.6-4.3-2.6-8.2-4.8-11.8C204.9,313.6,210.4,314,215.1,312.2L215.1,312.2z"/>
	<path class="st30" d="M170.8,321.6c6.7-2.2,13.6-3.9,20.5-5.5c0.8,0.5,1.7,1,2.5,1.6c8.7,7.4,8.6,21.2,2.4,30.1   c-1,1.2-1.9,3.4-3.8,3.1c-3.2-0.2-6.3-1.1-9.5-1.5c3.2-1,6.4-0.2,9.5,0.1c3.4-2.1,4.9-6.2,5.4-10.1c2-6.4,0.6-13.8-3.9-18.7   c-0.9-0.9-1.9-2.1-3.4-2c-5.7-0.1-10.7,2.8-16.2,3.7c0,3.7,2.4,6.8,2.6,10.5c0.2,2.1,0.1,4.2-0.1,6.2c-0.3,2.5-0.3,5,0.1,7.5   c1.8,0.3,3.7,0.7,5.5,1.1c-0.9,0.4-1.9,0.8-2.8,1.2c-1.4-0.3-2.8-0.5-4.2-0.8C176.2,339.1,175.1,329.7,170.8,321.6L170.8,321.6z"/>
	<path class="st31" d="M174.3,322.5c5.5-0.9,10.6-3.9,16.2-3.7c1.4-0.1,2.4,1.1,3.4,2c4.5,5,6,12.4,3.9,18.7c-7-0.2-14-0.4-21-0.3   c0.2-2.1,0.3-4.2,0.1-6.2C176.7,329.3,174.4,326.2,174.3,322.5L174.3,322.5z"/>
	<path class="st32" d="M273,318c3.4,1.7,5.1,5.9,5.8,9.5c2.2,7.1-2.7,13.8-7.2,18.9c-3.4,3-7,6.2-11.2,7.8c-0.2-2.3,1.4-3.9,2.2-5.9   c1.5-4.7,3-9.5,3.6-14.4l0.5-0.6c1.7-1.4,3.7-2.5,4.7-4.5C273,325.5,272.8,321.7,273,318L273,318z"/>
	<path class="st33" d="M147.4,328.5c6.9-1.8,13.5-4.3,20.3-6.2c0.5,1.2,1.1,2.4,1.6,3.6c3.1,6.8,3.3,14.4,2.5,21.6l-0.4-0.1   c0-3.1,0.4-6.3-0.8-9.3c-0.5-4.6-2.1-9-3.8-13.3c-5.6,1.1-10.9,3-16.2,5.3c0.8,2.6,1.6,5.3,2.3,7.9c-0.5,0-1.5,0.1-2,0.1   C150.4,334.8,149,331.6,147.4,328.5L147.4,328.5z"/>
	<path class="st34" d="M150.5,330.2c5.2-2.2,10.6-4.2,16.2-5.3c1.7,4.3,3.4,8.6,3.8,13.3c-5.9,0.5-11.8-0.3-17.7-0.1   C152.1,335.5,151.3,332.8,150.5,330.2L150.5,330.2z"/>
	<path class="st35" d="M128.2,335.8c5.3-1.7,10.4-3.9,15.6-6c2.3,2.2,3.2,5.4,3.8,8.4c-4.6-1.6-9.4-1-14.1-0.3   C131.7,337.6,129,337.9,128.2,335.8L128.2,335.8z"/>
	<path class="st36" d="M239.2,337.7c6.8,0.1,13.4-1.9,20.2-2.1c-0.9,5.4-2.6,10.7-5.8,15.2c-1.2,1.7-2.8,3.7-5.2,3.4   c-4.7-0.1-9.6,0.6-14.2-1c2.5-4.6,3.9-9.7,4.9-14.9L239.2,337.7L239.2,337.7z"/>
	<path class="st37" d="M133.5,337.9c4.7-0.7,9.5-1.3,14.1,0.3c0,1.4,0.1,2.7,0.1,4.1C143.1,340.7,138.1,339.9,133.5,337.9   L133.5,337.9z"/>
	<path class="st38" d="M152.8,338.1c5.9-0.2,11.8,0.6,17.7,0.1c1.3,2.9,0.9,6.1,0.8,9.3c-6.9-1.2-13.7-2.8-20.4-4.5   c0-1.6,0-3.2,0-4.8C151.4,338.2,152.4,338.1,152.8,338.1L152.8,338.1z"/>
	<path class="st39" d="M197.5,351.9c3.2-4.3,5.3-9.3,6.2-14.6c0.1,0.6,0.2,1.9,0.3,2.6c0.4-0.1,1.1-0.3,1.4-0.4   c9-0.2,18-0.7,27.1-0.9l1.3,0.1c-0.7,5.8-2.6,12.1-6.9,16.1C217,354.2,207.2,353.1,197.5,351.9L197.5,351.9z"/>
	<path class="st40" d="M176.8,339.2c7-0.1,14,0.1,21,0.3c-0.5,3.8-2,7.9-5.4,10.1c-3.2-0.3-6.4-1.2-9.5-0.1   c-1.1-0.1-2.3-0.3-3.4-0.5c0.9-0.4,1.9-0.8,2.8-1.2c-1.8-0.4-3.6-0.7-5.5-1.1C176.5,344.2,176.5,341.6,176.8,339.2L176.8,339.2z"/>
	<path class="st41" d="M346.2,342.5c6.6-2.7,14.4,4.3,12.9,11.1c-1.3,6.2-9.8,8.9-14.6,5.1C339,354.8,340,345.1,346.2,342.5    M346.2,346c-2.6,2.4-2.9,7-0.4,9.6c2.9,2.8,8.6,1.8,10.2-2C357.8,348.4,350.9,342.8,346.2,346L346.2,346z"/>
	<path class="st42" d="M172.2,350.8c3.2,0.8,6.5,1.4,9.8,1.9c4.7,1,9.5,1.4,14.3,2.2c-0.5,0.2-1.4,0.6-1.9,0.8   c1.6,0.9,3.3,1.8,4.9,2.7c-0.8,0.9-1.7,1.7-2.5,2.6c0,0.4-0.1,1.2-0.1,1.6c-1.6,3.4-1.2,7.9,1.9,10.3c1.8,1.8,4.6,1.6,6.9,0.9   c0.5,0.1,1.6,0.3,2.1,0.4c1.8-1.6,4.1-3.3,3.8-6c0.8-3.6-1.9-6.3-3.7-9.1c3.6,0.3,7,2,10.6,2.3c4.4,0.4,8.3,2.3,12.2,4   c3.4,1.5,5.6,4.7,8.8,6.4c4.5,2.5,9.2,5.1,12.8,9c1.5,2,0.1,4.4-0.5,6.5c-1.2,3.8,0.2,7.7,2.1,11c-2.2-1.9-4.7-3.7-7.6-4.4   c-4.4-1.1-8.4-3.6-13-4c-3.7,3-7.4,6.5-12.5,6.7c-3.8-0.8-8.3-1.9-10.2-5.7c-1.7-3.8-0.9-8.2,0.6-11.9c-0.9-0.8-1.7-1.8-2.7-2.4   c-2.9-0.4-6,1.1-8.7-0.4c-2.4-1.3-4.5-3.4-5.7-5.8c-1.2-3.5,0.3-7.3,0-10.9c-1.4-3-5.1-3.3-8-3.7c-3.6-0.3-7-1.7-10.6-2.1   c0.6,3,1.2,5.9,2.2,8.8c-0.4,0.6-1.1,1.9-1.4,2.5C174.5,360.3,173.2,355.6,172.2,350.8 M217.8,379.2c-4.4,0.9-7.9,5.9-5.7,10.3   c3.2,7,15.4,6.3,17.1-1.4C230.5,381.9,223.2,377.4,217.8,379.2L217.8,379.2z"/>
	<path class="st43" d="M455.7,360c1.1-0.3,2.2-0.5,3.2-0.8l-0.5,0.7c-1.5,1.7-1.2,3.9-1.4,5.9c-1.7,3.2-4.6,5.7-6.2,8.9   c-0.3,2.6,0.7,5.1,1,7.6c1.4,9.1,0.9,18.3,1.3,27.4c1.6,11.1,5.8,21.6,8.5,32.5c0.9-0.8,1.8-1.7,2.7-2.5c-0.6,3.3-2.8,5.8-5.3,7.9   c-0.1-0.5-0.2-1.5-0.3-2c-1.5-10.6-6.1-20.4-7.7-31c-1.8-12.2-0.5-24.7-3.2-36.8c-0.3-1.3-0.7-2.5-1.1-3.7   C450,369.8,454.1,365.5,455.7,360L455.7,360z"/>
	<path class="st44" d="M196.7,362.6c3.6-3.1,9.6-1.6,11.8,2.4c1.6,3.2-0.1,7-3,8.8c-2.3,0.8-5.1,1-6.9-0.9   C195.5,370.5,195.1,366,196.7,362.6 M200.8,370.7c2.6,2.2,7.1-2.2,4.6-4.7c-1.4-1.9-3.9-2-6-1.9   C198.5,366.3,198.8,369.2,200.8,370.7L200.8,370.7z"/>
	<path class="st45" d="M457,365.9c0.2-2.1-0.1-4.3,1.4-5.9c2.9,6.5,6.9,12.7,7.5,19.9c0.2,8.8-3.6,17-7.7,24.5   c0.4,5.4,1.7,11.5,6,15.1c3.9,4,6,10.1,4.7,15.7c-0.9,4.3-3,8.3-5.9,11.6c-0.9,0.6-1.8,1.3-2.7,1.8c-0.5,0.3-1.4,0.7-1.8,1   c0.1-0.5,0.3-1.5,0.4-2c2.6-2.1,4.7-4.6,5.3-7.9c-0.9,0.8-1.8,1.7-2.7,2.5c-2.6-10.9-6.9-21.4-8.5-32.5c-0.4-9.1,0.1-18.3-1.3-27.4   c-0.3-2.5-1.3-5-1-7.6C452.5,371.5,455.3,369.1,457,365.9 M458.8,367.2c1.4,4.5,4.3,8.7,4,13.6c0.3,8-3.8,15.1-7.1,22.1   c-0.7,4.9,0.9,9.8,2.7,14.4c1.1,3.4,4.8,4.9,6.2,8.2c1.5,2.6,1.6,5.7,1.8,8.6c0-3.4,0.7-7.1-1.3-10.1c-1.2-2.3-3.3-4-5.4-5.4   c-1.3-4.1-2.3-8.2-3.2-12.4c-0.5-1.6,0.6-3.1,1.2-4.5c2.9-5.7,4.9-11.8,5.8-18.1C463.7,377.9,463.5,371.2,458.8,367.2L458.8,367.2z   "/>
	<path class="st46" d="M177.5,362.5c2.1,3.5,2.6,7.7,4.8,11.2c4,8.3,8.5,16.5,14.4,23.6c2,2.5,4.4,5,7.6,5.8c2.4,0.6,4.9,1,7.2,2   c3.4,1.6,7.4,1.2,10.8,2.7c2.3,1,4.7,1.2,7.2,1.3c3.8,0,7,2.2,10.8,2.5c4.4,0.3,8.7,0.7,12.9,2.3c-1.5,0.4-2.9,0.9-4.3,1.3   c-2.6-0.3-5.3-0.8-7.9-1.3c-12.1-2.1-24.1-4.7-35.9-8.2c-1.6-0.4-3.2-0.9-4.7-1.4c-7-5.8-11.5-13.9-16.2-21.5   c-3.1-5.8-5.8-11.7-8-17.9C176.4,364.3,177.2,363.1,177.5,362.5L177.5,362.5z"/>
	<path class="st47" d="M314.7,363.3c9.1-2.7,18,8.7,13.6,17c-3.9,7.9-16.3,8.9-21.5,1.8C302.5,375.3,307.2,365.6,314.7,363.3    M313.8,367c-3.9,2.5-6.7,7.5-5.1,12.1c3.2,6.6,14.6,5.8,17.2-1C328.3,371.5,320.5,363.3,313.8,367L313.8,367z"/>
	<path class="st48" d="M200.8,370.7c-2-1.5-2.3-4.4-1.4-6.6c2.1-0.1,4.6-0.1,6,1.9C207.9,368.5,203.4,372.9,200.8,370.7L200.8,370.7   z"/>
	<path class="st49" d="M313.8,367c6.7-3.7,14.5,4.4,12,11.1c-2.6,6.8-13.9,7.6-17.2,1C307.1,374.5,309.9,369.5,313.8,367L313.8,367z   "/>
	<path class="st50" d="M458.8,367.2c4.7,4,4.9,10.6,4.7,16.3c-0.9,6.3-3,12.4-5.8,18.1c-0.6,1.4-1.7,2.9-1.2,4.5   c0.9,4.2,1.9,8.3,3.2,12.4c2.1,1.4,4.2,3.1,5.4,5.4c2,3,1.3,6.8,1.3,10.1c-0.2-2.9-0.4-5.9-1.8-8.6c-1.4-3.2-5.1-4.8-6.2-8.2   c-1.8-4.5-3.4-9.5-2.7-14.4c3.3-7,7.3-14.1,7.1-22.1C463.1,376,460.2,371.8,458.8,367.2 M429.6,460.4c0.7-1.1,1.3-2.3,2-3.4   c0.6,0.9,1.2,1.8,1.8,2.7c0.7,1,1.4,1.9,2.1,2.8c-16.3,7.9-33.3,14.5-50.7,19.5c0.3-0.3,0.9-1,1.2-1.3c-0.2-0.8-0.3-1.6-0.5-2.3   c-0.5-2.9-0.6-5.9-0.9-8.8c0.9-0.4,1.8-0.7,2.7-1.1c0.2,1.9,0.4,3.8,0.8,5.7c0.3,0.9,0.6,1.9,0.9,2.9c5.2-1.3,10-3.6,14.9-5.5   c7.6-2.9,15.2-5.7,22.7-8.8C427.8,462.2,429,461.6,429.6,460.4L429.6,460.4z"/>
	<path class="st51" d="M416.4,397.1c11.4-5.6,22-13.1,30.2-22.8c0.4,1.2,0.8,2.5,1.1,3.7c-8.6,9.7-19.7,16.9-31.1,22.8   C416.5,399.5,416.5,398.3,416.4,397.1 M363.8,414.1c2.9,0,6.1-1.2,8.7,0.4c0,0.3-0.1,0.9-0.1,1.3c-13.4,2.9-27,4.7-40.7,5.6   c-0.1-0.9-0.7-2.6,0.8-2.6c3.6-0.7,7.5-0.4,11-1.7C350.3,416.3,357,415.1,363.8,414.1L363.8,414.1z"/>
	<path class="st52" d="M165.8,379.6c3.3-2.7,7.8-2.6,11.8-3.8c3,1.7,3.5,5.5,6.5,7.1c4.7,7.6,9.3,15.7,16.2,21.5   c-1.6,0.2-3.3,0.4-4.9,0.5c-2.7-0.8-5.6-1.1-8.4-0.9c-2.1,0.5-3.1,2.5-3.9,4.3c-2.2,6-2.1,12.5-4.3,18.5c-3,8.3-8.1,15.8-10.1,24.5   c-0.3,1.2-0.6,2.3-0.9,3.5c-4.9-3.5-9.5-7.3-14-11.1c-1.6-1.4-3.1-2.9-4.7-4.4c-0.8-0.7-1.5-1.3-2.3-2c-1.9-5.8-2.9-12-1.7-17.9   c0.8-3.6,4.8-3.8,7.5-5.3c4.4-2.3,8.6-5.5,11-9.9c-0.7-4.2-2.3-8.2-2.5-12.6C160.9,387.3,162.1,382.2,165.8,379.6 M165.1,386.1   c-1.9,6.4,1.1,12.8,2.3,19.1c-4.5,6.5-11.2,11.3-18.5,14.2c-1.9,2.8-0.9,6.9-0.6,10.2c0.4,2.7,1.1,5.6,3.2,7.5   c4.5,4.2,9.3,8.1,14.1,11.9c0.5-0.8,0.9-1.6,1.3-2.5c3-9.6,9.4-17.9,10.8-28.1c1.1-5.7,1.4-12.4,6.1-16.4c2.1-2,5.2-1.1,7.8-1.4   c-5.4-6.6-9.8-13.9-14.3-21C172.6,379.9,166.6,381,165.1,386.1L165.1,386.1z"/>
	<path class="st53" d="M416.6,400.8c11.4-6,22.5-13.2,31.1-22.8c2.7,12.1,1.4,24.6,3.2,36.8c1.7,10.5,6.2,20.4,7.7,31   c-6.4,4.1-13.1,7.7-19.8,11.1c-0.1-0.4-0.2-1.3-0.2-1.8c5.3-3.4,10.9-6.1,16.2-9.5c2-0.9,1.7-3.3,1.3-5.1c-2-7.1-4.7-14-5.9-21.3   c-2.5-9.5-1.9-19.4-2-29.2c0.1-2.6-0.8-5-2.1-7.1c-7.9,7.7-17.2,13.8-26.8,19c-1.1,3,0.2,6.4-1.4,9.3   C417.4,407.7,416.9,404.2,416.6,400.8L416.6,400.8z"/>
	<path class="st54" d="M165.1,386.1c1.5-5.1,7.5-6.3,12.1-6.5c4.5,7.2,8.9,14.4,14.3,21c-2.6,0.3-5.7-0.7-7.8,1.4   c-4.7,4-5.1,10.7-6.1,16.4c-1.3,10.1-7.8,18.5-10.8,28.1c-0.3,0.9-0.7,1.7-1.3,2.5c-4.8-3.8-9.6-7.7-14.1-11.9   c-2.2-1.9-2.8-4.8-3.2-7.5c-0.2-3.3-1.2-7.4,0.6-10.2c7.4-2.9,14-7.7,18.5-14.2C166.2,399,163.2,392.6,165.1,386.1L165.1,386.1z"/>
	<path class="st55" d="M419.2,401.8c9.6-5.3,18.9-11.3,26.8-19c1.3,2.1,2.2,4.6,2.1,7.1c0,9.7-0.6,19.7,2,29.2   c1.2,7.3,3.9,14.2,5.9,21.3c0.5,1.7,0.7,4.2-1.3,5.1c-5.3,3.3-10.9,6.1-16.2,9.5c0.1,0.5,0.2,1.3,0.2,1.8c-1.8,1-3.6,2-5.4,2.9   c-0.6-0.9-1.2-1.8-1.8-2.7c-2.6-4.5-5.7-8.7-7.4-13.7c-2.6-7.3-4.3-14.9-5.3-22.6l0-0.2c0.9-0.8,1.8-1.5,2.7-2.3   c2-2.1,3.2-4.7,3.8-7.5c-2.1,0.4-4.3,0.8-6.4,1.4l-1.3,0.3c0-0.3,0.1-0.8,0.1-1.1C419.4,408.2,418.2,404.8,419.2,401.8L419.2,401.8   z"/>
	<path class="st56" d="M363.8,414.1c18.1-3.7,36-8.8,52.6-17c0.1,1.2,0.1,2.5,0.2,3.7c0.3,3.4,0.8,6.9,1.2,10.3   c0,0.3-0.1,0.8-0.1,1.1c-1.1,0.4-2.1,0.7-3.2,1c-0.3-3.6-0.7-7.3-1-10.9c-12.3,4.8-24.6,9.7-37.5,12.4c0.1,2.2,0.4,4.4,0.7,6.6   c-0.7,0.1-2.2,0.4-2.9,0.5c-0.6-2-1.2-4.1-1.5-6.1c0-0.3,0.1-0.9,0.1-1.3C369.9,412.9,366.7,414.1,363.8,414.1L363.8,414.1z"/>
	<path class="st57" d="M376,414.8c12.9-2.7,25.3-7.6,37.5-12.4c0.4,3.6,0.7,7.3,1,10.9c-12.5,2.9-25,5.7-37.6,8l-0.2,0   C376.3,419.2,376.1,417,376,414.8 M411.1,424.4c1.8-0.6,3.5-1.6,5-2.7c0.4,7.8,2.9,15.3,5.2,22.6c1.6,5.4,5.2,9.8,7.7,14.8   c-13.7,4.8-27.3,9.8-40.9,14.9c-0.4-1.9-0.6-3.8-0.8-5.7c4.9-2.4,10.4-3.8,14.9-7c-5,0.2-10,1-15,1.4l-0.3,0   c0-4.8-0.8-9.5-1.2-14.2c-0.3-4.9-3.3-9-4-13.7C391.6,431.6,401.4,428.1,411.1,424.4L411.1,424.4z"/>
	<path class="st58" d="M183.1,408.3c0.8-1.8,1.9-3.8,3.9-4.3c2.8-0.2,5.7,0.1,8.4,0.9c2.3,2.5,5.7,3.2,8.8,4.2   c-1.7,6.1-2.3,12.6-1.2,18.9c1.3,7.7,5,14.7,6.7,22.3c1.4,7.2-0.2,14.6-0.7,21.9c0,0.3-0.1,0.9-0.1,1.3c-3.7-2.2-7.9-3.4-11.8-5.2   c-10-4.6-19.4-10.5-28.5-16.9c2-8.7,7.1-16.2,10.1-24.5C181,420.8,181,414.3,183.1,408.3 M187.3,406.4c-0.8,0.5-1.4,1.1-1.8,1.8   c-1.8,4.2-3.1,8.7-3.2,13.3c-1.9,9.6-7.8,17.8-10.8,27.1c-0.7,2.1,1.7,3.1,3,4.2c9.4,6.3,19.4,11.7,29.7,16.3   c0.9,0.5,3.3,0.9,3.1-0.8c-0.1-4.2,1.5-8.3,1.2-12.6c-0.8-8-4-15.5-6.5-23.1c-1.4-6.3-1.7-12.8-0.7-19.2c0.9-3.1-2.8-3.8-4.7-5.2   C194,406.2,190.5,405.4,187.3,406.4L187.3,406.4z"/>
	<path class="st59" d="M195.4,404.9c1.7-0.1,3.3-0.3,4.9-0.5c1.6,0.4,3.2,0.9,4.7,1.4c-0.3,1.1-0.6,2.2-0.9,3.2   C201.1,408.1,197.7,407.3,195.4,404.9L195.4,404.9z"/>
	<path class="st60" d="M187.3,406.4c3.2-1,6.7-0.2,9.3,1.8c1.8,1.4,5.6,2.1,4.7,5.2c-1,6.4-0.7,12.9,0.7,19.2   c2.5,7.6,5.7,15.1,6.5,23.1c0.4,4.3-1.2,8.3-1.2,12.6c0.2,1.8-2.2,1.3-3.1,0.8c-10.3-4.6-20.3-10-29.7-16.3c-1.3-1.1-3.7-2.1-3-4.2   c2.9-9.3,8.8-17.5,10.8-27.1c0.1-4.6,1.4-9.1,3.2-13.3C185.9,407.5,186.5,406.9,187.3,406.4L187.3,406.4z"/>
	<path class="st61" d="M205.1,405.8c11.8,3.4,23.8,6.1,35.9,8.2c0,1.1,0,2.3,0,3.4c1.5,16.7,10.8,31.7,12.3,48.4   c0.4,4.6,0,9.2-0.5,13.8c-1.1,0.1-2.1,0.3-3.2,0.4c0.2-3.2,0.7-6.5,0.9-9.7c-0.4-18.6-11.3-34.9-12.7-53.4   c-6.4-1.5-12.9-2.5-19.3-4.1c-3.8-0.9-7.5-2.2-11.4-2.4c-1.1,5.9-1.6,12.1-0.5,18.1c1.5,7.2,4.9,13.9,6.5,21.1   c1.5,7.5,0.2,15.2-0.8,22.7c-0.7,0-2.2-0.1-2.9-0.1c0.5-7.3,2.1-14.6,0.7-21.9c-1.7-7.6-5.4-14.6-6.7-22.3   c-1.2-6.3-0.6-12.8,1.2-18.9C204.5,407.9,204.8,406.9,205.1,405.8L205.1,405.8z"/>
	<path class="st62" d="M534.3,406l1.2,0.4c3.8,9,4.4,18.9,5.1,28.6c1-0.2,2.1-0.3,3-0.9c9.7-5.9,18.7-12.9,28-19.6   c-0.7,3.6-2.1,7-4.1,10.1c-5.2,8-11.8,14.9-18.3,21.8c7.9-0.2,15.5-3.2,23.4-3.4c2.5,0.2,5.1,0.3,7.2,1.7   c-13.6,8.6-28.1,15.8-43.4,21c-3.3,1.3-6.9,1.8-9.9,3.7c-3.2,2.2-6.5,4.3-10,6.1c-3,1.3-4.6,4.3-7.1,6.3c0.4-2.1,1.6-3.9,3-5.4   c-0.1-0.5-0.2-1.4-0.3-1.9c4.7-2.9,9.6-5.6,14.3-8.7c7.1-2.7,14.5-4.6,21.3-8c0.4-0.2,1.2-0.5,1.6-0.7c7-3.3,14.3-6,20.6-10.5   c-4.3,0.3-8.4,1.6-12.7,2.3c-4.7,0.9-9.5,0.8-14.3,0.5c-0.1-0.3-0.4-0.9-0.5-1.2c4.5-3.8,8.4-8.4,12.4-12.7c2.8-3.4,6-6.4,8.1-10.2   c-7.9,5.2-15.5,11.1-24,15.4c-0.3,0-0.9,0.1-1.3,0.2c-0.3-8.3-1.1-16.6-2.6-24.8c-0.6,1.2-1.2,2.4-1.6,3.6   c-3.3,10.4-7.4,20.7-13.4,29.9c-9-6.4-11.9-17.8-14.5-27.9c-2.1,3.2-2.1,7.1-2.1,10.8c0.4,9.2,3,18.2,5.4,27.1   c-3.3,3.6-6.5,7.2-9.8,10.7c-6.3,6.5-12.8,13-19.9,18.6c-5.4,3.3-4.4,14,2.4,15c1.8,0.5,3.6,0.9,5.4,1.3c-3.8,1.8-9.2,2.5-12-1.3   c-3-4.3-3.2-10.1-1-14.8c3.5-3.4,7.6-6.3,11.2-9.7c-0.1-0.2-0.3-0.6-0.4-0.9c-0.3-6.8-7.6-10.5-9-17c4.4,4.5,7.8,9.8,11.3,14.9   c0.3,0,0.9,0,1.3,0c5.5-5.4,10.8-11,15.9-16.8c0.9-0.9,0.5-2.2,0.3-3.2c-2.4-8.7-4.5-17.6-4.4-26.7c0.5-5.3,2.1-12,7.5-14.3   c2.2,9.9,4.2,20.6,11,28.5c0.3,0,0.9-0.1,1.2-0.2C526.3,431.9,530.2,418.8,534.3,406 M249.4,480c1.1-0.1,2.1-0.3,3.2-0.4l-0.1,0.7   c0,0.3-0.1,0.9-0.1,1.3c-0.1,1.6-0.2,3.1-0.3,4.7c0.5,2.8,3.7,2.8,5.9,3.3c11.7,1.5,23.5,4.1,35.3,3.3c0-0.5,0.1-1.3,0.1-1.8   c-2.2-0.4-4.4-0.6-6.6-0.7c2.4,0.1,4.9,0.1,7.3,0c0.5-2.3,1-4.5,1.5-6.8c0-0.2,0.1-0.6,0.2-0.8c1,0.3,2.1,0.6,3.1,0.9   c-0.6,2.2-1,4.4-1.2,6.7c12.7,0.5,25.6,0.4,38.1-1.9c0.1-2.4,0.2-4.9,0.1-7.3c1-0.2,2-0.5,3.1-0.7l0,0.4c0,2.5,0,4.9,0.2,7.4   c0.1,0.6,0.4,1.8,0.6,2.4c0.3,0.2,1,0.5,1.4,0.6c-10.1,1.6-20.4,2.4-30.6,2.5c-10.5,0.8-21-0.1-31.5-0.7c-9.4-0.5-18.7-2.1-28-3.5   c0.4-0.3,1.1-1,1.4-1.3c-6-2.1-12.4-2.8-18.3-5.1c5-0.1,9.6,2.2,14.6,2.3C249.1,483.5,249.3,481.7,249.4,480L249.4,480z"/>
	<path class="st63" d="M206.9,410.3c3.9,0.2,7.6,1.5,11.4,2.4c6.4,1.6,12.9,2.7,19.3,4.1c1.4,18.4,12.3,34.8,12.7,53.4   c-0.1,3.2-0.7,6.5-0.9,9.7c-12.6-2-25-4.6-37.5-7.1l0-0.6c1-7.5,2.3-15.2,0.8-22.7c-1.6-7.2-5-13.9-6.5-21.1   C205.2,422.4,205.8,416.3,206.9,410.3L206.9,410.3z"/>
	<path class="st64" d="M419.1,412c2.1-0.5,4.2-1,6.4-1.4c-0.6,2.8-1.8,5.5-3.8,7.5C420.9,416,420.8,413.5,419.1,412L419.1,412z"/>
	<path class="st65" d="M414.6,413.3c1.1-0.3,2.1-0.7,3.2-1c0.4,2.7,0.8,5.5,1.1,8.2l0,0.2c-0.9,0.4-1.8,0.7-2.7,1.1   C415.5,418.9,415,416.1,414.6,413.3L414.6,413.3z"/>
	<path class="st66" d="M417.8,412.2l1.3-0.3c1.8,1.5,1.8,4.1,2.5,6.2c-0.9,0.8-1.8,1.5-2.7,2.3C418.5,417.7,418.2,415,417.8,412.2   L417.8,412.2z"/>
	<path class="st67" d="M376.9,421.3c12.6-2.3,25.2-5.1,37.6-8c0.4,2.8,1,5.6,1.6,8.4c-1.5,1.1-3.2,2.1-5,2.7   c-9.8,3.7-19.6,7.2-29.5,10.4L381,435C379.8,430.4,378.3,425.9,376.9,421.3L376.9,421.3z"/>
	<path class="st68" d="M240.9,413.9c2.6,0.5,5.2,1,7.9,1.3c5.1,0.9,10.3,1.4,15.4,1.9l0.9,0.7c-2-0.1-3.9-0.1-5.9-0.1   c-0.3,0.5-1,1.5-1.3,2c-0.4,0-1.1-0.1-1.4-0.1c-5.2-0.5-10.4-1.3-15.5-2.2C240.9,416.2,240.9,415.1,240.9,413.9L240.9,413.9z"/>
	<path class="st69" d="M248.8,415.2c1.5-0.4,2.9-0.9,4.3-1.3c8.2,0.7,16.5,1,24.6,2.6c8.3,1,16.8-0.1,25.2,0.7   c-1.8,0.4-3.5,1-5.2,1.5c-11.2,0.4-22.4-0.5-33.5-1.6C259.1,416.6,253.9,416.1,248.8,415.2 M335.6,662.2c1.8-1.6,3.7-3.1,5.7-4.5   c0.8,2.5,1.6,5,2.4,7.5c-0.4,0.9-0.8,1.9-1.2,2.8c-0.8-1.7-1.6-3.5-2.4-5.3c-1.3,0.1-2.6,0.2-3.9,0.2L335.6,662.2 M88.4,670.4   c2.9-4.1,8.3-5.2,13-5.1c1,2,1.9,4,3,6c-0.5,0.6-0.9,1.1-1.4,1.7c-1.5-1.9-2.3-5.5-5.4-5c-5.1-0.1-8.5,4.5-9.7,8.9   c-0.8,3.7,0,7.6-0.6,11.3c-1.6,3.7-6.3,3.7-8.6,6.7c-1.4,1.8-2.5,3.8-3.8,5.7c-0.3-0.5-0.9-1.5-1.2-2c1.6-5.5,6.8-8.7,12-10.3   C85.2,682.3,84.6,675.5,88.4,670.4L88.4,670.4z"/>
	<path class="st70" d="M331.6,421.4c13.7-0.9,27.3-2.8,40.7-5.6c0.3,2.1,0.9,4.1,1.5,6.1c-0.2-0.1-0.6-0.3-0.8-0.3   c-1.1-1.1-1.7-3.3-3.6-3.2c-5.9-0.4-11.2,3-17.1,2.7c-5.2-0.3-10.3,1.3-15.4,2c-1.5,0-2.5,1.2-3.5,2.1c1.4,0.8,2.9,1.1,4.5,1.2   c-1,0.1-2,0.2-2.9,0.4c-0.5,0-1.4,0.1-1.9,0.1l-0.1,0C332.5,425.1,332.1,423.2,331.6,421.4L331.6,421.4z"/>
	<path class="st71" d="M533.3,419.5c0.4-1.3,1-2.5,1.6-3.6c1.5,8.2,2.2,16.5,2.6,24.8c-0.4,0-1.2,0.1-1.6,0.1   c-0.9-4.3-1.2-8.8-1.7-13.2c-0.8,0.6-1.8,1.1-2.1,2.1c-2.9,6.4-5.1,13.1-9.2,18.9c-1.9,2.7-6.2,1.9-8-0.5c-4.8-3.9-6-10.2-9.2-15.1   c-1.3,5.4,2.4,10.1,2.4,15.5c0.3,4.4,3.4,8.7,1.3,13c-2,3.2-5.1,5.6-7.6,8.4c-0.8,0-2.3,0.1-3,0.1c3.4-3.5,6.6-7.1,9.8-10.7   c-2.5-8.9-5.1-17.8-5.4-27.1c0-3.7,0-7.6,2.1-10.8c2.6,10.1,5.5,21.5,14.5,27.9C525.9,440.2,530,429.9,533.3,419.5L533.3,419.5z"/>
	<path class="st72" d="M264.2,417.1c11.1,1.1,22.3,2,33.5,1.6c15.2,0.7,30.5-0.2,45.7-1.7c-3.5,1.4-7.3,1-11,1.7   c-1.5,0-1,1.7-0.8,2.6c0.4,1.8,0.9,3.7,1.3,5.5c-0.8,0-2.5,0-3.3,0c-0.4-1.9-0.8-3.7-1.2-5.6l-0.1-0.5c-11-0.1-22,0.7-32.9-0.7   c-10.1,0.1-20.2-1.4-30.2-2.4L264.2,417.1L264.2,417.1z"/>
	<path class="st73" d="M66.3,417.8c4.6,3,8.7,6.8,11.8,11.4c5.6,8.4,8.7,18,12,27.4c0.7,2.5,3,3.9,5.2,5c6.9,3.5,14.4,5.2,21.4,8.4   c-1.8,0.6-3.7,1-5.6,1.1c-3.8-1.4-7.7-2.6-11.6-4c-4.4-2-9.9-3.7-12.1-8.4c-4.1-10.8-7.1-22.8-15.1-31.5c1.5,7,3.7,14,4.6,21.2   c0,0.6-0.1,1.8-0.1,2.4c-0.4-0.1-1.1-0.4-1.4-0.5c-8.8-4.4-17.3-9.5-26.1-13.9c-4.2-1.9-8.4-4.2-13.1-4.8   c10.5,9.6,23.9,15.3,34.5,24.7c-11.9,2.5-24.1,3.9-36.3,2.5c4.8,3.9,10.9,6.6,17.1,6.2c5.6,0.3,11.1-1.5,16.6-0.9   c-2.8,2.7-5.4,5.5-8.5,7.9c-2.8,2.1-6.2,3.4-8.9,5.7c5-0.7,9.9-2.4,14.3-4.9c1.4-0.8,2.8-1.6,4.5-1.4c4.2,0,8.3-0.7,12.5-1.3   c1.3,0.1,2.9-0.2,3.9,0.9c4,3.5,8,6.8,12.4,9.8c2.3,1.5,4.5,3.2,6.7,4.8c-0.2,0.7-0.6,2-0.9,2.6c-5.4-2.6-10.1-6.4-14.8-10   c-2.1-1.5-3.7-3.7-6.2-4.7c-4.3,0.1-8.4,1.2-12.7,1.1c-2-0.2-3.7,1.2-5.4,2c-5.9,3.1-12.5,4.5-19.1,5.3c-2.1,0.2-4.2,1-6.3,0.4   c-0.1-0.7-0.2-2.2-0.3-3c7-3.3,14.1-6.5,20.2-11.3c-5.8,0.2-11.8,1-17.3-1c-5.9-2.1-10.9-6.1-15.7-10c0.4-0.7,1.1-2.1,1.4-2.8   c11.2,3,23.1,2.5,34.4,0.2c-1.8-2.1-4.3-3.3-6.6-4.9c-9.9-6.3-20.5-12.3-27.8-21.8c5.2-0.3,10.5,0.7,15.3,2.6   c7.8,3,15,7.2,22.3,11.2c2.3,1.2,4.6,2.8,7.2,3.4C71.4,435.8,68.5,426.9,66.3,417.8L66.3,417.8z"/>
	<path class="st74" d="M240.9,417.4c5.2,0.9,10.3,1.7,15.5,2.2c-1.5,0.8-3,1.6-4.6,1.9c-3-0.6-5.9-1.6-9-1c2.7,12.9,8.3,25,11,37.8   c2,7.2,1.2,14.8,1,22.2c-0.6-0.1-1.8-0.2-2.4-0.3l0.1-0.7c0.6-4.6,0.9-9.2,0.5-13.8C251.7,449,242.4,434.1,240.9,417.4L240.9,417.4   z"/>
	<path class="st75" d="M257.9,419.6c0.3-0.5,1-1.5,1.3-2c2,0.1,3.9,0.1,5.9,0.1c10.1,0.9,20.1,2.4,30.2,2.4   c10.9,1.3,22,0.5,32.9,0.7l0.1,0.5c-2.9-0.1-5.7,0-8.5,0.2c-6.7-0.4-13.4,0-20.1-0.3c-4.6,0-9.3-0.6-13.9,0.3   C276.6,421.8,267.2,420.6,257.9,419.6L257.9,419.6z"/>
	<path class="st76" d="M352.2,421.1c5.9,0.3,11.2-3.2,17.1-2.7c1.9-0.1,2.5,2.1,3.6,3.2l-1.4,0.4c-11.1,2.3-22.5,3.1-33.7,4.5   c-1.6,0-3.1-0.4-4.5-1.2c1-1,1.9-2.2,3.5-2.1C342,422.4,347,420.8,352.2,421.1L352.2,421.1z"/>
	<path class="st77" d="M256.5,419.5c0.4,0,1.1,0.1,1.4,0.1c9.3,0.9,18.7,2.2,28.1,2c1,1.8,1.9,3.7,2.8,5.6   c-12.7-0.2-25.3-2-37.8-4.2c0.2-0.4,0.7-1.2,0.9-1.6C253.5,421.1,255,420.3,256.5,419.5L256.5,419.5z"/>
	<path class="st78" d="M242.9,420.5c3-0.6,6,0.3,9,1c-0.2,0.4-0.7,1.2-0.9,1.6c12.5,2.3,25.1,4,37.8,4.2c0.1,0,0.3,0,0.4,0   c-0.6,0.2-1.8,0.5-2.4,0.6c3.5,5.1,4.6,11.3,6.4,17.1c0.6,4.2,1.1,8.3,2,12.5c0.9,8.6,1,17.4-1.9,25.7c-12.9-0.4-25.7-1.1-38.5-2.7   c0.2-7.4,1-15-1-22.2C251.2,445.4,245.6,433.4,242.9,420.5L242.9,420.5z"/>
	<path class="st79" d="M416.1,421.7c0.9-0.4,1.8-0.7,2.7-1.1c1,7.7,2.7,15.3,5.3,22.6c1.7,5,4.8,9.2,7.4,13.7   c-0.7,1.1-1.3,2.3-2,3.4c-0.1-0.3-0.4-0.9-0.6-1.2c-2.5-5-6.1-9.4-7.7-14.8C419,437,416.5,429.5,416.1,421.7L416.1,421.7z"/>
	<path class="st80" d="M286,421.6c4.6-0.9,9.3-0.3,13.9-0.3c6.7,0.2,13.4-0.2,20.1,0.3c-9.7,1.1-19.6,0.2-29.3,0.6   c-0.2,2,1.5,3.7,2.2,5.6c-1.2-0.1-2.4-0.3-3.5-0.4c-0.1,0-0.3,0-0.4,0C287.9,425.3,287,423.4,286,421.6L286,421.6z"/>
	<path class="st81" d="M319.9,421.5c2.8-0.3,5.7-0.3,8.5-0.2c0.4,1.8,0.8,3.7,1.2,5.6c-12.3,1.1-24.6,0.8-36.9,0.8   c-0.7-1.8-2.4-3.5-2.2-5.6C300.3,421.7,310.2,422.7,319.9,421.5L319.9,421.5z"/>
	<path class="st82" d="M373,421.6c0.2,0.1,0.6,0.3,0.8,0.3c1.4,4.7,2.9,9.5,4.4,14.2c-0.6-0.1-1.8-0.3-2.4-0.4   c-1.4-4.6-2.8-9.2-4.2-13.8L373,421.6L373,421.6z"/>
	<path class="st83" d="M373.8,421.9c0.7-0.1,2.2-0.4,2.9-0.5l0.2,0c1.4,4.6,2.8,9.1,4.1,13.7c-0.9,0.3-1.8,0.6-2.7,1l-0.1,0   C376.7,431.3,375.2,426.6,373.8,421.9L373.8,421.9z"/>
	<path class="st84" d="M337.8,426.4c11.3-1.3,22.6-2.2,33.7-4.5c1.4,4.6,2.8,9.2,4.2,13.8c0.6,0.1,1.8,0.3,2.4,0.4   c-13,4.5-26.5,8.3-38.3,15.5c-2.7-8-2.8-16.6-4.9-24.8C335.9,426.6,336.8,426.5,337.8,426.4 M382.9,627c6.2-0.8,12.1-3.2,18.3-4.2   c-0.3,0.9-0.6,1.8-1,2.7c-10.2,5.5-21.8,8-33.4,8.1c-3.1,8.1-5.8,16.4-8.1,24.8c-0.9-1-2.4-1.7-2.6-3.2c-0.9-4.6-2.3-9-3.6-13.5   c-0.3,1.2-0.6,2.4-0.8,3.7c-0.3-1.2-0.6-2.3-0.9-3.5c-0.2,0-0.7-0.1-0.9-0.1c-4.3,1.4-2.8,7.2-5.6,9.9c-0.4-0.5-1.2-1.5-1.6-1.9   c2-6.7,1.7-13.8,3.1-20.7c5.4-0.5,10.7,0.8,16.1,0.2C369,628.7,376.1,629.2,382.9,627L382.9,627z"/>
	<path class="st85" d="M538.8,440.5c8.5-4.4,16.1-10.2,24-15.4c-2.1,3.8-5.3,6.9-8.1,10.2c-4,4.3-7.9,8.9-12.4,12.7   c-0.5,0.4-1.1,0.8-1.6,1.2c0.8-5.1,5.9-7.3,8.3-11.5c-3.5,1.5-6.5,4.2-10.5,4.6C538.6,441.9,538.7,440.9,538.8,440.5L538.8,440.5z"/>
	<path class="st86" d="M292.7,427.7c12.3,0,24.6,0.3,36.9-0.8c2.4,10.4,3.9,21,5.1,31.7c0.4,7.5,1,15,1.4,22.4   c-9.9,1.3-19.9,1.7-29.9,2.2c-2.3,0-4.6,0-6.8-0.1C302.1,464.5,300.2,445,292.7,427.7L292.7,427.7z"/>
	<path class="st87" d="M329.7,426.9c0.8,0,2.5,0,3.3,0l0.1,0c1.9,9,3.4,18.1,4.4,27.2c0.1,1,0.2,2,0.2,3c0.9,7.7,1.3,15.5,1.6,23.2   c-1,0.2-2,0.5-3.1,0.7c-0.4-7.5-0.9-15-1.4-22.4C333.5,447.9,332.1,437.3,329.7,426.9L329.7,426.9z"/>
	<path class="st88" d="M333,426.9c0.5,0,1.4-0.1,1.9-0.1c2.2,8.2,2.2,16.8,4.9,24.8c-0.8,0.8-1.6,1.7-2.4,2.6   C336.5,445,334.9,435.9,333,426.9L333,426.9z"/>
	<path class="st89" d="M72.3,427.3c8.1,8.7,11,20.7,15.1,31.5c2.3,4.7,7.7,6.4,12.1,8.4l-0.1,1.5c-5.7-1.1-11.9-4.1-14.1-9.9   c-2.1-5-3.3-10.5-6.1-15.2c-0.1,2.5,0.2,5.2-0.9,7.6c-0.5-0.9-1-1.8-1.5-2.7C76.1,441.2,73.8,434.3,72.3,427.3L72.3,427.3z"/>
	<path class="st90" d="M286.8,427.9c0.6-0.2,1.8-0.5,2.4-0.6c7.6,17.2,10,36.8,6.8,55.3c0,0.2-0.1,0.6-0.2,0.8l-0.9-0.1   c-0.4,0-1.1-0.1-1.5-0.2c2.8-8.3,2.7-17.1,1.9-25.7c-0.9-4.1-1.4-8.3-2-12.5C291.4,439.2,290.3,433,286.8,427.9L286.8,427.9z"/>
	<path class="st91" d="M289.2,427.3c1.2,0.1,2.4,0.2,3.5,0.4c7.5,17.4,9.3,36.8,6.7,55.4c2.3,0.1,4.6,0.1,6.8,0.1   c-2.4,0.2-4.8,0.5-7.1,0.3c-1-0.3-2.1-0.6-3.1-0.9C299.2,464.1,296.8,444.5,289.2,427.3 M416.5,520.1c0.5-6.3,3.8-12,6.6-17.5   l0.7,1c-1.8,5.3-4.1,10.6-4.8,16.2c-0.8,5.6-1.6,11.1-2.2,16.7C415.2,531.2,416.1,525.6,416.5,520.1L416.5,520.1z"/>
	<path class="st92" d="M532.1,429.8c0.4-1,1.4-1.5,2.1-2.1c0.5,4.4,0.8,8.8,1.7,13.2c0.4,0,1.2-0.1,1.6-0.1c0.3,0,0.9-0.1,1.3-0.2   c-0.1,0.5-0.2,1.4-0.3,1.8c3.9-0.4,6.9-3.1,10.5-4.6c-2.4,4.2-7.5,6.5-8.3,11.5c0.6-0.4,1.1-0.8,1.6-1.2c0.1,0.3,0.4,0.9,0.5,1.2   c0.3,0.4,0.8,1.3,1,1.7c3.4,0.6,7-0.3,10.3,1.2c-2.4,1.8-5.2,2.7-7.8,4.1c0.7,0.2,2.1,0.6,2.9,0.8c-0.4,0.2-1.2,0.5-1.6,0.7   c-4,0.5-8.1,1-12.1,1.6c-4,0.5-6.9,3.6-10.5,4.9c-7.4,2.8-15,5.4-23,5.7c2.5-2.8,5.6-5.2,7.6-8.4c2.2-4.3-1-8.7-1.3-13   c0-5.3-3.7-10.1-2.4-15.5c3.2,5,4.4,11.2,9.2,15.1c1.8,2.4,6.1,3.2,8,0.5C527,442.9,529.2,436.2,532.1,429.8L532.1,429.8z"/>
	<path class="st93" d="M36.2,431.6c4.6,0.7,8.8,2.9,13.1,4.8c8.8,4.4,17.3,9.5,26.1,13.9c0.4,0.7,0.8,1.3,1.2,2   c-5-0.6-8.8-4.2-13.5-5.4c2.3,3.6,7.3,4.9,8.5,9.3l-0.9,0.1C60.1,446.8,46.7,441.2,36.2,431.6L36.2,431.6z"/>
	<path class="st94" d="M378.3,436c0.9-0.4,1.8-0.7,2.7-1l0.7-0.2c0.6,4.8,3.7,8.9,4,13.7c0.4,4.7,1.1,9.4,1.2,14.2   c-0.8,0-2.3,0.1-3,0.2c-0.5-4.5-0.8-9.1-1.2-13.6C382.2,444.6,379.5,440.5,378.3,436L378.3,436z"/>
	<path class="st95" d="M378.1,436.1l0.1,0c1.3,4.5,3.9,8.6,4.3,13.3c0.4,4.5,0.7,9.1,1.2,13.6c-14.5,0.1-29.5,0.4-43.4-4.4   c-0.9-0.5-1.8-0.9-2.7-1.4c-0.1-1-0.2-2-0.2-3c0.8-0.9,1.6-1.7,2.4-2.6C351.7,444.4,365.2,440.6,378.1,436.1L378.1,436.1z"/>
	<path class="st96" d="M118,468.8c8.5-11.5,18.1-22.1,28.8-31.5c0.8,0.6,1.5,1.3,2.3,2c-18.5,16.7-34.3,36.5-45.4,58.8   c-0.8-0.8-1.5-1.7-2.2-2.5c0.7-2.6,3.5-4.6,2.9-7.4c0.2-0.6,0.6-1.9,0.9-2.6c0.4,0.1,1.2,0.2,1.6,0.3c2.9-4.4,5.6-8.9,8.6-13.1   c-1.4-0.5-2.8-1.1-4.2-1.5c1.9-0.2,3.8-0.6,5.6-1.1C117.2,469.8,117.7,469.3,118,468.8L118,468.8z"/>
	<path class="st97" d="M103.7,498.1c11.2-22.3,26.9-42.1,45.4-58.8c1.6,1.4,3.1,2.9,4.7,4.4c-0.5,0.2-1.4,0.5-1.9,0.7   c2.7,2.9,5.7,5.4,8.4,8.3c0.7,0.9,1.7,1.8,1.4,3.1c-1.7,5.5-5,10.4-9,14.5c-4.5,5.8-10,10.7-13.6,17.2c-5.3,9.1-10.1,18.5-13,28.7   c-2,4.3-2.1,9-2.5,13.7c0,7.3-0.2,14.7,0.9,22c2.3,8.9,5.9,17.5,10.4,25.6c4.5,6.5,8.3,13.7,14.2,19.2c3.2,4.7,8.1,7.6,11.9,11.6   c1.4,1.4,3.1,2.3,4.7,3.4c3.4,1.9,6.1,4.7,9.4,6.9c5.5,3.9,11.7,6.7,18,9.1c12.8,6,26.6,10.2,40.7,10.7c3.6,0,7.1,1.2,10.7,0.8   c6.8-1.3,13.8-0.3,20.5-2c12.6-1.4,24.4-6.6,35.8-12c4.8-2.5,9.7-4.6,14.4-7.4c4.2-2.5,8.2-5.1,12.6-7.3c1.8-1,3.9-0.2,5.8-0.5   c1.3-0.5,2.5-1.2,3.7-1.9c0.2,3.2,0.8,6.4,2.2,9.4c0.6-0.9,1.2-1.8,1.8-2.7c0,2.4-0.1,4.9-0.4,7.3c-0.7,6.9-1,13.8-2.4,20.7   c-2.5-5.5-0.5-11.9-1.2-17.8c-1.7,2.1-3.8,4-6.2,5.2c-5.1,2.7-10.4,5.1-15.4,8c-4.3,2.6-9.2,3.7-13.5,6.3   c-12.7,5.7-26.6,8.2-40.3,10.5c-8.9,0.2-17.7,2.1-26.6,1.2c-5.3,0.2-10.7-0.2-16,0.6c1,2.5,2.4,4.9,3.2,7.5   c-0.2,0.7-0.6,2.2-0.8,2.9c-0.4-0.6-0.8-1.2-1.2-1.8c-1.1-4.3-4.6-8.1-9.1-8.6c-5.6-0.9-11,3.4-12,8.9c-0.3-1.4-0.6-2.7-1-4.1   c1.5-2.3,3.1-4.4,4.6-6.7c-3.5-1.6-7.1-3-10.6-4.7c-15-7.7-30.4-15.3-43.3-26.3c-4-3.8-8.8-6.8-12.2-11.2   c-3.9-3.9-7.5-8.1-10.9-12.5c-2.5-4.7-5.8-8.8-8.2-13.6c-3.8-6.2-6.6-13-9.3-19.7c-2.9-6.3-4.5-13.2-5-20.1c-0.6-7-2.4-14-1.1-21   c0.6-3.7,0.7-7.5,1.1-11.2c1.1-5.2,3-10.2,4.7-15.3c-0.1-0.5-0.3-1.6-0.3-2.1c-2.2,3.7-3.9,7.7-6.2,11.3c-1.2,0.9-2.5,1.7-3.8,2.5   C99.6,506.4,101.5,502.2,103.7,498.1L103.7,498.1z"/>
	<path class="st98" d="M78.4,451.2c1.1-2.4,0.8-5,0.9-7.6c2.8,4.8,4,10.2,6.1,15.2c2.2,5.8,8.4,8.7,14.1,9.9c-0.2,4-0.2,8.1-1.1,12   C94,477.8,90,474.5,86,471c-1-1.1-2.6-0.8-3.9-0.9c1.3-0.5,2.5-1,3.8-1.6c-6.6,0.1-13.1,1.3-19.6,0.7c0.9-1.6,2.8-3.1,2-5.1   c-5.6-0.7-11,1.1-16.6,0.9c-6.3,0.3-12.3-2.3-17.1-6.2c12.1,1.4,24.4-0.1,36.3-2.5l0.9-0.1c-1.2-4.4-6.2-5.7-8.5-9.3   c4.7,1.3,8.6,4.8,13.5,5.4c-0.4-0.7-0.8-1.4-1.2-2c0.4,0.1,1.1,0.4,1.4,0.5c0-0.6,0.1-1.8,0.1-2.4   C77.4,449.4,77.9,450.3,78.4,451.2L78.4,451.2z"/>
	<path class="st99" d="M438.8,456.7c6.8-3.4,13.4-7,19.8-11.1c0.1,0.5,0.2,1.5,0.3,2c-6.6,4.1-14.1,6.9-19.5,12.5   c-1.3,0.8-2.6,1.6-3.9,2.3c-0.7-1-1.4-1.9-2.1-2.8C435.2,458.7,437,457.7,438.8,456.7L438.8,456.7z"/>
	<path class="st100" d="M557.1,448.7c4.2-0.7,8.4-2,12.7-2.3c-6.3,4.5-13.7,7.2-20.6,10.5c-0.7-0.2-2.1-0.6-2.9-0.8   c2.6-1.4,5.4-2.3,7.8-4.1c-3.2-1.5-6.9-0.6-10.3-1.2c-0.3-0.4-0.8-1.3-1-1.7C547.6,449.4,552.4,449.6,557.1,448.7L557.1,448.7z"/>
	<path class="st101" d="M439.4,460.2c5.5-5.6,13-8.4,19.5-12.5c-0.1,0.5-0.3,1.5-0.4,2c-3.3,2.3-7.2,3.8-10.3,6.4   c-3.2,4.4-5.6,9.2-8.5,13.8c-0.5-3,1.9-5.5,1.2-8.4c0.5-0.9,0.9-1.7,1.4-2.6C441.6,459.2,440.1,459.8,439.4,460.2 M196.5,581   c7.1-2.4,15.1,2.8,17.1,9.7c2.2,7.4-4,16.5-12.1,15.7c-6.6-0.7-13.2-5.8-14.1-12.6C187,588,191.1,582.7,196.5,581 M197.1,584.2   c-4.5,1.4-7.6,6.6-6.2,11.2c2.4,5,8.4,9.1,14.1,7.2c4.5-1.9,6.7-7.6,5-12.1C208,585.8,202.3,582.2,197.1,584.2L197.1,584.2z"/>
	<path class="st102" d="M460.3,448.7c0.9-0.6,1.8-1.2,2.7-1.8c4.2,4.8,9,9.2,12.6,14.5c1.3,6.5,8.7,10.2,9,17   C477.3,467.8,469.2,457.9,460.3,448.7L460.3,448.7z"/>
	<path class="st103" d="M458.5,449.7c0.5-0.3,1.4-0.7,1.8-1c8.8,9.2,17,19.2,24.3,29.6c0.1,0.2,0.3,0.6,0.4,0.9   c-3.6,3.4-7.6,6.3-11.2,9.7c-2.2,4.6-2,10.5,1,14.8c2.8,3.8,8.3,3.1,12,1.3c3.5-2.1,5.8-5.6,8.7-8.4c6.5,13.5,12.3,27.5,15.7,42.2   c9.6,39.7,5.3,82.7-12.2,119.7c-7.9,16.8-18.3,32.5-30.6,46.4c-1.4,1.4-2.5,3.5-4.7,3.9c-25.1,5-50.6,8.4-76,11.6   c-45.4,4.7-91,7.3-136.6,5.7c-37-1.4-74.1-5.1-110.3-13.5c-1.8-0.3-2.8-1.8-4-2.9c-7.8-8.2-14.8-17.2-21.1-26.5   c1,0.6,2.1,1.1,3.1,1.6c0.9,0.5,1.7,1,2.6,1.5c-0.1,1.6,0.6,2.9,1.6,4.1c5.1,6.5,10.1,13.2,16.2,18.9c2.5,2.5,6.4,2.1,9.6,3.1   c5.1,1.7,10.5,1.7,15.7,3.2c3.2,0.9,6.6,1.1,9.8,1.4c3.3,0.4,6.6,1.5,9.9,1.8c4.8,0.6,9.7,0.6,14.5,1.5c8.1,1.8,16.4,1.1,24.6,2.2   c8.6,1.2,17.3,1.5,25.9,1.6c24,0.8,48.1,0.4,72.2-0.3c7.6-0.2,15-1.3,22.6-1.8c8.1-0.7,16.3-0.3,24.3-1.8   c7.8-1.4,15.9-0.7,23.6-2.5c6.4-1.5,13.1-0.8,19.5-2.4c6-1.6,12.3-1,18.2-2.6c5.5-1.5,11.4-1.2,16.9-2.8c5.1-1.5,10.7-1.2,15.7-3   c2.7-1,4.6-3.4,6.5-5.5c19.3-22.6,33.9-49.6,40.7-78.7c2-6.4,2.2-13.2,3.7-19.8c1.5-15,1.7-30.3-0.3-45.2c-1.5-6-1.4-12.2-3.5-18.1   c-3.3-13.6-7.9-26.9-14.6-39.2c-2.8,2.4-5.4,5.3-8.9,6.9c-4.3,1.5-10.1,1.3-12.9-2.8c-3-5-3.6-11.7-0.5-16.8c2.7-3.5,7-5.6,9.6-9.3   c-6.4-9.2-13.4-18-21.3-26c-1.2-1.4-2.8,0-4,0.5c-3,1.8-6.5,3.1-8.4,6.1c-8.4,13.5-16.3,27.4-21.8,42.4c-2.5,6.9-5.8,13.6-6,21.1   c-0.2,4.3-1.8,8.4-2,12.6c-0.4,8.4-1,16.8-2.2,25.1c-0.4,14.8-0.3,29.6-0.4,44.4c-0.1,2.6,0.3,5.2,1.4,7.6   c4.1,10.8,9.7,21,15.1,31.2c0.8,1.8,2.3,3.9,1,5.8c-1.1-1.9-2.2-3.7-3.2-5.6c-4.6-9-9.7-17.8-13.4-27.3c-1.1-3.2-2.9-6.4-2.7-10   c0-4.4,0-8.9,0-13.3c0.1-8.3,0.3-16.6,0.3-24.9c0.4-7.7,0.7-15.4,1.5-23c0.3-2.9,0.4-5.8,0.7-8.7c0.7-5.6,1.5-11.2,2.2-16.7   c0.6-5.6,3-10.9,4.8-16.2c1.3-3.4,2.7-6.7,4-10.1c3.4-8.1,7.6-15.9,11.9-23.7c2.9-4.6,5.4-9.4,8.5-13.8   C451.3,453.5,455.2,452,458.5,449.7L458.5,449.7z"/>
	<path class="st104" d="M167.8,454.8c0.3-1.2,0.6-2.3,0.9-3.5c9,6.3,18.4,12.2,28.5,16.9c3.9,1.8,8.1,3,11.8,5.2   c0-0.3,0.1-0.9,0.1-1.3c0.7,0,2.2,0.1,2.9,0.1l0,0.6c0.6,1.6,1.6,2.9,2.9,3.9c-2.1-0.6-5.9-3.6-6.6,0.1   c-13.4-5.6-26.3-12.5-38.4-20.7C169.2,455.7,168.5,455.3,167.8,454.8L167.8,454.8z"/>
	<path class="st105" d="M456.9,453c1.2-0.5,2.9-1.9,4-0.5c7.9,8,14.9,16.8,21.3,26c-2.6,3.7-6.9,5.7-9.6,9.3   c-3.1,5.1-2.5,11.8,0.5,16.8c2.8,4.1,8.6,4.4,12.9,2.8c3.5-1.5,6.1-4.4,8.9-6.9c6.7,12.3,11.3,25.6,14.6,39.2   c2.1,5.8,1.9,12.1,3.5,18.1c2,15,1.8,30.2,0.3,45.2c-1.5,6.5-1.7,13.3-3.7,19.8c-6.7,29.1-21.3,56.1-40.7,78.7   c-1.9,2.1-3.7,4.5-6.5,5.5c-5.1,1.9-10.6,1.5-15.7,3c-5.5,1.6-11.4,1.3-16.9,2.8c-6,1.6-12.3,1-18.2,2.6   c-6.4,1.6-13.1,0.9-19.5,2.4c-7.8,1.7-15.8,1-23.6,2.5c-8,1.5-16.2,1.1-24.3,1.8c-7.5,0.5-15,1.6-22.6,1.8c-24,0.7-48.1,1-72.2,0.3   c-8.7-0.1-17.3-0.4-25.9-1.6c-8.2-1.1-16.5-0.5-24.6-2.2c-4.8-0.9-9.7-0.9-14.5-1.5c-3.3-0.4-6.6-1.5-9.9-1.8   c-3.3-0.4-6.6-0.5-9.8-1.4c-5.1-1.5-10.6-1.5-15.7-3.2c-3.2-1-7.1-0.6-9.6-3.1c-6.1-5.7-11.1-12.4-16.2-18.9   c-1-1.2-1.7-2.5-1.6-4.1c30.3,17.4,65,25.5,99.5,29.1c43.3,4,87.3,0.9,129.4-10.2c19-5,37.6-11.9,55.2-20.7   c2.7-1.4,5.8-2.5,7.5-5.2c2.8-4.3,5.5-8.6,7.8-13.1c-1.9-1.8-4-3.6-6.1-5.2c1.8-0.6,4.4-0.4,5.4-2.4c1-3.9-1.9-7.3-2.5-11   c4.9,0.4,9.7,4.1,14.7,2.2c0.3-0.1,0.8-0.3,1-0.3c1.3-1.9-0.1-4-1-5.8c-5.5-10.2-11-20.4-15.1-31.2c-1.1-2.4-1.5-5-1.4-7.6   c0.1-14.8,0-29.6,0.4-44.4c1.2-8.3,1.8-16.7,2.2-25.1c0.3-4.3,1.8-8.4,2-12.6c0.2-7.4,3.6-14.2,6-21.1c5.5-15,13.4-28.9,21.8-42.4   C450.4,456,454,454.8,456.9,453 M427.3,529.7c-3.2,10.2-3.5,21-4.3,31.6c-1.1,21.5,0.9,43.1,3.8,64.4c1.6,4.9,3.3,9.9,6.3,14.2   c6-14,9.3-29,11.7-44.1c3.1-21.6,2.6-43.7-0.5-65.3c-0.2-1.1-0.6-2.2-1-3.3C437.9,528,432.5,528.7,427.3,529.7 M503,663.2   c3.9-0.3,7.9-0.3,11.8,0.1c-1.7,4-2.9,8.6-1,12.7c2.9,6.1,8.8,10.3,14.7,13.3c11.1,5.3,23.7,7.4,36,6.1c0.6-0.1,1.8-0.2,2.4-0.3   c3.2,1,6.4,2.2,9.3,4c2.3,1.1,2.7,4.5,5.5,4.4l0,0.6c-1.7,0-3.4-0.1-5-0.1c-1.2-1.7-3.4-1.3-5.2-1.4c-11.7,0.2-23.4,0.2-35.1,0.2   c-11.1,1.4-22.3,0.6-33.4,1c-8.6,0-17.2,0.8-25.8,0.6c-0.9,0.8-1.8,1.6-2.6,2.5c-1.3,0.1-2.6,0.2-3.9,0.4c4.5-4.8,8.5-10,12.5-15.2   c0.4,0.1,1.3,0.3,1.7,0.4c3-3.5,5.3-7.6,7.9-11.4C496.5,675.4,499.1,668.9,503,663.2L503,663.2z"/>
	<path class="st106" d="M169.9,456.2c12,8.2,24.9,15.1,38.4,20.7c13.8,5.8,28.3,9.8,43,12.6c9.3,1.4,18.6,3,28,3.5   c10.5,0.6,21,1.5,31.5,0.7c10.2-0.1,20.5-0.9,30.6-2.5c3.2-0.4,6.4-1,9.6-1.5c-3,9.9-4.2,20.2-5.6,30.3c-1.6-0.2-3.2-0.4-4.8-0.6   c0.7-0.1,2.1-0.2,2.8-0.2c0.6-5.9,2.4-11.6,2.9-17.4c0.3-3.1,1.1-6,1.8-9c-5.3-0.7-10.3,1.6-15.6,1.9c-9.6,0.7-19.3,0.5-28.9,1   c-9.3,0.1-18.6-0.5-28-0.8c-6.8-0.1-13.3-2.4-20.2-2.6c-26.1-4.6-51.7-13.1-74.5-26.7c-2.5-1.7-4.9-3.5-7.8-4.3   C171.3,459.9,170.1,458.3,169.9,456.2L169.9,456.2z"/>
	<path class="st107" d="M337.6,457.1c0.9,0.5,1.8,1,2.7,1.4c-0.6,7.3,1.1,14.5,1.3,21.7c-0.6,0.1-1.8,0.3-2.4,0.5l0-0.4   C338.9,472.5,338.5,464.8,337.6,457.1L337.6,457.1z"/>
	<path class="st108" d="M535.4,459.3c4-0.6,8.1-1.1,12.1-1.6c-6.8,3.4-14.2,5.3-21.3,8c-4.6,3.1-9.5,5.8-14.3,8.7   c-5.9,6-11.5,12.3-17.3,18.4c-4.1,4-7.5,9.2-13.3,11c-6.8-1-7.8-11.6-2.4-15c7.1-5.7,13.5-12.1,19.9-18.6c0.8,0,2.3-0.1,3-0.1   c8-0.3,15.6-2.9,23-5.7C528.6,462.9,531.5,459.7,535.4,459.3L535.4,459.3z"/>
	<path class="st109" d="M340.4,458.5c13.9,4.9,28.9,4.5,43.4,4.4c0.2,2.2,0.4,4.4,0.8,6.6c-13.9,5-28.3,8.5-42.9,10.7   C341.5,473,339.8,465.8,340.4,458.5L340.4,458.5z"/>
	<path class="st110" d="M388.1,474.1c13.6-5.1,27.2-10.1,40.9-14.9c0.1,0.3,0.4,0.9,0.6,1.2c-0.5,1.2-1.7,1.8-2.9,2.3   c-7.5,3.1-15.1,5.9-22.7,8.8c-5,1.9-9.8,4.2-14.9,5.5C388.7,476,388.4,475,388.1,474.1L388.1,474.1z"/>
	<path class="st111" d="M439.4,460.2c0.7-0.3,2.2-1,3-1.3c-0.5,0.9-0.9,1.7-1.4,2.6c-6.8,10.8-12.7,22.2-17.5,34   c-0.6,0.1-1.8,0.3-2.4,0.4c-0.7-0.1-2.1-0.4-2.8-0.6c5.6-2.2,6.7-8.4,9.2-13.2c2.3-4.5,4.6-9,7.1-13.4c0.7-1.1,0.8-2.4,1-3.7   c-6.9,2.3-13.4,5.9-20.2,8.6c-10.7,4-21.4,8-32.4,10.9c-8.9,2.2-17.8,5.1-27,6c-0.3,1.7-0.6,3.3-0.9,5c2.4,0.5,4.7,0.9,7.2,1.1   c0,0.4,0,1.3,0,1.7c-3.2-0.2-6.4-0.8-9.6-1.4c0.1-0.5,0.3-1.6,0.4-2.1c0.3-1.8,0.6-3.7,0.9-5.5c10.4-1.8,20.6-4.5,30.9-7.1   c17.4-5,34.4-11.6,50.7-19.5C436.8,461.7,438.1,461,439.4,460.2L439.4,460.2z"/>
	<path class="st112" d="M173,461.2c2.9,0.9,5.3,2.7,7.8,4.3c22.8,13.6,48.4,22.1,74.5,26.7c6.8,0.1,13.3,2.5,20.2,2.6   c9.3,0.3,18.6,0.8,28,0.8c9.6-0.5,19.3-0.3,28.9-1c5.2-0.3,10.2-2.6,15.6-1.9c-0.7,3-1.5,5.9-1.8,9c-0.5,5.9-2.2,11.6-2.9,17.4   c-0.7,0.1-2.1,0.2-2.8,0.2c-42.3-6.3-84.8-14.5-124.3-31.3C200.6,481.1,185.2,473.1,173,461.2L173,461.2z"/>
	<path class="st113" d="M387.1,462.7c5-0.3,10-1.1,15-1.4c-4.5,3.2-9.9,4.7-14.9,7C387.2,466.5,387.2,464.6,387.1,462.7L387.1,462.7   z"/>
	<path class="st114" d="M440.9,461.4c0.7,3-1.7,5.4-1.2,8.4c-4.3,7.7-8.4,15.5-11.9,23.7c-1.3,1-2.8,1.6-4.4,1.9   C428.2,483.6,434.1,472.2,440.9,461.4L440.9,461.4z"/>
	<path class="st115" d="M383.8,462.9c0.8,0,2.3-0.1,3-0.2l0.3,0c0.1,1.9,0.1,3.8,0.2,5.7c-0.9,0.4-1.8,0.7-2.7,1.1   C384.2,467.3,383.9,465.1,383.8,462.9L383.8,462.9z"/>
	<path class="st116" d="M59.7,472c3.1-2.3,5.7-5.2,8.5-7.9c0.8,2-1.1,3.5-2,5.1c6.6,0.5,13.1-0.7,19.6-0.7c-1.2,0.6-2.5,1.1-3.8,1.6   c-4.1,0.6-8.3,1.3-12.5,1.3c-1.7-0.2-3.1,0.6-4.5,1.4c-4.4,2.5-9.3,4.2-14.3,4.9C53.6,475.5,56.9,474.2,59.7,472L59.7,472z"/>
	<path class="st117" d="M415.3,473.5c6.8-2.7,13.3-6.2,20.2-8.6c-0.2,1.3-0.3,2.6-1,3.7c-2.5,4.4-4.8,8.9-7.1,13.4   c-2.5,4.8-3.6,11-9.2,13.2c0.7,0.1,2.1,0.4,2.8,0.6c-3.5,0.8-7,1.4-10.6,1.7c0.1-0.5,0.3-1.6,0.4-2.1c0.5-2.1,1.2-4.1,1.9-6.1   c-11.9,3.7-24.2,5.7-36.5,6.8c-4.7,0.3-9.4,0.7-14.1,0.3c-2.4-0.2-4.8-0.7-7.2-1.1c0.3-1.7,0.6-3.3,0.9-5c9.2-0.9,18-3.7,27-6   C393.9,481.5,404.6,477.4,415.3,473.5L415.3,473.5z"/>
	<path class="st118" d="M99.6,467.2c3.8,1.4,7.7,2.6,11.6,4c1.4,0.5,2.8,1,4.2,1.5c-3.1,4.2-5.7,8.7-8.6,13.1   c-0.4-0.1-1.2-0.2-1.6-0.3c-2.2-1.6-4.4-3.3-6.7-4.8c0.9-4,0.9-8,1.1-12L99.6,467.2L99.6,467.2z"/>
	<path class="st119" d="M341.6,480.2c14.6-2.2,29-5.7,42.9-10.7c0.3,2.9,0.4,5.9,0.9,8.8c-15.2,3.9-30.5,7.9-46.1,9.8   c-0.2-2.5-0.1-4.9-0.2-7.4C339.8,480.6,341,480.4,341.6,480.2L341.6,480.2z"/>
	<path class="st120" d="M212,472.8c12.5,2.5,24.9,5.1,37.5,7.1c-0.2,1.8-0.3,3.5-0.5,5.3c-5-0.1-9.6-2.4-14.6-2.3   c-6.7-1.5-13.2-3.7-19.5-6.3C213.6,475.7,212.5,474.4,212,472.8L212,472.8z"/>
	<path class="st121" d="M208.3,476.9c0.7-3.7,4.5-0.7,6.6-0.1c6.3,2.6,12.8,4.8,19.5,6.3c5.9,2.3,12.3,3.1,18.3,5.1   c-0.4,0.3-1.1,1-1.4,1.3C236.5,486.7,222,482.6,208.3,476.9L208.3,476.9z"/>
	<path class="st122" d="M494.7,492.7c5.8-6.1,11.4-12.4,17.3-18.4c0.1,0.5,0.2,1.4,0.3,1.9c-1.4,1.6-2.7,3.3-3,5.4   c-3.6,4.3-7.6,8.3-11.5,12.4c16.6,31.8,24.6,68.4,20.9,104.2c-1.6,17.6-5.9,34.9-12.4,51.3c-1,2.9-2.5,5.6-3.4,8.6   c5.4-0.1,10.9-0.2,16.3,1.1c11,2.4,20.7,9.1,28.2,17.4c2.1,2.7,5.7,3.2,8.5,5c4,2.1,7.3,5.3,11,7.9c5.1,2,10.6,3.5,14.8,7.2   c2.9,2.4,4.7,6.7,2.8,10.3c-37.7,1.1-75.4,2.1-113.1,3.4c-2.9-0.3-5.5,1.4-8.3,1.8c-6.7,1.2-13.5,2.4-20.2,3.7   c-6.9,0.9-13.6,2.3-20.5,3c-0.1-0.1-0.4-0.3-0.5-0.4l0.1-0.4c-9.8,0.3-19.5,2.1-29.2,2.9c-1.7,0.1-3.4-0.4-5-0.8   c25.4-3.2,50.8-6.6,76-11.6c2.1-0.4,3.2-2.5,4.7-3.9c0.7,0.8,1.3,1.8,2.2,2.5c1.3-0.1,2.6-0.3,3.9-0.4c22.1-0.4,44.2-1.4,66.3-1.9   c12-0.2,23.9-1,35.9-1c1.7,0,3.3,0,5,0.1l0-0.6c0.3-2.2-1.5-3.8-3-5c-2.6-1.9-5.7-3.1-8.7-4.3c-6.3-1.2-9.9-6.8-15.3-9.6   c-2.9-2-6.9-2.3-9.2-5.2c-7.7-8.9-18.1-15.8-29.9-17.6c-4.2-0.7-8.5-0.9-12.7-0.4c-0.9,0.1-1.6,0.4-2.3,1c-0.6-1.3-1.1-2.7-1.6-4   c17.5-37,21.8-79.9,12.2-119.7c-3.4-14.7-9.2-28.6-15.7-42.2c-2.9,2.8-5.2,6.3-8.7,8.4c-1.8-0.4-3.6-0.7-5.4-1.3   C487.2,501.9,490.6,496.7,494.7,492.7L494.7,492.7z"/>
	<path class="st123" d="M339.4,488.1c15.6-1.9,30.9-5.9,46.1-9.8c0.1,0.8,0.3,1.6,0.5,2.3c-0.3,0.3-0.9,1-1.2,1.3   c-10.2,2.7-20.4,5.3-30.9,7.1c-0.3,1.8-0.6,3.7-0.9,5.5c-0.5,0.9-1,1.9-1.6,2.8c-2.6-2-0.2-5.1-0.5-7.8c-3.2,0.5-6.4,1.1-9.6,1.5   c-0.3-0.2-1-0.5-1.4-0.6C339.8,489.9,339.5,488.7,339.4,488.1L339.4,488.1z"/>
	<path class="st124" d="M252.6,480.2c0.6,0.1,1.8,0.2,2.4,0.3c12.8,1.6,25.6,2.3,38.5,2.7c0.4,0,1.2,0.1,1.5,0.2   c-1.2,1.7-1.4,5.1-4.1,4.8c-7.5-0.2-15.1,0.3-22.4-1.9c-3.3-1-6.8-0.5-10.2-0.9c-2.6-0.1-4.1-2.4-5.8-4   C252.5,481.2,252.6,480.6,252.6,480.2L252.6,480.2z"/>
	<path class="st125" d="M306.3,483.2c10-0.5,20-0.9,29.9-2.2c0.1,2.4,0,4.9-0.1,7.3c-12.5,2.3-25.4,2.4-38.1,1.9   c0.2-2.3,0.6-4.5,1.2-6.7C301.5,483.7,303.9,483.4,306.3,483.2L306.3,483.2z"/>
	<path class="st126" d="M252.5,481.5c1.7,1.5,3.2,3.9,5.8,4c3.4,0.4,6.9-0.1,10.2,0.9c7.2,2.2,14.9,1.7,22.4,1.9   c2.7,0.3,2.9-3.2,4.1-4.8l0.9,0.1c-0.5,2.3-1,4.5-1.5,6.8c-2.4,0.1-4.9,0.1-7.3,0c-11.7-0.5-23.3-2.1-34.8-4.1   C252.3,484.6,252.4,483.1,252.5,481.5L252.5,481.5z"/>
	<path class="st127" d="M252.2,486.2c11.5,1.9,23.1,3.6,34.8,4.1c2.2,0.1,4.4,0.3,6.6,0.7c0,0.4-0.1,1.3-0.1,1.8   c-11.8,0.8-23.6-1.8-35.3-3.3C256,489,252.7,489,252.2,486.2L252.2,486.2z"/>
	<path class="st128" d="M376.3,496.1c12.3-1.1,24.7-3.1,36.5-6.8c-0.7,2-1.5,4-1.9,6.1C399.3,496,387.8,497.3,376.3,496.1   L376.3,496.1z"/>
	<path class="st129" d="M350.9,489.6c0.3,2.7-2.1,5.7,0.5,7.8c0.5-0.9,1.1-1.8,1.6-2.8c-0.1,0.5-0.3,1.6-0.4,2.1   c3.2,0.6,6.3,1.2,9.6,1.4c15.6,1.4,31.3,1.3,46.8-0.5c0,0.8,0.1,2.3,0.2,3.1c-19,2.1-38.2,1.8-57.1-0.8c-3.4,14.8-4.9,30-6,45.1   c19,3.4,38.5,1.6,57.5-0.9c-0.3,1.1-0.5,2.2-0.7,3.3c-18.9,2.4-38.2,3.6-57.1,0.9c-0.7,12.1-0.5,24.2-0.1,36.3   c18.5,3.2,37.9,3.4,55.8-3c0,0.8,0.1,2.4,0.2,3.2c-0.4,0.1-1.3,0.4-1.7,0.5c-17.4,6-36.3,5.3-54.3,2.6c0,11.8-0.3,23.5-1.2,35.2   c4.8,1.5,9.9,1.6,14.9,1.6c14.2-0.2,28.1-3.2,41.6-7.5c-0.1,1.2-0.3,2.4-0.4,3.6c-18.2,5.2-37.6,9.4-56.5,5.7c-1-0.5-3.3-0.3-3-2   c0-0.7,0-2.2,0.1-2.9c0.3-2.4,0.3-4.9,0.4-7.3c1.2-10,0.8-20.1,0.9-30.1c1,0,2,0,3.1,0c-0.7-11.9-0.5-23.8,0-35.7   c-0.7-0.2-2.2-0.6-2.9-0.8c0.4-9.3,1.6-18.6,2.6-27.9C346.7,509.8,347.9,499.5,350.9,489.6L350.9,489.6z"/>
	<path class="st130" d="M423.4,495.4c1.6-0.3,3.1-0.9,4.4-1.9c-1.3,3.4-2.7,6.7-4,10.1l-0.7-1c-2.9,5.5-6.1,11.2-6.6,17.5   c-0.5,5.4-1.4,11.1,0.3,16.4c-0.3,2.9-0.4,5.8-0.7,8.7c-1.2,0.2-2.3,0.4-3.5,0.6c-1.6,0.3-3.1,0.6-4.6,0.9   c-1.4,0.3-2.8,0.5-4.2,0.7l-0.8,0.1c0.2-1.1,0.5-2.2,0.7-3.3c3-0.5,6-1.1,9-1.9c0.7-3,1.1-6,1.3-9c0.2-5.2,1.6-10.2,2.2-15.4   c0.8-6.5,3.7-12.5,5.5-18.8c-4.1,0.6-8.3,1.3-12.5,1.6c0-0.8-0.1-2.3-0.2-3.1c0.4,0,1.1-0.2,1.4-0.2c3.6-0.4,7.1-1,10.6-1.7   C421.6,495.7,422.8,495.5,423.4,495.4L423.4,495.4z"/>
	<path class="st131" d="M376.3,496.1c11.5,1.2,23.1-0.2,34.6-0.7c-0.1,0.5-0.3,1.6-0.4,2.1c-0.4,0-1.1,0.2-1.4,0.2   c-15.6,1.7-31.3,1.8-46.8,0.5c0-0.4,0-1.3,0-1.7C366.9,496.9,371.6,496.5,376.3,496.1L376.3,496.1z"/>
	<path class="st132" d="M85.4,621c-9.8-42-3.7-87.2,16.1-125.4c0.7,0.9,1.4,1.7,2.2,2.5c-2.2,4.1-4,8.3-5.8,12.6   c-14.2,34-17.5,72.3-9.7,108.3c3.4,16.3,9.4,32.1,17.2,46.9c-1.3-0.2-2.6-0.4-3.9-0.5c-4.7-0.2-10.2,0.9-13,5.1   c-3.8,5.1-3.2,11.9-2.8,17.9c-5.2,1.6-10.4,4.8-12,10.3c-1,3.9-1.3,8-2.4,11.8c11.2,1.2,23.2,2.1,33.6-3.1   c8.2,5.9,18.8,3.8,28.1,2.9c1.3-0.2,2.6-0.4,3.9-0.6c1.2,1.2,2.2,2.7,4,2.9c36.1,8.4,73.2,12,110.3,13.5c45.6,1.6,91.3-1,136.6-5.7   c1.7,0.4,3.3,0.9,5,0.8c9.8-0.8,19.4-2.5,29.2-2.9l-0.1,0.4c-0.2,0.2-0.7,0.6-1,0.8c-54.1,7.7-108.9,11.4-163.5,10.1   c-39.7-1.2-79.6-4.9-118.4-13.9c-1.5-0.1-2.4-1.4-3.4-2.4c-9.8,1-20.4,3.3-29.6-1.3c-1.7-1.1-3.5,0.1-5.2,0.6   c-11,3.6-22.7,2-33.9,0.7c2.1-5.5,2.2-11.4,4.1-16.9c1.9-4.9,6.4-8.1,11-10.2c-0.4-5.9,0.2-12.2,3.5-17.3c3.1-4.4,8.6-6.4,13.9-6.6   C93.7,648.8,88.4,635.2,85.4,621L85.4,621z"/>
	<path class="st133" d="M101.7,508.1c2.3-3.6,3.9-7.6,6.2-11.3c0.1,0.5,0.3,1.5,0.3,2.1c-1.7,5-3.6,10-4.7,15.3   c-0.4,3.7-0.5,7.5-1.1,11.2c-1.2,7,0.6,14,1.1,21c0.5,6.9,2.1,13.8,5,20.1c2.7,6.7,5.4,13.5,9.3,19.7c2.3,4.8,5.7,8.9,8.2,13.6   c3.3,4.4,6.9,8.6,10.9,12.5c3.5,4.4,8.2,7.4,12.2,11.2c12.9,11,28.3,18.6,43.3,26.3c3.5,1.7,7.1,3.1,10.6,4.7   c-1.5,2.3-3.1,4.4-4.6,6.7c-2.8,4.1-0.6,8.8,0.5,13.1c-1.9-1.6-3.4-3.5-5.4-4.9c-3.8-1.1-7.8-0.7-11.5-2.1   c-9.8-3.8-19.5-8.2-28.4-13.8c-4.5-3.2-9.7-5.3-14.1-8.6c-5.5-3.5-10.6-7.6-16.2-10.9c-4.8-2.9-7.8-7.8-11.2-12.2   c-3.2-4.6-8.6-7-11.7-11.6c-3.4-4.4-4-10.4-8.2-14.2c-0.8,0.4-1.7,0.7-2.5,1.1c-0.1-2-0.2-4-0.4-5.9c-0.5,1.6-1.1,3.2-1.6,4.8   c-2.1-10.5-1.2-21.3-0.3-31.9c0.3-4.4-0.3-9.1,1.4-13.3c2.1-4.7,0.9-10.1,3.3-14.7c1.7-7.3,4.6-14.1,7.2-21.1   C100.4,512.8,101.4,510.6,101.7,508.1 M331.3,629.9c2.5-1.2,4.5-3.1,6.2-5.2c0.7,5.9-1.3,12.2,1.2,17.8c-1,6.2-1.9,12.5-3.9,18.5   c-0.6,0.6-1.3,1.3-1.9,1.9c-0.6-2.7-0.8-5.5-0.8-8.3c-2.4,0.5-4.8,1.2-6.9,2.6c-6.4,4.4-13.4,7.9-20.3,11.4   c-14.5,5.1-29.6,8.6-44.9,9.9c-6.3,1.1-12.6-1.3-19-0.6c-6-0.6-12.3-0.3-17.8-3.3c-1.3,0.6-2.6,1.1-3.9,1.8c2.2-3.6,4.2-8,3.1-12.3   c-0.7-2.6-2.1-5-3.2-7.5c5.3-0.7,10.7-0.4,16-0.6c8.9,0.9,17.7-1,26.6-1.2c13.7-2.3,27.6-4.8,40.3-10.5c4.3-2.5,9.2-3.7,13.5-6.3   C320.9,635,326.2,632.6,331.3,629.9L331.3,629.9z"/>
	<path class="st134" d="M409.2,500.8c4.2-0.3,8.3-1,12.5-1.6c-1.8,6.3-4.7,12.2-5.5,18.8c-0.6,5.1-2,10.2-2.2,15.4   c-0.1,3-0.6,6.1-1.3,9c-3,0.7-6,1.4-9,1.9C404.7,529.7,406,515.1,409.2,500.8L409.2,500.8z"/>
	<path class="st135" d="M352.1,500c18.9,2.7,38.1,2.9,57.1,0.8c-3.2,14.3-4.5,28.8-5.5,43.4c-19,2.5-38.5,4.3-57.5,0.9   C347.2,530,348.7,514.8,352.1,500L352.1,500z"/>
	<path class="st136" d="M211.8,507.8c4.1-1.3,9.2-0.4,12,3.2c4.3,6.3,2,16.5-5.3,19.6c-5.5,2.7-12.6-0.6-14.2-6.5   C201.8,517.8,204.9,509.5,211.8,507.8 M212.4,511.1c-6.2,1.7-7.2,10.3-3.4,14.7c2.4,3.1,7.3,3,10.2,0.7c3.7-3.1,4.7-9,2.4-13.2   C219.6,510.3,215.5,510.3,212.4,511.1 M411.6,641.7c3.3,0.8,6.5,2,9.8,2.8c-0.1-0.4-0.3-1.3-0.4-1.8c2,0.6,4,1.3,6.1,1.6   c1.1-0.2,2.2-0.4,3.3-0.6c1,1.9,2,3.8,3.2,5.6c-0.3,0.1-0.8,0.3-1,0.3c-6.2-1.9-12.4-3.9-18.7-5.4c2,4.3,3.7,8.8,5.8,13.1   c-1.4,1.7-3.4,2.5-4.8,0.4c-0.2-1.7-0.5-3.4-1.1-5.1c-0.3-1-0.6-2-1-3C413.4,647,412.1,644.3,411.6,641.7L411.6,641.7z"/>
	<path class="st137" d="M97.9,510.7c1.3-0.8,2.6-1.6,3.8-2.5c-0.3,2.4-1.3,4.6-2.5,6.8c-2.5,7-5.5,13.9-7.2,21.1   c-2.4,4.6-1.2,10-3.3,14.7c-1.7,4.2-1.1,8.9-1.4,13.3c-1,10.6-1.8,21.4,0.3,31.9c-0.6,6.2,0.3,12.4,2.1,18.3   c0.4,5.7,2.5,11,3.7,16.5c3.2,9.4,6.2,18.9,10.9,27.7c2.6,5.4,5.6,10.6,8.5,15.8c1.9,3.5,5.1,6.4,6,10.3c-1-0.5-2.1-1.1-3.1-1.6   c-3.9-5.5-7.3-11.3-10.4-17.2c-7.8-14.8-13.7-30.5-17.2-46.9C80.4,583,83.7,544.7,97.9,510.7L97.9,510.7z"/>
	<path class="st138" d="M427.3,529.7c5.3-1.1,10.6-1.8,15.9-2.4c0.4,1.1,0.7,2.1,1,3.3c3.2,21.6,3.6,43.7,0.5,65.3   c-2.3,15-5.7,30-11.7,44.1c-3-4.3-4.7-9.3-6.3-14.2c-3-21.3-4.9-42.9-3.8-64.4C423.8,550.8,424,539.9,427.3,529.7L427.3,529.7z"/>
	<path class="st139" d="M412.6,545.8c1.2-0.2,2.3-0.4,3.5-0.6c-0.8,7.6-1.1,15.3-1.5,23c-0.4,2.8-0.7,5.6-0.8,8.4   c-0.9,0.5-1.8,0.9-2.7,1.3C411,567.2,411.6,556.5,412.6,545.8L412.6,545.8z"/>
	<path class="st140" d="M407.9,546.7c1.5-0.3,3.1-0.6,4.6-0.9c-1,10.7-1.5,21.4-1.6,32.2c-1.5,0.7-3,1.3-4.5,1.9   c-0.5-0.2-1.5-0.6-2-0.7c1.4-0.7,2.8-1.5,4.3-2.2c0.1-7,1-14,0.9-21.1c0-2.6,0.3-5.1,0.6-7.6C409.5,547.7,408.7,547.2,407.9,546.7   L407.9,546.7z"/>
	<path class="st141" d="M403.7,547.4c1.4-0.2,2.8-0.5,4.2-0.7c0.8,0.5,1.6,1.1,2.3,1.6c-0.3,2.5-0.6,5.1-0.6,7.6   c0.1,7-0.7,14-0.9,21.1c-1.4,0.7-2.8,1.4-4.3,2.2c0.5,0.2,1.5,0.6,2,0.7c-1.5,0.6-3,1.2-4.5,1.8c0-0.6,0-1.7,0-2.3   c0.1-10.2,0.6-20.4,1.4-30.5L403.7,547.4L403.7,547.4z"/>
	<path class="st142" d="M342.6,547.9c0.7,0.2,2.2,0.6,2.9,0.8c-0.5,11.9-0.6,23.8,0,35.7c-1,0-2,0-3.1,0c0.3-7.4-0.9-14.7-0.4-22.1   C342.4,557.4,342.5,552.7,342.6,547.9L342.6,547.9z"/>
	<path class="st143" d="M345.8,548.5c18.9,2.7,38.2,1.5,57.1-0.9l0.8-0.1l-0.3,1.4c-5.2,2.5-11.1,1.2-16.6,2.1   c-8.1,2-16.5,0.5-24.8,1c-4.8,0.6-9.3-1.3-14.1-1.3c-0.6,10.6-0.8,21.3,0.1,31.8c3.3,1.1,6.8,2.1,10.4,2.1   c8.4,0.1,16.8,0.4,25.1-0.3c6.1-1.8,12.6-2.2,18.4-5c0,0.6,0,1.7,0,2.3l-0.5,0.2c-17.9,6.4-37.3,6.2-55.8,3   C345.3,572.7,345.1,560.6,345.8,548.5L345.8,548.5z"/>
	<path class="st144" d="M386.8,551c5.5-0.9,11.4,0.4,16.6-2.1c-0.8,10.1-1.4,20.3-1.4,30.5c-5.8,2.8-12.3,3.2-18.4,5   c-8.3,0.7-16.8,0.4-25.1,0.3c-3.6,0-7-1-10.4-2.1c-0.9-10.6-0.7-21.2-0.1-31.8c4.7,0.1,9.3,1.9,14.1,1.3   C370.3,551.5,378.7,553,386.8,551L386.8,551z"/>
	<path class="st145" d="M413.7,576.6c0.1-2.8,0.4-5.6,0.8-8.4c0,8.3-0.2,16.6-0.3,24.9c-0.3-2.2-0.7-4.4-1.1-6.6   c-0.7,7.2-1.1,14.4-1.2,21.7c-0.1,2.8,1.5,5.1,2.7,7.5c-0.3,0.1-1,0.4-1.4,0.6c-4.1,1.9-8.4,3.2-12.7,4.7c0.1-1.2,0.2-2.4,0.4-3.6   c3.6-1.2,7.2-2.3,10.6-3.8c-0.8-10.6,0-21.3-0.7-31.9c-3,1.2-6.1,2.4-9.2,3.3c0-0.8-0.1-2.4-0.2-3.2l0.5-0.2c1.5-0.6,3-1.2,4.5-1.8   c1.5-0.6,3-1.2,4.5-1.9C411.9,577.5,412.8,577.1,413.7,576.6L413.7,576.6z"/>
	<path class="st146" d="M401.7,585c3.1-0.9,6.2-2.1,9.2-3.3c0.7,10.6-0.1,21.3,0.7,31.9c-3.4,1.5-7,2.6-10.6,3.8   c-0.3-10.5,0.6-21,0.6-31.5c-0.4-0.1-1.2-0.3-1.6-0.4C400.4,585.4,401.3,585.1,401.7,585L401.7,585z"/>
	<path class="st147" d="M345.7,588.1c18,2.7,36.9,3.4,54.3-2.6c0.4,0.1,1.2,0.3,1.6,0.4c0,10.5-0.9,21-0.6,31.5   c-13.5,4.3-27.4,7.3-41.6,7.5c-5,0-10.1-0.1-14.9-1.6C345.4,611.6,345.6,599.8,345.7,588.1L345.7,588.1z"/>
	<path class="st148" d="M412,608.3c0.1-7.2,0.5-14.5,1.2-21.7c0.4,2.2,0.8,4.4,1.1,6.6c0,4.4,0,8.9,0,13.3c-0.2,3.5,1.6,6.7,2.7,10   c-0.8-0.3-1.5-0.5-2.3-0.7C413.5,613.4,411.9,611,412,608.3L412,608.3z"/>
	<path class="st149" d="M87.7,596c0.5-1.6,1.1-3.2,1.6-4.8c0.1,2,0.2,3.9,0.4,5.9c0.8-0.4,1.7-0.8,2.5-1.1c4.1,3.8,4.7,9.9,8.2,14.2   c3.1,4.7,8.5,7,11.7,11.6c3.3,4.4,6.4,9.3,11.2,12.2c5.6,3.3,10.7,7.4,16.2,10.9c4.4,3.3,9.6,5.4,14.1,8.6   c8.9,5.6,18.6,10,28.4,13.8c3.7,1.4,7.8,1,11.5,2.1c2,1.4,3.6,3.3,5.4,4.9c5,5.8,14.6,6.7,20.6,1.9c1.3-0.6,2.6-1.2,3.9-1.8   c5.4,3,11.8,2.7,17.8,3.3c6.4-0.6,12.6,1.8,19,0.6c15.3-1.3,30.4-4.7,44.9-9.9c7-3.5,13.9-7,20.3-11.4c2-1.4,4.4-2.1,6.9-2.6   c0,2.8,0.2,5.6,0.8,8.3c0.6-0.6,1.3-1.3,1.9-1.9c0.2,0.3,0.6,1,0.8,1.3l0.5,0.8c1.3,0,2.6-0.1,3.9-0.2c0.8,1.8,1.6,3.5,2.4,5.3   c0.4-1,0.8-1.9,1.2-2.8c0.3,0.9,0.6,1.9,0.9,2.9l0.4,0.1c0.4,0.1,1.1,0.2,1.5,0.3c1.3-1.4,1.8-5.4,4.1-4.5c0.7,2.4,0.5,5.1,2,7.2   c-0.2,1-0.3,2-0.4,3c1.4-0.6,2.8-1.1,4.2-1.7c0.9,2.1,1.8,4.2,2.8,6.3c1.9-4.4,3.4-9,5.3-13.5c2.3,5.9,3.3,12.1,5.3,18.1   c4.3-3.6,6.9-8.7,10.8-12.6c2.7,4.2,4.3,9,7.6,12.7c1.7-5.6,1.6-11.5,2.9-17.2c6.9,3.3,13,8.1,20.1,10.7c0.2-6.1-0.3-12.3,0.8-18.4   c0.9,0.8,1.8,1.6,2.8,2.4c2.1,1.6,4.2,3.3,6.1,5.2c-2.3,4.5-5,8.9-7.8,13.1c-1.7,2.7-4.8,3.7-7.5,5.2   c-17.6,8.8-36.2,15.6-55.2,20.7c-42.1,11.1-86.1,14.3-129.4,10.2c-34.5-3.6-69.3-11.6-99.5-29.1c-0.9-0.5-1.7-1-2.6-1.5   c-1-4-4.2-6.8-6-10.3c-2.9-5.3-5.9-10.4-8.5-15.8c-4.6-8.8-7.7-18.3-10.9-27.7c-1.2-5.5-3.2-10.8-3.7-16.5   C88,608.4,87.1,602.2,87.7,596L87.7,596z"/>
	<path class="st150" d="M414.7,615.7c0.8,0.2,1.5,0.4,2.3,0.7c3.7,9.4,8.8,18.3,13.4,27.3c-1.1,0.2-2.2,0.4-3.3,0.6   c-5.1-9.1-9.9-18.3-13.8-28C413.6,616.2,414.3,615.9,414.7,615.7L414.7,615.7z"/>
	<path class="st151" d="M400.6,621c4.3-1.4,8.6-2.7,12.7-4.7c3.8,9.7,8.7,18.9,13.8,28c-2.1-0.3-4.1-1-6.1-1.6   c-4.1-1.2-8.2-2.4-12.3-3.7c1.2-0.8,2.6-1.5,4.1-0.8c3,0.9,6,2,9.2,2.5c-0.3-3.8-2.9-6.7-4.4-10c-1.9-3.6-3-7.6-5.4-11   c-3.8-0.1-7.4,1.9-11,3.2C401,622.4,400.7,621.4,400.6,621L400.6,621z"/>
	<path class="st152" d="M401.1,622.8c3.5-1.3,7.1-3.3,11-3.2c2.4,3.3,3.5,7.4,5.4,11c1.5,3.3,4.1,6.2,4.4,10   c-3.2-0.5-6.2-1.5-9.2-2.5c-1.5-0.7-2.9,0-4.1,0.8c-0.1,0.2-0.4,0.5-0.5,0.7c-0.7,1.2-1.4,2.5-2,3.7c-3.9-1.3-6-6.5-10.4-5.8   c-0.5,6.3-0.1,12.6-0.4,18.8c-1.4-6.2,0.8-12.7-1.3-18.6c-1.1,5.1-0.4,10.4-0.6,15.6c-1.4-0.2-2.9-0.3-4.1-1.1   c-4.3-2.5-8.3-5.4-13-7.1c-0.2,0.3-0.5,1-0.7,1.3c-0.9,1.9-1,4-1.3,6.1c-0.1-1.7-0.3-3.5-1.2-4.9c-0.4,2.7-0.7,5.5-1,8.2   c-1.1-0.9-2-2.9-3.8-1.9c-0.6-1.2-1.3-2.4-1.9-3.5c-2.5,3.2-4.9,6.6-7.6,9.7c-0.1-0.5-0.2-1.3-0.3-1.8c2.3-8.4,5-16.7,8.1-24.8   c11.6-0.1,23.2-2.5,33.4-8.1C400.5,624.6,400.8,623.7,401.1,622.8L401.1,622.8z"/>
	<path class="st153" d="M344.1,626.6c18.9,3.8,38.3-0.4,56.5-5.7c0.1,0.5,0.4,1.4,0.5,1.9c-6.2,1-12,3.4-18.3,4.2   c-6.8,2.2-13.9,1.7-20.9,2.4c-5.4,0.5-10.7-0.7-16.1-0.2c-1.4,6.8-1.1,13.9-3.1,20.7c0.4,0.5,1.2,1.5,1.6,1.9   c2.8-2.7,1.3-8.5,5.6-9.9c-1.5,5.5-3.2,10.9-5.2,16.2c-0.6-1.8-1.1-3.6-1.6-5.4c-1.1,0.7-2.1,1.5-3.2,2.3   C341.8,645.5,343.3,636.1,344.1,626.6L344.1,626.6z"/>
	<path class="st154" d="M338.8,642.4c1.4-6.8,1.7-13.8,2.4-20.7c0,0.7,0,2.2-0.1,2.9c-0.3,1.7,1.9,1.5,3,2   c-0.7,9.5-2.3,18.9-4.2,28.2c1.1-0.8,2.1-1.5,3.2-2.3c0.5,1.8,1,3.6,1.6,5.4c2-5.3,3.7-10.7,5.2-16.2c0.2,0,0.7,0.1,0.9,0.1   c0.3,1.1,0.6,2.3,0.9,3.5c1.4,6.2,3.3,12.3,4.5,18.5c0,0.3,0.1,1,0.2,1.4c3.7-1.8,4.6-6.6,8.7-7.8c-3,4.7-6.7,8.9-9.9,13.5l-0.6,0   c-0.3-1.2-0.6-2.4-0.8-3.5c-1-5-2.5-9.9-3.5-14.9c-1.9,5.1-3.3,10.4-5.1,15.6l-0.4-0.1c-0.3-1-0.6-1.9-0.9-2.9   c-0.8-2.5-1.6-5-2.4-7.5c-2,1.4-3.9,2.9-5.7,4.5c-0.2-0.3-0.6-1-0.8-1.3C336.9,654.9,337.8,648.6,338.8,642.4L338.8,642.4z"/>
	<path class="st155" d="M395.7,637.6c4.4-0.7,6.5,4.5,10.4,5.8c0.6-1.3,1.3-2.5,2-3.7c1.5,3.4,2.9,6.7,4.5,10.1c0.3,1,0.6,1.9,1,3   c-4-3.4-8-6.7-12.1-9.9c-1.1-0.9-2.2-1.7-3.2-2.6C397.4,639.4,396.6,638.5,395.7,637.6L395.7,637.6z"/>
	<path class="st156" d="M394,637.8c2.1,6,0,12.5,1.3,18.6c0,0.4,0.1,1.1,0.1,1.5c-6.6-3.8-13.2-7.5-19.7-11.4c0.2-0.3,0.5-1,0.7-1.3   c4.6,1.7,8.7,4.6,13,7.1c1.2,0.8,2.7,0.9,4.1,1.1C393.6,648.2,392.9,643,394,637.8L394,637.8z"/>
	<path class="st157" d="M398.3,640.2c1,0.9,2.1,1.7,3.2,2.6c0,2.5,2.3,3.8,3.8,5.4c1.6,1.4,2.9,3.2,4,5.1c-3.6-2.7-7-5.6-10.6-8.5   c0.2,6.1-0.4,12.2,0.3,18.2c-0.4,0.1-1.1,0.3-1.4,0.3c-0.7-0.6-1.5-1.1-2.2-1.6c0.5-0.1,1.3-0.4,1.8-0.5   C398.4,654.3,396.8,647.1,398.3,640.2L398.3,640.2z"/>
	<path class="st158" d="M351.7,645.4c0.2-1.3,0.5-2.5,0.8-3.7c1.3,4.5,2.7,8.9,3.6,13.5c0.2,1.5,1.7,2.2,2.6,3.2   c0.1,0.5,0.2,1.3,0.3,1.8c-0.9,1.2-1.8,2.5-2.7,3.7C355,657.7,353.1,651.6,351.7,645.4L351.7,645.4z"/>
	<path class="st159" d="M405.3,648.2c-1.5-1.6-3.8-2.9-3.8-5.4c4.1,3.2,8.2,6.5,12.1,9.9c0.6,1.6,0.9,3.3,1.1,5.1   c-1.8-1.5-3.6-3-5.4-4.5C408.1,651.4,406.9,649.6,405.3,648.2L405.3,648.2z"/>
	<path class="st160" d="M413.8,644.3c6.3,1.5,12.5,3.5,18.7,5.4c-5,1.9-9.7-1.8-14.7-2.2c0.6,3.7,3.5,7.1,2.5,11   c-1,2-3.6,1.8-5.4,2.4c-1-0.8-1.9-1.5-2.8-2.4c-3.4-3.4-6.9-6.9-11.2-9.1c-2.4,4.2-0.1,9.2-1.9,13.6c-0.7-6-0.1-12.1-0.3-18.2   c3.5,2.8,7,5.7,10.6,8.5c1.8,1.5,3.6,3,5.4,4.5c1.5,2,3.5,1.2,4.8-0.4C417.5,653.1,415.8,648.6,413.8,644.3L413.8,644.3z"/>
	<path class="st161" d="M373.2,647.8c0.9,1.5,1.1,3.2,1.2,4.9c-0.2,2.5-0.5,5.1-0.8,7.6c-0.2,0.9-0.3,1.9-0.4,2.8   c-1.8-2.9-3.2-6.1-4.8-9.1c1.8-1,2.7,1,3.8,1.9C372.5,653.2,372.8,650.5,373.2,647.8L373.2,647.8z"/>
	<path class="st162" d="M400.9,649.4c4.4,2.2,7.8,5.7,11.2,9.1c-1.1,6.1-0.5,12.3-0.8,18.4c-7.2-2.5-13.3-7.4-20.1-10.7   c-1.3,5.7-1.2,11.6-2.9,17.2c-3.3-3.8-5-8.6-7.6-12.7c-3.9,3.9-6.5,9.1-10.8,12.6c-2-6-3.1-12.2-5.3-18.1   c-1.8,4.5-3.4,9.1-5.3,13.5c-0.9-2.1-1.9-4.2-2.8-6.3c-1.4,0.6-2.8,1.1-4.2,1.7c0.1-1,0.2-2,0.4-3c0.2-0.9,0.7-2.7,1-3.6   c0.3,1.2,0.5,2.3,0.8,3.5l0.6,0c0.5,0,1.6,0,2.1,0c2.9-3.5,5.1-7.6,8.8-10.3c2.2,4,4.2,8.1,6.6,12c0.5,0.1,1.4,0.3,1.9,0.5   c0.2,0.1,0.7,0.2,0.9,0.2c0.1-1.6,0.3-3.2,0.5-4.8c0.3,1.3,0.7,2.6,1.1,3.9c1.4-5.7,1.8-11.5,2.6-17.3c6.6,2.9,12.2,8.1,19.4,9.9   c-0.3-0.4-1-1.3-1.4-1.7c0.4-0.1,1.1-0.3,1.4-0.3C400.8,658.6,398.5,653.6,400.9,649.4L400.9,649.4z"/>
	<path class="st163" d="M377.9,651.8c0.3,0.2,0.9,0.5,1.3,0.6c5.4,3.2,10.8,6.2,16.3,9.3c0.8,0.5,1.5,1,2.2,1.6   c0.3,0.4,1,1.3,1.4,1.7c-7.1-1.8-12.7-6.9-19.4-9.9c-0.7,5.8-1.2,11.6-2.6,17.3c-0.4-1.3-0.8-2.6-1.1-3.9   C376.7,663,377.3,657.4,377.9,651.8L377.9,651.8z"/>
	<path class="st164" d="M345.1,668.2c1.8-5.2,3.2-10.5,5.1-15.6c1,5,2.5,9.9,3.5,14.9c-0.2,0.9-0.7,2.7-1,3.6   c-1.5-2.1-1.4-4.8-2-7.2c-2.3-0.9-2.8,3.1-4.1,4.5C346.2,668.3,345.5,668.2,345.1,668.2L345.1,668.2z"/>
	<path class="st165" d="M199.4,665.4c1-5.5,6.4-9.8,12-8.9c4.6,0.5,8,4.3,9.1,8.6c0.9,6.3-4.4,12.7-11,12.2   C203.4,677.3,198.7,671.3,199.4,665.4 M207.9,660c-4,1-6.5,5.8-4.6,9.6c1.5,3.5,5.8,5.4,9.4,4c3.7-1.2,5.9-5.7,4.3-9.3   C215.6,660.7,211.3,659.1,207.9,660L207.9,660z"/>
	<path class="st166" d="M365.1,657.6c0.3-0.1,0.9-0.4,1.3-0.5c1.8,3.9,3.9,7.6,5.9,11.5c0.8,1.5,1.5,3.1,2.3,4.6   c-0.5-0.1-1.4-0.3-1.9-0.5c-2.4-3.9-4.4-8-6.6-12c-3.7,2.8-5.9,6.9-8.8,10.3c-0.5,0-1.6,0-2.1,0C358.4,666.5,362,662.2,365.1,657.6    M500.6,662.4c0.6-0.6,1.4-0.9,2.3-1c4.2-0.5,8.5-0.2,12.7,0.4c0.1,0.7,0.3,2.1,0.4,2.8c9.3,0.8,17.1,6.4,23.9,12.3   c2.9,2.5,5.1,6,8.9,7.4c5.9,2.6,11,6.6,15.7,11c-12.2,1.3-24.9-0.8-36-6.1c-6-2.9-11.8-7.1-14.7-13.3c-1.9-4.1-0.6-8.7,1-12.7   c-3.9-0.3-7.9-0.4-11.8-0.1c-3.9,5.7-6.5,12.2-10.3,17.9c-2.6,3.8-4.8,7.9-7.9,11.4c-0.4-0.1-1.3-0.3-1.7-0.4   C489.8,682.7,495.9,672.9,500.6,662.4 M87.9,676.9c1.2-4.4,4.7-9.1,9.7-8.9c3.1-0.5,3.9,3.1,5.4,5c-0.5,9.6-5.5,19.2-13.9,24.2   c-4.3,2.6-9.4,3.2-14.3,3.3c1.3-1.9,2.4-3.9,3.8-5.7c2.3-3,7-3,8.6-6.7C87.9,684.5,87.2,680.6,87.9,676.9 M570,694.2   c3,1.2,6.1,2.4,8.7,4.3c1.5,1.2,3.3,2.8,3,5c-2.9,0-3.3-3.4-5.5-4.4c-2.9-1.8-6.1-3-9.3-4C567.9,694.8,569,694.5,570,694.2   L570,694.2z"/>
	<path class="st167" d="M468.4,704.8c12.3-13.9,22.7-29.6,30.6-46.4c0.5,1.3,1.1,2.7,1.6,4c-4.8,10.5-10.9,20.3-17.5,29.7   c-4,5.2-8,10.4-12.5,15.2C469.8,706.6,469.1,705.7,468.4,704.8L468.4,704.8z"/>
	<path class="st168" d="M198.9,674.4c-1.1-4.2-3.3-9-0.5-13.1c0.3,1.3,0.7,2.7,1,4.1c-0.7,6,4,12,10.2,12c6.5,0.5,11.8-5.9,11-12.2   c0.4,0.6,0.8,1.2,1.2,1.8c0.2-0.7,0.6-2.2,0.8-2.9c1.1,4.3-0.9,8.7-3.1,12.3C213.5,681,203.9,680.2,198.9,674.4L198.9,674.4z"/>
	<path class="st169" d="M515.6,661.9c11.8,1.7,22.3,8.6,29.9,17.6c2.3,2.9,6.3,3.2,9.2,5.2c5.4,2.8,9.1,8.4,15.3,9.6   c-1.1,0.3-2.1,0.6-3.2,0.9c-0.6,0.1-1.8,0.2-2.4,0.3c-4.7-4.3-9.8-8.4-15.7-11c-3.8-1.4-5.9-4.9-8.9-7.4   c-6.8-5.9-14.6-11.5-23.9-12.3C515.9,664,515.7,662.6,515.6,661.9L515.6,661.9z"/>
	<path class="st170" d="M101.5,665.3c1.3,0.2,2.6,0.3,3.9,0.5c3.1,5.9,6.5,11.7,10.4,17.2c6.3,9.4,13.3,18.3,21.1,26.5   c-1.3,0.2-2.6,0.4-3.9,0.6c-11.2-11.6-20.5-24.9-28.5-38.9C103.4,669.4,102.4,667.3,101.5,665.3L101.5,665.3z"/>
	<path class="st171" d="M103.1,673c0.5-0.6,0.9-1.2,1.4-1.7c8,14,17.3,27.2,28.5,38.9c-9.4,0.9-19.9,3-28.1-2.9   c-10.4,5.2-22.4,4.3-33.6,3.1c1.1-3.9,1.4-7.9,2.4-11.8c0.3,0.5,0.9,1.5,1.2,2c-0.2,2.7-2.1,6-0.2,8.3c9.2,1.4,19.2,1.6,27.8-2.4   c3.2-1.3,5.8,1.2,8.6,2.2c5.6,1.7,11.6,1,17.3,0.1c-2.8-4.4-6.6-8.1-9.7-12.3c-3.2-4.3-6.5-8.6-9.3-13.2   C107.4,679.8,105.5,676.2,103.1,673L103.1,673z"/>
	<path class="st172" d="M103.1,673c2.5,3.2,4.3,6.8,6.4,10.2c2.8,4.6,6.1,8.8,9.3,13.2c3.1,4.2,6.9,7.9,9.7,12.3   c-5.7,0.9-11.7,1.6-17.3-0.1c-2.8-0.9-5.5-3.5-8.6-2.2c-8.6,3.9-18.6,3.8-27.8,2.4c-1.9-2.3,0-5.6,0.2-8.3c4.9-0.2,10-0.7,14.3-3.3   C97.6,692.3,102.5,682.6,103.1,673L103.1,673z"/>
	<path class="st173" d="M502.9,703.8c11.1-0.4,22.3,0.4,33.4-1c11.7,0,23.4-0.1,35.1-0.2c1.8,0.1,4-0.3,5.2,1.4   c-12,0-23.9,0.8-35.9,1c-22.1,0.5-44.2,1.4-66.3,1.9c0.9-0.8,1.8-1.7,2.6-2.5C485.7,704.6,494.3,703.8,502.9,703.8L502.9,703.8z"/>
	<path class="st174" d="M463.1,712.3c2.8-0.4,5.3-2.1,8.3-1.8c0.6,1.8-0.8,3.9-2.8,3.6c-8.1,0.6-16.3,1.1-24.3,2.4   c-0.3-0.1-1-0.4-1.3-0.5C449.7,714.7,456.4,713.5,463.1,712.3L463.1,712.3z"/>
</g>
<script xmlns=""/></svg>