<?xml version="1.0" ?><svg id="Layer_1" style="enable-background:new 0 0 24 24;" version="1.1" viewBox="0 0 24 24" xml:space="preserve" xmlns="http://www.w3.org/2000/svg" xmlns:xlink="http://www.w3.org/1999/xlink"><title/><g id="Candy_Stick_1"><g><path d="M5.592,23l14.29-13.49    c2.085-1.959,2.187-5.237,0.228-7.322c-0.074-0.078-0.15-0.154-0.228-0.228l0,0c-2.051-1.928-5.249-1.928-7.3,0l-1.83,1.71    c-0.696,0.655-0.729,1.75-0.075,2.445c0.024,0.026,0.049,0.05,0.075,0.075l0,0c0.684,0.639,1.746,0.639,2.43,0l1.83-1.72    c0.684-0.639,1.746-0.639,2.43,0l0,0c0.696,0.655,0.729,1.75,0.075,2.445c-0.024,0.026-0.049,0.05-0.075,0.075l-14.43,13.6    c-0.666,0.614-0.707,1.652-0.093,2.317C2.949,22.94,2.98,22.97,3.012,23l0,0c0.722,0.66,1.828,0.66,2.55,0H5.592z" style="fill:none;stroke:#303C42;stroke-linecap:round;stroke-linejoin:round;"/><g><line style="fill:none;stroke:#303C42;stroke-linecap:round;stroke-linejoin:round;" x1="21.102" x2="17.932" y1="3.71" y2="5.33"/><line style="fill:none;stroke:#303C42;stroke-linecap:round;stroke-linejoin:round;" x1="15.142" x2="12.092" y1="13.98" y2="12.04"/><line style="fill:none;stroke:#303C42;stroke-linecap:round;stroke-linejoin:round;" x1="7.512" x2="4.462" y1="21.19" y2="19.25"/><line style="fill:none;stroke:#303C42;stroke-linecap:round;stroke-linejoin:round;" x1="6.992" x2="10.032" y1="16.86" y2="18.8"/><line style="fill:none;stroke:#303C42;stroke-linecap:round;stroke-linejoin:round;" x1="9.542" x2="12.592" y1="14.45" y2="16.39"/><line style="fill:none;stroke:#303C42;stroke-linecap:round;stroke-linejoin:round;" x1="14.642" x2="17.692" y1="9.63" y2="11.57"/><line style="fill:none;stroke:#303C42;stroke-linecap:round;stroke-linejoin:round;" x1="20.202" x2="17.202" y1="9.13" y2="7.22"/><line style="fill:none;stroke:#303C42;stroke-linecap:round;stroke-linejoin:round;" x1="16.402" x2="18.172" y1="4" y2="0.87"/><line style="fill:none;stroke:#303C42;stroke-linecap:round;stroke-linejoin:round;" x1="12.682" x2="14.702" y1="1.86" y2="4.75"/></g></g></g></svg>