<?xml version="1.0" ?><svg height="58px" version="1.1" viewBox="0 0 47 58" width="47px" xmlns="http://www.w3.org/2000/svg" xmlns:xlink="http://www.w3.org/1999/xlink"><title/><desc/><defs/><g fill="none" fill-rule="evenodd" id="Page-1" stroke="none" stroke-width="1"><g fill-rule="nonzero" id="001---Candy-Cane"><path d="M15.73,37.07 C14.8250876,37.6766219 13.9630463,38.3448709 13.15,39.07 C13.08,39.13 13.01,39.2 12.94,39.26 C11.3507391,40.5571607 10.2015636,42.3141069 9.65,44.29 C9.08,46.86 9.81,49.58 8.27,51.9 C6.97967078,53.6165806 5.0573702,54.7469222 2.93,55.04 L0.72,53.16 C2.85926155,52.9787749 4.83833559,51.9532547 6.22,50.31 C7.88,48.06 7.29,45.31 8,42.77 C8.69115606,40.7412691 10.0075143,38.9837908 11.76,37.75 C12.9191704,36.8138699 14.1647836,35.990158 15.48,35.29 C15.56,35.24 15.64,35.2 15.72,35.16 L15.72,37.01 C15.7184077,37.0305155 15.7218401,37.0511099 15.73,37.07 Z" fill="#CD4F38" id="Shape"/><path d="M15.54,38.5 C14.4000986,40.321045 13.8678597,42.4570036 14.02,44.6 C14.36,47.21 15.97,49.52 15.31,52.23 C14.78,54.4 13.17,55.84 11.35,57 L8.64,55.98 C10.52,54.92 12.2,53.57 12.84,51.42995 C13.64,48.74995 12.15,46.36001 11.95,43.73995 C11.8726568,42.1848894 12.2145771,40.6376136 12.94,39.25995 C13.01,39.19995 13.08,39.12995 13.15,39.06995 C13.9630463,38.3448209 14.8250876,37.6765719 15.73,37.06995 C15.7369986,37.309498 15.8333029,37.5377749 16,37.70995 C15.8333871,37.9653405 15.6798559,38.2290304 15.54,38.5 L15.54,38.5 Z" fill="#944143" id="Shape"/><path d="M8.03,28.32 C7.10961903,27.9837298 6.08302375,28.1180836 5.28017537,28.6798783 C4.47732699,29.2416729 3.99939761,30.1601131 4,31.14 L4,35.57 C4.00134455,36.5491412 4.47971863,37.4662087 5.2819566,38.0275762 C6.08419458,38.5889437 7.10965263,38.7241855 8.03,38.39 L14.98,35.86 C14.97,35.85 14.98,35.84 15,35.83 L15,30.85 L8.03,28.32 Z M10.69,32.56 L7.53,33.82 C7.37564103,33.8814906 7.20075317,33.8616714 7.06406877,33.7671984 C6.92738436,33.6727253 6.84703339,33.5161294 6.85,33.35 L6.85,30.83 C6.84773235,30.664611 6.92887531,30.5091917 7.06587712,30.416514 C7.20287894,30.3238363 7.37733144,30.3063528 7.53,30.37 L10.69,31.63 C10.8764474,31.7093395 10.9974773,31.8923738 10.9974773,32.095 C10.9974773,32.2976262 10.8764474,32.4806605 10.69,32.56 L10.69,32.56 Z" fill="#CD4F38" id="Shape"/><path d="M45.71,8.92 C43.207306,3.24653386 37.4629911,-0.293937275 31.27,0.02 C28.6742686,0.140453032 26.1591631,0.959244257 23.99,2.39 C19.6211457,5.28521901 16.9959111,10.1788967 17,15.42 L17,27.85 L23,27.85 L23,15 C23.0019943,12.5094808 24.0351472,10.1309562 25.8539637,8.42960487 C27.6727802,6.72825359 30.1148881,5.85596135 32.6,6.02 C32.71,6.03 32.82,6.04 32.92,6.05 C36.3765208,6.4494256 39.2990213,8.79286684 40.44,12.08 C40.8101585,13.1166797 40.9995769,14.2092176 41,15.31 L41,20 C41.0002502,20.5980933 41.1777205,21.1827013 41.51,21.68 C41.5609608,21.7607243 41.6177802,21.8375976 41.68,21.91 C41.74,21.98 41.81,22.05 41.88,22.12 C42.7372831,22.9787995 44.0277028,23.2361592 45.1488481,22.771935 C46.2699933,22.3077108 47.0007593,21.2134538 47,20 L47,15 C47.0024371,12.9051581 46.562864,10.8333718 45.71,8.92 L45.71,8.92 Z" fill="#BDDCF3" id="Shape"/><path d="M17,44.55 L17,55 C17,56.6568542 18.3431458,58 20,58 C21.6568542,58 23,56.6568542 23,55 L23,38.85 L17,38.85 L17,44.55 Z" fill="#BDDCF3" id="Shape"/><path d="M23,23.57 L23,27.85 L17,27.85 L17,23.71 C18.9976816,23.9219623 21.0143787,23.8749061 23,23.57 Z" fill="#CD4F38" id="Shape"/><path d="M25.49,8.79 C23.8893345,10.4608639 22.9970706,12.6861488 23,15 L23,16.5 C21.0119599,16.7736999 18.9998017,16.8273575 17,16.66 L17,15.42 C16.9959111,10.1788967 19.6211457,5.28521901 23.99,2.39 C24.1928834,4.58223122 24.6976551,6.73592383 25.49,8.79 Z" fill="#CD4F38" id="Shape"/><path d="M47,17.74 L47,20 C47.0007593,21.2134538 46.2699933,22.3077108 45.1488481,22.771935 C44.0277028,23.2361592 42.7372831,22.9787995 41.88,22.12 C41.81,22.05 41.74,21.98 41.68,21.91 C41.6177802,21.8375976 41.5609608,21.7607243 41.51,21.68 C41.1777205,21.1827013 41.0002502,20.5980933 41,20 L41,19.4 C43.0609604,19.0969597 45.0763566,18.5393668 47,17.74 L47,17.74 Z" fill="#CD4F38" id="Shape"/><path d="M45.71,8.92 C44.0789829,10.1699683 42.3109253,11.2301318 40.44,12.08 C39.2990213,8.79286684 36.3765208,6.4494256 32.92,6.05 C33.7940356,4.04701759 35.0586918,2.23842337 36.64,0.73 C40.6864488,2.05286331 43.9824503,5.02907634 45.71,8.92 L45.71,8.92 Z" fill="#CD4F38" id="Shape"/><path d="M23,52.5 L23,55 C23,56.6568542 21.6568542,58 20,58 C18.3431458,58 17,56.6568542 17,55 L17,52.43 C18.9933551,52.6418533 21.0022449,52.6652903 23,52.5 Z" fill="#CD4F38" id="Shape"/><path d="M23,38.85 L23,44.76 C20.9976568,44.8008195 18.9945896,44.7307122 17,44.55 L17,38.85 L23,38.85 Z" fill="#CD4F38" id="Shape"/><path d="M25,28.85 L25,37.85 C25.0009207,38.1154977 24.8958596,38.3703869 24.7081233,38.5581233 C24.5203869,38.7458596 24.2654977,38.8509207 24,38.85 L16,38.85 C15.7293937,38.8510366 15.4698092,38.7428764 15.28,38.55 C15.113307,38.3778221 15.0170034,38.1495469 15.01,37.91 C15.0018385,37.8911103 14.9984061,37.8705156 15,37.85 L15,28.85 C15.0016474,28.2983991 15.4483991,27.8516474 16,27.85 L24,27.85 C24.5516009,27.8516474 24.9983526,28.2983991 25,28.85 Z" fill="#944143" id="Shape"/><path d="M33,28.14 C32.6489594,28.1413372 32.3006879,28.2022002 31.97,28.32 L25,30.85 L25,35.85 L31.97,38.39 C32.8903474,38.7241855 33.9158054,38.5889437 34.7180434,38.0275762 C35.5202814,37.4662087 35.9986555,36.5491412 36,35.57 L36,31.14 C35.998974,29.4835709 34.6564291,28.141026 33,28.14 L33,28.14 Z M33.15,33.35 C33.1529666,33.5161294 33.0726156,33.6727253 32.9359312,33.7671984 C32.7992468,33.8616714 32.624359,33.8814906 32.47,33.82 L29.31,32.56 C29.1235526,32.4806605 29.0025227,32.2976262 29.0025227,32.095 C29.0025227,31.8923738 29.1235526,31.7093395 29.31,31.63 L32.47,30.37 C32.6226686,30.3063528 32.7971211,30.3238363 32.9341229,30.416514 C33.0711247,30.5091917 33.1522677,30.664611 33.15,30.83 L33.15,33.35 Z" fill="#CD4F38" id="Shape"/></g></g></svg>