<?xml version="1.0" ?><!DOCTYPE svg  PUBLIC '-//W3C//DTD SVG 1.1//EN'  'http://www.w3.org/Graphics/SVG/1.1/DTD/svg11.dtd'><svg enable-background="new 0 0 75 75" height="75px" id="Layer_1" version="1.1" viewBox="0 0 75 75" width="75px" xml:space="preserve" xmlns="http://www.w3.org/2000/svg" xmlns:xlink="http://www.w3.org/1999/xlink"><g><g><g><polygon fill="#C6621E" points="41.634,67.37 33.364,67.37 34.743,58.421 40.257,58.421    "/><polygon fill="#A0490E" points="39.198,67.37 35.802,67.37 36.366,58.421 38.632,58.421    "/><g><g><path d="M47.759,29.604c-1.15-0.396-2.246-1.254-3.146-2.598l-7.111-12.934l-7.113,12.934       c-0.898,1.344-1.994,2.201-3.145,2.598H47.759z" fill="#0CAFAF"/></g><path d="M37.501,14.073l-7.113,12.934c-0.898,1.344-1.994,2.201-3.145,2.598h10.258V14.073z" fill="#1BC1A9"/><path d="M48.976,38.825l-5.072-9.221H31.099l-5.074,9.221c-1.447,2.172-3.215,3.553-5.07,4.191h33.094      C52.192,42.378,50.425,40.997,48.976,38.825z" fill="#1BC1A9"/><g><path d="M53.235,52.675l-5.312-9.658H27.077l-5.312,9.658c-1.986,2.977-4.41,4.871-6.955,5.746H60.19       C57.646,57.546,55.222,55.651,53.235,52.675z" fill="#1BC1A9"/></g></g><g><g><path d="M43.757,29.604c-0.703-0.396-1.371-1.254-1.918-2.598l-4.338-12.934l-4.34,12.934       c-0.547,1.344-1.215,2.201-1.918,2.598H43.757z" fill="#109BAD"/></g><path d="M33.161,27.007c-0.547,1.344-1.215,2.201-1.918,2.598h6.258V14.073L33.161,27.007z" fill="#0CAFAF"/><path d="M44.499,38.825l-3.092-9.221h-7.812l-3.094,9.221c-0.883,2.172-1.961,3.553-3.092,4.191h20.184      C46.46,42.378,45.384,40.997,44.499,38.825z" fill="#0CAFAF"/><path d="M48.976,38.825l-5.072-9.221H31.565l-0.322,0.322l13.09,13.09h9.715      C52.192,42.378,50.425,40.997,48.976,38.825z" fill="#0CAFAF"/><path d="M44.499,38.825l-3.092-9.221h-7.812l-0.672,2.002l11.41,11.41h3.26      C46.46,42.378,45.384,40.997,44.499,38.825z" fill="#109BAD"/><g><path d="M47.097,52.675l-3.238-9.658H31.144l-3.24,9.658c-1.213,2.977-2.689,4.871-4.244,5.746h27.68       C49.788,57.546,48.31,55.651,47.097,52.675z" fill="#0CAFAF"/></g><path d="M53.235,52.675l-5.312-9.658H28.124l-0.715,0.715l14.689,14.689H60.19      C57.646,57.546,55.222,55.651,53.235,52.675z" fill="#0CAFAF"/><path d="M47.097,52.675l-3.238-9.658H31.144l-1.117,3.332l12.072,12.072h9.24      C49.788,57.546,48.31,55.651,47.097,52.675z" fill="#109BAD"/></g><g><path d="M45.661,68.12H29.339c-0.414,0-0.75-0.336-0.75-0.75s0.336-0.75,0.75-0.75h16.322      c0.414,0,0.75,0.336,0.75,0.75S46.075,68.12,45.661,68.12z" fill="#A0490E"/></g></g></g><g><path d="M41.55,9.796c-0.07-0.219-0.26-0.377-0.486-0.41l-2.088-0.303L38.04,7.19    c-0.203-0.412-0.877-0.412-1.082,0l-0.934,1.893l-2.088,0.303c-0.229,0.033-0.416,0.191-0.488,0.41    c-0.07,0.219-0.012,0.459,0.154,0.619l1.51,1.473l-0.355,2.08c-0.039,0.227,0.055,0.455,0.24,0.59s0.432,0.154,0.635,0.047    l1.867-0.982l1.869,0.982c0.088,0.045,0.184,0.068,0.281,0.068c0.123,0,0.248-0.039,0.354-0.115    c0.186-0.135,0.279-0.363,0.24-0.59l-0.357-2.08l1.512-1.473C41.562,10.255,41.622,10.015,41.55,9.796z" fill="#ED9015"/><path d="M36.958,7.19l-0.934,1.893l-2.088,0.303c-0.229,0.033-0.416,0.191-0.488,0.41    c-0.07,0.219-0.012,0.459,0.154,0.619l1.51,1.473l-0.355,2.08c-0.039,0.227,0.055,0.455,0.24,0.59s0.432,0.154,0.635,0.047    l1.867-0.982V6.88C37.28,6.88,37.06,6.983,36.958,7.19z" fill="#EAB818"/></g><g><path d="M24.22,43.767c-0.414,0-0.75-0.336-0.75-0.75s0.336-0.75,0.75-0.75c6.98,0,12.66-5.68,12.66-12.662    c0-0.414,0.336-0.75,0.75-0.75s0.75,0.336,0.75,0.75C38.38,37.414,32.027,43.767,24.22,43.767z" fill="#1BC1A9"/></g><g><path d="M34.405,43.767c-0.414,0-0.75-0.336-0.75-0.75s0.336-0.75,0.75-0.75c5.02,0,9.104-4.084,9.104-9.104    c0-0.414,0.336-0.75,0.75-0.75s0.75,0.336,0.75,0.75C45.009,39.01,40.252,43.767,34.405,43.767z" fill="#1BC1A9"/></g><g><path d="M19.048,59.089c-0.414,0-0.75-0.336-0.75-0.75s0.336-0.75,0.75-0.75c8.036,0,14.574-6.537,14.574-14.572    c0-0.414,0.336-0.75,0.75-0.75s0.75,0.336,0.75,0.75C35.122,51.879,27.911,59.089,19.048,59.089z" fill="#1BC1A9"/></g><g><path d="M32.29,59.171c-0.414,0-0.75-0.336-0.75-0.75s0.336-0.75,0.75-0.75c8.08,0,14.654-6.574,14.654-14.654    c0-0.414,0.336-0.75,0.75-0.75s0.75,0.336,0.75,0.75C48.444,51.924,41.197,59.171,32.29,59.171z" fill="#1BC1A9"/></g><g><path d="M30.026,30.354c-0.414,0-0.75-0.336-0.75-0.75s0.336-0.75,0.75-0.75c5.231,0,9.488-4.257,9.488-9.49    c0-0.414,0.336-0.75,0.75-0.75s0.75,0.336,0.75,0.75C41.015,25.424,36.085,30.354,30.026,30.354z" fill="#1BC1A9"/></g><g><circle cx="29.075" cy="42.517" fill="#EF678B" r="1.832"/><path d="M29.075,42.017c-0.775,0-1.436,0.484-1.703,1.166c0.268,0.682,0.928,1.166,1.703,1.166    c0.777,0,1.436-0.484,1.703-1.166C30.511,42.501,29.853,42.017,29.075,42.017z" fill="#D84875"/></g><g><circle cx="40.682" cy="43.017" fill="#EF678B" r="1.833"/><path d="M40.683,42.517c-0.777,0-1.436,0.484-1.703,1.166c0.268,0.682,0.926,1.166,1.703,1.166    c0.775,0,1.436-0.484,1.703-1.166C42.118,43.001,41.458,42.517,40.683,42.517z" fill="#D84875"/></g><g><circle cx="49.426" cy="58.339" fill="#EF678B" r="1.833"/><path d="M49.427,57.839c-0.777,0-1.436,0.486-1.703,1.168c0.268,0.68,0.926,1.164,1.703,1.164    c0.775,0,1.436-0.484,1.703-1.164C50.862,58.325,50.202,57.839,49.427,57.839z" fill="#D84875"/></g><g><circle cx="24.219" cy="58.017" fill="#EF678B" r="1.833"/><path d="M24.22,57.517c-0.777,0-1.436,0.484-1.703,1.166c0.268,0.682,0.926,1.166,1.703,1.166    c0.775,0,1.436-0.484,1.703-1.166C25.655,58.001,24.995,57.517,24.22,57.517z" fill="#D84875"/></g><g><circle cx="37.499" cy="31.437" fill="#EAB818" r="1.832"/><path d="M37.499,30.937c-0.775,0-1.436,0.486-1.703,1.168c0.268,0.68,0.928,1.164,1.703,1.164    c0.777,0,1.436-0.484,1.703-1.164C38.935,31.423,38.276,30.937,37.499,30.937z" fill="#ED9015"/></g><g><circle cx="39.534" cy="22.653" fill="#EAB818" r="1.832"/><path d="M39.534,22.153c-0.775,0-1.436,0.484-1.703,1.166c0.268,0.682,0.928,1.166,1.703,1.166    c0.777,0,1.436-0.484,1.703-1.166C40.97,22.638,40.312,22.153,39.534,22.153z" fill="#ED9015"/></g><g><circle cx="44.479" cy="52.511" fill="#EAB818" r="1.833"/><path d="M44.478,52.011c-0.775,0-1.436,0.484-1.701,1.166c0.266,0.682,0.926,1.166,1.701,1.166    c0.777,0,1.436-0.484,1.703-1.166C45.913,52.495,45.255,52.011,44.478,52.011z" fill="#ED9015"/></g><g><circle cx="32.372" cy="49.761" fill="#EAB818" r="1.832"/><path d="M32.372,49.261c-0.777,0-1.436,0.484-1.703,1.166c0.268,0.682,0.926,1.166,1.703,1.166    c0.775,0,1.436-0.484,1.703-1.166C33.808,49.745,33.147,49.261,32.372,49.261z" fill="#ED9015"/></g></g></svg>