<?xml version="1.0" ?><!DOCTYPE svg  PUBLIC '-//W3C//DTD SVG 1.1//EN'  'http://www.w3.org/Graphics/SVG/1.1/DTD/svg11.dtd'><svg height="300px" id="Layer_1" style="enable-background:new 0 0 300 300;" version="1.1" viewBox="0 0 300 300" width="300px" xml:space="preserve" xmlns="http://www.w3.org/2000/svg" xmlns:xlink="http://www.w3.org/1999/xlink"><style type="text/css">
<![CDATA[
	.st0{fill:#47291A;}
	.st1{fill:#486654;}
	.st2{fill:#159347;}
	.st3{fill:#E5820C;}
	.st4{fill:#E59A2E;}
	.st5{fill:#E5E5E5;}
	.st6{fill:#E8DFE2;}
	.st7{fill:#B22D43;}
	.st8{fill:#EABE96;}
	.st9{fill:#EAE7E1;}
	.st10{fill:#EAE8E9;}
	.st11{fill:#B73753;}
	.st12{fill:#1D1E21;}
	.st13{fill:#EBEDF2;}
	.st14{fill:#1DA1DB;}
	.st15{fill:#EDC4A6;}
	.st16{enable-background:new    ;}
	.st17{fill:#EFBF48;}
	.st18{fill:#563F36;}
	.st19{fill:#BCC2CE;}
	.st20{fill:#8E44AD;}
	.st21{fill:#F5AB35;}
	.st22{fill:#282A2B;}
	.st23{fill:#F89406;}
	.st24{clip-path:url(#SVGID_2_);}
	.st25{clip-path:url(#SVGID_4_);}
	.st26{fill:#93213F;}
	.st27{fill:#2AC669;}
	.st28{fill:#C98C49;}
	.st29{opacity:0.5;}
	.st30{opacity:0.6;}
	.st31{opacity:0.8;}
	.st32{fill:#634A42;}
	.st33{fill:#CC9348;}
	.st34{fill:none;stroke:#1DA1DB;stroke-miterlimit:10;}
	.st35{fill:#331606;}
	.st36{fill:#350619;}
	.st37{fill:#D3DBEF;}
	.st38{fill:#D69A51;}
	.st39{fill:#D6DAE5;}
	.st40{fill:#D8A05D;}
	.st41{clip-path:url(#SVGID_10_);}
	.st42{clip-path:url(#SVGID_12_);}
	.st43{clip-path:url(#SVGID_14_);}
	.st44{clip-path:url(#SVGID_16_);}
	.st45{fill:#0B351E;}
	.st46{fill:#45995B;}
]]>
</style><g><circle class="st46" cx="152.96" cy="150" r="136"/></g><g><circle class="st39" cx="153.268" cy="109.122" r="44.526"/></g><g><circle class="st39" cx="153.269" cy="198.869" r="64.128"/></g><g><ellipse class="st12" cx="136.458" cy="102.506" rx="10.829" ry="10.153"/></g><g><ellipse class="st12" cx="169.243" cy="102.506" rx="10.829" ry="10.153"/></g><g><ellipse class="st12" cx="153.268" cy="171.097" rx="9.237" ry="8.661"/></g><g><ellipse class="st12" cx="153.268" cy="193.611" rx="9.237" ry="8.66"/></g><g><rect class="st12" height="14.314" width="111.201" x="97.668" y="74.597"/></g><g><rect class="st12" height="32.308" width="68.562" x="118.987" y="42.666"/></g><g><rect class="st7" height="13.187" width="68.562" x="118.987" y="61.787"/></g><g><path class="st7" d="M116.322,133.606c25.506,6.168,48.387,6.168,73.893,0c0,7.256,0,10.885,0,18.141   c-25.508,6.168-48.385,6.164-73.893,0C116.322,144.491,116.322,140.862,116.322,133.606z"/></g><g><g><polygon class="st33" points="248.711,145.153 234.282,146.405 253.517,130.604 248.438,124.423 236.535,134.201 239.284,122.875     231.511,120.988 226.253,142.647 187.287,174.656 192.365,180.838 223.352,155.384 249.402,153.124   "/></g><g><polygon class="st33" points="74.683,122.655 66.908,124.542 69.657,135.868 57.753,126.09 52.675,132.271 71.91,148.072     57.481,146.82 56.79,154.791 82.841,157.051 113.827,182.505 118.905,176.323 79.94,144.315   "/></g></g><g><path class="st7" d="M185.255,140.408c-1.252,16.277,4.732,32.172,16.393,43.595c-6.792,2.554-10.188,3.83-16.979,6.385   c-11.666-11.427-17.638-27.313-16.395-43.596C175.066,144.238,178.463,142.962,185.255,140.408z"/></g><g><polygon class="st23" points="159.39,112.659 153.34,131.013 147.289,112.659  "/></g></svg>