<?xml version="1.0" ?><svg id="Layer_1" style="enable-background:new 0 0 24 24;" version="1.1" viewBox="0 0 24 24" xml:space="preserve" xmlns="http://www.w3.org/2000/svg" xmlns:xlink="http://www.w3.org/1999/xlink"><title/><g id="Candy_Stick_1"><path d="M22.005,5.48c-0.079-1.482-0.723-2.878-1.8-3.9c-0.539-0.506-1.171-0.903-1.86-1.17l0,0   c-0.681-0.269-1.407-0.408-2.14-0.41h-0.2c-1.348,0.056-2.635,0.58-3.64,1.48l0,0l-0.11,0.09l-1.85,1.73   c-0.897,0.843-0.941,2.255-0.098,3.152c0.032,0.034,0.064,0.066,0.098,0.098c0.877,0.823,2.243,0.823,3.12,0l1.48-1.43l0.3-0.28   c0.27-0.25,0.635-0.37,1-0.33l0,0c0.276,0.026,0.536,0.142,0.74,0.33c0.494,0.474,0.511,1.259,0.037,1.753   c-0.012,0.013-0.024,0.025-0.037,0.037l-0.24,0.23l0,0l-2.51,2.41l-2.55,2.41l-2.55,2.41l0,0l-2.56,2.41l-2.52,2.38l-1.43,1.35   c-0.509,0.464-0.763,1.146-0.68,1.83c0.064,0.501,0.301,0.965,0.67,1.31c0.915,0.844,2.325,0.844,3.24,0l1.92-1.82l2.52-2.38   l2.55-2.41l2.55-2.41l2.55-2.42l2.19-2.06c0.13-0.13,0.26-0.26,0.38-0.4l0,0C21.551,8.375,22.064,6.945,22.005,5.48z M20.115,8.48   l-2.11-1.35c0.342-0.427,0.516-0.964,0.49-1.51l2.34-1.2c0.101,0.358,0.159,0.728,0.17,1.1c0.047,1.06-0.271,2.105-0.9,2.96H20.115   z M14.775,4l-1.42-2c0.763-0.592,1.686-0.94,2.65-1h0.18c0.412,0,0.822,0.054,1.22,0.16l-1.29,2.34   C15.626,3.516,15.156,3.692,14.775,4z M5.235,22.64c-0.535,0.468-1.335,0.468-1.87,0c-0.464-0.426-0.495-1.147-0.069-1.611   c0.022-0.024,0.045-0.047,0.069-0.069l1.14-1.08l2.18,1.39L5.235,22.64z M10.005,18.17l-2.21-1.39l1.8-1.7l2.18,1.39L10.005,18.17z    M15.105,13.35L12.895,12l1.8-1.7l2.18,1.39L15.105,13.35z" style="fill:#303C42;"/></g></svg>