<?xml version="1.0" ?><!DOCTYPE svg  PUBLIC '-//W3C//DTD SVG 1.1//EN'  'http://www.w3.org/Graphics/SVG/1.1/DTD/svg11.dtd'><svg enable-background="new 0 0 512 512" height="512px" id="Layer_1" version="1.1" viewBox="0 0 512 512" width="512px" xml:space="preserve" xmlns="http://www.w3.org/2000/svg" xmlns:xlink="http://www.w3.org/1999/xlink"><g><path d="M257.801,511.618c-29.896,0-55.674-18.618-65.715-45.618h-81.901C83.332,466,59,444.544,59,419.482v-7.642   c0-17.847,12.274-34.369,29.881-41.814c6.022-5.325,10.65-11.578,13.393-18.626c1.806-4.644,2.949-9.929,3.789-15.73   c0.037-3.874-0.063-13.887-0.063-14.998v-0.255c0-1.319,0.303-2.638,0.313-3.957c0.032-3.831,0.208-7.45-0.071-10.556   c-0.194-2.163-0.106-3.988-0.095-5.32c0.001-0.237,0.043-0.475,0.042-0.713c-0.369-2.995-1.291-8.981-1.844-12.397   c-3.103-8.202-5.736-19.759-8.035-35.158c-2.334-15.631-2.832-22.385-2.75-25.932l-0.031-0.002   c2.586-57.618,39.65-107.97,94.795-131.866c-2.532-8.253-3.75-15.233-3.75-21.271C184.575,32.857,217.424,0,257.801,0   c40.376,0,73.224,32.857,73.224,73.245c0,5.819-1.13,12.508-3.478,20.368c23.007,9.618,43.306,24.002,59.627,42.395   c22.737,25.622,35.607,56.636,37.241,89.725c0.12,1.625,0.098,3.401,0.065,6.075l-0.012,1.009c0,18.666-3.733,37.069-11.099,54.741   c-0.783,5.34-2.369,16.355-2.625,18.474c-0.33,3.835-0.436,22.052-0.349,26.31c0.751,5.224,2.892,16.508,4.069,19.619   c3.152,8.176,7.325,14.387,13.274,19.364c15.135,7.705,24.26,22.887,24.26,40.517v7.642c0,26.38-19.811,46.518-45.384,46.518   h-83.102C313.474,493,287.694,511.618,257.801,511.618z" fill="#022F32"/><g><path d="M415.566,391.906c-35.051-26.479-32.417-73.339-25.578-110.975c6.589-14.87,10.425-31.111,10.425-48.128    c0-0.936,0.084-1.866,0.063-2.798c0.023-0.461,0.09-0.904,0.09-1.323c0-0.416-0.024-0.823-0.105-1.224    c-2.563-57.095-45.964-104.604-104.35-118.997c6.345-13.997,10.91-26.939,10.91-35.217c0-27.191-22.037-49.236-49.221-49.236    c-27.185,0-49.222,22.045-49.222,49.236c0,8.385,4.683,21.556,11.158,35.762c-57.308,15.013-99.694,62.055-102.225,118.452    c-0.082,0.4-0.128,0.808-0.128,1.224c0,0.419,0.016,0.862,0.04,1.323c-0.022,0.932-0.038,1.862-0.038,2.798    c0,17.017,3.635,33.256,10.223,48.127c6.772,37.271,7.929,83.587-26.071,110.197C91.987,394.011,84,402.187,84,411.841v7.642    C84,431.541,96.927,441,110.184,441H211.61c0.322,25,20.872,45.617,46.19,45.617c25.317,0,45.867-20.617,46.189-45.617h102.626    c13.257,0,22.384-9.459,22.384-21.518v-7.642C429,402.945,423.955,395.311,415.566,391.906z" fill="#EE514A"/><ellipse cx="258.4" cy="69.771" fill="#FFFFFF" rx="29.403" ry="29.412"/><path d="M389.693,283.196l-29.79,18.488l-40.938-27.03c-2.628-1.735-5.646-2.605-8.671-2.605    c-2.876,0-5.756,0.788-8.299,2.367l-43.936,27.269l-40.938-27.03c-2.626-1.735-5.647-2.605-8.671-2.605    c-2.875,0-5.753,0.788-8.298,2.366l-43.935,27.27l-28.24-18.646c4.322,24.741,6.166,53.152-3.139,77.068l31.207-20.826    l42.746,27.944c2.617,1.711,5.614,2.565,8.611,2.565c3.047,0,6.092-0.884,8.736-2.647l41.75-27.862l42.746,27.944    c2.616,1.711,5.614,2.565,8.612,2.565c3.045,0,6.091-0.884,8.734-2.647l41.751-27.862l32.645,21.343    C383.125,336.65,385.335,308.079,389.693,283.196z" fill="#FFFFFF"/><path d="M130.446,337.418l25.509-17.023l-25.198-16.637C131.761,314.926,131.882,326.354,130.446,337.418z" fill="#19C0F0"/><polygon fill="#19C0F0" points="155.956,320.395 208.452,287.813 257.799,320.395 207.401,354.027   "/><polygon fill="#19C0F0" points="257.799,320.395 310.294,287.813 359.642,320.395 309.245,354.027   "/><path d="M386.939,338.24c-1.432-11.407-1.197-23.219-0.065-34.748l-27.232,16.902L386.939,338.24z" fill="#19C0F0"/></g></g></svg>