<?xml version="1.0" ?><!DOCTYPE svg  PUBLIC '-//W3C//DTD SVG 1.1//EN'  'http://www.w3.org/Graphics/SVG/1.1/DTD/svg11.dtd'><svg height="300px" id="Layer_1" style="enable-background:new 0 0 300 300;" version="1.1" viewBox="0 0 300 300" width="300px" xml:space="preserve" xmlns="http://www.w3.org/2000/svg" xmlns:xlink="http://www.w3.org/1999/xlink"><style type="text/css">
<![CDATA[
	.st0{fill:#B22D43;}
	.st1{fill:#EAE8E9;}
	.st2{fill:#1D1E21;}
	.st3{fill:#563F36;}
	.st4{fill:#282A2B;}
	.st5{opacity:0.3;}
	.st6{fill:#634A42;}
	.st7{fill:#D6DAE5;}
	.st8{fill:#45995B;}
]]>
</style><g><circle class="st8" cx="152.96" cy="146.817" r="136"/></g><g><path class="st3" d="M112.207,176.018c3.087,7.89-4.964,18.414-17.98,23.508c-13.017,5.095-35.603,4.254-35.603,4.254   s11.406-27.729,24.423-32.822C96.064,165.861,109.119,168.128,112.207,176.018z"/></g><g><path class="st6" d="M67.183,198.299c4.751-9.266,11.758-19.879,17.852-22.264c3.922-1.535,7.958-2.346,11.672-2.346   c5.305,0,9.396,1.692,10.421,4.314c1.701,4.346-4.305,12.301-14.888,16.441C85.102,197.239,74.352,198.07,67.183,198.299z"/></g><g><path class="st3" d="M196.191,176.018c-3.088,7.89,4.963,18.414,17.979,23.508c13.017,5.095,35.603,4.254,35.603,4.254   s-11.405-27.729-24.422-32.822C212.334,165.861,199.279,168.128,196.191,176.018z"/></g><g><path class="st6" d="M241.216,198.299c-4.751-9.266-11.758-19.879-17.853-22.264c-3.922-1.535-7.957-2.346-11.672-2.346   c-5.305,0-9.396,1.692-10.42,4.314c-1.701,4.346,4.305,12.301,14.888,16.441C223.297,197.239,234.047,198.07,241.216,198.299z"/></g><g><path class="st3" d="M152.958,122.896c-30.907,0-55.962,22.255-55.962,49.708v60.555H208.92v-60.555   C208.92,145.15,183.865,122.896,152.958,122.896z"/></g><g><ellipse class="st6" cx="152.958" cy="222.47" rx="67.908" ry="48.155"/></g><g><ellipse class="st0" cx="152.958" cy="213.881" rx="52.704" ry="27.747"/></g><g class="st5"><path class="st1" d="M152.958,191.475c-17.646,0-31.923,4.672-40.092,10.775c8.252-3.782,19.432-6.325,32.446-6.325   c28.057,0,47.607,11.81,47.607,22.407c0,3.932-2.696,8.029-7.517,11.63c9.537-4.372,15.162-10.399,15.162-16.081   C200.564,203.283,181.014,191.475,152.958,191.475z"/></g><g><path class="st2" d="M170.367,254.693c0,0,15.748-1.621,27.15-11.578C197.518,243.115,192.63,265.373,170.367,254.693z"/></g><g><ellipse class="st2" cx="168.934" cy="158.963" rx="10.824" ry="13.21"/></g><g><ellipse class="st2" cx="136.354" cy="158.963" rx="10.825" ry="13.21"/></g><g><path class="st4" d="M176.628,162.646c0,4.016-3.444,7.271-7.694,7.271s-7.695-3.257-7.695-7.271c0-4.016,3.445,0,7.695,0   S176.628,158.63,176.628,162.646z"/></g><g><path class="st4" d="M144.556,162.646c0,4.016-3.445,7.271-7.695,7.271s-7.695-3.257-7.695-7.271c0-4.016,3.445,0,7.695,0   S144.556,158.63,144.556,162.646z"/></g><g><circle class="st7" cx="136.353" cy="154.615" r="6.529"/></g><g><circle class="st7" cx="168.934" cy="154.615" r="6.529"/></g><g><path class="st3" d="M124.915,135.007c0,0,14.526-14.022,17.858-21.295c3.333-7.271,5.758,3.135,5.454,7.324   c-0.304,4.19,16.229-7.324,18.568-13.687c2.339-6.363,6.505,6.292,1.393,15.114C163.074,131.285,124.915,135.007,124.915,135.007z"/></g><g><path class="st6" d="M175.462,127.082c0,0,25.644-37.307,20.07-54.274c-5.572-16.967,26.187-45.448,54.241-41.51   c28.056,3.938,17.982,46.237,6.24,44.101c-7.576-1.378-22.726-6.498-22.726,0c0,6.499,27.571,8.014,21.209,20.134   c-6.362,12.12-29.996-0.605-33.632,0.606c-3.637,1.211-28.661,27.136-31.299,38.868   C186.932,146.739,168.234,131.058,175.462,127.082z"/></g><g><path class="st6" d="M130.421,127.082c0,0-25.643-37.307-20.07-54.274c5.572-16.967-26.187-45.448-54.242-41.51   c-28.055,3.938-17.982,46.237-6.239,44.101c7.575-1.378,22.725-6.498,22.725,0c0,6.499-27.572,8.014-21.209,20.134   c6.362,12.12,29.996-0.605,33.632,0.606c3.636,1.211,28.661,27.136,31.298,38.868C118.952,146.739,137.647,131.058,130.421,127.082   z"/></g></svg>