<?xml version="1.0" ?><svg height="59px" version="1.1" viewBox="0 0 59 59" width="59px" xmlns="http://www.w3.org/2000/svg" xmlns:xlink="http://www.w3.org/1999/xlink"><title/><desc/><defs/><g fill="none" fill-rule="evenodd" id="Page-1" stroke="none" stroke-width="1"><g fill-rule="nonzero" id="003---Bauble"><path d="M54.8623,8.273 C52.8895692,8.27135951 51.1926858,6.87648688 50.8093162,4.94136488 C50.4259465,3.00624287 51.4628535,1.06977529 53.285955,0.316137256 C55.1090566,-0.437500773 57.2106449,0.201568162 58.3055715,1.84254509 C59.4004981,3.48352201 59.1838415,5.66941834 57.78809,7.06353 L57.78809,7.06353 C57.0125596,7.83985741 55.9596273,8.27512108 54.8623,8.273 Z M54.8623,2.001 C53.8429719,2.00179258 52.9661387,2.7224908 52.7679981,3.72237613 C52.5698574,4.72226145 53.1055889,5.7228783 54.0475842,6.11233339 C54.9895795,6.50178848 56.0755046,6.17162344 56.6412989,5.32373949 C57.2070932,4.47585554 57.0951901,3.34637778 56.37402,2.626 C55.9732171,2.22501461 55.4292492,2.00011851 54.8623,2.001 Z" fill="#717275" id="Shape"/><path d="M52.14084,15.73373 L55.60192,12.27265 C56.4154199,11.4543706 56.4154199,10.1327394 55.60192,9.31446 L49.68554,3.39808 C48.8672606,2.58458006 47.5456294,2.58458006 46.72735,3.39808 L43.26627,6.85916 L52.14084,15.73373 Z" fill="#B4B4B3" id="Shape"/><circle cx="28.23868" cy="30.76132" fill="#23B972" id="Oval" r="28.23868"/><path d="M48.293,30.207 L45.5,30.207 L47.64648,28.06052 C47.8383616,27.8647223 47.8367767,27.5509224 47.6429271,27.3570729 C47.4490776,27.1632233 47.1352777,27.1616384 46.93948,27.35352 L44.08594,30.207 L39.69305,30.207 C34.98132,27.3082 36.34491,23.66678 36.58521,23.1218 L39.81348,19.89352 L43.84912,19.89352 C44.1252624,19.89352 44.34912,19.6696624 44.34912,19.39352 C44.34912,19.1173776 44.1252624,18.89352 43.84912,18.89352 L40.81348,18.89352 L42.78857,16.91843 C42.9804516,16.7226323 42.9788667,16.4088324 42.7850171,16.2149829 C42.5911676,16.0211333 42.2773677,16.0195484 42.08157,16.21143 L40.10648,18.18652 L40.10648,15.15088 C40.10648,14.8747376 39.8826224,14.65088 39.60648,14.65088 C39.3303376,14.65088 39.10648,14.8747376 39.10648,15.15088 L39.10648,19.18652 L35.878,22.415 C35.332,22.65609 31.69081,24.01827 28.793,19.307 L28.793,14.91406 L31.64651,12.06055 C31.8383916,11.8647523 31.8368067,11.5509524 31.6429571,11.3571029 C31.4491076,11.1632533 31.1353077,11.1616684 30.93951,11.35355 L28.793,13.5 L28.793,10.707 C28.793,10.4308576 28.5691424,10.207 28.293,10.207 C28.0168576,10.207 27.793,10.4308576 27.793,10.707 L27.793,13.5 L25.64651,11.35352 C25.4507123,11.1616384 25.1369124,11.1632233 24.9430629,11.3570729 C24.7492133,11.5509224 24.7476284,11.8647223 24.93951,12.06052 L27.793,14.91406 L27.793,19.307 C24.89462,24.01964 21.25369,22.65612 20.708,22.415 L17.479,19.186 L17.479,15.15088 C17.479,14.8747376 17.2551424,14.65088 16.979,14.65088 C16.7028576,14.65088 16.479,14.8747376 16.479,15.15088 L16.479,18.186 L14.50439,16.21139 C14.3085923,16.0195084 13.9947924,16.0210933 13.8009429,16.2149429 C13.6070933,16.4087924 13.6055084,16.7225923 13.79739,16.91839 L15.77249,18.89348 L12.73633,18.89348 C12.4601876,18.89348 12.23633,19.1173376 12.23633,19.39348 C12.23633,19.6696224 12.4601876,19.89348 12.73633,19.89348 L16.77246,19.89348 L20.00073,23.12176 C20.24103,23.66676 21.60461,27.30816 16.89288,30.20696 L12.5,30.20696 L9.64648,27.35345 C9.52062011,27.2250214 9.33548611,27.1740762 9.16163926,27.2200315 C8.98779241,27.2659869 8.85201685,27.4017624 8.80606155,27.5756093 C8.76010624,27.7494561 8.8110514,27.9345901 8.93948,28.06045 L11.08594,30.207 L8.293,30.207 C8.01685763,30.207 7.793,30.4308576 7.793,30.707 C7.793,30.9831424 8.01685763,31.207 8.293,31.207 L11.086,31.207 L8.93945,33.35352 C8.8110214,33.4793799 8.76007624,33.6645139 8.80603155,33.8383607 C8.85198685,34.0122076 8.98776241,34.1479831 9.16160926,34.1939385 C9.33545611,34.2398938 9.52059011,34.1889486 9.64645,34.06052 L12.5,31.207 L16.89288,31.207 C21.60461,34.1058 20.24103,37.74722 20.00073,38.29221 L16.772,41.521 L12.73633,41.521 C12.4601876,41.521 12.23633,41.7448576 12.23633,42.021 C12.23633,42.2971424 12.4601876,42.521 12.73633,42.521 L15.772,42.521 L13.79739,44.49561 C13.6689614,44.6214699 13.6180162,44.8066039 13.6639715,44.9804507 C13.7099269,45.1542976 13.8457024,45.2900731 14.0195493,45.3360285 C14.1933961,45.3819838 14.3785301,45.3310386 14.50439,45.20261 L16.479,43.228 L16.479,46.26364 C16.479,46.5397824 16.7028576,46.76364 16.979,46.76364 C17.2551424,46.76364 17.479,46.5397824 17.479,46.26364 L17.479,42.228 L20.70776,38.99924 C21.25276,38.759 24.89459,37.39584 27.79297,42.10709 L27.79297,46.5 L24.93945,49.35352 C24.8110214,49.4793799 24.7600762,49.6645139 24.8060315,49.8383607 C24.8519869,50.0122076 24.9877624,50.1479831 25.1616093,50.1939385 C25.3354561,50.2398938 25.5205901,50.1889486 25.64645,50.06052 L27.793,47.91406 L27.793,50.70706 C27.793,50.9832024 28.0168576,51.20706 28.293,51.20706 C28.5691424,51.20706 28.793,50.9832024 28.793,50.70706 L28.793,47.91406 L30.93948,50.06055 C31.1352777,50.2524316 31.4490776,50.2508467 31.6429271,50.0569971 C31.8367767,49.8631476 31.8383616,49.5493477 31.64648,49.35355 L28.793,46.5 L28.793,42.10712 C31.69229,37.39581 35.33365,38.75946 35.87826,38.99933 L39.10648,42.22754 L39.10648,46.26367 C39.10648,46.5398124 39.3303376,46.76367 39.60648,46.76367 C39.8826224,46.76367 40.10648,46.5398124 40.10648,46.26367 L40.10648,43.22754 L42.08157,45.20264 C42.2773677,45.3945216 42.5911676,45.3929367 42.7850171,45.1990871 C42.9788667,45.0052376 42.9804516,44.6914377 42.78857,44.49564 L40.814,42.521 L43.84916,42.521 C44.1253024,42.521 44.34916,42.2971424 44.34916,42.021 C44.34916,41.7448576 44.1253024,41.521 43.84916,41.521 L39.814,41.521 L36.58525,38.29224 C36.34495,37.74724 34.98136,34.10583 39.69309,31.20703 L44.08598,31.20703 L46.93949,34.06055 C47.1352877,34.2524316 47.4490876,34.2508467 47.6429371,34.0569971 C47.8367867,33.8631476 47.8383716,33.5493477 47.64649,33.35355 L45.5,31.207 L48.293,31.207 C48.5691424,31.207 48.793,30.9831424 48.793,30.707 C48.793,30.4308576 48.5691424,30.207 48.293,30.207 Z M37.97226,30.207 L29.5,30.207 L35.2652,24.4418 C35.0959764,26.7049326 36.1227792,28.8917291 37.97223,30.207 L37.97226,30.207 Z M33.99365,23.7627 C34.19147,23.7627 34.37823,23.75153 34.5578,23.73517 L28.793,29.5 L28.793,21.04242 C30.0024095,22.7164484 31.9288132,23.7240835 33.99365,23.7627 Z M22.59229,23.7627 C24.6571311,23.7239241 26.583502,22.7162734 27.793,21.0423 L27.793,29.5 L22.02817,23.73517 C22.2077,23.75153 22.39447,23.7627 22.59229,23.7627 L22.59229,23.7627 Z M21.32074,24.44183 L27.08594,30.20703 L18.61371,30.20703 C20.4631576,28.8917565 21.4899596,26.7049618 21.32074,24.44183 L21.32074,24.44183 Z M18.61374,31.20703 L27.08597,31.20703 L21.32077,36.97223 C21.4899917,34.7090825 20.463177,32.5222736 18.61371,31.207 L18.61374,31.20703 Z M22.02768,37.67938 L27.793,31.91406 L27.793,40.38635 C26.4777587,38.5367878 24.2908431,37.5099785 22.02765,37.67938 L22.02768,37.67938 Z M28.793,40.38647 L28.793,31.91406 L34.55832,37.67938 C32.2951705,37.5103214 30.1084067,38.5371102 28.793,40.38647 L28.793,40.38647 Z M35.26523,36.97223 L29.5,31.207 L37.97223,31.207 C36.1227712,32.5222779 35.0959676,34.7090875 35.2652,36.97223 L35.26523,36.97223 Z" fill="#FFFFFF" id="Shape"/></g></g></svg>