<?xml version="1.0" ?><!DOCTYPE svg  PUBLIC '-//W3C//DTD SVG 1.1//EN'  'http://www.w3.org/Graphics/SVG/1.1/DTD/svg11.dtd'><svg height="300px" id="Layer_1" style="enable-background:new 0 0 300 300;" version="1.1" viewBox="0 0 300 300" width="300px" xml:space="preserve" xmlns="http://www.w3.org/2000/svg" xmlns:xlink="http://www.w3.org/1999/xlink"><style type="text/css">
<![CDATA[
	.st0{fill:#E59A2E;}
	.st1{fill:#B22D43;}
	.st2{fill:#EAE7E1;}
	.st3{fill:#F5AB35;}
	.st4{fill:#2AC669;}
	.st5{opacity:0.3;}
	.st6{fill:#45995B;}
]]>
</style><g><circle class="st1" cx="152.96" cy="150" r="136"/></g><g><circle class="st0" cx="215.87" cy="180.532" r="9.727"/></g><g><g><path class="st3" d="M248.896,156.995c-5.633,0.565-17.34-11.947-34.363-41.957    c-6.122-10.791-17.363-16.849-28.941-16.871c-0.193-0.426-0.4-0.85-0.637-1.266l-2.902-5.115    c-4.175-7.359-13.523-9.941-20.882-5.766l-2.116,1.199c-7.356,4.175-9.938,13.523-5.764,20.883l2.9,5.116    c0.236,0.415,0.494,0.811,0.761,1.196c-5.92,9.949-6.489,22.706-0.368,33.497c17.16,30.248,21.837,46.743,18.305,51.134    l-0.883,0.764c0,0,9.618,0.693,40.707-16.942c31.09-17.636,35.428-26.248,35.428-26.248L248.896,156.995z M158.365,105.223    c-2.581-4.548-0.98-10.347,3.566-12.927l2.116-1.2c4.548-2.579,10.347-0.979,12.929,3.569l2.32,4.094    c-3.482,0.666-6.92,1.896-10.177,3.742c-3.257,1.849-6.074,4.167-8.435,6.815L158.365,105.223z" id="SVGID_5_"/></g></g><g><path class="st0" d="M168.598,171.089c3.612,7.914,5.813,14.158,6.791,18.804c24.93-7.61,46.36-19.66,65.752-36.973   c-3.49-3.173-7.74-8.255-12.718-15.447C210.594,152.807,191.018,163.801,168.598,171.089z"/></g><g class="st5"><path class="st2" d="M159.548,120.871l1.408-2.369l1.835-2.056c2.107-2.367,4.573-4.359,7.325-5.921   c2.753-1.562,5.727-2.654,8.841-3.251l2.707-0.518l2.754,0.005c10.393,0.021,20.025,5.636,25.145,14.654   c13.943,24.582,23.168,35.577,29.205,40.444c1.246-1.01,2.305-1.918,3.19-2.721c-5.929-3.932-15.625-14.431-31.233-41.941   c-5.115-9.021-14.748-14.635-25.143-14.654l-2.754-0.005l-2.707,0.518c-3.113,0.597-6.088,1.69-8.842,3.252   c-2.752,1.561-5.215,3.554-7.324,5.92l-1.834,2.058l-1.408,2.366c-1.72,2.89-2.888,6.011-3.52,9.219   C157.814,124.149,158.594,122.474,159.548,120.871z"/></g><g><circle class="st0" cx="133.219" cy="239.237" r="13.405"/></g><g><g><path class="st3" d="M189.053,241.777c-6.591-4.176-8.654-27.7-1.611-74.727    c2.529-16.91-4.515-33.035-17.057-42.902c0.153-0.627,0.289-1.263,0.387-1.914l1.199-8.017    c1.728-11.532-6.221-22.279-17.75-24.005l-3.316-0.496c-11.529-1.728-22.278,6.22-24.003,17.752l-1.201,8.017    c-0.098,0.652-0.154,1.3-0.193,1.943c-14.881,5.761-26.34,19.116-28.873,36.025c-7.096,47.399-16.044,69.271-23.609,71.028    l-1.606,0.078c0,0,9.846,8.929,58.562,16.224c48.718,7.293,60.744,1.641,60.744,1.641L189.053,241.777z M134.854,108.66    c1.067-7.127,7.732-12.057,14.858-10.99l3.315,0.497c7.127,1.067,12.057,7.733,10.99,14.86l-0.963,6.415    c-4.346-2.239-9.115-3.826-14.221-4.591c-5.104-0.763-10.131-0.644-14.942,0.224L134.854,108.66z" id="SVGID_7_"/></g></g><g><path class="st0" d="M89.965,188.809c-2.809,11.657-5.728,20.303-8.616,26.17c33.513,12.937,67.005,18.084,102.754,15.785   c-1.088-6.406-1.379-15.533-0.664-27.565C151.064,204.675,120.482,199.961,89.965,188.809z"/></g><g class="st5"><path class="st2" d="M122.835,126.642l3.541-1.373l3.738-0.67c4.301-0.776,8.666-0.842,12.979-0.197   c4.313,0.647,8.468,1.988,12.353,3.988l3.379,1.74l2.982,2.347c11.258,8.854,16.936,23.137,14.819,37.27   c-5.769,38.521-5.108,58.288-2.699,68.7c2.214-0.035,4.132-0.121,5.775-0.238c-3.089-9.305-4.685-28.938,1.771-72.049   c2.116-14.135-3.562-28.412-14.818-37.269l-2.983-2.347l-3.377-1.739c-3.884-1.999-8.041-3.341-12.354-3.987   c-4.312-0.646-8.678-0.579-12.979,0.194l-3.738,0.674l-3.539,1.37c-4.321,1.672-8.242,4.065-11.653,7.009   C118.168,128.724,120.438,127.568,122.835,126.642z"/></g><g><circle class="st4" cx="155.15" cy="92.201" r="15.243"/></g><g><path class="st4" d="M160.16,77.805c0,0,2.99-53.806,27.324-46.806S219.15,68.1,168.137,98.638   C168.137,98.638,157.502,83.277,160.16,77.805z"/></g><g><path class="st6" d="M170.395,89.481c0,0,3.887-30.149,30.321-30.149C200.716,59.332,190.305,65.631,170.395,89.481z"/></g><g><path class="st4" d="M144.23,79.872c0,0-42.813-40.269-56.779-16.443c-13.966,23.824,2.868,53.123,66.137,38.902   C153.588,102.331,150.445,82.198,144.23,79.872z"/></g><g><path class="st6" d="M144.921,96.793c0,0-25.735-20.902-46.625-1.028C98.296,95.765,111.257,92.914,144.921,96.793z"/></g><g><path class="st4" d="M144.286,102.263c0,0-24.286,13.538-30.953,34.471S90,166.998,90,166.998l16.666,8.334   c0,0,18.668-18.333,21.334-31.333s16.799-36.534,24.232-40.101L144.286,102.263z"/></g><g><path class="st4" d="M169.688,95.45c0,0,20.279,2.417,30.652,14.777c10.374,12.358,24.303,14.045,24.303,14.045l-8.996,10.315   c0,0-17.799-7.242-23.24-15.33c-5.441-8.087-21.613-20.129-27.659-20.477L169.688,95.45z"/></g></svg>