<?xml version="1.0" ?><svg id="Layer_1" style="enable-background:new 0 0 24 24;" version="1.1" viewBox="0 0 24 24" xml:space="preserve" xmlns="http://www.w3.org/2000/svg" xmlns:xlink="http://www.w3.org/1999/xlink"><title/><g id="Candy_Stick_2"><g><path d="M14.504,19.63V22c0,0.828-0.672,1.5-1.5,1.5s-1.5-0.672-1.5-1.5v-1.5l0.13-0.2l2.87-0.6V19.63z" style="fill:#F8F8F8;"/><g><path d="M11.504,8.3v2.25c1.204-0.243,2.405,0.427,2.83,1.58h0.08h0.09V7.7L11.504,8.3z" style="fill:#F8F8F8;"/><path d="M5.504,5v2c0,0.828,0.672,1.5,1.5,1.5s1.5-0.672,1.5-1.5V5.3l-3-0.59C5.524,4.8,5.504,4.9,5.504,5     z" style="fill:#D51C29;"/><path d="M10.004,0.5c-0.598-0.001-1.189,0.118-1.74,0.35l0.88,2.93c0.517-0.372,1.213-0.372,1.73,0     l0.87-2.93C11.193,0.618,10.601,0.499,10.004,0.5z" style="fill:#D51C29;"/><path d="M5.534,4.71l3,0.59V5c0.001-0.485,0.235-0.939,0.63-1.22l-0.9-2.93     C6.695,1.515,5.638,3.01,5.534,4.71z" style="fill:#F8F8F8;"/><path d="M14.504,5c0-0.1,0-0.19,0-0.29l-3,0.59v3l3-0.6V5z" style="fill:#D51C29;"/><path d="M11.744,0.85l-0.88,2.93c0.399,0.279,0.637,0.734,0.64,1.22v0.3l3-0.59     C14.395,3.003,13.324,1.506,11.744,0.85z" style="fill:#F8F8F8;"/></g><path d="M12.504,10.55V5c0.006-0.823-0.657-1.494-1.48-1.5    c-0.177-0.001-0.353,0.029-0.52,0.09c0.598,0.211,0.998,0.776,1,1.41v5.55c1.204-0.243,2.405,0.427,2.83,1.58h0.08h0.09V11    c-0.431-0.328-0.958-0.504-1.5-0.5C12.836,10.5,12.669,10.517,12.504,10.55z" style="opacity:0.2;fill:#FFFFFF;enable-background:new    ;"/><path d="M6.504,7V5c0.002-2.287,1.726-4.205,4-4.45    c-0.166-0.026-0.333-0.043-0.5-0.05c-2.485,0-4.5,2.015-4.5,4.5v2c-0.006,0.823,0.657,1.494,1.48,1.5    c0.177,0.001,0.353-0.029,0.52-0.09C6.906,8.199,6.506,7.634,6.504,7z" style="opacity:0.2;fill:#FFFFFF;enable-background:new    ;"/><path d="M10.004,0.5c-0.167,0.007-0.334,0.024-0.5,0.05    c2.274,0.245,3.998,2.163,4,4.45v6c0.376,0.288,0.664,0.676,0.83,1.12h0.08h0.09V5C14.504,2.515,12.489,0.5,10.004,0.5z" style="opacity:0.1;enable-background:new    ;"/><polygon points="14.504,17 11.504,17 11.504,20 14.504,19.5   " style="fill:#D51C29;"/><g><path d="M13.504,22c-0.002,0.634-0.402,1.199-1,1.41     c0.773,0.282,1.628-0.117,1.91-0.89c0.061-0.167,0.091-0.343,0.09-0.52v-2.93l-1,0.21V22z" style="opacity:0.1;enable-background:new    ;"/><path d="M12.504,22v-2.51l-0.87,0.18l-0.13,0.2V22     c-0.006,0.823,0.657,1.494,1.48,1.5c0.177,0.001,0.353-0.029,0.52-0.09C12.906,23.199,12.506,22.634,12.504,22z" style="opacity:0.2;fill:#FFFFFF;enable-background:new    ;"/></g><path d="M7.504,5v2c-0.002,0.634-0.402,1.199-1,1.41    c0.773,0.282,1.628-0.117,1.91-0.89C8.475,7.353,8.505,7.177,8.504,7V5c0.002-0.634,0.402-1.199,1-1.41    c-0.773-0.282-1.628,0.117-1.91,0.89C7.533,4.647,7.503,4.823,7.504,5z" style="opacity:0.1;enable-background:new    ;"/><g><path d="M11.004,14.5c-0.008-1.37,1.096-2.486,2.466-2.494c0.298-0.002,0.594,0.05,0.874,0.154     c-0.469-1.293-1.897-1.96-3.19-1.491s-1.96,1.897-1.491,3.19c0.252,0.693,0.798,1.24,1.491,1.491     C11.055,15.078,11.004,14.79,11.004,14.5z" style="fill:#D51C29;"/><circle cx="13.504" cy="14.5" r="2.5" style="fill:#D51C29;"/><path d="M15.634,15.79L15.634,15.79c-0.449,0.749-1.257,1.208-2.13,1.21h-0.22l0,0     c0.405,0.587,0.488,1.339,0.22,2l0,0c0.79,0.26,1.87,1.25,1.5,2h0.08c0.94-0.323,1.926-0.491,2.92-0.5l0,0     c-0.3-0.89-0.46-2.36,0.32-2.88l0.18-0.12C17.664,17.22,16.004,16.59,15.634,15.79z" style="fill:#0DB14B;"/><path d="M12.064,16.54L12.064,16.54c-0.414-0.296-0.728-0.711-0.9-1.19     c-0.345-0.124-0.659-0.322-0.92-0.58c-0.497,1.063-1.567,1.739-2.74,1.73l0.08,0.3c0.279,1.116,0.279,2.284,0,3.4l-0.08,0.3     c1.313-0.328,2.687-0.328,4,0l1-1.5C12.016,18.279,11.856,17.385,12.064,16.54z" style="fill:#0DB14B;"/><path d="M15.004,19L15.004,19c0.268-0.661,0.185-1.413-0.22-2l0,0     h0.22c0.498-0.005,0.984-0.162,1.39-0.45c-0.318-0.179-0.581-0.442-0.76-0.76c-0.449,0.749-1.257,1.208-2.13,1.21h-0.22l0,0     c0.405,0.587,0.488,1.339,0.22,2l0,0c0.79,0.26,1.87,1.25,1.5,2h0.08c0.483-0.161,0.978-0.281,1.48-0.36     C16.514,19.95,15.664,19.22,15.004,19z" style="opacity:0.2;fill:#FFFFFF;enable-background:new    ;"/><path d="M7.504,20.5c0.509-0.122,1.028-0.196,1.55-0.22V20.2     c0.279-1.116,0.279-2.284,0-3.4l-0.05-0.3c0.855,0.001,1.67-0.363,2.24-1c0-0.06-0.06-0.1-0.09-0.16     c-0.345-0.124-0.659-0.322-0.92-0.58c-0.492,1.063-1.558,1.743-2.73,1.74l0.08,0.3c0.279,1.116,0.279,2.284,0,3.4L7.504,20.5z" style="opacity:0.2;fill:#FFFFFF;enable-background:new    ;"/></g><circle cx="13.004" cy="14" r="0.5" style="opacity:0.2;fill:#FFFFFF;enable-background:new    ;"/><circle cx="11.504" cy="12.5" r="0.5" style="opacity:0.2;fill:#FFFFFF;enable-background:new    ;"/><path d="M18.664,17c-0.901-0.229-1.736-0.663-2.44-1.27c0.623-1.395,0.098-3.036-1.22-3.81V5    c0-0.13,0-0.26,0-0.39l0,0c-0.152-1.882-1.351-3.519-3.1-4.23l0,0c-1.198-0.493-2.542-0.493-3.74,0l0,0    c-1.773,0.694-2.998,2.333-3.16,4.23l0,0c0,0.13,0,0.26,0,0.39v2c0,1.105,0.895,2,2,2s2-0.895,2-2V5c0-0.552,0.448-1,1-1    s1,0.448,1,1v5.18c-1.558,0.564-2.364,2.284-1.8,3.842c0.101,0.279,0.242,0.541,0.42,0.778c-0.456,0.735-1.255,1.187-2.12,1.2    c-0.276-0.003-0.502,0.219-0.505,0.495c0,0.042,0.005,0.084,0.015,0.125l0.08,0.3c0.258,1.034,0.258,2.116,0,3.15l-0.08,0.3    c-0.07,0.267,0.09,0.54,0.358,0.61c0.083,0.022,0.17,0.022,0.252,0c1.108-0.271,2.262-0.295,3.38-0.07V22c0,1.105,0.895,2,2,2    s2-0.895,2-2v-0.53h0.06h0.18c0.889-0.304,1.821-0.463,2.76-0.47c0.276-0.002,0.498-0.228,0.496-0.504    c0-0.053-0.009-0.106-0.026-0.156c-0.29-0.87-0.33-2,0.12-2.3l0.18-0.12c0.23-0.154,0.291-0.464,0.138-0.694    c-0.062-0.092-0.152-0.161-0.258-0.196L18.664,17z M13.504,16.5c-1.105,0-2-0.895-2-2s0.895-2,2-2s2,0.895,2,2    S14.609,16.5,13.504,16.5z M12.894,18.69c-0.288-0.401-0.433-0.887-0.41-1.38c0.15,0.056,0.303,0.099,0.46,0.13    c0.25,0.427,0.28,0.948,0.08,1.4c-0.079,0.237,0.033,0.496,0.26,0.6l-0.56,0.12l0.19-0.28C13.036,19.1,13.028,18.861,12.894,18.69    z M12.004,5.71l2-0.4v2l-2,0.4V5.71z M13.934,4.3l-1.93,0.4c-0.062-0.406-0.247-0.783-0.53-1.08l0.61-2    C13.053,2.211,13.725,3.185,13.934,4.3z M8.004,1.58l0.61,2C8.294,3.877,8.08,4.27,8.004,4.7l-2-0.39    C6.234,3.149,6.966,2.149,8.004,1.58z M7.004,8c-0.552,0-1-0.448-1-1V5.31l2,0.4V7C8.004,7.552,7.556,8,7.004,8z M9.454,3.09    l-0.57-1.91c0.363-0.114,0.74-0.174,1.12-0.18c0.38,0.006,0.757,0.066,1.12,0.18l-0.57,1.91C10.196,2.975,9.812,2.975,9.454,3.09z     M12.004,8.71l2-0.4v2.47c-0.548-0.498-1.26-0.776-2-0.78V8.71z M12.004,11c0.482,0.011,0.943,0.196,1.3,0.52    c-1.489,0.106-2.674,1.291-2.78,2.78c-0.324-0.357-0.509-0.818-0.52-1.3C10.004,11.895,10.899,11,12.004,11z M8.164,19.86    c0.189-0.961,0.189-1.949,0-2.91c0.906-0.175,1.71-0.695,2.24-1.45c0.128,0.083,0.261,0.157,0.4,0.22    c0.18,0.383,0.439,0.724,0.76,1c-0.138,0.777-0.019,1.577,0.34,2.28l-0.62,0.93C10.256,19.721,9.2,19.698,8.164,19.86z M13.004,23    c-0.552,0-1-0.448-1-1v-1.27l2-0.42V22C14.004,22.552,13.556,23,13.004,23z M17.364,20c-0.618,0.042-1.231,0.142-1.83,0.3    c-0.019-0.071-0.042-0.142-0.07-0.21c-0.293-0.597-0.769-1.085-1.36-1.39c0.086-0.418,0.052-0.851-0.1-1.25    c0.62-0.109,1.19-0.409,1.63-0.86c0.57,0.485,1.224,0.862,1.93,1.11C17.233,18.42,17.162,19.233,17.364,20z" style="fill:#303C42;"/><linearGradient gradientTransform="matrix(1 0 0 -1 0 24)" gradientUnits="userSpaceOnUse" id="SVGID_1_" x1="3.1177" x2="20.6085" y1="16.0659" y2="7.9101"><stop offset="0" style="stop-color:#FFFFFF;stop-opacity:0.2"/><stop offset="1" style="stop-color:#FFFFFF;stop-opacity:0"/></linearGradient><path d="M18.664,17c-0.901-0.229-1.736-0.663-2.44-1.27c0.623-1.395,0.098-3.036-1.22-3.81V5    c0-2.761-2.239-5-5-5s-5,2.239-5,5v2c0,1.105,0.895,2,2,2s2-0.895,2-2V5c0-0.552,0.448-1,1-1s1,0.448,1,1v5.18    c-1.558,0.564-2.364,2.284-1.8,3.842c0.101,0.279,0.242,0.541,0.42,0.778c-0.456,0.735-1.255,1.187-2.12,1.2    c-0.276-0.003-0.502,0.219-0.505,0.495c0,0.042,0.005,0.084,0.015,0.125l0.08,0.3c0.258,1.034,0.258,2.116,0,3.15l-0.08,0.3    c-0.07,0.267,0.09,0.54,0.358,0.61c0.083,0.022,0.17,0.022,0.252,0c1.108-0.271,2.262-0.295,3.38-0.07V22c0,1.105,0.895,2,2,2    s2-0.895,2-2v-0.53h0.06h0.18c0.889-0.304,1.821-0.463,2.76-0.47c0.276-0.002,0.498-0.228,0.496-0.504    c0-0.053-0.009-0.106-0.026-0.156c-0.29-0.87-0.33-2,0.12-2.3l0.18-0.12c0.23-0.154,0.291-0.464,0.138-0.694    c-0.062-0.092-0.152-0.161-0.258-0.196L18.664,17z" style="fill:url(#SVGID_1_);"/></g></g></svg>