<?xml version="1.0" ?><!DOCTYPE svg  PUBLIC '-//W3C//DTD SVG 1.1//EN'  'http://www.w3.org/Graphics/SVG/1.1/DTD/svg11.dtd'><svg enable-background="new 0 0 64 64" height="64px" id="MISTLETOE" version="1.1" viewBox="0 0 64 64" width="64px" xml:space="preserve" xmlns="http://www.w3.org/2000/svg" xmlns:xlink="http://www.w3.org/1999/xlink"><g id="MISTLETOE_1_"><path d="M30.551,36.798c-0.269-0.068-0.544-0.103-0.818-0.103c-1.613,0-3.033,1.151-3.454,2.802   c-0.253,0.988-0.113,2.002,0.393,2.854c0.467,0.787,1.2,1.342,2.063,1.562c1.854,0.47,3.781-0.768,4.274-2.699   C33.509,39.253,32.406,37.272,30.551,36.798z" fill="#D64541"/><path d="M26.76,35.609c0.87-0.572,1.888-0.914,2.973-0.914c0.441,0,0.883,0.056,1.313,0.165   c0.032,0.008,0.062,0.021,0.094,0.029c0.379-0.437,0.666-0.967,0.819-1.566c0.244-0.958,0.118-1.948-0.355-2.787   c-0.465-0.824-1.212-1.403-2.103-1.63c-0.269-0.068-0.545-0.104-0.819-0.104c-1.613,0-3.034,1.153-3.456,2.803   C24.815,33.21,25.489,34.813,26.76,35.609z" fill="#D64541"/><path d="M24.951,43.372c-0.358-0.603-0.582-1.26-0.699-1.937l-7.91,4.387c-0.154,0.085-0.32,0.125-0.484,0.125   c-0.352,0-0.693-0.186-0.875-0.515c-0.268-0.483-0.093-1.092,0.39-1.36l8.952-4.963c0.009-0.036,0.008-0.072,0.017-0.107   c0.188-0.734,0.519-1.395,0.939-1.977c-0.002,0.001-0.003,0.002-0.004,0.004c-0.653-0.501-1.18-1.147-1.552-1.881   c-0.149,0.101-0.295,0.206-0.452,0.293c-1.787,0.989-3.958,1.199-5.893,0.59c-0.511,1.979-1.805,3.677-3.625,4.686   c-0.549,0.305-1.123,0.535-1.716,0.691c0.826,1.726,0.956,3.684,0.385,5.491c1.835,0.474,3.427,1.621,4.452,3.237   c0.447-0.421,0.946-0.785,1.495-1.09c1.788-0.99,3.955-1.199,5.895-0.591c0.346-1.352,1.073-2.563,2.075-3.523   C25.79,44.515,25.317,43.989,24.951,43.372z" fill="#4DAF7C"/><path d="M48.526,44.447c0.479,0.276,0.643,0.888,0.366,1.366c-0.186,0.321-0.521,0.5-0.867,0.5   c-0.17,0-0.342-0.043-0.499-0.134l-9.701-5.602c-0.498,0.151-1.018,0.247-1.557,0.247c-0.389,0-0.777-0.051-1.16-0.137   c-0.024,0.338-0.075,0.679-0.162,1.02c-0.132,0.518-0.344,0.993-0.596,1.438c0.597,0.168,1.174,0.398,1.708,0.706   c1.807,1.044,3.071,2.763,3.543,4.749c0.695-0.206,1.419-0.313,2.142-0.313c1.308,0,2.601,0.348,3.739,1.005   c0.543,0.313,1.037,0.687,1.477,1.116c1.055-1.598,2.666-2.718,4.509-3.159c-0.538-1.818-0.374-3.773,0.482-5.484   c-0.592-0.166-1.162-0.407-1.706-0.721c-1.802-1.041-3.066-2.76-3.543-4.749c-1.622,0.482-3.394,0.381-4.963-0.255   c0-0.001,0-0.003,0-0.004c-0.027,0.159-0.034,0.32-0.075,0.479c-0.301,1.179-0.95,2.182-1.803,2.929l0.001-0.001L48.526,44.447z" fill="#4DAF7C"/><path d="M32.252,13.5c-1.262,1.522-3.072,2.494-5.047,2.685c0.188,0.662,0.284,1.347,0.284,2.031   c0,2.086-0.856,4.04-2.34,5.44c0.978,0.927,1.667,2.096,2.034,3.377c0.48-0.14,0.979-0.231,1.497-0.231   c0.441,0,0.884,0.056,1.313,0.166c0.432,0.109,0.832,0.286,1.215,0.494V17.338c0-0.552,0.447-1,1-1s1,0.448,1,1v11.974   c0,0.014-0.005,0.025-0.008,0.038c0.045,0.071,0.102,0.131,0.144,0.204c0.133,0.236,0.229,0.486,0.326,0.735   c0-0.001-0.001-0.002-0.001-0.003c0.827-0.495,1.775-0.783,2.779-0.783c0.197,0,0.395,0.015,0.591,0.037   c-0.012-0.146-0.027-0.293-0.027-0.441c0-2.08,0.856-4.034,2.34-5.441c-1.483-1.4-2.34-3.354-2.34-5.44   c0-0.686,0.098-1.372,0.286-2.036C35.304,15.979,33.505,15.011,32.252,13.5z" fill="#4DAF7C"/><path d="M37.268,31.605c-0.269-0.068-0.544-0.103-0.818-0.103c-0.907,0-1.745,0.373-2.388,0.985   c-0.01,0.443-0.054,0.888-0.166,1.329c-0.188,0.733-0.519,1.393-0.938,1.975c0.889,0.682,1.545,1.631,1.892,2.706   c0.19,0.091,0.391,0.17,0.603,0.225c0.268,0.068,0.542,0.103,0.816,0.103c1.614,0,3.036-1.152,3.457-2.803   c0.244-0.958,0.118-1.948-0.355-2.786C38.905,32.412,38.158,31.833,37.268,31.605z" fill="#D64541"/><path d="M54.523,40.626c-0.152-0.343-0.483-0.57-0.858-0.591c-0.859-0.048-1.674-0.29-2.421-0.722   c-1.609-0.929-2.635-2.599-2.742-4.466c-0.02-0.337-0.207-0.642-0.5-0.81c-0.292-0.168-0.651-0.177-0.951-0.024   c-1.62,0.823-3.645,0.775-5.23-0.142c-0.05-0.029-0.095-0.064-0.144-0.095c0,0.001,0,0.003,0,0.003   c-0.121-0.528-0.293-1.046-0.564-1.527c-0.479-0.848-1.164-1.511-1.966-1.985c-0.084-0.381-0.134-0.771-0.134-1.169   c0-1.858,0.934-3.58,2.496-4.607c0.282-0.186,0.452-0.5,0.451-0.838c-0.001-0.337-0.172-0.651-0.454-0.836   c-1.562-1.018-2.493-2.737-2.493-4.601c0-0.899,0.218-1.767,0.646-2.578c0.175-0.33,0.15-0.73-0.062-1.037   c-0.213-0.307-0.575-0.469-0.949-0.423c-0.188,0.024-0.376,0.04-0.635,0.04c-2.015,0-3.869-1.115-4.839-2.911   c-0.175-0.323-0.598-0.525-0.965-0.525s-0.705,0.202-0.88,0.525c-0.97,1.795-2.824,2.911-4.903,2.911   c-0.195,0-0.383-0.016-0.572-0.04c-0.372-0.048-0.736,0.116-0.948,0.423c-0.213,0.307-0.236,0.707-0.062,1.037   c0.429,0.809,0.646,1.676,0.646,2.577c0,1.863-0.932,3.583-2.493,4.601c-0.282,0.185-0.453,0.499-0.454,0.836   c-0.001,0.338,0.169,0.652,0.451,0.838c1.234,0.812,2.057,2.064,2.354,3.468c-0.984,0.763-1.729,1.854-2.061,3.152   c-0.171,0.671-0.205,1.34-0.144,1.988c-0.264,0.223-0.541,0.427-0.84,0.592c-1.604,0.888-3.626,0.901-5.233,0.051   c-0.299-0.157-0.657-0.155-0.952,0.009c-0.295,0.163-0.488,0.464-0.514,0.8c-0.14,1.864-1.195,3.516-2.82,4.417   c-0.754,0.419-1.572,0.646-2.432,0.679c-0.375,0.014-0.71,0.236-0.869,0.576S9.37,40.963,9.6,41.259   c0.196,0.252,0.354,0.487,0.482,0.719c0.899,1.623,0.919,3.581,0.053,5.236c-0.156,0.298-0.152,0.655,0.011,0.949   c0.164,0.294,0.464,0.486,0.799,0.512c1.861,0.141,3.509,1.193,4.409,2.815c0.132,0.24,0.249,0.498,0.354,0.79   c0.128,0.354,0.444,0.605,0.817,0.651c0.041,0.005,0.083,0.008,0.123,0.008c0.329,0,0.641-0.162,0.828-0.439   c0.482-0.712,1.109-1.286,1.863-1.704c1.604-0.888,3.62-0.9,5.241-0.051c0.298,0.157,0.655,0.154,0.951-0.011   c0.295-0.164,0.487-0.466,0.511-0.803c0.118-1.646,0.969-3.118,2.293-4.063c0.4,0.095,0.809,0.147,1.218,0.147   c1.22,0,2.361-0.42,3.295-1.131c-0.001,0.001-0.001,0.001-0.002,0.002c0.786,0.076,1.53,0.304,2.212,0.697   c1.613,0.932,2.638,2.6,2.739,4.461c0.018,0.337,0.205,0.642,0.497,0.811c0.292,0.17,0.647,0.18,0.951,0.028   c1.633-0.822,3.65-0.773,5.237,0.142c0.745,0.43,1.362,1.014,1.833,1.736c0.187,0.284,0.502,0.453,0.838,0.453   c0.034,0,0.069-0.002,0.104-0.006c0.373-0.039,0.692-0.283,0.828-0.634c0.116-0.3,0.236-0.557,0.368-0.784   c0.929-1.607,2.596-2.633,4.46-2.741c0.335-0.02,0.639-0.206,0.808-0.498c0.168-0.291,0.179-0.647,0.027-0.948   c-0.837-1.67-0.783-3.626,0.146-5.233c0.13-0.227,0.292-0.46,0.494-0.711C54.625,41.367,54.677,40.969,54.523,40.626z    M25.149,23.657c1.483-1.4,2.34-3.354,2.34-5.44c0-0.685-0.097-1.37-0.284-2.031c1.975-0.191,3.785-1.163,5.047-2.685   c1.253,1.511,3.052,2.479,5.047,2.68c-0.188,0.664-0.286,1.351-0.286,2.036c0,2.086,0.856,4.04,2.34,5.44   c-1.483,1.407-2.34,3.361-2.34,5.441c0,0.148,0.016,0.295,0.027,0.441c-0.196-0.022-0.394-0.037-0.591-0.037   c-1.004,0-1.952,0.288-2.779,0.783c0,0.001,0.001,0.002,0.001,0.003c-0.098-0.249-0.193-0.499-0.326-0.735   c-0.042-0.073-0.099-0.133-0.144-0.204c0.003-0.013,0.008-0.024,0.008-0.038V17.338c0-0.552-0.447-1-1-1s-1,0.448-1,1v10.125   c-0.383-0.208-0.783-0.385-1.215-0.494c-0.43-0.11-0.872-0.166-1.313-0.166c-0.518,0-1.017,0.092-1.497,0.231   C26.816,25.753,26.127,24.584,25.149,23.657z M25.225,31.605c0.422-1.649,1.843-2.803,3.456-2.803c0.274,0,0.551,0.035,0.819,0.104   c0.891,0.227,1.638,0.806,2.103,1.63c0.474,0.839,0.6,1.829,0.355,2.787c-0.153,0.6-0.44,1.13-0.819,1.566   c-0.032-0.009-0.062-0.021-0.094-0.029c-0.43-0.109-0.871-0.165-1.313-0.165c-1.085,0-2.103,0.342-2.973,0.914   C25.489,34.813,24.815,33.21,25.225,31.605z M24.265,48.456c-1.939-0.608-4.106-0.399-5.895,0.591   c-0.549,0.305-1.048,0.669-1.495,1.09c-1.025-1.616-2.617-2.764-4.452-3.237c0.57-1.808,0.44-3.766-0.385-5.491   c0.594-0.156,1.167-0.387,1.716-0.691c1.82-1.009,3.115-2.706,3.625-4.686c1.935,0.609,4.105,0.399,5.893-0.59   c0.157-0.087,0.303-0.192,0.452-0.293c0.372,0.733,0.898,1.38,1.552,1.881c0.001-0.002,0.002-0.003,0.004-0.004   c-0.421,0.582-0.752,1.242-0.939,1.977c-0.009,0.035-0.008,0.071-0.017,0.107l-8.952,4.963c-0.483,0.269-0.658,0.877-0.39,1.36   c0.183,0.329,0.523,0.515,0.875,0.515c0.164,0,0.33-0.04,0.484-0.125l7.91-4.387c0.117,0.677,0.341,1.334,0.699,1.937   c0.366,0.617,0.839,1.143,1.389,1.561C25.338,45.893,24.61,47.104,24.265,48.456z M33.009,41.214   c-0.493,1.932-2.42,3.169-4.274,2.699c-0.863-0.22-1.597-0.774-2.063-1.562c-0.506-0.853-0.646-1.866-0.393-2.854   c0.421-1.65,1.841-2.802,3.454-2.802c0.274,0,0.55,0.034,0.818,0.103C32.406,37.272,33.509,39.253,33.009,41.214z M32.958,35.792   c0.419-0.582,0.75-1.241,0.938-1.975c0.112-0.441,0.156-0.886,0.166-1.329c0.643-0.612,1.48-0.985,2.388-0.985   c0.274,0,0.55,0.034,0.818,0.103c0.891,0.228,1.638,0.807,2.103,1.631c0.474,0.838,0.6,1.828,0.355,2.786   c-0.421,1.65-1.843,2.803-3.457,2.803c-0.274,0-0.549-0.034-0.816-0.103c-0.212-0.055-0.412-0.134-0.603-0.225   C34.503,37.423,33.847,36.474,32.958,35.792z M51.468,47.251c-1.843,0.441-3.454,1.562-4.509,3.159   c-0.439-0.43-0.934-0.803-1.477-1.116c-1.139-0.657-2.432-1.005-3.739-1.005c-0.723,0-1.446,0.106-2.142,0.313   c-0.472-1.986-1.736-3.705-3.543-4.749c-0.534-0.308-1.111-0.538-1.708-0.706c0.252-0.445,0.464-0.921,0.596-1.438   c0.087-0.341,0.138-0.682,0.162-1.02c0.383,0.086,0.771,0.137,1.16,0.137c0.539,0,1.059-0.096,1.557-0.247l9.701,5.602   c0.157,0.091,0.329,0.134,0.499,0.134c0.346,0,0.682-0.179,0.867-0.5c0.276-0.479,0.112-1.09-0.366-1.366l-8.665-5.003   l-0.001,0.001c0.853-0.747,1.502-1.75,1.803-2.929c0.041-0.158,0.048-0.319,0.075-0.479c0,0.001,0,0.003,0,0.004   c1.569,0.636,3.341,0.737,4.963,0.255c0.477,1.989,1.741,3.708,3.543,4.749c0.544,0.313,1.114,0.555,1.706,0.721   C51.094,43.478,50.93,45.433,51.468,47.251z" fill="#26251D"/></g></svg>