<?xml version="1.0" ?><svg id="Christmas_Icon" style="enable-background:new 0 0 56 56;" version="1.1" viewBox="0 0 56 56" xml:space="preserve" xmlns="http://www.w3.org/2000/svg" xmlns:xlink="http://www.w3.org/1999/xlink"><style type="text/css">
	.st0{fill:#F5F5F5;stroke:#3E2723;stroke-linecap:round;stroke-linejoin:round;stroke-miterlimit:10;}
	.st1{fill:#E0E0E0;}
	.st2{fill:#8D6E63;stroke:#3E2723;stroke-linecap:round;stroke-linejoin:round;stroke-miterlimit:10;}
	.st3{fill:#5D4037;}
	.st4{fill:none;stroke:#3E2723;stroke-linecap:round;stroke-linejoin:round;stroke-miterlimit:10;}
	.st5{fill:#FFD54F;stroke:#3E2723;stroke-linecap:round;stroke-linejoin:round;stroke-miterlimit:10;}
	.st6{fill:#E53935;stroke:#3E2723;stroke-linecap:round;stroke-linejoin:round;stroke-miterlimit:10;}
	.st7{fill:#B71C1C;}
	.st8{fill:#FFA000;}
	.st9{fill:#FFECB3;stroke:#3E2723;stroke-linecap:round;stroke-linejoin:round;stroke-miterlimit:10;}
	.st10{fill:#FFE082;}
	.st11{fill:#3E2723;}
	.st12{fill:#81C784;stroke:#3E2723;stroke-linecap:round;stroke-linejoin:round;stroke-miterlimit:10;}
	.st13{fill:#43A047;}
	.st14{fill:#263238;}
	.st15{fill:#4E342E;stroke:#3E2723;stroke-linecap:round;stroke-linejoin:round;stroke-miterlimit:10;}
	.st16{fill:none;}
	.st17{fill:#A1887F;stroke:#3E2723;stroke-linecap:round;stroke-linejoin:round;stroke-miterlimit:10;}
	.st18{fill:#6D4C41;}
	.st19{fill:#6D4C41;stroke:#3E2723;stroke-linecap:round;stroke-linejoin:round;stroke-miterlimit:10;}
	.st20{fill:#E0E0E0;stroke:#3E2723;stroke-miterlimit:10;}
	.st21{fill:#D81B60;stroke:#3E2723;stroke-linecap:round;stroke-linejoin:round;stroke-miterlimit:10;}
	.st22{fill:#E0E0E0;stroke:#3E2723;stroke-linecap:round;stroke-linejoin:round;stroke-miterlimit:10;}
	.st23{fill:#FBC02D;stroke:#3E2723;stroke-linecap:round;stroke-linejoin:round;stroke-miterlimit:10;}
</style><g id="Snowman"><path class="st0" d="M37.9,24.2c1.3-1.9,2.1-4.2,2.1-6.7c0-6.6-5.4-12-12-12s-12,5.4-12,12c0,2.5,0.8,4.8,2.1,6.7   C13.8,27.3,11,32.3,11,38c0,9.4,7.6,17,17,17s17-7.6,17-17C45,32.3,42.2,27.3,37.9,24.2z"/><path class="st1" d="M37.6,24.6c-0.2-0.2-0.3-0.5-0.1-0.7c1.3-1.9,2-4.1,2-6.4C39.5,11.2,34.3,6,28,6c-0.4,0-0.9,0-1.3,0.1   c4.8,1.6,8.3,6.1,8.3,11.4c0,2.5-0.8,4.8-2.1,6.7C37.2,27.3,40,32.3,40,38c0,7.9-5.5,14.6-12.8,16.5c0.3,0,0.6,0,0.8,0   c9.1,0,16.5-7.4,16.5-16.5C44.5,32.7,41.9,27.7,37.6,24.6z"/><g><path class="st6" d="M39.5,28.1h-23c-1.4,0-2.5-1.1-2.5-2.5v-1c0-1.4,1.1-2.5,2.5-2.5h23c1.4,0,2.5,1.1,2.5,2.5v1    C42,27,40.9,28.1,39.5,28.1z"/><path class="st7" d="M37,24.6v1c0,0.8-0.4,1.5-1,2h3.5c1.1,0,2-0.9,2-2v-1c0-1.1-0.9-2-2-2H36C36.6,23.1,37,23.8,37,24.6z"/><rect class="st6" height="12" width="6" x="34" y="28.1"/><line class="st6" x1="34" x2="34" y1="40.1" y2="43.1"/><line class="st6" x1="37" x2="37" y1="40.1" y2="43.1"/><line class="st6" x1="40" x2="40" y1="40.1" y2="43.1"/></g><g><circle class="st14" cx="34" cy="12.5" r="1"/><circle class="st14" cx="22" cy="12.5" r="1"/></g><path class="st5" d="M28.9,18.1l1.4-2.8c0.3-0.7-0.2-1.4-0.9-1.4h-2.8c-0.7,0-1.2,0.8-0.9,1.4l1.4,2.8   C27.5,18.8,28.5,18.8,28.9,18.1z"/><g><g><line class="st4" x1="50.5" x2="42" y1="22.5" y2="31"/><polyline class="st4" points="51.9,25.4 47.6,25.4 47.6,21.1    "/></g><g><line class="st4" x1="5.5" x2="14" y1="22.5" y2="31"/><polyline class="st4" points="4.1,25.4 8.4,25.4 8.4,21.1    "/></g></g><circle class="st12" cx="28" cy="33.1" r="2"/><circle class="st12" cx="28" cy="40.1" r="2"/><rect class="st15" height="2" width="12" x="22" y="5.5"/><rect class="st15" height="4.5" width="8" x="24" y="1"/></g></svg>