<?xml version="1.0" ?><svg height="60px" version="1.1" viewBox="0 0 49 60" width="49px" xmlns="http://www.w3.org/2000/svg" xmlns:xlink="http://www.w3.org/1999/xlink"><title/><desc/><defs/><g fill="none" fill-rule="evenodd" id="Page-1" stroke="none" stroke-width="1"><g id="015---Stocking" transform="translate(1.000000, 0.000000)"><g id="Colour" transform="translate(0.000000, 1.000000)"><path d="M23,1 L23,2.69 L22.09,7 L15,7 L15,1 C15.0016474,0.448399067 15.4483991,0.00164740056 16,0 L22,0 C22.5516009,0.00164740056 22.9983526,0.448399067 23,1 Z" fill="#F85B44" id="Shape"/><path d="M33.99,5.81 L33.23,7 L22.09,7 C22.0294098,6.67013022 21.999283,6.33538742 22,6 C21.9980527,2.72391031 24.6257589,0.0526467119 27.9014379,0.00073853748 C31.1771169,-0.051169637 33.888143,2.53549354 33.99,5.81 Z" fill="#9ACA5C" id="Shape"/><circle cx="29" cy="5" fill="#D5DF48" fill-rule="nonzero" id="Oval" r="2"/><path d="M33.23,7.01737 L33.99,5.82737 L35.96,2.76737 C37.646081,0.142354372 41.0637156,-0.750576523 43.8183452,0.714207523 C46.5729747,2.17899157 47.7435892,5.51174025 46.51,8.37737 C46.3826747,8.68677263 46.2287651,8.98455421 46.05,9.26737 L44.42,11.78737 C44.0356695,12.3969783 43.3504491,12.7496041 42.631003,12.7080176 C41.9115569,12.6664311 41.2715305,12.2372014 40.96,11.58737 C40.8784699,11.4444066 40.8210351,11.2889946 40.79,11.12737 C40.7066396,10.7575754 40.7344728,10.371389 40.87,10.01737 C40.9147769,9.87598855 40.9787041,9.74140493 41.06,9.61737 L42.68,7.09737 C43.0670497,6.49714424 43.1041302,5.73592341 42.7772507,5.10092086 C42.4503711,4.46591831 41.8092893,4.05379428 41.0958894,4.02004574 C40.3824894,3.9862972 39.7053652,4.33606135 39.32,4.93737 L37.91,7.12737" fill="#EF3A76" id="Shape"/><path d="M37,13 L37,50 C37.0005785,52.1219092 36.1579095,54.1570766 34.6574931,55.6574931 C33.1570766,57.1579095 31.1219092,58.0005785 29,58 L9,58 C4.30557963,58 0.5,54.1944204 0.5,49.5 C0.5,44.8055796 4.30557963,41 9,41 L13,41 C14.1032223,40.9967543 14.9967543,40.1032223 15,39 L15,13 L37,13 Z" fill="#D7DEE2" id="Shape"/><path d="M34,13 L34,50 C34.0005785,52.1219092 33.1579095,54.1570766 31.6574931,55.6574931 C30.1570766,57.1579095 28.1219092,58.0005785 26,58 L9,58 C4.30557963,58 0.5,54.1944204 0.5,49.5 C0.5,44.8055796 4.30557963,41 9,41 L13,41 C14.1032223,40.9967543 14.9967543,40.1032223 15,39 L15,13 L34,13 Z" fill="#FFFFFF" id="Shape"/><path d="M40.96,11.57 C40.778288,12.4059887 40.3897638,13.1830372 39.83,13.83 C39.0776646,14.5776327 38.0606411,14.9980982 37,15 L15,15 C12.790861,15 11,13.209139 11,11 C11,8.790861 12.790861,7 15,7 L37,7 C37.3066349,7.00024132 37.6121395,7.03717046 37.91,7.11 C39.3598432,7.44332628 40.502077,8.55854778 40.87,10" fill="#D7DEE2" id="Shape"/><path d="M11,11.57 C11.1564929,12.3930961 11.5054445,13.1675086 12.01836,13.83 C12.664831,14.5630548 13.5914405,14.9881384 14.56876,15 L34.39519,15 C36.4928257,14.885895 38.103933,13.0981643 38,11 C38.0060423,9.95953446 37.63097,8.95285331 36.94559,8.17 C36.2991205,7.43694315 35.3725101,7.01185914 34.39519,7 L14.56876,7 C14.2917382,7.00033424 14.0159784,7.0373219 13.74866,7.11 C12.3894563,7.49943426 11.3606638,8.61401897 11.08111,10" fill="#FFFFFF" id="Shape"/><polygon fill="#008AC7" id="Shape" points="37 15 37 32 34 29 34 15"/><path d="M34,34 L37,37 L37,46.2 C36.3416932,46.0666571 35.6716755,45.9996553 35,46 C34.66,46 34.33,46.02 34,46.05 L34,34 Z" fill="#008AC7" id="Shape"/><path d="M34,15 L34,46.05 C33.84,46.07 33.68,46.08 33.53,46.11 C30.8153898,46.5155619 28.3864424,48.0181264 26.8115502,50.2660818 C25.2366579,52.5140372 24.6540279,55.3101109 25.2,58 L9,58 C8.41199238,58.0010591 7.82548051,57.9407322 7.25,57.82 C11.1840342,56.9912725 13.9999429,53.5203749 13.9999429,49.5 C13.9999429,45.4796251 11.1840342,42.0087275 7.25,41.18 C7.82548051,41.0592678 8.41199238,40.9989409 9,41 L13,41 C14.1032223,40.9967543 14.9967543,40.1032223 15,39 L15,15 L34,15 Z" fill="#00B7F6" id="Shape"/><path d="M34,46.05 L34,46.2 C33.85,46.17 33.69,46.14 33.53,46.11 C33.68,46.08 33.84,46.07 34,46.05 Z" fill="#00B7F6" id="Shape"/><polygon fill="#354AA3" id="Shape" points="37 32 37 37 34 34 34 29"/><polygon fill="#5068C1" id="Shape" points="34 29 34 34 15 15 20 15 25.59 20.59 27.44 22.44"/><polygon fill="#FFEB49" id="Shape" points="25.954 19.9 28.087 24.222 32.856 24.915 29.405 28.279 30.22 33.029 25.954 30.786 21.688 33.029 22.503 28.279 19.051 24.915 23.821 24.222"/></g><g id="Outline" stroke="#000000" stroke-linecap="round" stroke-linejoin="round"><path d="M40.96,12.57 C40.778288,13.4059887 40.3897638,14.1830372 39.83,14.83 C39.0776646,15.5776327 38.0606411,15.9980982 37,16 L15,16 C12.790861,16 11,14.209139 11,12 C11,9.790861 12.790861,8 15,8 L37,8 C37.3066349,8.00024132 37.6121395,8.03717046 37.91,8.11 C39.3598432,8.44332628 40.502077,9.55854778 40.87,11" id="Shape" stroke-width="2"/><path d="M15,16 L15,40 C15,41.1045695 14.1045695,42 13,42 L9,42 C4.30557963,42 0.5,45.8055796 0.5,50.5 L0.5,50.5 C0.5,55.1944204 4.30557963,59 9,59 L29,59 C33.418278,59 37,55.418278 37,51 L37,16 L15,16 Z" id="Shape" stroke-width="2"/><path d="M7.25,58.82 C11.1840517,57.9912918 13.9999815,54.520388 13.9999815,50.5 C13.9999815,46.479612 11.1840517,43.0087082 7.25,42.18" id="Shape" stroke-width="2"/><path d="M37,47.2 C33.7103932,46.5323252 30.3051262,47.5580634 27.9315948,49.9315948 C25.5580634,52.3051262 24.5323252,55.7103932 25.2,59" id="Shape" stroke-width="2"/><polygon id="Shape" points="25.954 20.871 28.087 25.193 32.856 25.886 29.405 29.25 30.22 34 25.954 31.757 21.688 34 22.503 29.25 19.051 25.886 23.821 25.193" stroke-width="2"/><path d="M37,33 L31.35,27.35" id="Shape"/><path d="M25.59,21.59 L20,16" id="Shape"/><path d="M37,38 L29.64,30.64" id="Shape"/><path d="M23.94,24.94 L15,16" id="Shape"/><path d="M23,3.69 L23,2 C22.9983854,1.44838544 22.5516146,1.00161464 22,1 L16,1 C15.4483854,1.00161464 15.0016146,1.44838544 15,2 L15,8 L22.09,8" id="Shape" stroke-width="2"/><path d="M19,1 L19,8" id="Shape"/><path d="M33.99,6.81 C33.8831503,3.53921438 31.1737034,0.958092908 27.9015838,1.00994468 C24.6294642,1.06179645 22.0031608,3.7274711 22,7 C21.9992812,7.3353875 22.0294081,7.67013046 22.09,8" id="Shape" stroke-width="2"/><circle cx="29" cy="6" id="Oval" r="2"/><path d="M33.23,8 L33.99,6.81 L35.96,3.75 C37.646081,1.12498437 41.0637156,0.232053477 43.8183452,1.69683752 C46.5729747,3.16162157 47.7435892,6.49437025 46.51,9.36 C46.3826747,9.66940263 46.2287651,9.96718421 46.05,10.25 L44.42,12.77 C44.0356695,13.3796083 43.3504491,13.7322341 42.631003,13.6906476 C41.9115569,13.6490611 41.2715305,13.2198314 40.96,12.57 C40.8784699,12.4270366 40.8210351,12.2716246 40.79,12.11 C40.7066396,11.7402054 40.7344728,11.354019 40.87,11 C40.9147769,10.8586185 40.9787041,10.7240349 41.06,10.6 L42.68,8.08 C43.0670497,7.47977424 43.1041302,6.71855341 42.7772507,6.08355086 C42.4503711,5.44854831 41.8092893,5.03642428 41.0958894,5.00267574 C40.3824894,4.9689272 39.7053652,5.31869135 39.32,5.92 L37.91,8.11" id="Shape" stroke-width="2"/></g></g></g></svg>