<?xml version="1.0" ?><svg viewBox="0 0 24 24" xmlns="http://www.w3.org/2000/svg" xmlns:xlink="http://www.w3.org/1999/xlink"><defs><linearGradient gradientUnits="userSpaceOnUse" id="a" x1="4.77157" x2="19.22843" y1="7.02182" y2="21.47867"><stop offset="0" stop-color="#fff" stop-opacity="0"/><stop offset="1" stop-color="#fff" stop-opacity="0.1"/></linearGradient></defs><title/><path d="M20.89551,19.19434,16.88184,14H19a.49992.49992,0,0,0,.39453-.80713L15.356,8H17.5a.5.5,0,0,0,.39307-.80908l-5.5-7a.51748.51748,0,0,0-.78614,0l-5.5,7A.5.5,0,0,0,6.5,8H8.644L4.60547,13.19287A.49992.49992,0,0,0,5,14H7.11816L3.10449,19.19434A.5.5,0,0,0,3.5,20H9.87677a5.966,5.966,0,0,1-1.23029,3.14648A.5.5,0,0,0,9,24h6a.5.5,0,0,0,.35352-.85352A5.966,5.966,0,0,1,14.12323,20H20.5a.5.5,0,0,0,.39551-.80566Z"/><path d="M4.51807,19l4.01367-5.19434A.5.5,0,0,0,8.13623,13H6.02246L10.061,7.80713A.49993.49993,0,0,0,9.6665,7H7.52881L12,1.30908,16.47119,7H14.3335a.49993.49993,0,0,0-.39454.80713L17.97754,13H15.86377a.5.5,0,0,0-.39551.80566L19.48193,19Z" fill="#4cbea0"/><path d="M4.51807,19l4.01367-5.19434A.5.5,0,0,0,8.13623,13H6.02246L10.061,7.80713A.49993.49993,0,0,0,9.6665,7H7.52881L12,1.30908,16.47119,7H14.3335a.49993.49993,0,0,0-.39454.80713L17.97754,13H15.86377a.5.5,0,0,0-.39551.80566L19.48193,19Z" fill="#26a69a"/><path d="M11,6a1,1,0,1,0-1-1A1.0013,1.0013,0,0,0,11,6Z" fill="#1976d2"/><path d="M10.75,5a.25.25,0,1,0-.25-.25A.25032.25032,0,0,0,10.75,5Z" fill="#fff" opacity="0.2"/><path d="M14.0166,23H9.9834a8.95867,8.95867,0,0,0,.9043-3h2.2246A8.95867,8.95867,0,0,0,14.0166,23Z" fill="#9e5f2c"/><path d="M10.87109,20a8.9584,8.9584,0,0,1-.90429,3h1.0166a16.34056,16.34056,0,0,0,.44842-3Z" fill="#fff" opacity="0.2"/><path d="M13.0957,20H12.535a16.34149,16.34149,0,0,0,.44843,3H14A8.95844,8.95844,0,0,1,13.0957,20Z" opacity="0.2"/><path d="M10,14a1,1,0,1,0,1,1A1.0013,1.0013,0,0,0,10,14Z" fill="#ffe082"/><path d="M12,9a1,1,0,1,0,1,1A1.0013,1.0013,0,0,0,12,9Z" fill="#ba68c8"/><circle cx="13.5" cy="14.5" fill="#ffee58" r="0.5"/><path d="M11.75,10a.25.25,0,1,0-.25-.25A.25032.25032,0,0,0,11.75,10Z" fill="#fff" opacity="0.2"/><path d="M9.75,15a.25.25,0,1,0-.25-.25A.25032.25032,0,0,0,9.75,15Z" fill="#fff" opacity="0.2"/><circle cx="9.5" cy="11.5" fill="#a5d6a7" r="0.5"/><path d="M15.46826,13.80566A.5.5,0,0,1,15.86377,13h2.11377L13.939,7.80713A.49993.49993,0,0,1,14.3335,7h2.13769L12,1.30908l-.58282.74182,1.75587,2.35067A1,1,0,0,1,12.37189,6h0a.43127.43127,0,0,0-.34551.68937l2.77295,3.71219A1,1,0,0,1,13.99817,12h0a.55465.55465,0,0,0-.44436.88658l2.25216,3.015A1,1,0,0,1,15.00482,17.5H7.57275A3.86034,3.86034,0,0,0,4.51807,19H19.48193Z" opacity="0.2"/><circle cx="13.5" cy="5.5" fill="#fff59d" r="0.5"/><circle cx="8.5" cy="17.5" fill="#40c4ff" r="0.5"/><path d="M14,16a1,1,0,1,0,1,1A1.0013,1.0013,0,0,0,14,16Z" fill="#18ffff"/><path d="M13.75,17a.25.25,0,1,0-.25-.25A.25032.25032,0,0,0,13.75,17Z" fill="#fff" opacity="0.5"/><circle cx="17" cy="17.5" fill="#e57373" r="0.5"/><circle cx="14.5" cy="10.5" fill="#ff5252" r="0.5"/><path d="M20.89551,19.19434,16.88184,14H19a.49992.49992,0,0,0,.39453-.80713L15.356,8H17.5a.5.5,0,0,0,.39307-.80908l-5.5-7a.51748.51748,0,0,0-.78614,0l-5.5,7A.5.5,0,0,0,6.5,8H8.644L4.60547,13.19287A.49992.49992,0,0,0,5,14H7.11816L3.10449,19.19434A.5.5,0,0,0,3.5,20H9.87677a5.966,5.966,0,0,1-1.23029,3.14648A.5.5,0,0,0,9,24h6a.5.5,0,0,0,.35352-.85352A5.966,5.966,0,0,1,14.12323,20H20.5a.5.5,0,0,0,.39551-.80566Z" fill="url(#a)"/></svg>