<?xml version="1.0" ?><svg height="60px" version="1.1" viewBox="0 0 58 60" width="58px" xmlns="http://www.w3.org/2000/svg" xmlns:xlink="http://www.w3.org/1999/xlink"><title/><desc/><defs/><g fill="none" fill-rule="evenodd" id="Page-1" stroke="none" stroke-width="1"><g id="008---Xmas-Pudding"><g fill-rule="nonzero" id="Colour"><path d="M39.85,10.91 C39.87,10.91 39.89,10.9 39.91,10.9 C42.84,10.24 44.7,13.92 44.7,13.92 C44.7,13.92 44.26,11.97 47.94,10.11 C51.62,8.24 54.45,11.7 54.45,11.7 C53.35,6.83 58,4.74 58,4.74 C58,4.74 52.9,4.88 51.8,0 C51.8,0 50.73,4.34 46.61,4.25 C42.49,4.16 42.04,2.21 42.04,2.21 C42.04,2.21 41.95,6.34 39.03,7 C38.7576442,7.06104838 38.4927486,7.15158233 38.24,7.27" fill="#D5DF48" id="Shape"/><path d="M20,7.87 C19.7472514,7.75158233 19.4823558,7.66104838 19.21,7.6 C16.29,6.94 16.2,2.81 16.2,2.81 C16.2,2.81 15.75,4.76 11.63,4.85 C7.51,4.94 6.44,0.6 6.44,0.6 C5.34,5.48 0.24,5.34 0.24,5.34 C0.24,5.34 4.89,7.43 3.79,12.3 C3.79,12.3 6.62,8.84 10.3,10.71 C13.98,12.57 13.54,14.52 13.54,14.52 C13.54,14.52 15.4,10.84 18.33,11.5 C18.35,11.5 18.37,11.51 18.39,11.51" fill="#D5DF48" id="Shape"/><path d="M52.47,30.21 C50.8153193,22.4494191 45.4328973,16.0077305 38.09,13 L19.91,13 C14.8443459,15.0719864 10.6411253,18.8164172 8,23.61 C6.02309943,27.1559476 4.99009697,31.1502238 5,35.21 C4.99595521,36.5507182 5.10972607,37.8891989 5.34,39.21 C5.55918286,40.565734 5.90400161,41.8981404 6.37,43.19 C9.57961203,52.2813931 17.9167107,58.5706451 27.54,59.16 C28.02,59.2 28.51,59.21 29,59.21 C40.3534867,59.2053599 50.1524259,51.2502399 52.49,40.14 L52.49,40.13 C52.7995222,38.6662198 52.966966,37.1759699 52.99,35.68 C53,35.53 53,35.37 53,35.21 C53.0026993,33.529173 52.8250153,31.8529093 52.47,30.21 Z M49.62,31 C49.58,30.73 49.53,30.47 49.47,30.21 C47.990279,23.2530408 43.499366,17.3115555 37.21,13.99 C37.5119861,13.9697541 37.8089279,13.9022674 38.09,13.79 C45.4328878,16.7977435 50.8153048,23.2394262 52.47,31 L49.62,31 Z" fill="#F88F00" id="Shape"/><path d="M50,35.21 C50,35.37 50,35.53 49.99,35.68 C49.966966,37.1759699 49.7995222,38.6662198 49.49,40.13 L49.49,40.14 C47.2678507,50.6857618 38.2946581,58.4611661 27.54,59.16 C17.9167107,58.5706451 9.57961203,52.2813931 6.37,43.19 C5.90400161,41.8981404 5.55918286,40.565734 5.34,39.21 C5.10972607,37.8891989 4.99595521,36.5507182 5,35.21 C4.99009697,31.1502238 6.02309943,27.1559476 8,23.61 C10.6411253,18.8164172 14.8443459,15.0719864 19.91,13 L35.09,13 C35.82,13.3 36.53,13.63 37.21,13.99 C43.499366,17.3115555 47.990279,23.2530408 49.47,30.21 C49.53006,30.47 49.58,30.73 49.62,31 C49.873992,32.3889172 50.0011822,33.7980505 50,35.21 L50,35.21 Z" fill="#FFA700" id="Shape"/><circle cx="16.81001" cy="39.7" fill="#FFC900" id="Oval" r="1.5"/><circle cx="38.81001" cy="51.7" fill="#FFC900" id="Oval" r="1.5"/><circle cx="19.81001" cy="32.7" fill="#FFC900" id="Oval" r="1.5"/><circle cx="28.81001" cy="53.7" fill="#FFC900" id="Oval" r="1.5"/><circle cx="22.81001" cy="46.7" fill="#FFC900" id="Oval" r="2.5"/><circle cx="32.81001" cy="46.7" fill="#FFC900" id="Oval" r="2.5"/><path d="M39.31,36.7 C38.2786129,37.4735403 36.8281311,37.3359168 35.9606276,36.3822074 C35.0931241,35.428498 35.0931241,33.971502 35.9606276,33.0177926 C36.8281311,32.0640832 38.2786129,31.9264597 39.31,32.7" fill="#FFC900" id="Shape"/><circle cx="14.81001" cy="46.7" fill="#FFC900" id="Oval" r="1.5"/><circle cx="29" cy="8.3" fill="#BC2B6A" id="Oval" r="5"/><circle cx="21" cy="11" fill="#EF3A76" id="Oval" r="3"/><circle cx="37" cy="11" fill="#EF3A76" id="Oval" r="3"/><circle cx="28.75" cy="8" fill="#EF3A76" id="Oval" r="1.5"/><path d="M52.47,31 L49.62,31 C49.58,30.73 49.53,30.47 49.47,30.21 C47.990279,23.2530408 43.499366,17.3115555 37.21,13.99 C37.5119861,13.9697541 37.8089279,13.9022674 38.09,13.79 C45.4328878,16.7977435 50.8153048,23.2394262 52.47,31 L52.47,31 Z" fill="#D7DEE2" id="Shape"/><path d="M49.62,31 L49.5,31 C47.5678852,31.0021273 46.0021273,32.5678852 46,34.5 L46,43.5 C45.9907626,45.4291574 44.4291574,46.9907626 42.5,47 C40.5678852,46.9978727 39.0021273,45.4321148 39,43.5 L39,28.5 C38.9908168,26.57082 37.42918,25.0091832 35.5,25 C33.5678852,25.0021273 32.0021273,26.5678852 32,28.5 L32,39 C32,41.209139 30.209139,43 28,43 C25.790861,43 24,41.209139 24,39 L24,30 C24,27.790861 22.209139,26 20,26 C17.790861,26 16,27.790861 16,30 L16,31 C16,33.209139 14.209139,35 12,35 C9.790861,35 8,33.209139 8,31 L8,24.4 C10.641142,19.6064305 14.8443572,15.8620045 19.91,13.79 C20.2558498,13.931464 20.6263477,14.0028443 21,14 C21.8522556,14.0014715 22.6642173,13.6373631 23.23,13 C23.3371982,12.8914571 23.4311841,12.770618 23.51,12.64 C24.0835769,12.4959652 24.6643937,12.3824722 25.25,12.3 C25.4760858,12.5612851 25.7310449,12.7961159 26.01,13 C27.7803623,14.3333501 30.2196377,14.3333501 31.99,13 C32.2689551,12.7961159 32.5239142,12.5612851 32.75,12.3 C33.3356063,12.3824722 33.9164231,12.4959652 34.49,12.64 C34.5688159,12.770618 34.6628018,12.8914571 34.77,13 C35.3357827,13.6373631 36.1477444,14.0014715 37,14 C37.0701487,14.0016636 37.1403268,13.9983218 37.21,13.99 C43.499366,17.3115555 47.990279,23.2530408 49.47,30.21 C49.53,30.47 49.58,30.73 49.62,31 Z" fill="#FFFFFF" id="Shape"/><path d="M53.3,35.67 C53.2769694,37.1659702 53.1095256,38.6562203 52.8,40.12 L52.8,40.13 L52.58,40.08 C52.3314372,40.1610665 52.0714436,40.201585 51.81,40.2 C50.4292881,40.2 49.31,39.0807119 49.31,37.7 C49.31,36.3192881 50.4292881,35.2 51.81,35.2 C52.3311197,35.19782 52.8392513,35.3625247 53.26,35.67 L53.3,35.67 Z" fill="#FFC900" id="Shape"/><path d="M10.31,40.7 C10.3094978,42.0805038 9.19050379,43.1994978 7.81,43.2 C7.53821574,43.1982912 7.268341,43.1544366 7.01,43.07 L6.68,43.18 C6.21399547,41.8881423 5.86917657,40.5557353 5.65,39.2 L5.83,39.17 C6.48481349,38.3244806 7.60463676,37.9886452 8.61667625,38.3342748 C9.62871574,38.6799043 10.3091763,39.6305688 10.31,40.7 L10.31,40.7 Z" fill="#FFC900" id="Shape"/></g><g id="Outline" stroke="#000000" stroke-linecap="round" stroke-linejoin="round"><path d="M52.51686,30.24576 L49.572,30.24576 C47.6562569,30.2478653 46.1037653,31.8003569 46.10166,33.7161 L46.10166,42.63983 C46.0925427,44.5526527 44.5441527,46.1010472 42.63133,46.11017 C40.7155885,46.1080647 39.1630998,44.5555715 39.161,42.63983 L39.161,27.767 C39.1518826,25.8541734 37.6034866,24.3057774 35.69066,24.29666 C33.7749224,24.2987708 32.2224398,25.8512624 32.22034,27.767 L32.22034,38.178 C32.2203399,40.3684165 30.4446565,42.1440999 28.25424,42.1440999 C26.0638235,42.1440999 24.2881401,40.3684165 24.28814,38.178 L24.28814,29.25424 C24.2846658,27.0662797 22.5099981,25.2944277 20.322035,25.2944277 C18.1340719,25.2944277 16.3594042,27.0662797 16.35593,29.25424 L16.35593,30.24576 C16.35593,32.4361765 14.5802465,34.21186 12.38983,34.21186 C10.1994135,34.21186 8.42373,32.4361765 8.42373,30.24576 L8.42373,23.70169" id="Shape" stroke-width="2"/><circle cx="16.85169" cy="39.66525" id="Oval" r="1.48729"/><circle cx="38.66525" cy="51.56356" id="Oval" r="1.48729"/><circle cx="19.82627" cy="32.72458" id="Oval" r="1.48729"/><circle cx="28.75" cy="53.54661" id="Oval" r="1.48729"/><circle cx="22.80085" cy="46.60593" id="Oval" r="2.47881"/><circle cx="32.7161" cy="46.60593" id="Oval" r="2.47881"/><path d="M52.9928,35.66941 C52.5756181,35.364534 52.0717862,35.2012298 51.55508,35.20341 C50.1880122,35.2061558 49.0812388,36.3151544 49.0812388,37.682225 C49.0812388,39.0492956 50.1880122,40.1582942 51.55508,40.16104 C51.8143124,40.1626298 52.0721083,40.1224484 52.31856,40.04204" id="Shape"/><path d="M39.161,36.69068 C38.1383519,37.4576725 36.7001548,37.3212185 35.8399978,36.3755882 C34.9798407,35.4299579 34.9798407,33.9853021 35.8399978,33.0396718 C36.7001548,32.0940415 38.1383519,31.9575875 39.161,32.72458" id="Shape"/><path d="M7.13475,43.00669 C7.3909024,43.0904077 7.65848935,43.1338912 7.92797,43.13559 C9.08863205,43.1342631 10.0929718,42.3277473 10.3448658,41.1947479 C10.5967598,40.0617486 10.0287558,38.9056614 8.97799099,38.4126792 C7.92722621,37.9196969 6.67507559,38.2218308 5.96475,39.13975" id="Shape"/><circle cx="14.86864" cy="46.60593" id="Oval" r="1.48729"/><circle cx="29.24576" cy="8.4322" id="Oval" r="4.95763" stroke-width="2"/><circle cx="21.31356" cy="10.41525" id="Oval" r="2.97458" stroke-width="2"/><circle cx="37.17797" cy="10.41525" id="Oval" r="2.97458" stroke-width="2"/><circle cx="28.75" cy="7.93644" id="Oval" r="1.48729"/><path d="M40.00381,11.31754 C40.02364,11.31754 40.04347,11.30763 40.06331,11.30763 C42.96847,10.65322 44.81271,14.30203 44.81271,14.30203 C44.81271,14.30203 44.37644,12.36856 48.02525,10.52432 C51.67407,8.67017 54.48008,12.10085 54.48008,12.10085 C53.38941,7.27212 58,5.19983 58,5.19983 C58,5.19983 52.94322,5.33864 51.85254,0.5 C51.85254,0.5 50.79161,4.80322 46.70654,4.714 C42.62147,4.62478 42.17526,2.69129 42.17526,2.69129 C42.17526,2.69129 42.08603,6.78629 39.19077,7.4407 C38.9207231,7.50122735 38.6580738,7.59099356 38.40747,7.70841" id="Shape"/><path d="M20.08407,7.70839 C19.8334634,7.59097206 19.5708105,7.50120582 19.30076,7.44068 C16.40551,6.78627 16.31627,2.69127 16.31627,2.69127 C16.31627,2.69127 15.87008,4.62475 11.785,4.714 C7.69992,4.80325 6.639,0.5 6.639,0.5 C5.54831,5.33864 0.49153,5.19983 0.49153,5.19983 C0.49153,5.19983 5.10212,7.27212 4.01144,12.10083 C4.01144,12.10083 6.81744,8.67015 10.46627,10.5243 C14.11508,12.36854 13.67881,14.30201 13.67881,14.30201 C13.67881,14.30201 15.52305,10.6532 18.42822,11.30761 C18.44805,11.30761 18.46788,11.31752 18.48771,11.31752" id="Shape"/><path d="M25.52754,11.70424 C24.9468975,11.7860118 24.3710042,11.8985434 23.80229,12.04136" id="Shape" stroke-width="2"/><path d="M20.2328,13.18161 C15.2100708,15.2360287 11.042468,18.9487271 8.42373,23.70169 C6.46357249,27.2175851 5.4393224,31.1780156 5.44915,35.20339 C5.4451604,36.5327448 5.5579674,37.8598801 5.78627,39.16949 C6.00362012,40.513729 6.34551568,41.8348411 6.80754,43.11576 C10.3554266,53.1806403 20.1705002,59.6523416 30.8191339,58.9481285 C41.4677676,58.2439154 50.3451213,50.5360507 52.53669,40.09161 L52.53669,40.08169 C52.8436101,38.6303206 53.0096375,37.152701 53.03246,35.66941 C53.04237,35.52068 53.04237,35.36203 53.04237,35.20341 C53.0450329,33.5368269 52.8688544,31.8747693 52.51686,30.24578 C50.8761751,22.5509776 45.5393797,16.163886 38.25873,13.18161" id="Shape" stroke-width="2"/><path d="M34.68924,12.04136 C34.1205225,11.8985434 33.5446258,11.7860118 32.96398,11.70424" id="Shape" stroke-width="2"/></g></g></g></svg>