<?xml version="1.0" ?><svg height="60px" version="1.1" viewBox="0 0 60 60" width="60px" xmlns="http://www.w3.org/2000/svg" xmlns:xlink="http://www.w3.org/1999/xlink"><title/><desc/><defs/><g fill="none" fill-rule="evenodd" id="Page-1" stroke="none" stroke-width="1"><g id="026---Baubles" transform="translate(1.000000, 1.000000)"><g id="Colour" transform="translate(0.000000, 10.000000)"><circle cx="40" cy="22" fill="#007B6F" fill-rule="nonzero" id="Oval" r="18"/><ellipse cx="38.5" cy="22" fill="#00A499" fill-rule="nonzero" id="Oval" rx="16.5" ry="18"/><path d="M58,22 C58,22.19 58,22.39 57.99,22.58 C57.99,22.8 57.98,23.01005 57.96,23.22 C57.94,23.55 57.91,23.88 57.86,24.2 C57.7092767,25.4964725 57.410667,26.7714353 56.97,28 L35.89,28 L35.33,25.41 L35.16,24.6 C35.1123178,24.4336867 35.0555662,24.2701086 34.99,24.11 C34.0661519,21.4090766 32.505494,18.9703342 30.44,17 L57.29,17 C57.7614219,18.6248128 58.00046,20.3081799 58,22 L58,22 Z" fill="#D13D34" id="Shape"/><path d="M55,22 C55,22.19 55,22.39 54.99,22.58 C54.99,22.8 54.98,23.01005 54.96,23.22 C54.94,23.55 54.91,23.88 54.86,24.2 C54.7092767,25.4964725 54.410667,26.7714353 53.97,28 L35.89,28 L35.33,25.41 L35.16,24.6 C35.1123178,24.4336867 35.0555662,24.2701086 34.99,24.11 C34.0661519,21.4090766 32.505494,18.9703342 30.44,17 L54.29,17 C54.7614219,18.6248128 55.00046,20.3081799 55,22 Z" fill="#F85B44" id="Shape"/><circle cx="18" cy="30" fill="#BC2B6A" fill-rule="nonzero" id="Oval" r="18"/><ellipse cx="16.5" cy="30" fill="#EF3A76" fill-rule="nonzero" id="Oval" rx="16.5" ry="18"/><rect fill="#FFC900" fill-rule="nonzero" height="5" id="Rectangle-path" rx="1" width="8" x="14" y="8"/><path d="M36,30 C36,30.13 36,30.26 35.99,30.39 C35.99,30.67 35.98,30.95 35.96,31.22 C35.94,31.48 35.92,31.74 35.89,32 C35.7447714,33.3653893 35.4358877,34.7083623 34.97,36 L1.03,36 C0.560722272,34.6812783 0.248567408,33.3118247 0.1,31.92 C0.08,31.69 0.06,31.46 0.04,31.22 C0.02004,30.92 0.01004,30.62 0.01,30.32 C-4.16768797e-17,30.22 -4.16768797e-17,30.11 -4.16768797e-17,30 C-0.000459997436,28.3081799 0.238578131,26.6248128 0.71,25 L35.29,25 C35.7614219,26.6248128 36.00046,28.3081799 36,30 Z" fill="#FDDC42" id="Shape"/><path d="M33,30 C33,30.13 33,30.26 32.99,30.39 C32.99,30.67 32.98,30.95 32.96,31.22 C32.94,31.48 32.92,31.74 32.89,32 C32.7447714,33.3653893 32.4358877,34.7083623 31.97,36 L1.03,36 C0.560722272,34.6812783 0.248567408,33.3118247 0.1,31.92 C0.08,31.69 0.06,31.46 0.04,31.22 C0.02004,30.92 0.01004,30.62 0.01,30.32 C-4.16767739e-17,30.22 -4.16767739e-17,30.11 -4.16767739e-17,30 C-0.000459997436,28.3081799 0.238578131,26.6248128 0.71,25 L32.29,25 C32.7614219,26.6248128 33.00046,28.3081799 33,30 Z" fill="#FFEB49" id="Shape"/><rect fill="#FFC900" fill-rule="nonzero" height="5" id="Rectangle-path" rx="1" width="8" x="36" y="0"/></g><g id="Outline" stroke="#000000" stroke-linecap="round" stroke-linejoin="round"><path d="M21.9,22.43 C28.1768896,23.8262221 33.231796,28.4656045 35.16,34.6 C35.21,34.73 35.25,34.86 35.29,35 C35.5723541,35.9817511 35.773038,36.9851705 35.89,38 C35.9620848,38.6642461 35.9988033,39.331855 36,40 C36,40.41 35.99,40.82 35.96,41.22 C35.853672,42.8515891 35.5204669,44.4603978 34.97,46 C32.4275743,53.1917962 25.6279657,58.0000083 18,58.0000083 C10.3720343,58.0000083 3.57242568,53.1917962 1.03,46 C0.479533114,44.4603978 0.146327964,42.8515891 0.04,41.22 C0.01,40.82 0,40.41 0,40 C0.00293940671,31.5631443 5.86394703,24.2597469 14.1,22.43" id="Shape" stroke-width="2"/><rect height="5" id="Rectangle-path" rx="1" stroke-width="2" width="8" x="14" y="18"/><path d="M18,12 L18,12 C19.6568542,12 21,13.3431458 21,15 L21,18 L15,18 L15,15 C15,13.3431458 16.3431458,12 18,12 Z" id="Shape"/><path d="M18,12 L18,0" id="Shape"/><path d="M36,40 C36,40.41 35.99,40.82 35.96,41.22 C35.8536716,42.8515891 35.5204665,44.4603977 34.97,46 L1.03,46 C0.479533491,44.4603977 0.146328352,42.8515891 0.04,41.22 C0.01,40.82 -4.16768797e-17,40.41 -4.16768797e-17,40 C-0.000459997436,38.3081799 0.238578131,36.6248128 0.71,35 L35.29,35 C35.7614219,36.6248128 36.00046,38.3081799 36,40 Z" id="Shape" stroke-width="2"/><path d="M4,35 L0.04,41.22" id="Shape"/><path d="M11,46 L4,35" id="Shape"/><path d="M11,46 L18,35" id="Shape"/><path d="M25,46 L18,35" id="Shape"/><path d="M25,46 L32,35" id="Shape"/><path d="M35.96,41.22 L32,35" id="Shape"/><path d="M43.9,14.43 C52.136053,16.2597469 57.9970606,23.5631443 58,32 C58,32.41 57.99,32.82 57.96,33.22 C57.853672,34.8515891 57.5204669,36.4603978 56.97,38 C55.3538051,42.5550212 51.9763388,46.2703539 47.5955691,48.3122062 C43.2147994,50.3540585 38.1976264,50.5514204 33.67,48.86" id="Shape" stroke-width="2"/><path d="M36.1,14.43 C31.1188249,15.5331612 26.8425015,18.7040404 24.34,23.15" id="Shape" stroke-width="2"/><rect height="5" id="Rectangle-path" rx="1" stroke-width="2" width="8" x="36" y="10"/><path d="M40,4 L40,4 C41.6568542,4 43,5.34314575 43,7 L43,10 L37,10 L37,7 C37,5.34314575 38.3431458,4 40,4 Z" id="Shape"/><path d="M40,4 L40,0" id="Shape"/><path d="M35.16,34.6 C34.2558427,31.7077476 32.631708,29.0926156 30.44,27 L57.29,27 C57.7614109,28.6248152 58.0004489,30.3081807 58,32 C58,32.41 57.99,32.82 57.96,33.22 C57.853672,34.8515891 57.5204669,36.4603978 56.97,38 L35.89,38" id="Shape" stroke-width="2"/><path d="M40,27 L35.16,34.6" id="Shape"/><path d="M47,38 L40,27" id="Shape"/><path d="M47,38 L54,27" id="Shape"/><path d="M57.96,33.22 L54,27" id="Shape"/></g></g></g></svg>