<?xml version="1.0" ?><svg id="Christmas_Icon" style="enable-background:new 0 0 56 56;" version="1.1" viewBox="0 0 56 56" xml:space="preserve" xmlns="http://www.w3.org/2000/svg" xmlns:xlink="http://www.w3.org/1999/xlink"><style type="text/css">
	.st0{fill:#F5F5F5;stroke:#3E2723;stroke-linecap:round;stroke-linejoin:round;stroke-miterlimit:10;}
	.st1{fill:#E0E0E0;}
	.st2{fill:#8D6E63;stroke:#3E2723;stroke-linecap:round;stroke-linejoin:round;stroke-miterlimit:10;}
	.st3{fill:#5D4037;}
	.st4{fill:none;stroke:#3E2723;stroke-linecap:round;stroke-linejoin:round;stroke-miterlimit:10;}
	.st5{fill:#FFD54F;stroke:#3E2723;stroke-linecap:round;stroke-linejoin:round;stroke-miterlimit:10;}
	.st6{fill:#E53935;stroke:#3E2723;stroke-linecap:round;stroke-linejoin:round;stroke-miterlimit:10;}
	.st7{fill:#B71C1C;}
	.st8{fill:#FFA000;}
	.st9{fill:#FFECB3;stroke:#3E2723;stroke-linecap:round;stroke-linejoin:round;stroke-miterlimit:10;}
	.st10{fill:#FFE082;}
	.st11{fill:#3E2723;}
	.st12{fill:#81C784;stroke:#3E2723;stroke-linecap:round;stroke-linejoin:round;stroke-miterlimit:10;}
	.st13{fill:#43A047;}
	.st14{fill:#263238;}
	.st15{fill:#4E342E;stroke:#3E2723;stroke-linecap:round;stroke-linejoin:round;stroke-miterlimit:10;}
	.st16{fill:none;}
	.st17{fill:#A1887F;stroke:#3E2723;stroke-linecap:round;stroke-linejoin:round;stroke-miterlimit:10;}
	.st18{fill:#6D4C41;}
	.st19{fill:#6D4C41;stroke:#3E2723;stroke-linecap:round;stroke-linejoin:round;stroke-miterlimit:10;}
	.st20{fill:#E0E0E0;stroke:#3E2723;stroke-miterlimit:10;}
	.st21{fill:#D81B60;stroke:#3E2723;stroke-linecap:round;stroke-linejoin:round;stroke-miterlimit:10;}
	.st22{fill:#E0E0E0;stroke:#3E2723;stroke-linecap:round;stroke-linejoin:round;stroke-miterlimit:10;}
	.st23{fill:#FBC02D;stroke:#3E2723;stroke-linecap:round;stroke-linejoin:round;stroke-miterlimit:10;}
</style><g id="Candy"><g><path class="st6" d="M11.9,50.8c-2-2-2-5.1,0-7.1l22.3-22.3c1.8-1.8,1.8-4.6,0-6.4s-4.6-1.8-6.4,0l-2.5,2.5c-2,2-5.1,2-7.1,0    s-2-5.1,0-7.1L20.8,8c5.7-5.7,14.9-5.7,20.5,0s5.7,14.9,0,20.5L19,50.8C17.1,52.7,13.9,52.7,11.9,50.8z"/></g><path class="st7" d="M18.7,50.4l22.3-22.3c5.5-5.5,5.5-14.3,0-19.8c-2.6-2.6-6.2-4.1-9.9-4.1c-0.4,0-0.7,0-1.1,0.1   C32.3,5,34.5,6.2,36.3,8c5.7,5.7,5.7,14.9,0,20.5L14,50.8c-0.2,0.2-0.4,0.3-0.6,0.5C15.1,52.1,17.2,51.8,18.7,50.4z"/><path class="st0" d="M20.8,8l-2.5,2.5c-0.7,0.7-1.1,1.4-1.3,2.3h27.4C43.7,11,42.7,9.4,41.3,8c-0.5-0.5-1-0.9-1.5-1.3H22.2   C21.7,7.1,21.2,7.5,20.8,8z"/><path class="st1" d="M43.5,12c-0.1-0.2-0.2-0.4-0.3-0.5c-0.1-0.2-0.2-0.4-0.4-0.6c-0.1-0.2-0.2-0.3-0.3-0.4   c-0.2-0.2-0.3-0.5-0.5-0.7c-0.1-0.1-0.2-0.2-0.3-0.3c-0.3-0.3-0.6-0.7-0.9-1c-0.2-0.2-0.5-0.5-0.7-0.7c-0.2-0.1-0.3-0.3-0.5-0.4   h-4.2C35.7,7.5,36,7.7,36.3,8c1.3,1.3,2.2,2.7,2.9,4.2h4.4C43.6,12.2,43.6,12.1,43.5,12z"/><path class="st0" d="M45.5,18.7h-10c-0.1,1-0.5,1.9-1.3,2.7l-3.3,3.3H44C44.9,22.9,45.4,20.8,45.5,18.7z"/><path class="st1" d="M40.5,19.2c-0.1,1.7-0.5,3.4-1.3,5h4.4c0.6-1.2,0.9-2.4,1.1-3.7c0,0,0,0,0-0.1c0.1-0.4,0.1-0.8,0.1-1.3H40.5z"/><polygon class="st0" points="33,36.7 39,30.7 24.9,30.7 18.9,36.7  "/><polygon class="st1" points="37.8,31.2 33.5,31.2 28.5,36.2 32.8,36.2  "/><path class="st0" d="M27,42.7H12.9l-1,1c-1.4,1.4-1.8,3.3-1.2,5H21L27,42.7z"/><polygon class="st1" points="25.8,43.2 21.5,43.2 16.5,48.2 20.8,48.2  "/></g></svg>