<?xml version="1.0" ?><!DOCTYPE svg  PUBLIC '-//W3C//DTD SVG 1.1//EN'  'http://www.w3.org/Graphics/SVG/1.1/DTD/svg11.dtd'><svg style="enable-background:new 0 0 128 128;" version="1.1" viewBox="0 0 128 128" xml:space="preserve" xmlns="http://www.w3.org/2000/svg" xmlns:xlink="http://www.w3.org/1999/xlink"><style type="text/css">
	.st0{display:none;}
	.st1{fill:#1E5170;}
	.st2{opacity:0.2;}
	.st3{fill:#2BAF67;}
	.st4{fill:#F5D22D;}
	.st5{fill:#34D27C;}
	.st6{fill:#EA5644;}
	.st7{fill:#F3CB0A;}
	.st8{fill:#A564BE;}
	.st9{fill:#6E437F;}
	.st10{opacity:0.2;fill:#53325F;}
	.st11{fill:#F6DA50;}
	.st12{fill:#C34839;}
	.st13{fill:#FFFFFF;}
	.st14{fill:#286C95;}
	.st15{fill:#74BDE9;}
	.st16{fill:#ABD7F2;}
	.st17{fill:#F8F9FA;}
	.st18{fill:#F6CCA2;}
	.st19{fill:#ED6E5F;}
	.st20{fill:#9C392D;}
	.st21{fill:#F3F6F6;}
	.st22{fill:#9B5B19;}
	.st23{fill:#FCEEE0;}
	.st24{fill:#90CAED;}
	.st25{fill:#EEF2F3;}
	.st26{fill:#FDFDFD;}
	.st27{fill:#238C53;}
	.st28{fill:#314557;}
	.st29{fill:#CAA908;}
	.st30{fill:#4E2E0C;}
	.st31{clip-path:url(#SVGID_2_);}
	.st32{fill:#A28707;}
	.st33{fill:#13836F;}
	.st34{fill:#094137;}
	.st35{fill:#1A693E;}
	.st36{clip-path:url(#SVGID_4_);}
</style><g><g class="st0" id="guids"/><g id="Vrstva_2"><g><g><circle class="st33" cx="63.5" cy="64.1" r="58.8"/></g><g class="st2"><path d="M122.3,64.1c0-2.2-0.1-4.3-0.3-6.4L92.6,28.4l-0.8,0.4l-5.4-5.4l-1.9,2.7l-15.2,7.6l-6.9-3.1l-1.8,0.2l-1.3-1.3       l-0.8,0.4l-3-1l-4.5-4.5l-5.7,4.1l-9.7,8.4l10.5,10.5l-3.9,28.7l-4,14.1l-7,8.9l23.4,23.4c2.9,0.4,5.9,0.7,9,0.7       C96,122.8,122.3,96.5,122.3,64.1z"/></g><g><path class="st4" d="M63.5,41.3c-3.3,0-6-2.7-6-6s2.7-6,6-6s6,2.7,6,6S66.8,41.3,63.5,41.3z M63.5,33.6c-0.9,0-1.7,0.8-1.7,1.7       s0.8,1.7,1.7,1.7c0.9,0,1.7-0.8,1.7-1.7S64.4,33.6,63.5,33.6z"/></g><g><circle class="st34" cx="63.5" cy="103.3" r="6.4"/></g><g><path class="st4" d="M85.2,60.3c-1.8-15.7-11-24.6-21.7-24.6c-11.1,0-20,8.9-21.8,24.6c-2.8,24.1-7.5,33.7-10.6,38.4       c8.3,2.8,19.6,4.6,32.4,4.6s24-1.8,32.4-4.6C92.8,94.1,88,84.4,85.2,60.3z"/></g><g><path class="st3" d="M43.3,43c2.2-0.6,4.6-0.6,7,0.4c1,0.4,1.9,0.9,2.7,1.6c1.9-1.9,4.6-2.9,7.4-2.8c0.1-0.2,0.1-0.4,0.2-0.6       c0.3-0.9,0.9-1.6,1.6-2.1c-0.2-0.9-0.2-1.6,0.2-2.5c0.1-0.2,0.1-0.3,0.2-0.5c-2.1-1.9-3.4-4.5-3.5-7.1c-1-0.1-2-0.3-3.1-0.7       c-2.3-0.9-4.2-2.5-5.3-4.5c-2.3,1.3-5.2,1.6-7.9,0.5c-0.8-0.3-1.6-0.8-2.2-1.3c0,0.7-0.1,1.3-0.3,1.9c-0.9,2.4-3.6,4.1-5.9,3.1       c2.1,1.5,3.1,4.1,2.1,6.5c-0.3,0.6-0.6,1.2-1.1,1.7c0.8,0.1,1.7,0.3,2.5,0.6C40.7,38.3,42.6,40.5,43.3,43z"/></g><g><path class="st35" d="M83.7,43c-2.2-0.6-4.6-0.6-7,0.4c-1,0.4-1.9,0.9-2.7,1.6c-1.9-1.9-4.6-2.9-7.4-2.8       c-0.1-0.2-0.1-0.4-0.2-0.6c-0.3-0.9-0.9-1.6-1.6-2.1c0.2-0.9,0.2-1.6-0.2-2.5c-0.1-0.2-0.1-0.3-0.2-0.5       c2.1-1.9,3.4-4.5,3.5-7.1c1-0.1,2-0.3,3.1-0.7c2.3-0.9,4.2-2.5,5.3-4.5c2.3,1.3,5.2,1.6,7.9,0.5c0.8-0.3,1.6-0.8,2.2-1.3       c0,0.7,0.1,1.3,0.3,1.9c0.9,2.4,3.6,4.1,5.9,3.1c-2.1,1.5-3.1,4.1-2.1,6.5c0.3,0.6,0.6,1.2,1.1,1.7c-0.8,0.1-1.7,0.3-2.5,0.6       C86.3,38.3,84.4,40.5,83.7,43z"/></g><g><circle class="st12" cx="66" cy="42.3" r="3"/></g><g><circle class="st6" cx="61" cy="42.2" r="3"/></g><g><circle class="st6" cx="63.5" cy="38.4" r="3"/></g><g><defs><path d="M85.2,60.3c-1.8-15.7-11-24.6-21.7-24.6c-11.1,0-20,8.9-21.8,24.6c-2.8,24.1-7.5,33.7-10.6,38.4        c8.3,2.8,19.6,4.6,32.4,4.6s24-1.8,32.4-4.6C92.8,94.1,88,84.4,85.2,60.3z" id="SVGID_3_"/></defs><clipPath id="SVGID_2_"><use style="overflow:visible;" xlink:href="#SVGID_3_"/></clipPath><g class="st31"><path class="st29" d="M63.5,95.9c-12.3,0-23.9-1.7-32.8-4.7l0.7-2.1c8.7,2.9,20.1,4.5,32.1,4.5c12,0,23.4-1.6,32-4.5l0.7,2.1        C87.3,94.3,75.9,95.9,63.5,95.9z"/></g><g class="st31"><path class="st29" d="M63.5,91.6c-12.3,0-23.9-1.7-32.8-4.7l0.7-2.1c8.7,2.9,20.1,4.5,32.1,4.5c12,0,23.4-1.6,32-4.5l0.7,2.1        C87.3,90,75.9,91.6,63.5,91.6z"/></g><g class="st31"><path class="st29" d="M63.5,87.3c-12.3,0-23.9-1.7-32.8-4.7l0.7-2.1c8.7,2.9,20.1,4.5,32.1,4.5c12,0,23.4-1.6,32-4.5l0.7,2.1        C87.2,85.7,75.9,87.3,63.5,87.3z"/></g></g><g><path class="st29" d="M73.2,65.3c-0.6,0-1.1-0.4-1.4,0.6h-0.9l0.8-1.2l-1.7-1v-2l-1.5,0l0.4-0.8c0.9-0.2,1.5-0.9,1.5-1.9       c0-1.1-0.9-1.9-1.9-1.9s-1.9,0.9-1.9,1.9c0,0.2,0,0.4,0.1,0.6l-0.5,0.8l-0.7-1.2l-1.8,1l-1.8-1l-0.7,1.2l-0.5-0.8       c0.1-0.2,0.1-0.4,0.1-0.6c0-1.1-0.9-1.9-1.9-1.9c-1.1,0-1.9,0.9-1.9,1.9c0,0.9,0.6,1.8,1.5,2l0.5,0.9h-1.4l0,2l-1.8,0.9       l0.7,1.1h-0.9c-0.3-1-0.8-0.6-1.4-0.6c-1.1,0-1.9,0.9-1.9,1.9s0.9,2.1,1.9,2.1c0.6,0,1.1-0.5,1.4-0.5h0.9l-0.7,1.1l1.8,1l0,2       l1.4,0l-0.5,0.8c-0.9,0.2-1.5,0.9-1.5,1.9c0,1.1,0.9,1.9,1.9,1.9c1.1,0,1.9-0.9,1.9-1.9c0-0.2,0-0.4-0.1-0.6l0.5-0.8l0.7,1.2       l1.8-1l1.8,1l0.7-1.2l0.5,0.8c-0.1,0.2-0.1,0.4-0.1,0.6c0,1.1,0.9,1.9,1.9,1.9c1.1,0,1.9-0.9,1.9-1.9c0-0.9-0.6-2.2-1.5-2.4       l-0.5-1.3H69v-1l2.2-0.9l-0.3-1.1h0.9c0.3,0,0.8,0.5,1.4,0.5c1.1,0,1.9-1,1.9-2S74.3,65.3,73.2,65.3z M54.1,67.9       c-0.4,0-0.7-0.3-0.7-0.7c0-0.4,0.3-0.7,0.7-0.7s0.7,0.3,0.7,0.7C54.8,67.6,54.5,67.9,54.1,67.9z M58.9,59.7       c-0.4,0-0.7-0.3-0.7-0.7c0-0.4,0.3-0.7,0.7-0.7c0.4,0,0.7,0.3,0.7,0.7C59.6,59.4,59.3,59.7,58.9,59.7z M58.9,76.2       c-0.4,0-0.7-0.3-0.7-0.7s0.3-0.7,0.7-0.7c0.4,0,0.7,0.3,0.7,0.7S59.3,76.2,58.9,76.2z M60.5,69.8h-2.1l1-1h2L60.5,69.8z        M59.4,65.8l-1-1.7l2,0l1,1.7H59.4z M63.7,61.1l1,1.8l-1,1.8l-1-1.8L63.7,61.1z M63.7,73.3l-1-1.8l1-1.8l1,1.8L63.7,73.3z        M68.5,58.3c0.4,0,0.7,0.3,0.7,0.7c0,0.4-0.3,0.7-0.7,0.7s-0.7-0.3-0.7-0.7C67.8,58.6,68.1,58.3,68.5,58.3z M68.5,74.8       c0.4,0,0.7,0.3,0.7,0.7s-0.3,0.7-0.7,0.7c-0.4,0-0.7-0.3-0.7-0.7S68.1,74.8,68.5,74.8z M66.9,70.5l-1-1.6h2l1,1.7L66.9,70.5z        M68,65.8h-2l1-1.7l2,0L68,65.8z M73.2,67.9c-0.4,0-0.7-0.3-0.7-0.7c0-0.4,0.3-0.7,0.7-0.7s0.7,0.3,0.7,0.7       C73.9,67.6,73.6,67.9,73.2,67.9z"/></g><g class="st2"><path d="M95.9,98.7c-3.1-4.6-7.9-14.3-10.7-38.4c-0.9-7.4-3.3-13.3-6.9-17.5c1.8-0.4,3.6-0.3,5.3,0.2c0.8-2.5,2.7-4.7,5.4-5.8       c0.8-0.3,1.7-0.5,2.5-0.6c-0.5-0.5-0.8-1-1.1-1.7c-0.9-2.4,0-5,2.1-6.5c-2.3,0.9-5-0.8-5.9-3.1c-0.3-0.6-0.3-1.2-0.3-1.9       c-0.7,0.5-1.4,1-2.2,1.3c-2.7,1.1-5.6,0.8-7.9-0.5c-1.2,2-3,3.6-5.3,4.5c-1,0.4-2,0.6-3.1,0.7c0,0.6-0.3,1.1-0.5,1.6       c-1.1-1-2.4-1.7-4.4-1.7v4.3c1,0,2,0.8,2,1.7c0,0.1,0.1,0.2,0.1,0.3c0,0,0,0.1,0,0.1c-0.1,0-0.3,0-0.4,0       c-0.4-0.2-0.6-0.4-1.6-0.4v74.3c3,0,6.7-2.9,6.7-6.4c0-0.1,0.1-0.1,0.1-0.2C80,102.7,89,101.1,95.9,98.7z"/></g></g></g></g></svg>