<?xml version="1.0" ?><svg viewBox="0 0 416.99 583.38" xmlns="http://www.w3.org/2000/svg"><defs><style>.cls-1{fill:#eeeeef;}.cls-2{fill:#dbdcdc;}.cls-3{fill:#f7f7f7;}.cls-4{fill:#423b39;}.cls-5{fill:#fca94f;}.cls-6{fill:#ea9649;}.cls-7{fill:#ff4545;}.cls-8{fill:#ff5c5c;}</style></defs><title/><g data-name="图层 2" id="图层_2"><g data-name="图层 1" id="图层_1-2"><path class="cls-1" d="M343.7,257.67a209.91,209.91,0,0,0-25.34-16.43,125.52,125.52,0,0,0,22.43-24c19.76-27.85,26.75-63,14.75-97.93L343.72,84.83C326.43,34.45,273.81,0,214.17,0H201.62C140.58,0,87.09,36.06,71,88L60.39,122.47c-10.5,34-3.32,67.77,15.81,94.73a125.4,125.4,0,0,0,22.42,24,209.86,209.86,0,0,0-25.33,16.42C28.44,291.59,0,342.06,0,398.44a168.16,168.16,0,0,0,26.39,90.09C62,545.12,130.22,583.38,208.49,583.38s146.45-38.26,182.11-94.85A168.16,168.16,0,0,0,417,398.44C417,342.06,388.54,291.59,343.7,257.67Z"/><path class="cls-2" d="M208.49,273.36v26.23h20.86c45.47,0,85.51-16.28,114.35-41.93a209.93,209.93,0,0,0-25.34-16.43C294.48,261,262.3,273.36,226,273.36Z"/><path class="cls-1" d="M208.49,299.59V273.36H191c-36.24,0-68.46-12.35-92.36-32.11a209.93,209.93,0,0,0-25.33,16.42c28.87,25.67,68.95,41.93,114.33,41.93Z"/><path class="cls-3" d="M208.49,273.36V0h-6.88C140.58,0,87.09,36.06,71,88L60.39,122.47c-10.5,34-3.32,67.77,15.81,94.73a125.4,125.4,0,0,0,22.42,24C122.53,261,154.74,273.36,191,273.36Z"/><path class="cls-1" d="M226,273.36c36.31,0,68.48-12.37,92.36-32.12a125.51,125.51,0,0,0,22.43-24c19.76-27.85,26.75-63,14.75-97.93L343.72,84.83C326.43,34.45,273.81,0,214.17,0h-5.68V273.36Z"/><path class="cls-3" d="M208.49,583.38V299.59H187.62c-45.39,0-85.46-16.26-114.33-41.93C28.44,291.59,0,342.06,0,398.44a168.16,168.16,0,0,0,26.39,90.09C62,545.12,130.22,583.38,208.49,583.38Z"/><path class="cls-1" d="M208.49,299.59V583.38h0c78.27,0,146.45-38.26,182.11-94.85A168.16,168.16,0,0,0,417,398.44c0-56.38-28.45-106.85-73.29-140.77-28.84,25.65-68.88,41.93-114.35,41.93Z"/><circle class="cls-4" cx="146.45" cy="120.04" r="25.34"/><circle class="cls-4" cx="270.54" cy="120.04" r="25.34"/><path class="cls-5" d="M231.93,129l-29.72,10.1a20.75,20.75,0,0,0-11.06,30.41c.34.56.73,1.07,1.11,1.59l28.94-21.52a17.89,17.89,0,0,1,13.64-3.46c2.15.37,5,0,8.69-2.06A10,10,0,0,0,231.93,129Z"/><path class="cls-6" d="M233.17,145.64A8.86,8.86,0,0,0,224.7,147l-32.44,24.13a20.73,20.73,0,0,0,33.93-.88L243.53,144C238.83,146.74,235.42,146.53,233.17,145.64Z"/><path class="cls-7" d="M79.06,299.59V455.17a22.11,22.11,0,0,0,22.11,22.11h38.42a22.11,22.11,0,0,0,22.11-22.11V317.06"/><path class="cls-7" d="M332.67,219.68a31.5,31.5,0,0,0,13.9-11.59,3.86,3.86,0,0,1,1.69,1.47l1.36,2.41L385.23,274a20.65,20.65,0,0,1,2,19.64l-.92,2.18a22.87,22.87,0,0,1-4.92,7.32c-13.16,13.15-65.88,58-172.87,58v-112C256.29,249.15,307,230.57,332.67,219.68Z"/><path class="cls-8" d="M84.32,219.68a31.5,31.5,0,0,1-13.9-11.59,3.86,3.86,0,0,0-1.69,1.47L67.36,212,31.76,274a20.65,20.65,0,0,0-2,19.64l.92,2.18a22.87,22.87,0,0,0,4.92,7.32c13.16,13.15,65.88,58,172.87,58v-112C160.7,249.15,110,230.57,84.32,219.68Z"/><path class="cls-8" d="M385.23,274,349.63,212l-1.36-2.41a3.86,3.86,0,0,0-1.69-1.47,31.5,31.5,0,0,1-13.9,11.59c-25.64,10.89-76.38,29.47-124.18,29.47S110,230.57,84.32,219.68a31.5,31.5,0,0,1-13.9-11.59,3.85,3.85,0,0,0-1.69,1.47L67.36,212,31.76,274a20.65,20.65,0,0,0-2,19.64l.92,2.18a22.87,22.87,0,0,0,4.92,7.32c13.16,13.15,65.88,58,172.87,58s159.72-44.86,172.87-58a22.88,22.88,0,0,0,4.92-7.32l.92-2.18A20.65,20.65,0,0,0,385.23,274Z"/><circle class="cls-4" cx="208.49" cy="417.53" r="16.3"/><circle class="cls-4" cx="208.49" cy="478.23" r="16.3"/></g></g></svg>