<?xml version="1.0" ?><!DOCTYPE svg  PUBLIC '-//W3C//DTD SVG 1.1//EN'  'http://www.w3.org/Graphics/SVG/1.1/DTD/svg11.dtd'><svg enable-background="new 0 0 64 64" height="64px" id="Layer_1" version="1.1" viewBox="0 0 64 64" width="64px" xml:space="preserve" xmlns="http://www.w3.org/2000/svg" xmlns:xlink="http://www.w3.org/1999/xlink"><g id="candys_1_"><g><g><g><path d="M15,24.5c-0.272,0-0.54-0.015-0.806-0.037L9.495,56.571C9.459,56.815,9.247,57,9.002,57      c-0.025,0-0.05-0.002-0.074-0.005c-0.273-0.04-0.462-0.295-0.423-0.567l4.698-32.102c-0.332-0.063-0.656-0.149-0.974-0.247      L7.516,56.283c-0.12,0.819,0.447,1.581,1.267,1.701C8.856,57.995,8.93,58,9.002,58c0.732,0,1.373-0.537,1.482-1.283      l4.716-32.227C15.133,24.491,15.068,24.5,15,24.5z" fill="#37474F"/><path d="M15,25C9.486,25,5,20.514,5,15S9.486,5,15,5s10,4.486,10,10S20.514,25,15,25z M15,6      c-4.962,0-9,4.037-9,9s4.038,9,9,9s9-4.037,9-9S19.962,6,15,6z" fill="#37474F"/></g></g><g><g><g><g><g><path d="M18.999,58.805c-0.005,0-0.105-0.001-0.109-0.001c-0.448-0.013-0.89-0.101-1.313-0.261         c-2.061-0.786-3.1-3.102-2.315-5.161L30.86,12.408C32.548,7.978,36.873,5,41.622,5c1.394,0,2.765,0.253,4.075,0.751         c5.926,2.257,8.913,8.914,6.659,14.84l-1.469,3.861c-0.587,1.541-2.09,2.578-3.739,2.578c-0.486,0-0.965-0.089-1.423-0.264         c-2.062-0.784-3.101-3.1-2.316-5.16l1.471-3.861c0.686-1.803-0.224-3.83-2.027-4.518c-0.398-0.15-0.815-0.229-1.238-0.229         c-1.447,0-2.765,0.907-3.279,2.257L22.738,56.227C22.151,57.769,20.648,58.805,18.999,58.805z M41.622,6         c-4.337,0-8.287,2.718-9.828,6.765L16.196,53.737c-0.588,1.545,0.191,3.281,1.736,3.871c0.318,0.12,0.648,0.187,0.984,0.195         l0.082,0.001c1.237,0,2.364-0.777,2.805-1.934L37.401,14.9c0.66-1.735,2.354-2.901,4.213-2.901         c0.545,0,1.081,0.1,1.594,0.295c2.319,0.883,3.488,3.488,2.606,5.807l-1.471,3.861c-0.588,1.546,0.191,3.282,1.737,3.871         c1.512,0.576,3.303-0.239,3.871-1.736l1.469-3.861c2.059-5.41-0.669-11.488-6.079-13.549C44.145,6.231,42.894,6,41.622,6z" fill="#37474F"/></g></g></g></g><g><g><path d="M34.995,23.126c-0.182,0-0.351-0.1-0.438-0.26l-4.421-8.063c-0.07-0.129-0.081-0.281-0.029-0.418       l1.04-2.639c0.081-0.188,0.163-0.375,0.263-0.555c0.597-1.166,1.387-2.098,1.803-2.549c0.594-0.609,1.027-0.967,1.046-0.982       c0.165-0.135,0.398-0.149,0.58-0.039c0.182,0.112,0.271,0.328,0.225,0.536c-0.001,0.007-0.15,0.677-0.185,1.593       c-0.031,1.06,0.17,2.221,0.539,3.101c0.146,0.37,0.322,0.677,0.508,1.002c0.078,0.136,0.156,0.272,0.232,0.413l1.396,2.549       c0.07,0.128,0.081,0.281,0.029,0.418l-2.12,5.57c-0.07,0.182-0.239,0.307-0.434,0.32       C35.018,23.125,35.007,23.126,34.995,23.126z M31.124,14.525l3.789,6.91l1.652-4.343l-1.287-2.348       c-0.073-0.137-0.147-0.266-0.222-0.395c-0.195-0.342-0.397-0.694-0.565-1.122c-0.424-1.011-0.648-2.294-0.613-3.511       c0.005-0.117,0.011-0.23,0.018-0.34c-0.383,0.421-1.074,1.25-1.604,2.285c-0.092,0.166-0.16,0.325-0.229,0.482L31.124,14.525z" fill="#37474F"/></g><g><path d="M39.048,13.931c-0.051,0-0.103-0.008-0.152-0.023c-0.166-0.053-0.293-0.188-0.334-0.357l-0.076-0.324       c-0.049-0.232-0.111-0.574-0.124-0.99c-0.062-0.943,0.155-2.078,0.596-3.098c0.56-1.357,1.539-2.402,2.074-2.904       c0.345-0.311,0.704-0.604,0.993-0.814l0.413-0.273c0.082-0.054,0.178-0.082,0.275-0.082l0,0c0.077,0,0.672,0.043,1.467,0.236       c0.93,0.197,1.998,0.601,2.917,1.104c0.81,0.416,1.662,1.039,2.522,1.848l0.963,1.068c0.131,0.165,0.145,0.395,0.033,0.574       c-0.11,0.18-0.322,0.269-0.528,0.227l-0.463-0.1c-0.264-0.041-0.675-0.094-1.142-0.123c-0.099-0.004-0.213-0.006-0.329-0.006       c-1.018,0-2.004,0.174-2.777,0.488c-0.878,0.336-1.721,0.895-2.266,1.496c-0.455,0.486-0.654,0.872-0.656,0.876       c-0.097,0.19-0.304,0.303-0.515,0.271l-0.135-0.02l-0.112,0.003l-0.184-0.003c-0.269,0.021-0.603,0.043-0.898,0.149       c-0.69,0.194-1.23,0.653-1.235,0.657C39.282,13.89,39.166,13.931,39.048,13.931z M42.844,6.076l-0.25,0.165       c-0.217,0.157-0.54,0.418-0.886,0.729c-0.802,0.752-1.472,1.687-1.83,2.557c-0.383,0.887-0.57,1.854-0.518,2.662       c0.004,0.146,0.016,0.282,0.03,0.402c0.257-0.146,0.572-0.295,0.917-0.391c0.393-0.142,0.82-0.172,1.133-0.193l0.267-0.001       l0.029,0.001c0.132-0.203,0.341-0.49,0.639-0.808c0.648-0.718,1.61-1.358,2.634-1.749c1.132-0.461,2.335-0.559,3.145-0.559       c0.13,0,0.257,0.002,0.38,0.008c0.119,0.007,0.233,0.016,0.344,0.025c-0.759-0.707-1.522-1.266-2.249-1.639       c-0.836-0.457-1.83-0.833-2.671-1.012C43.449,6.151,43.049,6.098,42.844,6.076z" fill="#37474F"/></g><g><path d="M50.42,24.774c-0.182,0-0.351-0.099-0.438-0.26l-3.022-5.512c-0.218-0.328-0.466-0.631-0.76-0.918       c-0.255-0.236-0.465-0.405-0.626-0.518l-0.27-0.17c-0.172-0.11-0.259-0.313-0.224-0.51c0.007-0.049,0.094-0.711-0.107-1.324       c-0.084-0.316-0.225-0.637-0.385-0.887c-0.118-0.205-0.215-0.316-0.228-0.331c-0.091-0.096-0.143-0.226-0.138-0.364       c0.01-0.227,0.169-0.418,0.39-0.468l0.327-0.073c0.28-0.059,0.609-0.094,0.984-0.105l0.201-0.003       c0.555,0,1.67,0.086,2.899,0.661c1.006,0.44,2.079,1.239,2.859,2.132c0.694,0.768,1.061,1.419,1.075,1.446       c0.053,0.094,0.072,0.202,0.06,0.307c-0.021,0.2-0.089,0.717-0.256,1.399c-0.079,0.345-0.225,0.774-0.362,1.18l-0.452,1.208       l-1.061,2.787c-0.07,0.182-0.239,0.308-0.434,0.321C50.442,24.774,50.432,24.774,50.42,24.774z M46.102,16.72l0.024,0.016       c0.239,0.164,0.49,0.371,0.763,0.626c0.355,0.347,0.647,0.702,0.927,1.128l2.522,4.596l1.116-2.951       c0.126-0.371,0.262-0.764,0.336-1.088c0.122-0.496,0.185-0.891,0.216-1.121c-0.133-0.21-0.427-0.646-0.869-1.135       c-0.693-0.794-1.636-1.496-2.524-1.887c-0.782-0.365-1.685-0.571-2.487-0.571l-0.166,0.003       c-0.143,0.004-0.275,0.012-0.397,0.023c0.155,0.282,0.288,0.611,0.369,0.924C46.075,15.72,46.127,16.292,46.102,16.72z" fill="#37474F"/></g><g><path d="M22.271,56.549c-0.182,0-0.35-0.099-0.438-0.26l-4.422-8.061c-0.07-0.128-0.08-0.281-0.028-0.418       l2.12-5.571c0.07-0.183,0.238-0.308,0.434-0.321c0.195-0.019,0.379,0.088,0.473,0.259l4.421,8.062       c0.07,0.128,0.081,0.281,0.028,0.418l-2.12,5.57c-0.069,0.183-0.238,0.308-0.433,0.321       C22.294,56.549,22.282,56.549,22.271,56.549z M18.399,47.95l3.789,6.909l1.654-4.343l-3.79-6.91L18.399,47.95z" fill="#37474F"/></g><g><path d="M26.513,45.408c-0.182,0-0.35-0.099-0.438-0.26l-4.421-8.062c-0.07-0.128-0.082-0.281-0.029-0.418       l2.121-5.571c0.069-0.183,0.238-0.308,0.434-0.321c0.188-0.014,0.378,0.088,0.473,0.259l4.42,8.063       c0.07,0.128,0.082,0.281,0.029,0.418l-2.121,5.57c-0.068,0.183-0.238,0.308-0.432,0.321       C26.536,45.408,26.524,45.408,26.513,45.408z M22.641,36.809l3.79,6.91l1.653-4.343l-3.79-6.911L22.641,36.809z" fill="#37474F"/></g><g><path d="M30.754,34.268c-0.182,0-0.351-0.099-0.438-0.26l-4.421-8.063c-0.07-0.128-0.081-0.281-0.028-0.418       l2.12-5.57c0.069-0.182,0.238-0.307,0.433-0.32c0.199-0.009,0.379,0.087,0.473,0.258l4.422,8.063       c0.07,0.129,0.08,0.281,0.028,0.418l-2.12,5.571c-0.07,0.183-0.238,0.308-0.434,0.321       C30.776,34.268,30.765,34.268,30.754,34.268z M26.882,25.667l3.79,6.91l1.653-4.343l-3.789-6.911L26.882,25.667z" fill="#37474F"/></g></g></g><g><g><path d="M52.516,39.533c-1.433,0-2.698-0.487-3.628-1.413c-1.128-1.12-1.616-2.736-1.374-4.551      c0.234-1.764,1.137-3.513,2.54-4.922l0.709,0.705c-1.25,1.256-2.052,2.801-2.258,4.349c-0.199,1.497,0.187,2.814,1.088,3.71      c0.899,0.896,2.213,1.273,3.715,1.066c1.547-0.216,3.087-1.026,4.338-2.284l0.709,0.705c-1.403,1.412-3.147,2.324-4.909,2.569      C53.129,39.512,52.818,39.533,52.516,39.533z" fill="#37474F"/></g><g><g><path d="M58.291,36.808c-0.312-0.31-0.675-0.269-1.289-0.166c-0.653,0.109-1.468,0.245-2.159-0.443       c-0.691-0.688-0.561-1.502-0.455-2.156c0.099-0.615,0.14-0.979-0.173-1.289c-0.313-0.31-0.676-0.267-1.287-0.164       c-0.654,0.108-1.468,0.245-2.157-0.441c-0.69-0.687-0.559-1.501-0.453-2.155c0.1-0.613,0.141-0.977-0.171-1.286l0.705-0.709       c0.69,0.687,0.559,1.501,0.453,2.155c-0.1,0.613-0.141,0.977,0.171,1.286c0.311,0.31,0.674,0.267,1.287,0.164       c0.653-0.11,1.467-0.247,2.157,0.441c0.691,0.688,0.561,1.502,0.455,2.156c-0.099,0.615-0.14,0.979,0.173,1.289       c0.312,0.311,0.676,0.268,1.289,0.166c0.653-0.109,1.468-0.245,2.159,0.443L58.291,36.808z" fill="#37474F"/></g></g><g><path d="M43.877,51.886l-0.204-0.151c-3.102-2.303-6.519-7.018-6.693-11.928l-0.007-0.186l0.117-0.146      c0.241-0.3,0.494-0.593,0.773-0.873c1.556-1.565,3.528-2.611,5.554-2.946l0.486-0.08l0.088,0.484      c0.715,3.955,3.135,8.277,5.885,10.511l0.343,0.278l-0.235,0.375c-0.442,0.705-0.954,1.352-1.521,1.921      c-1.241,1.248-2.743,2.17-4.344,2.665L43.877,51.886z M37.988,39.957c0.23,4.22,3.176,8.568,6.077,10.819      c1.355-0.463,2.625-1.267,3.689-2.336c0.417-0.419,0.801-0.884,1.146-1.386c-2.659-2.339-4.97-6.454-5.795-10.318      c-1.652,0.376-3.246,1.277-4.532,2.571C38.364,39.517,38.171,39.734,37.988,39.957z" fill="#37474F"/><path d="M41.526,52.218c-1.871,0-3.573-0.667-4.792-1.879c-2.921-2.905-2.415-8.17,1.129-11.736      c1.94-1.951,4.468-3.07,6.935-3.07c1.872,0,3.575,0.667,4.795,1.879c2.921,2.908,2.414,8.172-1.13,11.734      C46.521,51.098,43.993,52.218,41.526,52.218z M44.798,36.532c-2.203,0-4.472,1.012-6.226,2.775      c-3.154,3.175-3.663,7.806-1.133,10.322c1.045,1.039,2.458,1.588,4.087,1.588c2.202,0,4.472-1.013,6.228-2.777      c3.155-3.172,3.663-7.802,1.134-10.32C47.842,37.081,46.427,36.532,44.798,36.532z" fill="#37474F"/></g><g><path d="M27.253,51.632c0.691,0.688,1.506,0.553,2.159,0.443c0.613-0.102,0.978-0.145,1.289,0.166      c0.313,0.311,0.271,0.674,0.173,1.289c-0.105,0.654-0.236,1.469,0.455,2.156c0.69,0.688,1.504,0.552,2.157,0.441      c0.613-0.103,0.977-0.146,1.287,0.164c0.313,0.31,0.271,0.673,0.171,1.286c-0.106,0.654-0.238,1.469,0.454,2.155l0.798-0.65      c1.403-1.409,2.306-3.158,2.54-4.922c0.242-1.814-0.246-3.431-1.374-4.551c-0.93-0.926-2.195-1.413-3.629-1.413      c-0.303,0-0.613,0.021-0.93,0.065c-1.762,0.245-3.506,1.157-4.909,2.569L27.253,51.632z M32.941,49.253      c1.502-0.207,2.816,0.171,3.716,1.066c0.901,0.896,1.287,2.213,1.088,3.71c-0.181,1.354-0.839,2.695-1.833,3.854      c0.008-0.049,0.012-0.092,0.021-0.145c0.105-0.654,0.237-1.469-0.453-2.155s-1.504-0.55-2.158-0.441      c-0.611,0.103-0.975,0.146-1.287-0.164c-0.313-0.311-0.271-0.674-0.173-1.289c0.105-0.654,0.236-1.469-0.455-2.156      c-0.691-0.688-1.506-0.553-2.159-0.443c-0.057,0.01-0.101,0.015-0.152,0.022C30.249,50.109,31.587,49.442,32.941,49.253z" fill="#37474F"/></g><g><path d="M58.996,36.099c-0.691-0.688-1.506-0.553-2.159-0.443c-0.613,0.102-0.978,0.145-1.289-0.166      c-0.313-0.311-0.271-0.674-0.173-1.289c0.105-0.654,0.236-1.469-0.455-2.156c-0.69-0.688-1.504-0.552-2.157-0.441      c-0.613,0.103-0.977,0.146-1.287-0.164c-0.312-0.31-0.271-0.673-0.171-1.286c0.105-0.654,0.237-1.469-0.453-2.155l-0.798,0.65      c-1.403,1.409-2.306,3.158-2.54,4.922C47.271,35.384,47.76,37,48.888,38.12c0.93,0.926,2.195,1.413,3.628,1.413      c0.303,0,0.613-0.021,0.93-0.065c1.762-0.245,3.506-1.157,4.909-2.569L58.996,36.099z M53.308,38.478      c-1.502,0.207-2.815-0.171-3.715-1.066c-0.901-0.896-1.287-2.213-1.088-3.71c0.181-1.354,0.839-2.695,1.833-3.854      c-0.008,0.049-0.012,0.092-0.021,0.145c-0.105,0.654-0.237,1.469,0.453,2.155c0.689,0.687,1.503,0.55,2.157,0.441      c0.611-0.103,0.975-0.146,1.287,0.164c0.313,0.311,0.271,0.674,0.173,1.289c-0.105,0.654-0.236,1.469,0.455,2.156      c0.691,0.688,1.506,0.553,2.159,0.443c0.057-0.01,0.101-0.015,0.152-0.022C56,37.621,54.662,38.288,53.308,38.478z" fill="#37474F"/></g></g></g><g><g><path d="M10.779,21.292c-1.416-1.416-2.196-3.299-2.196-5.301c0-2.003,0.78-3.886,2.196-5.302     c2.376-2.376,6.244-2.378,8.622,0c1.939,1.943,1.939,5.102,0,7.041c-1.594,1.59-4.183,1.59-5.772,0     c-0.637-0.636-0.987-1.481-0.987-2.38c0-0.899,0.35-1.745,0.986-2.381c1.09-1.088,2.861-1.088,3.949,0     c0.195,0.195,0.195,0.512,0,0.707s-0.512,0.195-0.707,0c-0.697-0.697-1.836-0.697-2.535,0c-0.447,0.447-0.693,1.042-0.693,1.673     c0,0.632,0.246,1.227,0.694,1.674c1.2,1.2,3.156,1.198,4.358,0c1.55-1.55,1.55-4.074,0-5.627c-1.988-1.987-5.22-1.985-7.208,0     c-2.533,2.533-2.533,6.655,0,9.188c1.836,1.837,4.366,2.688,6.946,2.339C16.281,23.844,12.535,23.048,10.779,21.292z" fill="#37474F"/></g></g></g></svg>