<?xml version="1.0" ?><svg height="60px" version="1.1" viewBox="0 0 54 60" width="54px" xmlns="http://www.w3.org/2000/svg" xmlns:xlink="http://www.w3.org/1999/xlink"><title/><desc/><defs/><g fill="none" fill-rule="evenodd" id="Page-1" stroke="none" stroke-width="1"><g id="022---Icicle" transform="translate(1.000000, 1.000000)"><g fill="#00C6DB" id="Colour"><circle cx="26" cy="3" fill-rule="nonzero" id="Oval" r="3"/><circle cx="26" cy="17" fill-rule="nonzero" id="Oval" r="2"/><circle cx="26" cy="55" fill-rule="nonzero" id="Oval" r="3"/><circle cx="26" cy="41" fill-rule="nonzero" id="Oval" r="2"/><circle cx="3.48334" cy="16" fill-rule="nonzero" id="Oval" r="3"/><circle cx="15.6077" cy="23" fill-rule="nonzero" id="Oval" r="2"/><circle cx="48.51666" cy="42" fill-rule="nonzero" id="Oval" r="3"/><circle cx="36.3923" cy="35" fill-rule="nonzero" id="Oval" r="2"/><circle cx="3.48334" cy="42" fill-rule="nonzero" id="Oval" r="3"/><circle cx="15.6077" cy="35" fill-rule="nonzero" id="Oval" r="2"/><circle cx="48.51666" cy="16" fill-rule="nonzero" id="Oval" r="3"/><circle cx="36.3923" cy="23" fill-rule="nonzero" id="Oval" r="2"/><polygon id="Shape" points="35 29 31 32 31 37 26 36 21 37 21 32 17 29 21 26 21 21 26 22 31 21 31 26"/></g><g id="Outline" stroke="#000000" stroke-linecap="round" stroke-linejoin="round"><circle cx="26" cy="3" id="Oval" r="3" stroke-width="2"/><circle cx="26" cy="17" id="Oval" r="2" stroke-width="2"/><path d="M26,29 L26,19" id="Shape" stroke-width="2"/><path d="M26,15 L26,6" id="Shape" stroke-width="2"/><path d="M22,9 L26,13" id="Shape"/><path d="M30,9 L26,13" id="Shape"/><circle cx="26" cy="55" id="Oval" r="3" stroke-width="2"/><circle cx="26" cy="41" id="Oval" r="2" stroke-width="2"/><path d="M26,39 L26,29" id="Shape" stroke-width="2"/><path d="M26,52 L26,43" id="Shape" stroke-width="2"/><path d="M22,49 L26,45" id="Shape"/><path d="M30,49 L26,45" id="Shape"/><circle cx="3.48334" cy="16" id="Oval" r="3" stroke-width="2"/><circle cx="15.6077" cy="23" id="Oval" r="2" stroke-width="2"/><path d="M26,29 L17.33975,24" id="Shape" stroke-width="2"/><path d="M13.87564,22 L6.08142,17.5" id="Shape" stroke-width="2"/><path d="M6.67949,22.4641 L12.14359,21" id="Shape"/><path d="M10.67949,15.5359 L12.14359,21" id="Shape"/><circle cx="48.51666" cy="42" id="Oval" r="3" stroke-width="2"/><circle cx="36.3923" cy="35" id="Oval" r="2" stroke-width="2"/><path d="M34.66025,34 L26,29" id="Shape" stroke-width="2"/><path d="M45.91858,40.5 L38.12436,36" id="Shape" stroke-width="2"/><path d="M41.32051,42.4641 L39.85641,37" id="Shape"/><path d="M45.32051,35.5359 L39.85641,37" id="Shape"/><circle cx="3.48334" cy="42" id="Oval" r="3" stroke-width="2"/><circle cx="15.6077" cy="35" id="Oval" r="2" stroke-width="2"/><path d="M26,29 L17.33975,34" id="Shape" stroke-width="2"/><path d="M13.87564,36 L6.08142,40.5" id="Shape" stroke-width="2"/><path d="M10.67949,42.4641 L12.14359,37" id="Shape"/><path d="M6.67949,35.5359 L12.14359,37" id="Shape"/><circle cx="48.51666" cy="16" id="Oval" r="3" stroke-width="2"/><circle cx="36.3923" cy="23" id="Oval" r="2" stroke-width="2"/><path d="M34.66025,24 L26,29" id="Shape" stroke-width="2"/><path d="M45.91858,17.5 L38.12436,22" id="Shape" stroke-width="2"/><path d="M45.32051,22.4641 L39.85641,21" id="Shape"/><path d="M41.32051,15.5359 L39.85641,21" id="Shape"/><polyline id="Shape" points="26 22 21 21 21 26 17 29 21 32 21 37 26 36"/><polyline id="Shape" points="31 26 35 29 31 32"/><polyline id="Shape" points="26 22 31 21 31 26"/><polyline id="Shape" points="26 36 31 37 31 32"/></g></g></g></svg>