<?xml version="1.0" ?><svg id="Christmas_Icon" style="enable-background:new 0 0 56 56;" version="1.1" viewBox="0 0 56 56" xml:space="preserve" xmlns="http://www.w3.org/2000/svg" xmlns:xlink="http://www.w3.org/1999/xlink"><style type="text/css">
	.st0{fill:#F5F5F5;stroke:#3E2723;stroke-linecap:round;stroke-linejoin:round;stroke-miterlimit:10;}
	.st1{fill:#E0E0E0;}
	.st2{fill:#8D6E63;stroke:#3E2723;stroke-linecap:round;stroke-linejoin:round;stroke-miterlimit:10;}
	.st3{fill:#5D4037;}
	.st4{fill:none;stroke:#3E2723;stroke-linecap:round;stroke-linejoin:round;stroke-miterlimit:10;}
	.st5{fill:#FFD54F;stroke:#3E2723;stroke-linecap:round;stroke-linejoin:round;stroke-miterlimit:10;}
	.st6{fill:#E53935;stroke:#3E2723;stroke-linecap:round;stroke-linejoin:round;stroke-miterlimit:10;}
	.st7{fill:#B71C1C;}
	.st8{fill:#FFA000;}
	.st9{fill:#FFECB3;stroke:#3E2723;stroke-linecap:round;stroke-linejoin:round;stroke-miterlimit:10;}
	.st10{fill:#FFE082;}
	.st11{fill:#3E2723;}
	.st12{fill:#81C784;stroke:#3E2723;stroke-linecap:round;stroke-linejoin:round;stroke-miterlimit:10;}
	.st13{fill:#43A047;}
	.st14{fill:#263238;}
	.st15{fill:#4E342E;stroke:#3E2723;stroke-linecap:round;stroke-linejoin:round;stroke-miterlimit:10;}
	.st16{fill:none;}
	.st17{fill:#A1887F;stroke:#3E2723;stroke-linecap:round;stroke-linejoin:round;stroke-miterlimit:10;}
	.st18{fill:#6D4C41;}
	.st19{fill:#6D4C41;stroke:#3E2723;stroke-linecap:round;stroke-linejoin:round;stroke-miterlimit:10;}
	.st20{fill:#E0E0E0;stroke:#3E2723;stroke-miterlimit:10;}
	.st21{fill:#D81B60;stroke:#3E2723;stroke-linecap:round;stroke-linejoin:round;stroke-miterlimit:10;}
	.st22{fill:#E0E0E0;stroke:#3E2723;stroke-linecap:round;stroke-linejoin:round;stroke-miterlimit:10;}
	.st23{fill:#FBC02D;stroke:#3E2723;stroke-linecap:round;stroke-linejoin:round;stroke-miterlimit:10;}
</style><g id="Mistletoe"><g><path class="st12" d="M50.1,28.7l1-0.3l-0.2-1c-0.3-2.1,0-4.2,0.9-6.1L54,17l-4.2,2.1c-1.9,0.9-4,1.3-6.1,0.9l-1-0.2l-0.3,1    c-1.1,3.3-3.8,5.8-7.2,6.6l-3.7,0.9l0,2.8c0,2.3-0.4,4.6-1.2,6.8l-1.6,4.5l4.5-1.6c2.2-0.8,4.5-1.2,6.8-1.2l2.8,0l0.9-3.7    C44.3,32.5,46.8,29.8,50.1,28.7z"/><path class="st13" d="M48.9,25.2l0.2,1l-1,0.3c-3.3,1.1-5.8,3.8-6.6,7.2l-0.9,3.7h-2.8c-2.3,0-4.6,0.4-6.8,1.2l-0.5,0.2l-1,2.7    l3.5-1.3c2.3-0.8,4.6-1.2,7-1.2l2.4,0l0.8-3.3c0.8-3.5,3.5-6.5,6.9-7.6l0.6-0.2l-0.1-0.6c-0.4-2.2,0-4.4,1-6.4l1.4-2.8l-2.8,1.4    c-0.2,0.1-0.4,0.2-0.6,0.3C48.8,21.5,48.6,23.4,48.9,25.2z"/><line class="st12" x1="38.4" x2="28.5" y1="32.6" y2="42.5"/></g><g><path class="st12" d="M33.5,14l0.5-1l-0.9-0.6c-1.7-1.2-3-3-3.7-5L28,3l-1.5,4.4c-0.7,2-2,3.7-3.7,5L22,13l0.5,1    c1.6,3.1,1.4,6.8-0.5,9.8L20,27l2,2c1.6,1.6,3,3.6,4,5.7l2,4.3l2-4.3c1-2.1,2.3-4,4-5.7l2-2l-2-3.2C32.1,20.8,32,17.1,33.5,14z"/><path class="st13" d="M30.1,12.4L31,13l-0.5,1c-1.6,3.1-1.4,6.8,0.5,9.8l2,3.2l-2,2c-1.6,1.6-3,3.6-4,5.7l-0.2,0.5l1.2,2.6    l1.6-3.3c1-2.2,2.4-4.1,4.1-5.8l1.7-1.7L33.5,24c-1.9-3.1-2.1-7-0.5-10.3l0.3-0.6l-0.5-0.4C31,11.5,29.7,9.7,29,7.6l-1-3l-1,3    c-0.1,0.2-0.1,0.4-0.2,0.6C27.5,9.8,28.6,11.3,30.1,12.4z"/><line class="st12" x1="28" x2="28" y1="25" y2="39"/></g><g><path class="st12" d="M13.7,20.9l-0.3-1l-1,0.2c-2.1,0.3-4.2,0-6.1-0.9L2,17l2.1,4.2c0.9,1.9,1.3,4,0.9,6.1l-0.2,1l1,0.3    c3.3,1.1,5.8,3.8,6.6,7.2l0.9,3.7l2.8,0c2.3,0,4.6,0.4,6.8,1.2l4.5,1.6L25.8,38c-0.8-2.2-1.2-4.5-1.2-6.8l0-2.8l-3.7-0.9    C17.5,26.7,14.8,24.2,13.7,20.9z"/><line class="st12" x1="14.7" x2="27.5" y1="29.8" y2="42.5"/></g><g><circle class="st6" cx="28" cy="38.5" r="6"/><path class="st7" d="M27.4,44c0.2,0,0.4,0,0.6,0c3,0,5.5-2.5,5.5-5.5S31,33,28,33c-0.2,0-0.4,0-0.6,0c2.1,0.9,3.6,3,3.6,5.5    C31,40.9,29.5,43,27.4,44z"/></g><g><circle class="st6" cx="22" cy="47" r="6"/><path class="st7" d="M21.4,52.5c0.2,0,0.4,0,0.6,0c3,0,5.5-2.5,5.5-5.5S25,41.5,22,41.5c-0.2,0-0.4,0-0.6,0c2.1,0.9,3.6,3,3.6,5.5    C25,49.4,23.5,51.5,21.4,52.5z"/></g><g><circle class="st6" cx="34" cy="47" r="6"/><path class="st7" d="M33.4,52.5c0.2,0,0.4,0,0.6,0c3,0,5.5-2.5,5.5-5.5S37,41.5,34,41.5c-0.2,0-0.4,0-0.6,0c2.1,0.9,3.6,3,3.6,5.5    C37,49.4,35.5,51.5,33.4,52.5z"/></g></g></svg>