<?xml version="1.0" ?><svg viewBox="0 0 24 24" xmlns="http://www.w3.org/2000/svg" xmlns:xlink="http://www.w3.org/1999/xlink"><defs><linearGradient gradientUnits="userSpaceOnUse" id="a" x1="3.38232" x2="20.61768" y1="5.67231" y2="22.90767"><stop offset="0" stop-color="#fff" stop-opacity="0"/><stop offset="1" stop-color="#fff" stop-opacity="0.1"/></linearGradient></defs><title/><path d="M23.97217,9.09717a.50008.50008,0,0,0-.40283-.33057L15.99463,7.7085,12.45117.28467a.5207.5207,0,0,0-.90234,0L8.00537,7.7085.43066,8.7666a.5.5,0,0,0-.29248.84033l5.57227,5.83789-1.52,7.96143a.5.5,0,0,0,.6958.5498L12,20.76221l7.11377,3.19384a.5.5,0,0,0,.6958-.5498l-1.52-7.96143,5.57227-5.83789A.50077.50077,0,0,0,23.97217,9.09717Z"/><polygon fill="#fcb53b" points="12.5 2.708 15.081 8.115 12.5 11.72 12.5 2.708"/><polygon fill="#fec553" points="11.5 11.72 8.919 8.115 11.5 2.708 11.5 11.72"/><polygon fill="#fcb53b" points="10.674 12.285 2.616 9.471 8.11 8.704 10.674 12.285"/><polygon fill="#fec553" points="11.5 19.891 6.166 22.285 11.5 14.835 11.5 19.891"/><polygon fill="#fcb53b" points="12.5 14.835 17.834 22.285 12.5 19.891 12.5 14.835"/><polygon fill="#fec553" points="15.89 8.704 21.384 9.471 13.326 12.285 15.89 8.704"/><polygon fill="#fec553" points="2.295 10.419 10.483 13.278 6.389 14.707 2.295 10.419"/><polygon fill="#fcb53b" points="6.687 15.663 10.674 14.27 5.6 21.359 6.687 15.663"/><polygon fill="#fec553" points="18.4 21.359 13.326 14.27 17.313 15.663 18.4 21.359"/><polygon fill="#fcb53b" points="17.611 14.707 13.517 13.278 21.705 10.419 17.611 14.707"/><path d="M23.97217,9.09717a.50008.50008,0,0,0-.40283-.33057L15.99463,7.7085,12.45117.28467a.5207.5207,0,0,0-.90234,0L8.00537,7.7085.43066,8.7666a.5.5,0,0,0-.29248.84033l5.57227,5.83789-1.52,7.96143a.5.5,0,0,0,.6958.5498L12,20.76221l7.11377,3.19384a.5.5,0,0,0,.6958-.5498l-1.52-7.96143,5.57227-5.83789A.50077.50077,0,0,0,23.97217,9.09717Z" fill="url(#a)"/></svg>