<?xml version="1.0" ?><svg id="Layer_1" style="enable-background:new 0 0 24 24;" version="1.1" viewBox="0 0 24 24" xml:space="preserve" xmlns="http://www.w3.org/2000/svg" xmlns:xlink="http://www.w3.org/1999/xlink"><title/><g id="Mistletoe"><g><path d="M9.475,9.5c0-2.761,2.239-5,5-5c0.204,0.007,0.408,0.027,0.61,0.06l0,0    C14.027,2.009,11.101,0.8,8.55,1.858S4.79,5.842,5.849,8.393c0.691,1.666,2.226,2.83,4.016,3.047l0,0    C9.607,10.826,9.474,10.166,9.475,9.5z" style="fill:#D51C29;"/><circle cx="14.475" cy="9.5" r="5" style="fill:#D51C29;"/><path d="M22.075,16.9l0.4-0.78l-0.12-0.1c-1.145-0.941-1.676-2.438-1.38-3.89V12l-0.59,0.29    c-0.542,0.27-1.196,0.152-1.61-0.29c-1.172,2.085-3.681,3.016-5.93,2.2l0,0l0.25,0.5c0.564,1.127,0.564,2.453,0,3.58l-0.62,1.22    l0.78,0.13c1.38,0.229,2.54,1.161,3.06,2.46l0.16,0.41l0.47-0.16c1.642-0.547,3.418-0.547,5.06,0l0.47,0.16l-0.57-1.32    C21.317,19.8,21.379,18.229,22.075,16.9z" style="fill:#0DB14B;"/><path d="M18.445,21.34l-0.47,0.16l-0.16-0.41    c-0.52-1.299-1.68-2.231-3.06-2.46l-0.78-0.13l0.61-1.21c0.432-0.871,0.531-1.87,0.28-2.81h-0.38    c-0.556-0.005-1.107-0.103-1.63-0.29l0,0l0.25,0.5c0.564,1.127,0.564,2.453,0,3.58l-0.63,1.23l0.78,0.13    c1.38,0.229,2.54,1.161,3.06,2.46l0.16,0.41l0.47-0.16c1.642-0.547,3.418-0.547,5.06,0l0.47,0.16l-0.57-1.32    c0-0.06,0-0.12-0.06-0.18C20.7,20.867,19.541,20.983,18.445,21.34z" style="opacity:0.2;fill:#FFFFFF;enable-background:new    ;"/><path d="M21.855,16.9l0.4-0.78l-0.12-0.1c-1.153-0.936-1.692-2.434-1.4-3.89V12    l-0.59,0.29c-0.534,0.255-1.171,0.138-1.58-0.29c-0.288,0.491-0.657,0.931-1.09,1.3c0.378,0.186,0.822,0.186,1.2,0l0.59-0.29v0.13    c-0.287,1.441,0.239,2.922,1.37,3.86l0.12,0.1l-0.4,0.78c-0.53,1.637,0.046,3.428,1.43,4.45l0.47,0.16l-0.57-1.32    C21.1,19.793,21.162,18.226,21.855,16.9z" style="opacity:0.1;enable-background:new    ;"/><path d="M11.475,13.48c-0.702-0.515-1.257-1.205-1.61-2l0,0c-1.032-0.132-1.997-0.583-2.76-1.29    c-0.893,1.372-2.516,2.083-4.13,1.81v0.13c0.288,1.446-0.242,2.933-1.38,3.87l-0.12,0.1l0.4,0.78    c0.693,1.33,0.751,2.902,0.16,4.28l-0.56,1.34l0.5-0.16c1.642-0.547,3.418-0.547,5.06,0l0.47,0.16c0.282-1.391,1.593-2.326,3-2.14    l1,0.14l-0.79-1.84c-0.418-0.954-0.099-2.071,0.76-2.66l-0.22-0.32c-0.46-0.68,0.22-2.18,0.22-2.18V13.48z" style="fill:#0DB14B;"/><path d="M11.475,13.48c-0.702-0.515-1.257-1.205-1.61-2l0,0c-1.032-0.132-1.997-0.583-2.76-1.29    c-0.893,1.372-2.516,2.083-4.13,1.81v0.13c0.288,1.446-0.242,2.933-1.38,3.87l-0.12,0.1l0.4,0.78    c0.693,1.33,0.751,2.902,0.16,4.28l-0.56,1.34l0.5-0.16c1.642-0.547,3.418-0.547,5.06,0l0.47,0.16c0.282-1.391,1.593-2.326,3-2.14    l1,0.14l-0.79-1.84c-0.418-0.954-0.099-2.071,0.76-2.66l-0.22-0.32c-0.46-0.68,0.22-2.18,0.22-2.18V13.48z" style="fill:#0DB14B;"/><path d="M11.475,13.48c-0.702-0.515-1.257-1.205-1.61-2    c-0.236-0.029-0.47-0.076-0.7-0.14c0.239,0.312,0.51,0.596,0.81,0.85l0,0c0,0-0.67,1.63-0.22,2.38l0.22,0.35    c-0.885,0.684-1.207,1.872-0.79,2.91l0.79,2l-1-0.15c-1.462-0.161-2.788,0.865-3,2.32l-0.47-0.17    c-1.148-0.417-2.382-0.541-3.59-0.36l-0.44,1l0.5-0.13c1.642-0.547,3.418-0.547,5.06,0l0.47,0.16c0.282-1.391,1.593-2.326,3-2.14    l1,0.14l-0.79-1.84c-0.418-0.954-0.099-2.071,0.76-2.66l-0.22-0.32c-0.46-0.68,0.22-2.18,0.22-2.18V13.48z" style="opacity:0.1;enable-background:new    ;"/><path d="M3.355,17.06l-0.38-0.87l0.12-0.11    c1.052-1.081,1.549-2.585,1.35-4.08c-0.486,0.089-0.984,0.089-1.47,0v0.13c0.288,1.446-0.242,2.933-1.38,3.87l-0.12,0.1l0.4,0.78    c0.693,1.33,0.751,2.902,0.16,4.28l-0.56,1.34l0.5-0.16c0.481-0.16,0.977-0.274,1.48-0.34l0.05-0.15    C4.064,20.292,4.01,18.58,3.355,17.06z" style="opacity:0.2;fill:#FFFFFF;enable-background:new    ;"/><path d="M9.475,9.5c0,0,0-0.05,0-0.08C7.592,8.982,6.421,7.101,6.858,5.218    s2.319-3.054,4.202-2.616c1.077,0.25,1.972,0.995,2.415,2.008c0.329-0.07,0.664-0.107,1-0.11c0.204,0.007,0.408,0.027,0.61,0.06    C14.027,2.009,11.101,0.8,8.55,1.858S4.79,5.842,5.849,8.393c0.691,1.666,2.226,2.83,4.016,3.047    C9.607,10.826,9.474,10.166,9.475,9.5z" style="opacity:0.1;enable-background:new    ;"/><circle cx="12.975" cy="7.5" r="1" style="opacity:0.2;fill:#FFFFFF;enable-background:new    ;"/><path d="M14.475,4.5c-2.761,0-5,2.239-5,5s2.239,5,5,5s5-2.239,5-5    S17.236,4.5,14.475,4.5z M14.225,12.5c-1.933,0-3.5-1.567-3.5-3.5s1.567-3.5,3.5-3.5s3.5,1.567,3.5,3.5S16.158,12.5,14.225,12.5z" style="opacity:0.1;enable-background:new    ;"/><circle cx="8.975" cy="4.5" r="1" style="opacity:0.2;fill:#FFFFFF;enable-background:new    ;"/><g><path d="M17.325,15.65c-0.196-0.196-0.514-0.196-0.71,0s-0.196,0.514,0,0.71l1.5,1.5     c0.196,0.196,0.514,0.196,0.71,0s0.196-0.514,0-0.71L17.325,15.65z" style="fill:#303C42;"/><path d="M7.125,15.15l-2,2c-0.196,0.196-0.196,0.514,0,0.71c0.196,0.196,0.514,0.196,0.71,0l2-2     c0.196-0.196,0.196-0.514,0-0.71S7.321,14.954,7.125,15.15z" style="fill:#303C42;"/><path d="M22.365,21c-0.533-1.24-0.477-2.655,0.15-3.85l0.4-0.78c0.11-0.211,0.055-0.471-0.13-0.62     l-0.12-0.1c-1.011-0.816-1.485-2.126-1.23-3.4v-0.13c0.056-0.27-0.118-0.535-0.388-0.591c-0.109-0.022-0.222-0.008-0.322,0.041     l-0.59,0.29c-0.251,0.13-0.549,0.13-0.8,0c0.415-0.718,0.635-1.531,0.64-2.36c0-2.678-1.93-4.967-4.57-5.42     c-1.371-2.704-4.675-3.785-7.379-2.413S4.241,6.342,5.612,9.046c0.213,0.42,0.48,0.812,0.793,1.164     c-0.813,1.013-2.108,1.51-3.39,1.3c-0.273-0.044-0.529,0.142-0.573,0.414c-0.009,0.058-0.008,0.118,0.003,0.176v0.13     c0.255,1.274-0.219,2.584-1.23,3.4l-0.12,0.1c-0.185,0.149-0.24,0.409-0.13,0.62l0.4,0.78c0.656,1.19,0.737,2.613,0.22,3.87     l-0.61,1.3c-0.11,0.253,0.005,0.548,0.258,0.658C1.297,22.986,1.366,23,1.435,23h0.16l0.47-0.16c1.539-0.509,3.201-0.509,4.74,0     L7.275,23c0.252,0.112,0.548-0.001,0.66-0.254c0.021-0.046,0.034-0.096,0.04-0.146c0.227-1.142,1.308-1.906,2.46-1.74l1,0.14     c0.179,0.025,0.358-0.048,0.47-0.19c0.109-0.144,0.132-0.335,0.06-0.5l-0.79-1.84c-0.291-0.727-0.037-1.559,0.61-2     c0.228-0.153,0.291-0.461,0.14-0.69l-0.22-0.32c-0.109-0.38-0.084-0.786,0.07-1.15c0.234,0.135,0.478,0.252,0.73,0.35l0.16,0.33     c0.489,0.986,0.489,2.144,0,3.13l-0.61,1.21c-0.125,0.246-0.026,0.547,0.22,0.672c0.047,0.024,0.098,0.04,0.15,0.048l0.78,0.13     c1.202,0.206,2.213,1.019,2.67,2.15l0.16,0.41c0.077,0.187,0.258,0.309,0.46,0.31h0.16l0.47-0.16c1.539-0.509,3.201-0.509,4.74,0     l0.47,0.16c0.237,0.142,0.544,0.064,0.686-0.173c0.109-0.183,0.091-0.414-0.046-0.577L22.365,21z M18.975,9.5     c0,2.485-2.015,4.5-4.5,4.5s-4.5-2.015-4.5-4.5S11.99,5,14.475,5S18.975,7.015,18.975,9.5z M10.475,2     c1.503-0.003,2.908,0.748,3.74,2c-2.936,0.139-5.243,2.561-5.24,5.5c0.006,0.429,0.064,0.855,0.17,1.27     c-2.369-0.713-3.713-3.211-3-5.58C6.719,3.282,8.483,1.982,10.475,2z M10.805,15.9c-0.803,0.78-1.035,1.977-0.58,3l0.44,1h-0.1     c-1.468-0.205-2.886,0.621-3.43,2c-1.546-0.506-3.204-0.561-4.78-0.16l0.14-0.32c0.653-1.517,0.587-3.247-0.18-4.71l-0.22-0.42     c1.033-0.937,1.573-2.3,1.46-3.69c1.402,0.019,2.737-0.599,3.63-1.68c0.684,0.51,1.479,0.853,2.32,1l0.06,0.1     c0.321,0.627,0.759,1.187,1.29,1.65C10.542,14.377,10.524,15.18,10.805,15.9z M21.625,16.67c-0.767,1.463-0.833,3.193-0.18,4.71     l0.14,0.32c-1.583-0.402-3.249-0.343-4.8,0.17l0,0c-0.595-1.443-1.891-2.479-3.43-2.74h-0.11l0.3-0.61     c0.555-1.112,0.627-2.403,0.2-3.57c2.007,0.291,4.007-0.566,5.18-2.22c0.452,0.242,0.985,0.285,1.47,0.12     c-0.026,1.296,0.51,2.539,1.47,3.41L21.625,16.67z" style="fill:#303C42;"/></g><linearGradient gradientTransform="matrix(1 0 0 -1 0 24)" gradientUnits="userSpaceOnUse" id="SVGID_1_" x1="2.666" x2="24.096" y1="13.7708" y2="3.7808"><stop offset="0" style="stop-color:#FFFFFF;stop-opacity:0.2"/><stop offset="1" style="stop-color:#FFFFFF;stop-opacity:0"/></linearGradient><path d="M22.365,21c-0.533-1.24-0.477-2.655,0.15-3.85l0.4-0.78c0.11-0.211,0.055-0.471-0.13-0.62    l-0.12-0.1c-1.011-0.816-1.485-2.126-1.23-3.4v-0.13c0.056-0.27-0.118-0.535-0.388-0.591c-0.109-0.022-0.222-0.008-0.322,0.041    l-0.59,0.29c-0.231,0.108-0.499,0.108-0.73,0c1.315-2.726,0.171-6.002-2.555-7.316c-0.458-0.221-0.944-0.377-1.445-0.464    c-1.359-2.711-4.657-3.807-7.368-2.448S4.23,6.289,5.589,9c0.218,0.434,0.492,0.838,0.816,1.2c-0.813,1.013-2.108,1.51-3.39,1.3    c-0.273-0.044-0.529,0.142-0.573,0.414c-0.009,0.058-0.008,0.118,0.003,0.176v0.13c0.255,1.274-0.219,2.584-1.23,3.4l-0.12,0.1    c-0.185,0.149-0.24,0.409-0.13,0.62l0.4,0.78c0.66,1.193,0.741,2.621,0.22,3.88l-0.61,1.3c-0.11,0.253,0.005,0.548,0.258,0.658    C1.297,22.986,1.366,23,1.435,23h0.16l0.47-0.16c1.539-0.509,3.201-0.509,4.74,0L7.275,23c0.252,0.112,0.548-0.001,0.66-0.254    c0.021-0.046,0.034-0.096,0.04-0.146c0.227-1.142,1.308-1.906,2.46-1.74l1,0.14c0.179,0.025,0.358-0.048,0.47-0.19    c0.109-0.144,0.132-0.335,0.06-0.5l-0.79-1.84c-0.291-0.727-0.037-1.559,0.61-2c0.228-0.153,0.291-0.461,0.14-0.69l-0.22-0.32    c-0.11-0.376-0.089-0.778,0.06-1.14c0.238,0.135,0.485,0.252,0.74,0.35l0.16,0.32c0.489,0.986,0.489,2.144,0,3.13l-0.61,1.21    c-0.125,0.246-0.026,0.547,0.22,0.672c0.047,0.024,0.098,0.04,0.15,0.048l0.78,0.13c1.202,0.206,2.213,1.019,2.67,2.15l0.16,0.41    c0.077,0.187,0.258,0.309,0.46,0.31h0.16l0.47-0.16c1.539-0.509,3.201-0.509,4.74,0l0.47,0.16    c0.237,0.142,0.544,0.064,0.686-0.173c0.109-0.183,0.091-0.414-0.046-0.577L22.365,21z" style="fill:url(#SVGID_1_);"/></g></g></svg>