<?xml version="1.0" ?><!DOCTYPE svg  PUBLIC '-//W3C//DTD SVG 1.1//EN'  'http://www.w3.org/Graphics/SVG/1.1/DTD/svg11.dtd'><svg enable-background="new 0 0 75 75" height="75px" version="1.1" viewBox="0 0 75 75" width="75px" xml:space="preserve" xmlns="http://www.w3.org/2000/svg" xmlns:xlink="http://www.w3.org/1999/xlink"><g id="Layer_1"><g><g><path d="M64.113,44.843c0,13.252-11.916,23.996-26.613,23.996c-14.695,0-26.613-10.744-26.613-23.996     S22.805,20.847,37.5,20.847C52.197,20.847,64.113,31.591,64.113,44.843z" fill="#D9F1FF"/></g><g><path d="M64.113,46.813c0,12.164-11.916,22.025-26.613,22.025c-14.695,0-26.613-9.861-26.613-22.025     S22.805,24.788,37.5,24.788C52.197,24.788,64.113,34.649,64.113,46.813z" fill="#AEDCFF"/></g><g><path d="M22.834,24.821l35.125,35.363c3.84-4.158,6.154-9.508,6.154-15.342c0-13.252-11.916-23.996-26.613-23.996     C32.08,20.847,27.039,22.312,22.834,24.821z" fill="#AEDCFF"/></g><g><path d="M25.258,27.259l32.701,32.926c3.666-3.969,5.914-9.027,6.115-14.553     C63.33,34.019,51.719,24.788,37.5,24.788C33.084,24.788,28.922,25.685,25.258,27.259z" fill="#97D7FF"/></g><g><path d="M37.5,69.589c-15.088,0-27.363-11.101-27.363-24.746S22.412,20.097,37.5,20.097     s27.363,11.101,27.363,24.746S52.588,69.589,37.5,69.589z M37.5,21.597c-14.261,0-25.863,10.428-25.863,23.246     S23.239,68.089,37.5,68.089s25.863-10.428,25.863-23.246S51.761,21.597,37.5,21.597z" fill="#093260"/></g><g><g><g><path d="M30.607,39.278c-0.414,0-0.75-0.336-0.75-0.75c0-0.443-0.354-0.803-0.791-0.803       c-0.438,0-0.793,0.36-0.793,0.803c0,0.414-0.336,0.75-0.75,0.75s-0.75-0.336-0.75-0.75c0-1.27,1.028-2.303,2.293-2.303       c1.264,0,2.291,1.033,2.291,2.303C31.357,38.942,31.021,39.278,30.607,39.278z" fill="#093260"/></g><g><path d="M47.477,39.278c-0.414,0-0.75-0.336-0.75-0.75c0-0.443-0.356-0.803-0.795-0.803       c-0.437,0-0.791,0.36-0.791,0.803c0,0.414-0.336,0.75-0.75,0.75s-0.75-0.336-0.75-0.75c0-1.27,1.027-2.303,2.291-2.303       c1.266,0,2.295,1.033,2.295,2.303C48.227,38.942,47.891,39.278,47.477,39.278z" fill="#093260"/></g></g><g><path d="M24.795,53.038c0,7.066,5.688,12.793,12.703,12.793c7.018,0,12.707-5.727,12.707-12.793H24.795z" fill="#77B7F2"/></g><g><path d="M24.795,50.632c0,7.066,5.688,12.793,12.703,12.793c7.018,0,12.707-5.727,12.707-12.793H24.795z" fill="#AA1F4D"/></g><g><path d="M25.732,55.442h23.535c0.6-1.484,0.938-3.107,0.938-4.811h-25.41      C24.795,52.335,25.133,53.958,25.732,55.442z" fill="#E83862"/></g><g><path d="M37.498,64.175c-7.418,0-13.453-6.075-13.453-13.543c0-0.414,0.336-0.75,0.75-0.75h25.41      c0.414,0,0.75,0.336,0.75,0.75C50.955,58.1,44.918,64.175,37.498,64.175z M25.567,51.382c0.386,6.293,5.59,11.293,11.931,11.293      c6.343,0,11.549-5,11.935-11.293H25.567z" fill="#093260"/></g></g><g><g><path d="M36.592,48.653c-1.855,0-17.648-1.695-17.648-3.789c0-2.092,15.793-3.787,17.648-3.787      s3.357,1.695,3.357,3.787C39.949,46.958,38.447,48.653,36.592,48.653z" fill="#FF8F15"/></g><g><path d="M36.592,46.94c-1.855,0-17.648-0.93-17.648-2.076s15.793-2.074,17.648-2.074s3.357,0.928,3.357,2.074      S38.447,46.94,36.592,46.94z" fill="#F26606"/></g><g><path d="M36.592,49.403c-0.184,0-18.398-1.269-18.398-4.539c0-3.269,18.215-4.537,18.398-4.537      c2.265,0,4.107,2.035,4.107,4.537C40.699,47.367,38.856,49.403,36.592,49.403z M19.787,44.865      c1.655,1.401,14.277,3.039,16.805,3.039c1.438,0,2.607-1.363,2.607-3.039c0-1.675-1.17-3.037-2.607-3.037      C34.064,41.827,21.443,43.463,19.787,44.865z" fill="#093260"/></g></g><g><g><rect fill="#E83862" height="18.5" width="29.535" x="22.732" y="6.161"/></g><g><rect fill="#AA1F4D" height="18.5" width="18.125" x="28.438" y="6.161"/></g><g><path d="M52.268,25.411H22.732c-0.414,0-0.75-0.336-0.75-0.75v-18.5c0-0.414,0.336-0.75,0.75-0.75h29.535      c0.414,0,0.75,0.336,0.75,0.75v18.5C53.018,25.075,52.682,25.411,52.268,25.411z M23.482,23.911h28.035v-17H23.482V23.911z" fill="#093260"/></g><g><path d="M63.219,25.411H11.779c-0.414,0-0.75-0.336-0.75-0.75s0.336-0.75,0.75-0.75h51.439      c0.414,0,0.75,0.336,0.75,0.75S63.633,25.411,63.219,25.411z" fill="#093260"/></g></g><g><rect fill="#FF8F15" height="7.781" width="29.535" x="22.732" y="11.521"/></g><g><rect fill="#F26606" height="7.781" width="18.125" x="28.438" y="11.521"/></g><g><path d="M52.268,20.052H22.732c-0.414,0-0.75-0.336-0.75-0.75v-7.781c0-0.414,0.336-0.75,0.75-0.75h29.535     c0.414,0,0.75,0.336,0.75,0.75v7.781C53.018,19.716,52.682,20.052,52.268,20.052z M23.482,18.552h28.035v-6.281H23.482V18.552z" fill="#093260"/></g></g></g></svg>