<?xml version="1.0" ?><svg id="Layer_1" style="enable-background:new 0 0 24 24;" version="1.1" viewBox="0 0 24 24" xml:space="preserve" xmlns="http://www.w3.org/2000/svg" xmlns:xlink="http://www.w3.org/1999/xlink"><title/><g id="Xmas_Soks"><g><path d="M19.464,15.15l-1.36-0.91l-3.73,9c0.846,0.14,1.702,0.21,2.56,0.21    c2.518-0.003,4.557-2.047,4.554-4.566c-0.002-1.52-0.761-2.939-2.024-3.784V15.15z" style="fill:#F8F8F8;"/><path d="M16.384,13.09c-0.555-0.37-0.889-0.993-0.89-1.66V4.5h-12v10l0,0c3.936,0.258,6.998,3.525,7,7.47    c0,0.08,0,0.15,0,0.22l1.69,0.54c0.723,0.23,1.462,0.407,2.21,0.53l3.73-9L16.384,13.09z" style="fill:#D51C29;"/><path d="M3.494,14.53v1.09c-0.001,2.614,1.69,4.927,4.18,5.72l2.81,0.89c0-0.07,0-0.15,0-0.22    C10.487,18.065,7.43,14.793,3.494,14.53z" style="fill:#F8F8F8;"/><path d="M3.994,0.5h11c0.828,0,1.5,0.672,1.5,1.5v1c0,0.828-0.672,1.5-1.5,1.5h-11    c-0.828,0-1.5-0.672-1.5-1.5V2C2.494,1.172,3.165,0.5,3.994,0.5z" style="fill:#F8F8F8;"/><path d="M4.494,3V2c0-0.828,0.672-1.5,1.5-1.5h-2c-0.828,0-1.5,0.672-1.5,1.5v1c0,0.828,0.672,1.5,1.5,1.5    h2C5.165,4.5,4.494,3.828,4.494,3z" style="fill:#FFFFFF;"/><path d="M14.994,0.5h-2c0.828,0,1.5,0.672,1.5,1.5v1c0,0.828-0.672,1.5-1.5,1.5h2    c0.828,0,1.5-0.672,1.5-1.5V2C16.494,1.172,15.822,0.5,14.994,0.5z" style="opacity:0.1;enable-background:new    ;"/><path d="M15.374,22.29c-0.748-0.123-1.487-0.3-2.21-0.53l-1.69-0.54    l-2.81-0.89c-2.486-0.796-4.173-3.109-4.17-5.72V5.5h-1v10.11c-0.001,2.614,1.69,4.927,4.18,5.72l2.81,0.89l1.69,0.54    c1.544,0.484,3.152,0.734,4.77,0.74c1.457,0,2.826-0.699,3.68-1.88c-0.777,0.572-1.716,0.88-2.68,0.88    C17.083,22.501,16.223,22.43,15.374,22.29z" style="opacity:0.2;fill:#FFFFFF;enable-background:new    ;"/><path d="M21.494,18.94c0.005-1.517-0.744-2.938-2-3.79l-1.36-0.91l-1.72-1.14    c-0.555-0.37-0.889-0.993-0.89-1.66V4.5H3.494v1h11v6.93c0.001,0.667,0.335,1.29,0.89,1.66l1.72,1.14l1.36,0.91    c2.089,1.386,2.66,4.203,1.274,6.293c-0.04,0.06-0.081,0.119-0.124,0.177C20.792,21.758,21.491,20.394,21.494,18.94z" style="opacity:0.1;enable-background:new    ;"/><path d="M19.744,14.73l-1.36-0.91l-1.72-1.14c-0.419-0.278-0.67-0.747-0.67-1.25V4.72    c0.615-0.355,0.996-1.01,1-1.72V2c0-1.105-0.895-2-2-2h-11c-1.105,0-2,0.895-2,2v1c0.004,0.71,0.385,1.365,1,1.72v9.78l0,0v1.09    c-0.005,2.831,1.83,5.338,4.53,6.19l2.81,0.89l1.69,0.54c0.746,0.235,1.508,0.415,2.28,0.54l0,0    c0.873,0.145,1.755,0.219,2.64,0.22c2.795,0.002,5.061-2.262,5.063-5.057c0.001-1.693-0.845-3.274-2.253-4.213L19.744,14.73z     M2.994,2c0-0.552,0.448-1,1-1h11c0.552,0,1,0.448,1,1v1c0,0.552-0.448,1-1,1h-11c-0.552,0-1-0.448-1-1V2z M7.824,20.85    c-2.285-0.721-3.836-2.844-3.83-5.24v-0.53c3.275,0.465,5.778,3.159,6,6.46L7.824,20.85z M10.994,21.85    c-0.073-3.975-3.055-7.294-7-7.79V5h11v6.43c-0.002,0.836,0.414,1.617,1.11,2.08l1.38,0.92l-3.42,8.3    c-0.592-0.111-1.176-0.258-1.75-0.44L10.994,21.85z M16.934,23c-0.619-0.002-1.236-0.042-1.85-0.12l3.25-7.88l0.85,0.57    c1.861,1.25,2.356,3.773,1.106,5.634C19.538,22.323,18.281,22.995,16.934,23z" style="fill:#303C42;"/><linearGradient gradientTransform="matrix(1 0 0 -1 0 24)" gradientUnits="userSpaceOnUse" id="SVGID_1_" x1="0.0969" x2="23.6007" y1="18.3742" y2="7.4217"><stop offset="0" style="stop-color:#FFFFFF;stop-opacity:0.2"/><stop offset="1" style="stop-color:#FFFFFF;stop-opacity:0"/></linearGradient><path d="M19.744,14.73l-3.08-2.05c-0.419-0.278-0.67-0.747-0.67-1.25V4.72    c0.615-0.355,0.996-1.01,1-1.72V2c0-1.105-0.895-2-2-2h-11c-1.105,0-2,0.895-2,2v1c0.004,0.71,0.385,1.365,1,1.72v10.89    c-0.005,2.831,1.83,5.338,4.53,6.19l4.47,1.44c1.593,0.498,3.251,0.754,4.92,0.76c2.795,0.002,5.061-2.262,5.063-5.057    c0.001-1.693-0.845-3.274-2.253-4.213H19.744z" style="fill:url(#SVGID_1_);"/></g></g></svg>