<?xml version="1.0" ?><svg id="Layer_1" style="enable-background:new 0 0 24 24;" version="1.1" viewBox="0 0 24 24" xml:space="preserve" xmlns="http://www.w3.org/2000/svg" xmlns:xlink="http://www.w3.org/1999/xlink"><title/><g id="Gingerbread"><g><path d="M8.43,20.42c-0.47-0.47-1.22,0.28-1.69-0.19S7,19,6.55,18.54s-1.1,0.16-1.57-0.11l-0.69,0.75H4.24    l-0.11,0.13L4,19.5l0,0c-0.861,1.072-0.69,2.639,0.382,3.501c1.016,0.816,2.488,0.711,3.378-0.241l0.73-0.82    C8.26,21.48,8.85,20.85,8.43,20.42z" style="fill:#F8F8F8;"/><path d="M4.5,12.25c0-0.63,1-0.63,1-1.25s-1-0.62-1-1.25s1-0.62,1-1.25H3.14    c-1.319-0.032-2.452,0.932-2.63,2.24c-0.144,1.373,0.853,2.603,2.226,2.746C2.824,13.496,2.912,13.5,3,13.5h2.5    C5.5,12.87,4.5,12.87,4.5,12.25z" style="fill:#F8F8F8;"/><path d="M20.86,8.5H18.5c0,0.62,1,0.62,1,1.25s-1,0.62-1,1.25s1,0.63,1,1.25s-1,0.63-1,1.25H21    c1.381,0.002,2.502-1.116,2.504-2.496c0-0.088-0.004-0.176-0.014-0.264C23.312,9.432,22.179,8.468,20.86,8.5z" style="fill:#F8F8F8;"/><path d="M17.42,18.56c-0.47,0.47,0.28,1.23-0.19,1.7S16,20,15.53,20.46c-0.47,0.46,0.19,1,0,1.49l0.73,0.82    c0.99,0.955,2.566,0.926,3.521-0.064c0.84-0.871,0.932-2.219,0.219-3.196l0,0l-0.12-0.14l-0.11-0.13h-0.05L19,18.44    C18.55,18.74,17.86,18.12,17.42,18.56z" style="fill:#F8F8F8;"/><path d="M19.5,12.25c0-0.63-1-0.63-1-1.25s1-0.62,1-1.25s-1-0.62-1-1.25h-3.7    c1.948-1.544,2.275-4.374,0.732-6.322S11.158-0.097,9.21,1.446S6.935,5.82,8.478,7.768C8.693,8.039,8.939,8.285,9.21,8.5H5.5    c0,0.62-1,0.62-1,1.25s1,0.62,1,1.25s-1,0.63-1,1.25s1,0.63,1,1.25h0.4c0.878,0.003,1.587,0.718,1.584,1.596    C7.483,15.49,7.335,15.869,7.07,16.16L5,18.43c0.47,0.26,1.14-0.32,1.57,0.11s-0.28,1.22,0.19,1.69S8,20,8.43,20.42    s-0.17,1.06,0.07,1.52l1.6-1.8c0.928-1.052,2.533-1.153,3.585-0.225c0.08,0.07,0.155,0.145,0.225,0.225l1.6,1.8    c0.21-0.46-0.4-1.06,0-1.49s1.23,0.28,1.71-0.19s-0.28-1.23,0.19-1.7s1.13,0.18,1.61-0.12l-2.09-2.28    c-0.591-0.65-0.543-1.655,0.106-2.246c0.291-0.265,0.67-0.412,1.064-0.414h0.4C18.5,12.87,19.5,12.87,19.5,12.25z" style="fill:#A66936;"/><path d="M9.2,8.5H10c0.276,0,0.5-0.224,0.5-0.5    c0-0.108-0.035-0.213-0.1-0.3C9.811,6.924,9.494,5.975,9.5,5C9.499,2.899,10.952,1.077,13,0.61l0,0    c-2.417-0.555-4.826,0.954-5.381,3.371C7.232,5.666,7.847,7.424,9.2,8.5z" style="opacity:0.2;fill:#FFFFFF;enable-background:new    ;"/><path d="M2.51,10.74C2.688,9.432,3.821,8.468,5.14,8.5h-2    c-1.319-0.032-2.452,0.932-2.63,2.24c-0.144,1.373,0.853,2.603,2.226,2.746C2.824,13.496,2.912,13.5,3,13.5h2    c-1.381,0.002-2.502-1.116-2.504-2.496C2.496,10.916,2.501,10.828,2.51,10.74z" style="opacity:0.2;fill:#FFFFFF;enable-background:new    ;"/><path d="M18.23,22.77l-2.33-2.63c-0.726-0.819-1.894-1.08-2.9-0.65    c0.344,0.147,0.652,0.369,0.9,0.65l2.33,2.62c0.728,0.727,1.828,0.933,2.77,0.52C18.714,23.16,18.453,22.987,18.23,22.77z" style="opacity:0.2;fill:#FFFFFF;enable-background:new    ;"/><path d="M6.23,22.77C5.351,21.893,5.253,20.502,6,19.51l0,0    l0.12-0.14l0.11-0.13h0.05l2.78-3c0.636-0.606,0.66-1.612,0.055-2.248C8.799,13.661,8.357,13.482,7.9,13.5h-2    c0.878,0.003,1.587,0.718,1.584,1.596C7.483,15.49,7.335,15.869,7.07,16.16l-2.78,3H4.24l-0.11,0.13L4,19.5l0,0    c-0.833,1.094-0.621,2.657,0.474,3.489C5.199,23.541,6.168,23.653,7,23.28C6.714,23.16,6.453,22.987,6.23,22.77z" style="opacity:0.2;fill:#FFFFFF;enable-background:new    ;"/><path d="M14.8,8.5H14c-0.276,0-0.5-0.224-0.5-0.5c0-0.108,0.035-0.213,0.1-0.3    c0.589-0.776,0.906-1.725,0.9-2.7c0.001-2.101-1.452-3.923-3.5-4.39l0,0c2.417-0.555,4.826,0.954,5.381,3.371    C16.768,5.666,16.153,7.424,14.8,8.5z" style="opacity:0.1;enable-background:new    ;"/><path d="M21.49,10.74c-0.178-1.308-1.311-2.272-2.63-2.24h2    c1.316-0.027,2.442,0.936,2.62,2.24c0.144,1.373-0.853,2.603-2.226,2.746C21.169,13.495,21.085,13.5,21,13.5h-2    c1.381,0.002,2.502-1.116,2.504-2.496C21.504,10.916,21.499,10.828,21.49,10.74z" style="opacity:0.1;enable-background:new    ;"/><path d="M5.77,22.77l2.33-2.63c0.726-0.819,1.894-1.08,2.9-0.65    c-0.344,0.147-0.652,0.369-0.9,0.65l-2.33,2.63C7.042,23.497,5.942,23.703,5,23.29C5.287,23.167,5.549,22.99,5.77,22.77z" style="opacity:0.1;enable-background:new    ;"/><path d="M17.77,22.77c0.879-0.877,0.977-2.268,0.23-3.26l0,0l-0.12-0.14    l-0.11-0.13h-0.05l-2.78-3c-0.636-0.606-0.66-1.612-0.055-2.248c0.315-0.331,0.758-0.51,1.215-0.492h2    c-0.878,0.003-1.587,0.718-1.584,1.596c0.002,0.394,0.149,0.773,0.414,1.064l2.78,3h0.05l0.11,0.13l0.12,0.14l0,0    c0.833,1.094,0.621,2.657-0.474,3.489c-0.725,0.552-1.694,0.663-2.526,0.291C17.275,23.112,17.539,22.963,17.77,22.77z" style="opacity:0.1;enable-background:new    ;"/><g><path d="M20.86,8H16c0.874-1.136,1.209-2.596,0.92-4c-0.488-2.718-3.087-4.526-5.805-4.038     C8.689,0.397,6.943,2.536,7,5C6.995,6.083,7.346,7.137,8,8H3.14C1.561,7.966,0.209,9.124,0,10.69     c-0.171,1.648,1.026,3.123,2.674,3.294C2.782,13.995,2.891,14.001,3,14h2.9c0.602,0.005,1.086,0.497,1.081,1.099     C6.978,15.366,6.879,15.622,6.7,15.82L4,18.81l-0.08,0.07L3.76,19l-0.12,0.14c-0.033,0.039-0.06,0.083-0.08,0.13     c-0.83,1.189-0.691,2.801,0.33,3.83c1.185,1.156,3.075,1.156,4.26,0l0.68-0.77l0,0l1.64-1.85     c0.802-0.845,2.138-0.879,2.983-0.077c0.026,0.025,0.052,0.051,0.077,0.077l2.35,2.65c1.184,1.159,3.083,1.139,4.242-0.044     c0.999-1.021,1.141-2.604,0.338-3.786c-0.023-0.048-0.053-0.092-0.09-0.13L20.23,19c-0.043-0.059-0.094-0.113-0.15-0.16l-2.78-3     c-0.414-0.437-0.396-1.127,0.041-1.541c0.205-0.194,0.477-0.301,0.759-0.299H21c1.657,0.009,3.007-1.327,3.016-2.984     c0.001-0.109-0.005-0.218-0.016-0.326C23.792,9.124,22.439,7.966,20.86,8z M1.52,12.34C1.134,11.921,0.945,11.357,1,10.79     C1.153,9.735,2.075,8.964,3.14,9h1.2C4.124,9.19,4,9.463,4,9.75c0.052,0.441,0.333,0.822,0.74,1C4.841,10.817,4.929,10.902,5,11     c-0.079,0.08-0.17,0.147-0.27,0.2c-0.403,0.181-0.68,0.561-0.73,1c0,0.287,0.124,0.56,0.34,0.75H3     C2.443,12.962,1.907,12.741,1.52,12.34z M4.59,22.41c-0.7-0.705-0.776-1.816-0.18-2.61l0,0l0.06-0.07l0.06-0.08l0.09-0.08     l0.42-0.46c0.263,0.062,0.537,0.062,0.8,0c0.109-0.019,0.221-0.019,0.33,0c0.016,0.109,0.016,0.221,0,0.33     c-0.163,0.429-0.079,0.912,0.22,1.26c0.348,0.299,0.831,0.383,1.26,0.22c0.108-0.071,0.226-0.125,0.35-0.16     c-0.006,0.106-0.026,0.21-0.06,0.31c-0.073,0.272-0.073,0.558,0,0.83l-0.46,0.52c-0.766,0.795-2.033,0.819-2.828,0.052     C4.631,22.452,4.61,22.431,4.59,22.41z M19.59,19.76L19.59,19.76c0.596,0.794,0.52,1.905-0.18,2.61     c-0.791,0.738-2.019,0.738-2.81,0l-0.48-0.54c0.057-0.277,0.036-0.564-0.06-0.83c-0.033-0.087-0.056-0.178-0.07-0.27     c0.109-0.017,0.221-0.017,0.33,0c0.565,0.253,1.227,0,1.48-0.564c0.13-0.291,0.13-0.624,0-0.916c-0.018-0.109-0.018-0.221,0-0.33     c0.109-0.015,0.221-0.015,0.33,0c0.278,0.074,0.572,0.074,0.85,0l0.4,0.44l0.09,0.08l0.07,0.09L19.59,19.76z M16.2,14.25     c-0.341,0.756-0.195,1.643,0.37,2.25L18,18c-0.337-0.064-0.684,0.04-0.93,0.28c-0.299,0.348-0.383,0.831-0.22,1.26     c0.018,0.109,0.018,0.221,0,0.33c-0.109,0.017-0.221,0.017-0.33,0c-0.429-0.163-0.912-0.079-1.26,0.22     c-0.153,0.149-0.249,0.347-0.27,0.56l-0.75-0.84c-1.08-1.256-2.974-1.399-4.231-0.319c-0.114,0.098-0.221,0.205-0.319,0.319     L9,20.67c-0.018-0.233-0.117-0.452-0.28-0.62c-0.348-0.299-0.831-0.383-1.26-0.22c-0.109,0.018-0.221,0.018-0.33,0     c-0.016-0.109-0.016-0.221,0-0.33c0.163-0.429,0.079-0.912-0.22-1.26C6.666,18.013,6.324,17.923,6,18l1.38-1.51     c0.774-0.856,0.707-2.178-0.15-2.952C6.865,13.207,6.393,13.017,5.9,13l0,0c-0.15-0.228-0.353-0.416-0.59-0.55     C5.194,12.4,5.089,12.329,5,12.24c0.079-0.08,0.17-0.147,0.27-0.2C5.685,11.852,5.964,11.454,6,11     c-0.052-0.441-0.333-0.822-0.74-1C5.159,9.933,5.071,9.848,5,9.75c0.08-0.08,0.171-0.147,0.27-0.2     C5.504,9.415,5.703,9.226,5.85,9H9.2c0.276-0.002,0.499-0.227,0.497-0.503C9.696,8.346,9.628,8.204,9.51,8.11     C7.795,6.717,7.534,4.198,8.927,2.483C9.101,2.269,9.296,2.074,9.51,1.9c0.944-0.771,2.189-1.069,3.38-0.81     c2.152,0.499,3.492,2.648,2.993,4.8c-0.201,0.865-0.684,1.639-1.373,2.2c-0.226,0.158-0.282,0.47-0.124,0.696     C14.481,8.921,14.635,9.001,14.8,9h3.35c0.15,0.228,0.353,0.416,0.59,0.55c0.101,0.051,0.192,0.119,0.27,0.2     c-0.08,0.08-0.171,0.147-0.27,0.2C18.319,10.137,18.034,10.54,18,11c0.05,0.439,0.327,0.819,0.73,1     c0.101,0.054,0.193,0.125,0.27,0.21c-0.079,0.08-0.17,0.147-0.27,0.2c-0.237,0.134-0.44,0.322-0.59,0.55l0,0     C17.289,12.948,16.518,13.461,16.2,14.25z M22.49,12.35C22.108,12.768,21.566,13.004,21,13h-1.34     c0.216-0.19,0.34-0.463,0.34-0.75c-0.05-0.439-0.327-0.819-0.73-1C19.165,11.184,19.074,11.099,19,11     c0.08-0.08,0.171-0.147,0.27-0.2c0.407-0.178,0.688-0.559,0.74-1c0.012-0.306-0.117-0.601-0.35-0.8h1.2     c1.065-0.036,1.988,0.735,2.14,1.79c0.055,0.567-0.134,1.131-0.52,1.55L22.49,12.35z" style="fill:#303C42;"/><path d="M11,4c0-0.552-0.448-1-1-1S9,3.448,9,4s0.448,1,1,1S11,4.552,11,4z M10.5,4L10.5,4z" style="fill:#303C42;"/><path d="M14,5c0.552,0,1-0.448,1-1s-0.448-1-1-1s-1,0.448-1,1S13.448,5,14,5z M14.5,4L14.5,4z" style="fill:#303C42;"/><path d="M14.28,6.09c-0.227-0.158-0.538-0.102-0.696,0.124c-0.001,0.002-0.003,0.004-0.004,0.006     C13.196,6.702,12.617,6.988,12,7c-0.624-0.001-1.212-0.293-1.59-0.79c-0.169-0.218-0.483-0.258-0.702-0.089     C9.506,6.278,9.455,6.562,9.59,6.78c0.987,1.331,2.866,1.61,4.197,0.623c0.237-0.176,0.447-0.386,0.623-0.623     C14.563,6.553,14.505,6.246,14.28,6.09z" style="fill:#303C42;"/><path d="M12,10c-0.552,0-1,0.448-1,1s0.448,1,1,1s1-0.448,1-1S12.552,10,12,10z M12,11L12,11z" style="fill:#303C42;"/><path d="M12,14c-0.552,0-1,0.448-1,1s0.448,1,1,1s1-0.448,1-1S12.552,14,12,14z M12,15L12,15z" style="fill:#303C42;"/></g><linearGradient gradientTransform="matrix(1 0 0 -1 0 24)" gradientUnits="userSpaceOnUse" id="SVGID_1_" x1="1.0448" x2="22.614" y1="15.8883" y2="5.8333"><stop offset="0" style="stop-color:#FFFFFF;stop-opacity:0.2"/><stop offset="1" style="stop-color:#FFFFFF;stop-opacity:0"/></linearGradient><path d="M20.86,8H16c0.874-1.136,1.209-2.596,0.92-4c-0.488-2.718-3.087-4.526-5.805-4.038    C8.689,0.397,6.943,2.536,7,5C6.995,6.083,7.346,7.137,8,8H3.14C1.561,7.966,0.209,9.124,0,10.69    c-0.171,1.648,1.026,3.123,2.674,3.294C2.782,13.995,2.891,14.001,3,14h2.9c0.602,0.005,1.086,0.497,1.081,1.099    C6.978,15.366,6.879,15.622,6.7,15.82L4,18.81l-0.08,0.07L3.76,19l-0.12,0.14c-0.033,0.039-0.06,0.083-0.08,0.13    c-0.83,1.189-0.691,2.801,0.33,3.83c1.185,1.156,3.075,1.156,4.26,0l2.33-2.62c0.802-0.845,2.138-0.879,2.983-0.077    c0.026,0.025,0.052,0.051,0.077,0.077l2.35,2.65c1.184,1.159,3.083,1.139,4.242-0.044c0.999-1.021,1.141-2.604,0.338-3.786    c-0.023-0.048-0.053-0.092-0.09-0.13L20.23,19c-0.043-0.059-0.094-0.113-0.15-0.16l-2.78-3c-0.414-0.437-0.396-1.127,0.041-1.541    c0.205-0.194,0.477-0.301,0.759-0.299H21c1.657,0.009,3.007-1.327,3.016-2.984c0.001-0.109-0.005-0.218-0.016-0.326    C23.792,9.124,22.439,7.966,20.86,8z" style="fill:url(#SVGID_1_);"/></g></g></svg>