<?xml version="1.0" ?><!DOCTYPE svg  PUBLIC '-//W3C//DTD SVG 1.1//EN'  'http://www.w3.org/Graphics/SVG/1.1/DTD/svg11.dtd'><svg style="enable-background:new 0 0 128 128;" version="1.1" viewBox="0 0 128 128" xml:space="preserve" xmlns="http://www.w3.org/2000/svg" xmlns:xlink="http://www.w3.org/1999/xlink"><style type="text/css">
	.st0{display:none;}
	.st1{fill:#1E5170;}
	.st2{opacity:0.2;}
	.st3{fill:#2BAF67;}
	.st4{fill:#F5D22D;}
	.st5{fill:#34D27C;}
	.st6{fill:#EA5644;}
	.st7{fill:#F3CB0A;}
	.st8{fill:#A564BE;}
	.st9{fill:#6E437F;}
	.st10{opacity:0.2;fill:#53325F;}
	.st11{fill:#F6DA50;}
	.st12{fill:#C34839;}
	.st13{fill:#FFFFFF;}
	.st14{fill:#286C95;}
	.st15{fill:#74BDE9;}
	.st16{fill:#ABD7F2;}
	.st17{fill:#F8F9FA;}
	.st18{fill:#F6CCA2;}
	.st19{fill:#ED6E5F;}
	.st20{fill:#9C392D;}
	.st21{fill:#F3F6F6;}
	.st22{fill:#9B5B19;}
	.st23{fill:#FCEEE0;}
	.st24{fill:#90CAED;}
	.st25{fill:#EEF2F3;}
	.st26{fill:#FDFDFD;}
	.st27{fill:#238C53;}
	.st28{fill:#314557;}
	.st29{fill:#CAA908;}
	.st30{fill:#4E2E0C;}
	.st31{clip-path:url(#SVGID_2_);}
	.st32{fill:#A28707;}
	.st33{fill:#13836F;}
	.st34{fill:#094137;}
	.st35{fill:#1A693E;}
	.st36{clip-path:url(#SVGID_4_);}
</style><g><g class="st0" id="guids"/><g id="Vrstva_2"><circle class="st1" cx="63.5" cy="64.1" r="58.8"/><path class="st2" d="M121.8,72.1L73.6,24h-2.8l-7.3-7.4L61.1,24h-7.6l5.7,5.8l-2,6l2.6,2.6l-25.9,64.3L53.1,122     c3.4,0.6,6.8,0.9,10.4,0.9C93.3,122.9,117.9,100.8,121.8,72.1z"/><polygon class="st3" points="63.5,29.6 33.9,103 93.1,103 63.5,29.6    "/><polygon class="st4" points="63.5,16.6 65.9,24 73.6,24 67.4,28.5 69.8,35.8 63.5,31.2 57.3,35.8 59.6,28.5 53.4,24 61.1,24         "/><polygon class="st5" points="55.1,50.2 69.1,43.2 68.3,41.2 56.3,47.2    "/><polygon class="st5" points="48.3,67 73.6,54.3 72.8,52.3 49.5,64    "/><polygon class="st5" points="41.6,83.7 78,65.4 77.2,63.4 42.8,80.7    "/><polygon class="st5" points="34.9,100.4 82.5,76.5 81.7,74.5 36.1,97.4    "/><polygon class="st5" points="56.8,103 87,87.7 86.2,85.8 52,103    "/><polygon class="st5" points="83.4,103 91.5,98.8 90.7,96.9 78.6,103    "/><circle class="st6" cx="56.9" cy="47.3" r="4.1"/><circle class="st7" cx="73.6" cy="54.3" r="4.1"/><circle class="st8" cx="63.2" cy="69.5" r="4.1"/><circle class="st6" cx="86.2" cy="85.6" r="4.1"/><circle class="st8" cx="41.6" cy="83.7" r="4.1"/><circle class="st7" cx="63.5" cy="94.9" r="4.1"/><path class="st2" d="M87.7,89.5c1.5-0.6,2.6-2.1,2.6-3.8c0-2.3-1.8-4.1-4.1-4.1c-0.5,0-1.1,0.1-1.5,0.3L78,65.4l-0.8-2l-2.1-5.3     c1.5-0.6,2.6-2.1,2.6-3.8c0-2.3-1.8-4.1-4.1-4.1c-0.6,0-1.1,0.1-1.6,0.3l-3-7.4l-0.8-2L64.6,32l5.2,3.8l-2.4-7.3l6.3-4.5h-7.7     L64,16.7V103h14.6h4.7h9.7L87.7,89.5z"/></g></g></svg>