<?xml version="1.0" ?><svg id="Christmas_Icon" style="enable-background:new 0 0 56 56;" version="1.1" viewBox="0 0 56 56" xml:space="preserve" xmlns="http://www.w3.org/2000/svg" xmlns:xlink="http://www.w3.org/1999/xlink"><style type="text/css">
	.st0{fill:#F5F5F5;stroke:#3E2723;stroke-linecap:round;stroke-linejoin:round;stroke-miterlimit:10;}
	.st1{fill:#E0E0E0;}
	.st2{fill:#8D6E63;stroke:#3E2723;stroke-linecap:round;stroke-linejoin:round;stroke-miterlimit:10;}
	.st3{fill:#5D4037;}
	.st4{fill:none;stroke:#3E2723;stroke-linecap:round;stroke-linejoin:round;stroke-miterlimit:10;}
	.st5{fill:#FFD54F;stroke:#3E2723;stroke-linecap:round;stroke-linejoin:round;stroke-miterlimit:10;}
	.st6{fill:#E53935;stroke:#3E2723;stroke-linecap:round;stroke-linejoin:round;stroke-miterlimit:10;}
	.st7{fill:#B71C1C;}
	.st8{fill:#FFA000;}
	.st9{fill:#FFECB3;stroke:#3E2723;stroke-linecap:round;stroke-linejoin:round;stroke-miterlimit:10;}
	.st10{fill:#FFE082;}
	.st11{fill:#3E2723;}
	.st12{fill:#81C784;stroke:#3E2723;stroke-linecap:round;stroke-linejoin:round;stroke-miterlimit:10;}
	.st13{fill:#43A047;}
	.st14{fill:#263238;}
	.st15{fill:#4E342E;stroke:#3E2723;stroke-linecap:round;stroke-linejoin:round;stroke-miterlimit:10;}
	.st16{fill:none;}
	.st17{fill:#A1887F;stroke:#3E2723;stroke-linecap:round;stroke-linejoin:round;stroke-miterlimit:10;}
	.st18{fill:#6D4C41;}
	.st19{fill:#6D4C41;stroke:#3E2723;stroke-linecap:round;stroke-linejoin:round;stroke-miterlimit:10;}
	.st20{fill:#E0E0E0;stroke:#3E2723;stroke-miterlimit:10;}
	.st21{fill:#D81B60;stroke:#3E2723;stroke-linecap:round;stroke-linejoin:round;stroke-miterlimit:10;}
	.st22{fill:#E0E0E0;stroke:#3E2723;stroke-linecap:round;stroke-linejoin:round;stroke-miterlimit:10;}
	.st23{fill:#FBC02D;stroke:#3E2723;stroke-linecap:round;stroke-linejoin:round;stroke-miterlimit:10;}
</style><g id="Santa_Claus"><path class="st9" d="M44,28.8c0-8.3-6.9-15-15.5-15h-1c-8.6,0-15.5,6.7-15.5,15v3c0,8.3,6.9,15,15.5,15h1c8.6,0,15.5-6.7,15.5-15   V28.8z"/><path class="st6" d="M49,8L32.7,1.7c-4-1.6-8.6-0.4-11.3,2.9L9.5,18.8h36l-8-7.8L49,13V8z"/><path class="st0" d="M48.5,24.8h-41c-1.4,0-2.5-1.1-2.5-2.5v-1c0-1.4,1.1-2.5,2.5-2.5h41c1.4,0,2.5,1.1,2.5,2.5v1   C51,23.7,49.9,24.8,48.5,24.8z"/><circle class="st9" cx="48" cy="29.8" r="4"/><circle class="st9" cx="8" cy="29.8" r="4"/><path class="st0" d="M33,55H23c-8.3,0-15-6.7-15-15v-5h40v5C48,48.3,41.3,55,33,55z"/><path class="st0" d="M10.5,39.8L10.5,39.8c-1.4,0-2.5-1.1-2.5-2.5V24.8h5v12.5C13,38.7,11.9,39.8,10.5,39.8z"/><path class="st1" d="M47.5,35.5H43V40c0,7-4.8,12.8-11.2,14.5H33c8,0,14.5-6.5,14.5-14.5V35.5z"/><path class="st4" d="M17,29.2c1.7-1.7,4.3-1.7,6,0"/><path class="st4" d="M33,29.2c1.7-1.7,4.3-1.7,6,0"/><path class="st19" d="M36,36.8c0,4.4-3.6,8-8,8s-8-3.6-8-8S36,32.4,36,36.8z"/><path class="st0" d="M24.5,35.3l-10.1,2c-0.9,0.2-1.6-0.9-0.9-1.6l0.9-1.1c2.5-2.9,6.5-4,10.2-2.8l0,0V35.3z"/><path class="st0" d="M31.5,35.3l10.1,2c0.9,0.2,1.6-0.9,0.9-1.6l-0.9-1.1c-2.5-2.9-6.5-4-10.2-2.8l0,0V35.3z"/><circle class="st9" cx="28" cy="33.8" r="4"/><path class="st6" d="M33,43c-1.1-1.6-2.9-2.7-5-2.7s-4,1.1-5,2.7c1.4,1.1,3.1,1.8,5,1.8S31.6,44.1,33,43z"/><path class="st20" d="M45.5,39.8L45.5,39.8c-1.4,0-2.5-1.1-2.5-2.5V24.8h5v12.5C48,38.7,46.9,39.8,45.5,39.8z"/><path class="st1" d="M46,21.3v1c0,0.8-0.4,1.5-1,2h3.5c1.1,0,2-0.9,2-2v-1c0-1.1-0.9-2-2-2H45C45.6,19.7,46,20.5,46,21.3z"/><path class="st7" d="M37.6,10.5l10.9,1.9V9.9L38,8.1c-1.3-0.2-2.6,0.4-3.2,1.6s-0.4,2.6,0.6,3.5l5.3,5.1h3.6l-7.1-6.9   C37,11.2,37,11,37.1,10.8C37.2,10.6,37.4,10.5,37.6,10.5z"/><circle class="st0" cx="48" cy="10.3" r="4"/></g></svg>