<?xml version="1.0" ?><svg height="60px" version="1.1" viewBox="0 0 55 60" width="55px" xmlns="http://www.w3.org/2000/svg" xmlns:xlink="http://www.w3.org/1999/xlink"><title/><desc/><defs/><g fill="none" fill-rule="evenodd" id="Page-1" stroke="none" stroke-width="1"><g id="005---Bell"><g fill-rule="nonzero" id="Colour"><path d="M53.08,25.68 C53.0435259,26.9472824 52.8280602,28.2030433 52.44,29.41 C52.0058233,30.6324074 51.3095563,31.7450694 50.4,32.67 C49.9252877,33.2440846 49.3177361,33.6937415 48.63,33.98 C48.0981808,34.1417406 47.5297947,34.1382536 47,33.97 C46.1582772,33.6736565 45.3978784,33.1838501 44.78,32.54 C43.695238,31.4535316 42.7572787,30.2298141 41.99,28.9 L41.99,24 C41.9929006,22.3812864 41.7293792,20.77313 41.21,19.24 C42.1051509,20.0010578 43.0617487,20.686731 44.07,21.29 C46.7012148,23.0146788 49.9075105,23.6293386 52.99,23 C53,23.08 53.01,23.17 53.02,23.25 C53.0999065,24.0574115 53.1199613,24.8696288 53.08,25.68 L53.08,25.68 Z" fill="#388C41" id="Shape"/><path d="M49.98523,25.68 C49.9596259,26.9365497 49.8010248,28.186855 49.51208,29.41 C49.21522,30.5805584 48.703854,31.685914 48.00392,32.67 C47.6864098,33.2109542 47.2360176,33.6618661 46.69543,33.98 C46.3093367,34.1417955 45.8737849,34.1381809 45.49043,33.97 C44.8303746,33.6410722 44.2654027,33.1488105 43.84921,32.54 C43.022951,31.410696 42.3307815,30.1891631 41.78664,28.9 L41.78664,24 C41.7905626,22.3956775 41.5968916,20.7969781 41.21,19.24 C41.8537464,19.9836028 42.561226,20.6695439 43.32437,21.29 C45.29823,22.88 47.63437,23.77 49.91871,23 C49.92611,23.08 49.93351,23.17 49.94091,23.25 C49.9999878,24.0585856 50.0147832,24.8697979 49.98523,25.68 L49.98523,25.68 Z" fill="#5AB862" id="Shape"/><path d="M12.8,19.25 C12.2257893,20.906383 11.9317583,22.6469114 11.93,24.4 L11.93,29.08 C11.1898513,30.3442404 10.2890194,31.5072548 9.25,32.54 C8.63212326,33.1838521 7.87172395,33.6736589 7.03,33.97 C6.50020562,34.1382555 5.93181891,34.1417425 5.4,33.98 C4.71375104,33.6911247 4.10678034,33.2418978 3.63,32.67 C2.72046099,31.7450557 2.02419653,30.6323978 1.59,29.41 C1.20191044,28.2030505 0.986444045,26.9472854 0.95,25.68 C0.90998372,24.8696295 0.930038569,24.0574081 1.01,23.25 C1.02,23.17 1.03,23.08 1.04,23 C4.1224896,23.6293175 7.32877726,23.0146593 9.96,21.29 C10.9616576,20.6900204 11.9116074,20.0076622 12.8,19.25 L12.8,19.25 Z" fill="#5AB862" id="Shape"/><path d="M52,49 C52,54.52 40.81,59 27,59 C26.5,59 26,58.99 25.5,58.98 C12.39,58.67 2,54.32 2,49 C2,46.77 3.83,44.7 6.92,43.04 C10.082142,41.2925569 12.0323069,37.9527076 12,34.34 L12,24.4 C11.9976662,21.5242066 12.7901727,18.7037138 14.29,16.25 C16.6973172,12.2175315 20.8681452,9.55932379 25.54,9.08 L25.55,9.08 C25.67,9.06 25.8,9.05 25.93,9.04 C26.26,9.02 26.6,9 26.93,9 L27.01,9 C30.985418,8.99624472 34.7977276,10.5802072 37.6,13.4 C38.4610706,14.2542302 39.2134239,15.2114654 39.84,16.25 C40.4120122,17.1910488 40.8749952,18.1941785 41.22,19.24 C41.7393792,20.77313 42.0029006,22.3812864 42,24 L42,34.34 C41.9676931,37.9527076 43.917858,41.2925569 47.08,43.04 C50.17,44.7 52,46.77 52,49 Z" fill="#FDDC42" id="Shape"/><path d="M49,49 C49,54.32 38.61,58.67 25.5,58.98 C12.39,58.67 2,54.32 2,49 C2,46.77 3.83,44.7 6.92,43.04 C10.082142,41.2925569 12.0323069,37.9527076 12,34.34 L12,24.4 C11.9976662,21.5242066 12.7901727,18.7037138 14.29,16.25 C16.6973172,12.2175315 20.8681452,9.55932379 25.54,9.08 L25.55,9.08 C28.9753782,9.43043956 32.1734791,10.9570468 34.6,13.4 C35.4610706,14.2542302 36.2134239,15.2114654 36.84,16.25 C37.4120122,17.1910488 37.8749952,18.1941785 38.22,19.24 C38.7393792,20.77313 39.0029006,22.3812864 39,24 L39,34.34 C38.9676931,37.9527076 40.917858,41.2925569 44.08,43.04 C47.17,44.7 49,46.77 49,49 Z" fill="#FFEB49" id="Shape"/><ellipse cx="27" cy="49.5" fill="#F88F00" id="Oval" rx="21" ry="6.5"/><ellipse cx="25.5" cy="49.5" fill="#FFA700" id="Oval" rx="19.5" ry="6.5"/><path d="M34,45 C34,48.8659932 30.8659932,52 27,52 C23.1340068,52 20,48.8659932 20,45 C19.9999698,44.4439523 20.0671231,43.8899377 20.2,43.35 C24.7213248,42.8833586 29.2786752,42.8833586 33.8,43.35 C33.9328769,43.8899377 34.0000302,44.4439523 34,45 Z" fill="#FDDC42" id="Shape"/><path d="M23,5 C23.0004149,4.23020042 23.2226099,3.47682071 23.64,2.83 C21.72,2.14 12.57,-0.87 9,2.76 C5.66,6.16 12.09,13.83 14.29,16.25 C16.7656452,12.095792 21.1079433,9.40610397 25.93,9.04 C26.26,9.02 26.6,9 26.93,9 C24.7476574,8.96318294 22.9982862,7.1826525 23,5 Z M19.31,6.15 C18.3923934,6.73894065 17.3591668,7.12426939 16.28,7.28 C15.2535866,7.58818691 14.1546478,7.55307704 13.15,7.18 C12.8418757,7.03124918 12.628126,6.7387496 12.58,6.4 C12.4978887,5.89646516 12.6745093,5.38539297 13.05,5.04 C13.1047676,4.99538762 13.1653161,4.95838573 13.23,4.93 C14.1306117,4.58366819 15.0999285,4.45351257 16.06,4.55 C17.0532437,4.59472359 18.0388524,4.74558205 19,5 C19.25,5.06 19.72,5.18 19.77,5.5 C19.82,5.78 19.51,6.01 19.31,6.15 Z" fill="#5AB862" id="Shape"/><path d="M45.13,2.76 C41.56,-0.87 32.41,2.14 30.49,2.83 L30.48,2.83 L30.39,2.88 C30.7919116,3.51377971 31.003615,4.24953574 31,5 C31.0017639,7.2059657 29.2159632,8.99624205 27.01,9 C30.985418,8.99624472 34.7977276,10.5802072 37.6,13.4 C38.4610706,14.2542302 39.2134239,15.2114654 39.84,16.25 C42.04,13.83 48.47,6.16 45.13,2.76 Z M41.44,6.4 C41.3918689,6.73874753 41.1781208,7.03124496 40.87,7.18 C39.8653521,7.55307632 38.7664135,7.58818618 37.74,7.28 C36.6608306,7.12427966 35.6276019,6.73895014 34.71,6.15 C34.51,6.01005 34.2,5.78 34.25,5.5 C34.3,5.18 34.77,5.06 35.02,5 C35.9811458,4.74557312 36.9667554,4.59471451 37.96,4.55 C38.9200717,4.45349907 39.8893917,4.58365511 40.79,4.93 C40.8546839,4.95838573 40.9152324,4.99538762 40.97,5.04 C41.3455095,5.38538067 41.5221336,5.89646324 41.44,6.4 Z" fill="#5AB862" id="Shape"/><path d="M31.5,5 C31.501985,7.4817078 29.492965,9.49576748 27.01126,9.5 L26.92126,9.5 C25.2876871,9.47132966 23.797974,8.5595421 23.0292394,7.11786617 C22.2605048,5.67619024 22.3335205,3.93111993 23.22,2.5587 L23.23126,2.5587 C24.0636123,1.26555608 25.5001782,0.488702143 27.0380017,0.500122513 C28.5758252,0.511542883 30.000695,1.30964676 30.81375,2.61501 C31.2658958,3.32801064 31.5040618,4.15573155 31.5,5 Z" fill="#9ACA5C" id="Shape"/></g><g id="Outline" stroke="#000000" stroke-linecap="round" stroke-linejoin="round" transform="translate(1.000000, 1.000000)"><path d="M51,48 C51,53.52 39.81,58 26,58 C12.19,58 1,53.52 1,48 C1,45.76806 2.83087,43.70385 5.92343,42.03948 C9.0836856,40.2895815 11.0320779,36.9497574 11,33.33751 L11,23.39612 C10.9183119,15.4233568 16.9879758,8.73148439 24.93087,8.03718 C29.082826,7.74690281 33.1691142,9.19228811 36.2151431,12.0286074 C39.261172,14.8649266 40.993876,18.8379138 41,23 L41,33.33751 C40.9679111,36.9497681 42.9163049,40.2896064 46.07657,42.03951 C49.16913,43.70385 51,45.76806 51,48 Z" id="Shape" stroke-width="2"/><path d="M25.20752,12.02734 C25.4731733,12.00928 25.737,12.0001667 25.999,12 C32.0694861,12.0115923 36.9878558,16.9295149 37,23" id="Shape" stroke-width="2"/><path d="M17.22839,38.55078 C23.0530739,37.8164067 28.9469261,37.8164067 34.77161,38.55078" id="Shape"/><ellipse cx="26" cy="48.5" id="Oval" rx="21" ry="6.5"/><path d="M19.2,42.35 C19.0671209,42.8899373 18.9999676,43.4439522 19,44 C19,47.8659932 22.1340068,51 26,51 C29.8659932,51 33,47.8659932 33,44 C33.0000324,43.4439522 32.9328791,42.8899373 32.8,42.35" id="Shape"/><circle cx="26" cy="4" id="Oval" r="4" stroke-width="2"/><path d="M22.65,1.83 L22.64,1.83 C20.72,1.14 11.57,-1.87 8,1.76 C4.66,5.16 11.09,12.83 13.29,15.25" id="Shape" stroke-width="2"/><path d="M38.84314,15.25 C41.04314,12.83 47.47314,5.16 44.13314,1.76 C40.56314,-1.87 31.41314,1.14 29.49314,1.83 L29.48314,1.83" id="Shape" stroke-width="2"/><path d="M41,27.9 C41.768549,29.2285467 42.7059849,30.4519225 43.7889,31.53958 C44.4094464,32.1808984 45.1705569,32.6692119 46.01216,32.96598 C46.5408665,33.1363879 47.1088624,33.1421906 47.64094,32.98262 C48.3292389,32.6926864 48.9372922,32.2407358 49.41334,31.66524 C50.3242039,30.744901 51.0191917,29.6336692 51.44806,28.41188 C51.8373924,27.206013 52.0551002,25.9513587 52.09478,24.68482 C52.1325998,23.8733712 52.1108213,23.060241 52.02962,22.25198 C52.02087,22.16786 52.01145,22.08379 52,21.99998 C48.9175764,22.6293753 45.7113233,22.0145701 43.08035,20.28962 C42.0723874,19.6858855 41.1157207,19.0003739 40.22,18.24" id="Shape" stroke-width="2"/><path d="M11,28.08 C10.2598419,29.344234 9.35901084,30.5072472 8.32,31.54 C7.70212636,32.1838559 6.94172609,32.6736633 6.1,32.97 C5.57020482,33.1382504 5.00181964,33.1417375 4.47,32.98 C3.7837557,32.6911165 3.17678679,32.241891 2.7,31.67 C1.79046252,30.7450545 1.09419829,29.632397 0.66,28.41 C0.271903658,27.2030522 0.0564370946,25.9472861 0.02,24.68 C-0.0199908272,23.8696292 6.39756203e-05,23.0574097 0.08,22.25 C0.09,22.17 0.1,22.08 0.11,22 C3.19248946,22.6293408 6.39878599,22.0146808 9.03,20.29 C10.0316514,19.690011 10.9816004,19.0076533 11.87,18.25 C11.88,18.25 11.88,18.25 11.89,18.24" id="Shape" stroke-width="2"/><path d="M12.04521,4.045 C12.1013557,4.00109835 12.1616202,3.96273603 12.22516,3.93045 C13.1265483,3.58359682 14.0967884,3.45324842 15.05776,3.5499 C16.0515664,3.59644734 17.0377292,3.74730923 18,4 C18.2541,4.06352 18.72272,4.182 18.774,4.49979 C18.8187,4.77664 18.50569,5.01092 18.31265,5.14871 C17.3917757,5.73640652 16.3566701,6.12199605 15.27573,6.28 C14.2511189,6.58827578 13.1540343,6.55489646 12.15006,6.1849 C11.8416765,6.03356744 11.629437,5.73800404 11.58459,5.39743 C11.494695,4.89735594 11.6687719,4.3862471 12.04521,4.045 L12.04521,4.045 Z" id="Shape"/><path d="M39.97468,4.045 C39.9185181,4.00109613 39.8582368,3.96273377 39.79468,3.93045 C38.8932918,3.58359645 37.9230516,3.45324805 36.96208,3.5499 C35.9682903,3.59644935 34.9821442,3.74731124 34.01989,4 C33.76579,4.06352 33.29716,4.182 33.24589,4.49979 C33.2012,4.77664 33.5142,5.01092 33.70724,5.14871 C34.6281127,5.73640247 35.6632141,6.12199173 36.74415,6.28 C37.7687611,6.58827578 38.8658457,6.55489646 39.86982,6.1849 C40.1782035,6.03356744 40.390443,5.73800404 40.43529,5.39743 C40.5251895,4.89735756 40.351116,4.3862481 39.97468,4.045 L39.97468,4.045 Z" id="Shape"/></g></g></g></svg>