<?xml version="1.0" ?><svg height="60px" version="1.1" viewBox="0 0 54 60" width="54px" xmlns="http://www.w3.org/2000/svg" xmlns:xlink="http://www.w3.org/1999/xlink"><title/><desc/><defs/><g fill="none" fill-rule="evenodd" id="Page-1" stroke="none" stroke-width="1"><g id="030---Holly" transform="translate(1.000000, 1.000000)"><g fill-rule="nonzero" id="Colour"><path d="M1.65,56.36 L1.63,56.38" fill="#81CB97" id="Shape"/><path d="M50.35,56.36 C49.2348314,55.6557088 47.9785175,55.2050818 46.66994,55.04 C45.8181814,54.9300773 44.9544887,54.9536946 44.11001,55.11 L44.1,55.11 C42.146489,55.5344482 40.3679835,56.542268 39,58 C38.8410085,57.3653896 38.6439553,56.7409267 38.40991,56.13 C37.35,53.32 34.77,48.48 29.82007,49.72 L29.81007,49.72 C29.63001,49.76 29.44996,49.82 29.26007,49.88 C29.26007,49.88 29.28007,49.79 29.31007,49.61 C29.8333256,46.3183531 29.4173724,42.9458626 28.11,39.88 L25.88,37.17 L24.4,39.01 L24.26,39.18 C21.56,43.95 22.74,49.88 22.74,49.88 C21.7658493,49.5347189 20.7208309,49.4384672 19.7,49.6 L19.7,49.61 C19.5295159,49.6264243 19.3616361,49.6633578 19.2,49.72 L19.19,49.72 C14.63,50.97 13,58 13,58 C12.2873927,57.2719571 11.4801667,56.6429935 10.6,56.13 C8.8866071,55.1197053 6.86756807,54.757773 4.90993,55.11 L4.9,55.11 C3.74391909,55.3049293 2.63874464,55.7299964 1.65,56.36 C1.91908594,55.9415515 2.15003742,55.4997761 2.34007,55.04 C3.17993,53.03 4.02,49.02 0.01,45.01 C0.01,45.01 10.3,42.63 8.21,35.53 C8.19,35.45 8.15995,35.36 8.13,35.27 C8.67872917,35.3705081 9.23310119,35.4372999 9.79,35.47 C12.8743651,35.7688285 15.9803896,35.1899154 18.75,33.8 L21.5,31.58 L20.87,25.13 C19.5351515,22.9266057 17.7658967,21.0178814 15.66992,19.52 C22.56006,16.07 16.81006,6.89 16.81006,6.89 C20.91992,6.89 23.22998,5.09 24.51006,3.32 C25.2308854,2.32823676 25.7382133,1.19776928 26,-2.22044605e-16 C26,-2.22044605e-16 27.15,6.89 35.18994,6.89 C35.18994,6.89 29.43994,16.07 36.33008,19.52 C34.5742984,20.7703563 33.0426895,22.3087273 31.80008,24.07 L29.5,30.6 L32.93994,33.61 L32.94994,33.61 C34.8720107,34.7055636 37.0212609,35.3421249 39.22994,35.47 C39.77994,35.51 40.31002,35.53 40.80001,35.53 C41.8289053,35.5315994 42.8560281,35.4446115 43.87,35.27 C41.43994,42.57 51.99,45.01 51.99,45.01 C46.52,50.48 50.08008,55.96 50.35,56.36 Z" fill="#ADAA2F" id="Shape"/><path d="M46.66992,55.04 C46.8599558,55.4997764 47.0909106,55.9415518 47.36,56.36 C46.3712554,55.7299964 45.2660809,55.3049293 44.11,55.11 L44.1,55.11 C42.1423619,54.7577911 40.1233292,55.1197222 38.40993,56.13 C37.35,53.32 34.77,48.48 29.82007,49.72 L29.81007,49.72 C29.6484339,49.6633578 29.4805541,49.6264243 29.31007,49.61 C29.8333256,46.3183531 29.4173724,42.9458626 28.11,39.88 L25.88,37.17 L24.4,39.01 L22.89,37.17 L21.27,39.18 C18.9199,43.34 19.51,48.38 19.69993,49.6 L19.69993,49.61 C19.72993,49.79 19.74993,49.88 19.74993,49.88 C19.55999,49.82 19.37993,49.76 19.19993,49.72 L19.18993,49.72 C14.23993,48.48 11.65993,53.32 10.59993,56.13 C8.8865371,55.1197053 6.86749807,54.757773 4.90986,55.11 L4.9,55.11 C4.05552129,54.9536946 3.19182858,54.9300773 2.34007,55.04 C3.17993,53.03 4.02,49.02 0.01,45.01 C0.01,45.01 10.3,42.63 8.21,35.53 C8.7,35.53 9.23,35.51 9.79008,35.47 C12.8744451,35.7688285 15.9804696,35.1899154 18.75008,33.8 L21.50008,31.58 L20.87008,25.13 C19.5352315,22.9266057 17.7659767,21.0178814 15.67,19.52 C22.56014,16.07 16.81014,6.89 16.81014,6.89 C20.91992,6.89 24.72,2.77 26,1 C27.27,2.77 28.09009,6.89 32.2,6.89 C32.2,6.89 26.45,16.07 33.34014,19.52 C31.5843584,20.7703563 30.0527495,22.3087273 28.81014,24.07 L26.51014,30.6 L29.95,33.61 L29.96,33.61 C32.7969488,35.1361954 36.0238869,35.7836717 39.23,35.47 C39.7835544,35.4369379 40.3345772,35.3701473 40.88,35.27 C40.85,35.36 40.82007,35.45005 40.8,35.53 C38.71,42.63 49,45.01 49,45.01 C44.99,49.02 45.83008,53.03 46.66992,55.04 Z" fill="#D5DF48" id="Shape"/><path d="M50.37,56.38 L50.35,56.36" fill="#81CB97" id="Shape"/><circle cx="31" cy="29" fill="#EF3A76" id="Oval" r="5"/><circle cx="22" cy="30" fill="#EF3A76" id="Oval" r="5"/><circle cx="27" cy="35" fill="#EF3A76" id="Oval" r="5"/><circle cx="27.5" cy="34.5" fill="#FFFFFF" id="Oval" r="1.5"/><circle cx="31.5" cy="27.5" fill="#FFFFFF" id="Oval" r="1.5"/><circle cx="21.5" cy="28.5" fill="#FFFFFF" id="Oval" r="1.5"/></g><g id="Outline" stroke="#000000" stroke-linecap="round" stroke-linejoin="round"><path d="M31.8,24.07 C33.0426002,22.3087195 34.5742106,20.7703471 36.33,19.52 C29.44,16.07 35.19,6.89 35.19,6.89 C27.15,6.89 26,0 26,0 C26,0 24.85,6.89 16.81,6.89 C16.81,6.89 22.56,16.07 15.67,19.52 C17.7659293,21.0179107 19.5351525,22.9266303 20.87,25.13" id="Shape" stroke-width="2"/><polyline id="Shape" points="26 30.1 26 29 26 27 26 8"/><path d="M23,10 C23,10 26,11.01354 26,14" id="Shape"/><path d="M23,17 C23,17 26,18.01354 26,21" id="Shape"/><path d="M29,10 C29,10 26,11.01354 26,14" id="Shape"/><path d="M29,17 C29,17 26,18.01354 26,21" id="Shape"/><path d="M24.26,39.18 C21.56,43.95 22.74,49.88 22.74,49.88 C15.44,47.45 13,58 13,58 C7.53,52.53 2.05,56.09 1.65,56.36" id="Shape" stroke-width="2"/><path d="M1.63,56.38 L1.65,56.36 C1.92,55.96 5.48,50.48 0.01,45.01 C0.01,45.01 10.56,42.57 8.13,35.27 C8.13,35.27 13.99,36.44 18.75,33.8" id="Shape" stroke-width="2"/><path d="M22.09,35.92 L7.29,50.72" id="Shape"/><path d="M10.8263,51.42653 C10.8263,51.42653 9.42166,48.58853 11.53341,46.47678" id="Shape"/><path d="M15.77605,46.47678 C15.77605,46.47678 14.37141,43.63878 16.48315,41.52703" id="Shape"/><path d="M6.58366,47.18388 C6.58366,47.18388 9.42166,48.58852 11.53341,46.47678" id="Shape"/><path d="M11.53341,42.23414 C11.53341,42.23414 14.37141,43.63878 16.48315,41.52703" id="Shape"/><path d="M50.37,56.38 L50.35,56.36 C50.08,55.96 46.52,50.48 51.99,45.01 C51.99,45.01 41.44,42.57 43.87,35.27 C43.87,35.27 37.75,36.49 32.95,33.61 L32.94,33.61" id="Shape" stroke-width="2"/><path d="M31.25,32.37 C31.2500579,32.3673305 31.2490229,32.3647532 31.2471349,32.3628651 C31.2452468,32.3609771 31.2426695,32.3599421 31.24,32.36" id="Shape" stroke-width="2"/><path d="M50.35,56.36 C49.95,56.09 44.47,52.53 39,58 C39,58 36.56,47.45 29.26,49.88 C29.8400536,46.505258 29.4409709,43.0349741 28.11,39.88" id="Shape" stroke-width="2"/><path d="M44.71,50.72 L31.39,37.4" id="Shape"/><path d="M41.1737,51.42653 C41.1737,51.42653 42.57834,48.58853 40.46659,46.47678" id="Shape"/><path d="M36.224,46.47678 C36.224,46.47678 37.62864,43.63878 35.5169,41.52703" id="Shape"/><path d="M45.41634,47.18388 C45.41634,47.18388 42.57834,48.58852 40.46659,46.47678" id="Shape"/><path d="M40.46659,42.23414 C40.46659,42.23414 37.62859,43.63878 35.51685,41.52703" id="Shape"/><path d="M26.26,27.39 C26.1850434,27.2525632 26.0980353,27.122051 26,27 C25.0547443,25.7421502 23.5734333,25.0014947 22,25 C21.6194391,24.9970483 21.2399486,25.0407065 20.87,25.13 C18.3943277,25.7041453 16.7432596,28.0441713 17.0323293,30.5690545 C17.321399,33.0939377 19.4586232,35.0002484 22,35" id="Shape" stroke-width="2"/><path d="M26.12,30.08 C26.0395152,29.7256578 25.9992606,29.3633671 26,29 C25.9993168,28.452827 26.0871166,27.9091436 26.26,27.39 C26.9523224,25.362513 28.8575682,23.9999005 31,24 C31.2682781,23.9980361 31.5361397,24.021474 31.8,24.07 C33.9993505,24.4265672 35.6974228,26.1953015 35.964075,28.4073547 C36.2307271,30.6194079 35.0016144,32.7409999 32.95,33.61 L32.94,33.61 C32.5998082,33.7538777 32.2441088,33.857903 31.88,33.92" id="Shape" stroke-width="2"/><circle cx="27" cy="35" id="Oval" r="5" stroke-width="2"/><circle cx="27.5" cy="34.5" id="Oval" r="1.5"/><circle cx="31.5" cy="27.5" id="Oval" r="1.5"/><circle cx="21.5" cy="28.5" id="Oval" r="1.5"/></g></g></g></svg>