<?xml version="1.0" ?><svg height="59px" version="1.1" viewBox="0 0 59 59" width="59px" xmlns="http://www.w3.org/2000/svg" xmlns:xlink="http://www.w3.org/1999/xlink"><title/><desc/><defs/><g fill="none" fill-rule="evenodd" id="Page-1" stroke="none" stroke-width="1"><g fill-rule="nonzero" id="004---Bauble"><path d="M54.8623,8.273 C52.8895692,8.27135951 51.1926858,6.87648688 50.8093162,4.94136488 C50.4259465,3.00624287 51.4628535,1.06977529 53.285955,0.316137256 C55.1090566,-0.437500773 57.2106449,0.201568162 58.3055715,1.84254509 C59.4004981,3.48352201 59.1838415,5.66941834 57.78809,7.06353 L57.78809,7.06353 C57.0125596,7.83985741 55.9596273,8.27512108 54.8623,8.273 Z M54.8623,2.001 C53.8429719,2.00179258 52.9661387,2.7224908 52.7679981,3.72237613 C52.5698574,4.72226145 53.1055889,5.7228783 54.0475842,6.11233339 C54.9895795,6.50178848 56.0755046,6.17162344 56.6412989,5.32373949 C57.2070932,4.47585554 57.0951901,3.34637778 56.37402,2.626 C55.9732171,2.22501461 55.4292492,2.00011851 54.8623,2.001 Z" fill="#717275" id="Shape"/><path d="M52.14084,15.73373 L55.60192,12.27265 C56.4154199,11.4543706 56.4154199,10.1327394 55.60192,9.31446 L49.68554,3.39808 C48.8672606,2.58458006 47.5456294,2.58458006 46.72735,3.39808 L43.26627,6.85916 L52.14084,15.73373 Z" fill="#B4B4B3" id="Shape"/><circle cx="28.23868" cy="30.76132" fill="#CD4F38" id="Oval" r="28.23868"/><path d="M46.55,52.25 C45.4860548,53.1708141 44.3489721,54.00356 43.15,54.74 C35.5352297,49.532405 28.430238,43.6160429 21.93,37.07 C15.3815999,30.5719217 9.46504416,23.4666974 4.26,15.85 C4.99992104,14.65086 5.83600233,13.5137895 6.76,12.45 C12.0103477,20.3013714 18.0410111,27.6018246 24.76,34.24 C31.4029572,40.9567191 38.7028225,46.990247 46.55,52.25 L46.55,52.25 Z" fill="#EC9130" id="Shape"/><path d="M49.48,49.36 C49.08,49.84 48.65,50.29 48.21,50.73 C47.68,51.26 47.12,51.77 46.55,52.25 C38.7028225,46.990247 31.4029572,40.9567191 24.76,34.24 C18.0410111,27.6018246 12.0103477,20.3013714 6.76,12.45 C7.23,11.88 7.74,11.32995 8.27,10.8 C8.71,10.35 9.17,9.93 9.64,9.52 C14.8395561,17.4256408 20.8559664,24.7626447 27.59,31.41 C34.2373543,38.1440347 41.5743583,44.160445 49.48,49.36 L49.48,49.36 Z" fill="#F6AB27" id="Shape"/><path d="M51.93,46.15 C51.1930346,47.2785469 50.3741645,48.3514337 49.48,49.36 C41.5743583,44.160445 34.2373543,38.1440347 27.59,31.41 C20.8559664,24.7626447 14.8395561,17.4256408 9.64,9.52 C10.6481131,8.62831309 11.7210646,7.81273621 12.85,7.08 C17.9176017,14.8598782 23.8082242,22.0714485 30.42,28.59 C36.9389723,35.1983841 44.1505349,41.0856478 51.93,46.15 L51.93,46.15 Z" fill="#EC9130" id="Shape"/><circle cx="31" cy="12" fill="#ED634C" id="Oval" r="5"/><circle cx="23.5" cy="49.5" fill="#ED634C" id="Oval" r="5.5"/></g></g></svg>