<?xml version="1.0" ?><svg height="60px" version="1.1" viewBox="0 0 55 60" width="55px" xmlns="http://www.w3.org/2000/svg" xmlns:xlink="http://www.w3.org/1999/xlink"><title/><desc/><defs/><g fill="none" fill-rule="evenodd" id="Page-1" stroke="none" stroke-linecap="round" stroke-linejoin="round" stroke-width="1"><g id="005---Bell" stroke="#000000" transform="translate(1.000000, 1.000000)"><path d="M51,48 C51,53.52 39.81,58 26,58 C12.19,58 1,53.52 1,48 C1,45.76806 2.83087,43.70385 5.92343,42.03948 C9.0836856,40.2895815 11.0320779,36.9497574 11,33.33751 L11,23.39612 C10.9183119,15.4233568 16.9879758,8.73148439 24.93087,8.03718 C29.082826,7.74690281 33.1691142,9.19228811 36.2151431,12.0286074 C39.261172,14.8649266 40.993876,18.8379138 41,23 L41,33.33751 C40.9679111,36.9497681 42.9163049,40.2896064 46.07657,42.03951 C49.16913,43.70385 51,45.76806 51,48 Z" id="Shape" stroke-width="2"/><path d="M25.20752,12.02734 C25.4731733,12.00928 25.737,12.0001667 25.999,12 C32.0694861,12.0115923 36.9878558,16.9295149 37,23" id="Shape" stroke-width="2"/><path d="M17.22839,38.55078 C23.0530739,37.8164067 28.9469261,37.8164067 34.77161,38.55078" id="Shape"/><ellipse cx="26" cy="48.5" id="Oval" rx="21" ry="6.5"/><path d="M19.2,42.35 C19.0671209,42.8899373 18.9999676,43.4439522 19,44 C19,47.8659932 22.1340068,51 26,51 C29.8659932,51 33,47.8659932 33,44 C33.0000324,43.4439522 32.9328791,42.8899373 32.8,42.35" id="Shape"/><circle cx="26" cy="4" id="Oval" r="4" stroke-width="2"/><path d="M22.65,1.83 L22.64,1.83 C20.72,1.14 11.57,-1.87 8,1.76 C4.66,5.16 11.09,12.83 13.29,15.25" id="Shape" stroke-width="2"/><path d="M38.84314,15.25 C41.04314,12.83 47.47314,5.16 44.13314,1.76 C40.56314,-1.87 31.41314,1.14 29.49314,1.83 L29.48314,1.83" id="Shape" stroke-width="2"/><path d="M41,27.9 C41.768549,29.2285467 42.7059849,30.4519225 43.7889,31.53958 C44.4094464,32.1808984 45.1705569,32.6692119 46.01216,32.96598 C46.5408665,33.1363879 47.1088624,33.1421906 47.64094,32.98262 C48.3292389,32.6926864 48.9372922,32.2407358 49.41334,31.66524 C50.3242039,30.744901 51.0191917,29.6336692 51.44806,28.41188 C51.8373924,27.206013 52.0551002,25.9513587 52.09478,24.68482 C52.1325998,23.8733712 52.1108213,23.060241 52.02962,22.25198 C52.02087,22.16786 52.01145,22.08379 52,21.99998 C48.9175764,22.6293753 45.7113233,22.0145701 43.08035,20.28962 C42.0723874,19.6858855 41.1157207,19.0003739 40.22,18.24" id="Shape" stroke-width="2"/><path d="M11,28.08 C10.2598419,29.344234 9.35901084,30.5072472 8.32,31.54 C7.70212636,32.1838559 6.94172609,32.6736633 6.1,32.97 C5.57020482,33.1382504 5.00181964,33.1417375 4.47,32.98 C3.7837557,32.6911165 3.17678679,32.241891 2.7,31.67 C1.79046252,30.7450545 1.09419829,29.632397 0.66,28.41 C0.271903658,27.2030522 0.0564370946,25.9472861 0.02,24.68 C-0.0199908272,23.8696292 6.39756203e-05,23.0574097 0.08,22.25 C0.09,22.17 0.1,22.08 0.11,22 C3.19248946,22.6293408 6.39878599,22.0146808 9.03,20.29 C10.0316514,19.690011 10.9816004,19.0076533 11.87,18.25 C11.88,18.25 11.88,18.25 11.89,18.24" id="Shape" stroke-width="2"/><path d="M12.04521,4.045 C12.1013557,4.00109835 12.1616202,3.96273603 12.22516,3.93045 C13.1265483,3.58359682 14.0967884,3.45324842 15.05776,3.5499 C16.0515664,3.59644734 17.0377292,3.74730923 18,4 C18.2541,4.06352 18.72272,4.182 18.774,4.49979 C18.8187,4.77664 18.50569,5.01092 18.31265,5.14871 C17.3917757,5.73640652 16.3566701,6.12199605 15.27573,6.28 C14.2511189,6.58827578 13.1540343,6.55489646 12.15006,6.1849 C11.8416765,6.03356744 11.629437,5.73800404 11.58459,5.39743 C11.494695,4.89735594 11.6687719,4.3862471 12.04521,4.045 L12.04521,4.045 Z" id="Shape"/><path d="M39.97468,4.045 C39.9185181,4.00109613 39.8582368,3.96273377 39.79468,3.93045 C38.8932918,3.58359645 37.9230516,3.45324805 36.96208,3.5499 C35.9682903,3.59644935 34.9821442,3.74731124 34.01989,4 C33.76579,4.06352 33.29716,4.182 33.24589,4.49979 C33.2012,4.77664 33.5142,5.01092 33.70724,5.14871 C34.6281127,5.73640247 35.6632141,6.12199173 36.74415,6.28 C37.7687611,6.58827578 38.8658457,6.55489646 39.86982,6.1849 C40.1782035,6.03356744 40.390443,5.73800404 40.43529,5.39743 C40.5251895,4.89735756 40.351116,4.3862481 39.97468,4.045 L39.97468,4.045 Z" id="Shape"/></g></g></svg>