<?xml version="1.0" ?><svg id="Line" style="enable-background:new 0 0 128 128;" version="1.1" viewBox="0 0 128 128" xml:space="preserve" xmlns="http://www.w3.org/2000/svg" xmlns:xlink="http://www.w3.org/1999/xlink"><g><path d="M107.521,32.488c0.747-1.89,0.61-4.059-0.376-5.95c-1.374-2.634-2.97-3.862-4.253-4.85   c-0.964-0.742-1.66-1.278-2.048-2.262c-0.517-1.075-0.256-2.367,0.073-4.002c0.303-1.502,0.646-3.204,0.446-5.155   c-0.164-1.594-1.017-2.923-2.466-3.844C96.296,4.772,92,4.62,87.953,6.039C84.021,7.418,74.491,17.2,67,25.384v-3.022   c3.566-1.538,6-5.679,6-10.362c0-6.065-4.037-11-9-11s-9,4.935-9,11c0,4.683,2.434,8.824,6,10.362v3.022   C53.509,17.2,43.979,7.418,40.047,6.039C36,4.621,31.704,4.773,29.102,6.424c-1.449,0.92-2.302,2.25-2.466,3.844   c-0.2,1.951,0.144,3.653,0.446,5.155c0.329,1.635,0.59,2.927,0.043,4.071c-0.357,0.916-1.054,1.452-2.018,2.193   c-1.283,0.988-2.879,2.216-4.253,4.85c-0.986,1.892-1.123,4.06-0.376,5.95c0.579,1.464,1.97,3.428,5.207,4.696   c-0.167,0.258-0.365,0.527-0.579,0.815C24.168,39.266,23,40.843,23,43.468c0,1.792,1.107,3.705,2.89,4.992   c1.405,1.015,3.064,1.536,4.785,1.536c0.931,0,1.879-0.153,2.814-0.462c1.645-0.544,4.44-1.548,7.678-2.736   c-1.354,3.137-2.412,6.839-3.151,11.029l-0.263,1.508c-0.634-0.149-1.001-0.24-1.025-0.246c-1.606-0.4-3.236,0.579-3.638,2.184   s0.578,3.236,2.183,3.638c0.109,0.027,0.626,0.155,1.458,0.348c-1.519,8.794-2.685,14.67-4.962,19.2   c-0.41-0.149-0.639-0.238-0.657-0.245c-1.537-0.612-3.283,0.139-3.897,1.673c-0.52,1.299-0.055,2.743,1.027,3.532   c-0.288,0.285-0.586,0.559-0.893,0.822c-6.601,5.658-6.475,12.926-6.373,18.766C20.988,109.691,21,110.357,21,111   c0,6.23,16.102,9.895,34.244,10.785C56.986,124.961,60.357,127,64,127c3.644,0,7.013-2.039,8.756-5.215   C90.897,120.895,107,117.23,107,111c0-0.643,0.012-1.309,0.023-1.993c0.102-5.84,0.228-13.108-6.373-18.766   c-0.306-0.263-0.604-0.538-0.892-0.822c1.082-0.788,1.546-2.233,1.027-3.531c-0.614-1.535-2.362-2.284-3.898-1.673   c-0.017,0.007-0.246,0.096-0.656,0.245c-2.28-4.551-3.485-10.657-4.961-19.2c0.833-0.193,1.35-0.321,1.459-0.348   c1.604-0.401,2.583-2.033,2.182-3.638c0,0,0,0,0-0.001c-0.402-1.604-2.037-2.583-3.64-2.182c-0.023,0.006-0.389,0.097-1.022,0.245   l-0.264-1.509c-0.738-4.186-1.795-7.885-3.152-11.028c3.237,1.188,6.033,2.191,7.678,2.736c0.936,0.31,1.884,0.462,2.814,0.462   c1.72,0,3.38-0.521,4.785-1.536c1.782-1.288,2.89-3.201,2.89-4.992c0-2.625-1.168-4.202-2.106-5.468   c-0.214-0.289-0.412-0.558-0.579-0.815C105.552,35.916,106.943,33.952,107.521,32.488z M71,34c0,3.86-3.141,7-7,7s-7-3.14-7-7   s3.141-7,7-7S71,30.14,71,34z M57,12c0-4.962,3.141-9,7-9s7,4.038,7,9c0,4.123-2.183,7.708-5.308,8.719   C65.279,20.853,65,21.237,65,21.671v3.388C64.671,25.022,64.338,25,64,25c-0.338,0-0.671,0.022-1,0.059v-3.388   c0-0.434-0.279-0.818-0.692-0.952C59.183,19.708,57,16.123,57,12z M22.339,31.752c-0.534-1.35-0.429-2.914,0.289-4.29   c1.17-2.243,2.514-3.277,3.699-4.19c1.08-0.832,2.101-1.617,2.631-2.981c0.807-1.679,0.456-3.42,0.084-5.264   c-0.288-1.429-0.586-2.906-0.416-4.556c0.1-0.977,0.62-1.771,1.548-2.359c2.072-1.316,5.775-1.391,9.211-0.186   c2.672,0.937,10.056,7.823,19.826,18.467c-0.96,0.606-1.795,1.388-2.465,2.301c-5.114-4.216-11.806-8.803-16.156-8.214   c-1.363,0.188-2.438,0.846-3.194,1.956c-1.078,1.583-1.175,3.396-0.271,5.103c1.026,1.94,3.266,3.46,5.098,3.46   c0.553,0,1-0.448,1-1s-0.447-1-1-1c-0.976,0-2.583-0.984-3.33-2.396c-0.555-1.05-0.503-2.073,0.156-3.042   c0.431-0.632,1.024-0.992,1.814-1.101c2.921-0.405,8.188,2.438,14.868,7.99C55.262,31.542,55,32.74,55,34   c0,0.179,0.017,0.354,0.027,0.531c-15.265,1.542-25.537,1.893-28.226,0.95C24.531,34.685,22.988,33.396,22.339,31.752z    M32.86,47.635c-2.8,0.927-4.836-0.101-5.799-0.796C25.81,45.934,25,44.611,25,43.468c0-1.965,0.871-3.141,1.713-4.278   c0.363-0.49,0.707-0.964,0.973-1.477c1.334,0.197,3.119,0.285,5.224,0.285c6.13,0,14.874-0.722,22.453-1.49   c0.254,0.873,0.634,1.692,1.124,2.435C49.03,41.759,37.094,46.234,32.86,47.635z M64,125c-2.483,0-4.806-1.19-6.305-3.111   C59.785,121.962,61.894,122,64,122c2.107,0,4.215-0.038,6.306-0.111C68.806,123.81,66.485,125,64,125z M64,120   c-24.525,0-41-4.654-41-9c0-0.429-0.009-0.881-0.015-1.329c13.526,4.181,27.4,6.291,41.536,6.291   c13.295,0,26.821-1.867,40.487-5.567c-0.002,0.199-0.007,0.41-0.007,0.605C105,115.346,88.525,120,64,120z M105.034,108.32   c-28.239,7.748-55.844,7.497-82.077-0.744c-0.047-4.34,0.18-9.002,3.162-13.087c5.102,2.94,16.339,7.366,37.887,7.501   c21.537-0.136,32.773-4.561,37.875-7.501C105.035,98.809,105.107,103.774,105.034,108.32z M100.576,92.932   c-5.042,2.826-15.903,6.928-36.57,7.059c-20.678-0.13-31.54-4.233-36.582-7.059c0.38-0.398,0.78-0.79,1.226-1.173   c0.541-0.464,1.049-0.968,1.535-1.489C34.307,91.742,47.649,96,64,96c16.35,0,29.693-4.258,33.815-5.73   c0.486,0.522,0.994,1.026,1.535,1.489C99.795,92.141,100.196,92.534,100.576,92.932z M97.628,86.071   c0.513-0.202,1.096,0.046,1.3,0.558v0c0.205,0.511-0.045,1.094-0.556,1.298C97.752,88.176,82.963,94,64,94   s-33.752-5.824-34.371-6.071c-0.512-0.205-0.762-0.788-0.557-1.299C29.229,86.239,29.605,86,30.003,86   c0.122,0,0.247,0.023,0.368,0.071C30.519,86.13,45.408,92,64,92S97.481,86.13,97.628,86.071z M94.321,85.114   C89.349,86.74,77.677,90,64,90c-13.675,0-25.345-3.259-30.319-4.885c2.308-4.713,3.487-10.651,5.003-19.417   c1.103,0.241,2.428,0.519,3.919,0.811c-0.479,2.77-0.988,5.646-1.544,8.285c-0.114,0.541,0.232,1.071,0.772,1.185   C41.9,75.993,41.97,76,42.038,76c0.463,0,0.879-0.323,0.978-0.794c0.56-2.66,1.072-5.546,1.552-8.324   C50.251,67.929,57.621,69,64,69c8.958,0,19.874-2.112,25.316-3.302C90.789,74.217,92.008,80.373,94.321,85.114z M91.757,61.03   c0.532-0.134,1.079,0.193,1.214,0.729c0.133,0.535-0.193,1.078-0.728,1.212C91.584,63.135,75.963,67,64,67   s-27.584-3.865-28.242-4.03c-0.535-0.134-0.861-0.678-0.729-1.212C35.144,61.304,35.553,61,36.001,61c0.079,0,0.16,0.01,0.24,0.03   C36.399,61.069,52.163,65,64,65S91.601,61.069,91.757,61.03z M84.444,46.378c1.559,3.23,2.76,7.199,3.571,11.795l0.28,1.604   C83.198,60.899,72.518,63,64,63c-5.963,0-12.985-1.03-18.412-2.033c0.101-0.579,0.201-1.154,0.306-1.751   c0.764-4.327,1.892-7.945,3.353-10.755c0.254-0.49,0.063-1.094-0.427-1.348c-0.492-0.255-1.093-0.064-1.349,0.426   c-1.554,2.99-2.747,6.802-3.546,11.329c-0.105,0.587-0.203,1.154-0.302,1.725c-1.509-0.297-2.838-0.577-3.918-0.815l0.28-1.604   c0.812-4.603,2.016-8.575,3.598-11.853l0.207-0.489c4.829-1.786,10.162-3.792,14.072-5.27C59.47,42.069,61.626,43,64,43   c2.374,0,4.53-0.931,6.14-2.438c3.896,1.472,9.207,3.47,14.023,5.252L84.444,46.378z M103,43.468c0,1.143-0.81,2.466-2.062,3.371   c-0.962,0.695-2.999,1.722-5.799,0.796c-4.234-1.401-16.169-5.876-23.627-8.692c0.49-0.742,0.87-1.561,1.124-2.435   c7.579,0.769,16.322,1.49,22.452,1.49c2.105,0,3.891-0.088,5.225-0.285c0.267,0.513,0.61,0.987,0.973,1.477   C102.129,40.327,103,41.503,103,43.468z M101.199,35.481c-2.689,0.943-12.962,0.592-28.226-0.95C72.983,34.354,73,34.179,73,34   c0-1.206-0.242-2.356-0.675-3.409c6.664-5.562,12.127-8.53,15.03-8.129c0.804,0.11,1.381,0.459,1.818,1.101   c0.659,0.968,0.711,1.992,0.156,3.042C88.583,28.016,86.976,29,86,29c-0.553,0-1,0.448-1,1s0.447,1,1,1   c1.832,0,4.071-1.52,5.098-3.46c0.903-1.708,0.807-3.52-0.271-5.103c-0.758-1.112-1.834-1.771-3.201-1.957   c-4.375-0.597-11.123,4.053-16.287,8.328c-0.683-0.963-1.55-1.783-2.55-2.415c9.77-10.644,17.154-17.53,19.826-18.467   c3.437-1.204,7.139-1.129,9.211,0.186c0.928,0.589,1.448,1.382,1.548,2.359c0.17,1.649-0.128,3.127-0.416,4.556   c-0.372,1.844-0.723,3.585,0.054,5.195c0.561,1.433,1.581,2.218,2.661,3.05c1.186,0.913,2.529,1.947,3.699,4.19   c0.718,1.376,0.823,2.94,0.289,4.29C105.012,33.396,103.469,34.685,101.199,35.481z"/><path d="M69,12c0-3.86-2.243-7-5-7s-5,3.14-5,7s2.243,7,5,7S69,15.86,69,12z M61,12c0-2.862,1.584-5,3-5s3,2.138,3,5s-1.584,5-3,5   S61,14.862,61,12z"/><path d="M41.358,78.031c-0.526-0.135-1.079,0.185-1.217,0.72c-0.265,1.031-0.546,2.023-0.836,2.949   c-0.165,0.527,0.128,1.088,0.655,1.253c0.1,0.031,0.2,0.046,0.299,0.046c0.426,0,0.82-0.274,0.954-0.701   c0.301-0.959,0.592-1.986,0.865-3.051C42.216,78.713,41.894,78.168,41.358,78.031z"/></g></svg>