<?xml version="1.0" ?><svg viewBox="0 0 24 24" xmlns="http://www.w3.org/2000/svg" xmlns:xlink="http://www.w3.org/1999/xlink"><defs><linearGradient gradientUnits="userSpaceOnUse" id="a" x1="3.99922" x2="20.00078" y1="1.19664" y2="17.1982"><stop offset="0" stop-color="#fff" stop-opacity="0"/><stop offset="1" stop-color="#fff" stop-opacity="0.1"/></linearGradient></defs><title/><path d="M22.93359,8.25146A.49826.49826,0,0,0,22.5,8h-.00293c-.21387.0014-4.998.072-7.196,2.91382a4.09494,4.09494,0,0,0-.797-.45349l.43054-2.08924C16.02832,7.94336,20,6.2041,20,3.5,20,.51123,18.85156.07227,18.62109.01514a.51167.51167,0,0,0-.626.35742.48134.48134,0,0,0,.34375.6001C18.3457.97559,19,1.30078,19,3.5a2.68684,2.68684,0,0,1-.94336,1.83075,7.01677,7.01677,0,0,0-1.14258-3.111.49986.49986,0,0,0-.82812.56006c.44824.66552,1.40332,2.50439.77051,3.44091A2.37172,2.37172,0,0,1,15.2627,5.5C13.9668,4.18115,13.999,1.53613,14,1.50928a.49991.49991,0,0,0-.49023-.50879H13.5a.50014.50014,0,0,0-.5.48974c-.002.125-.043,3.08643,1.5459,4.70752a3.35852,3.35852,0,0,0,1.11572.75873,12.131,12.131,0,0,1-1.32666.57184.50158.50158,0,0,0-.32519.37109l-.46454,2.25837a7.64555,7.64555,0,0,0-3.09046,0L9.99023,7.89941A.50228.50228,0,0,0,9.665,7.52783,12.08729,12.08729,0,0,1,8.33746,6.957,3.35909,3.35909,0,0,0,9.4541,6.19775C11.043,4.57666,11.002,1.61523,11,1.49023A.52252.52252,0,0,0,10.49023,1,.50011.50011,0,0,0,10,1.50977c.001.02685.03809,2.66357-1.26074,3.98828a2.374,2.374,0,0,1-1.59571.72265c-.63281-.93652.32227-2.77539.77051-3.44091a.49986.49986,0,0,0-.82812-.56006A7.01488,7.01488,0,0,0,5.94336,5.33282,2.68886,2.68886,0,0,1,5,3.5C5,1.33057,5.63672.98486,5.62207.98486A.49987.49987,0,0,0,5.37891.01514C5.14844.07227,4,.51123,4,3.5,4,6.2041,7.97168,7.94336,9.06543,8.37109L9.496,10.46033a4.09669,4.09669,0,0,0-.78833.44769C6.50916,8.06384,1.7168,8.00092,1.50195,8H1.5a.50008.50008,0,0,0-.42676.76074c.12329.20154,2.89057,4.67127,6.00061,5.18707A7.83185,7.83185,0,0,0,7,15a13.03431,13.03431,0,0,0,1.02734,5.16406c.86621,2.48828,2.11524,3.1211,2.667,3.28125A1.63234,1.63234,0,0,0,12,24a1.63234,1.63234,0,0,0,1.30566-.55469c.55176-.16015,1.80079-.793,2.667-3.28125A13.03431,13.03431,0,0,0,17,15a7.94986,7.94986,0,0,0-.06146-.96106c3.11438-.519,5.86865-5.07727,5.99115-5.28308A.501.501,0,0,0,22.93359,8.25146Z"/><path d="M15.02734,19.83594C14.168,22.30713,12.958,22.50146,12.958,22.502a.46417.46417,0,0,0-.41016.28565C12.53613,22.80908,12.41992,23,12,23s-.53613-.19092-.53809-.19189a.52452.52452,0,0,0-.40722-.30518c-.0127-.00147-1.22266-.1958-2.082-2.667A12.08471,12.08471,0,0,1,8,15c0-2.69141,1.30859-4,4-4s4,1.30859,4,4A12.08471,12.08471,0,0,1,15.02734,19.83594Z" fill="#93450e"/><circle cx="10" cy="15.5" r="0.5"/><path d="M12.0957,20.46191c-.0332.01416-.083.03565-.08886.03858a.69375.69375,0,0,1-.10254-.03858.653.653,0,0,0-.64551.00684A.59571.59571,0,0,0,11,21a1,1,0,0,0,2,0,.59571.59571,0,0,0-.25879-.53125A.65318.65318,0,0,0,12.0957,20.46191Z" fill="#e83628"/><path d="M2.49219,9.07275c1.46448.16767,4.15063.73456,5.47766,2.54474a4.205,4.205,0,0,0-.69208,1.35443C5.34979,12.69452,3.41907,10.35571,2.49219,9.07275Z" fill="#93450e"/><path d="M7.9018,11.71187a6.28249,6.28249,0,0,0-3.507-1.40347,7.62348,7.62348,0,0,0,2.89946,2.61642A6.03233,6.03233,0,0,1,7.9018,11.71187Z" opacity="0.2"/><circle cx="14" cy="15.5" r="0.5"/><path d="M16.73227,12.94958a4.205,4.205,0,0,0-.69208-1.35443c1.327-1.81018,4.01319-2.37707,5.47766-2.54473C20.591,10.33337,18.66025,12.67218,16.73227,12.94958Z" fill="#93450e"/><path d="M16.10824,11.68954a6.28244,6.28244,0,0,1,3.507-1.40348,7.62348,7.62348,0,0,1-2.89946,2.61642A6.03224,6.03224,0,0,0,16.10824,11.68954Z" opacity="0.2"/><circle cx="11.58044" cy="20.83892" fill="#fff" opacity="0.2" r="0.27828"/><path d="M22.93359,8.25146A.49826.49826,0,0,0,22.5,8h-.00293c-.21387.0014-4.998.072-7.196,2.91382a4.09494,4.09494,0,0,0-.797-.45349l.43054-2.08924C16.02832,7.94336,20,6.2041,20,3.5,20,.51123,18.85156.07227,18.62109.01514a.51167.51167,0,0,0-.626.35742.48134.48134,0,0,0,.34375.6001C18.3457.97559,19,1.30078,19,3.5a2.68684,2.68684,0,0,1-.94336,1.83075,7.01677,7.01677,0,0,0-1.14258-3.111.49986.49986,0,0,0-.82812.56006c.44824.66552,1.40332,2.50439.77051,3.44091A2.37172,2.37172,0,0,1,15.2627,5.5C13.9668,4.18115,13.999,1.53613,14,1.50928a.49991.49991,0,0,0-.49023-.50879H13.5a.50014.50014,0,0,0-.5.48974c-.002.125-.043,3.08643,1.5459,4.70752a3.35852,3.35852,0,0,0,1.11572.75873,12.131,12.131,0,0,1-1.32666.57184.50158.50158,0,0,0-.32519.37109l-.46454,2.25837a7.64555,7.64555,0,0,0-3.09046,0L9.99023,7.89941A.50228.50228,0,0,0,9.665,7.52783,12.08729,12.08729,0,0,1,8.33746,6.957,3.35909,3.35909,0,0,0,9.4541,6.19775C11.043,4.57666,11.002,1.61523,11,1.49023A.52252.52252,0,0,0,10.49023,1,.50011.50011,0,0,0,10,1.50977c.001.02685.03809,2.66357-1.26074,3.98828a2.374,2.374,0,0,1-1.59571.72265c-.63281-.93652.32227-2.77539.77051-3.44091a.49986.49986,0,0,0-.82812-.56006A7.01488,7.01488,0,0,0,5.94336,5.33282,2.68886,2.68886,0,0,1,5,3.5C5,1.33057,5.63672.98486,5.62207.98486A.49987.49987,0,0,0,5.37891.01514C5.14844.07227,4,.51123,4,3.5,4,6.2041,7.97168,7.94336,9.06543,8.37109L9.496,10.46033a4.09669,4.09669,0,0,0-.78833.44769C6.50916,8.06384,1.7168,8.00092,1.50195,8H1.5a.50008.50008,0,0,0-.42676.76074c.12329.20154,2.89057,4.67127,6.00061,5.18707A7.83185,7.83185,0,0,0,7,15a13.03431,13.03431,0,0,0,1.02734,5.16406c.86621,2.48828,2.11524,3.1211,2.667,3.28125A1.63234,1.63234,0,0,0,12,24a1.63234,1.63234,0,0,0,1.30566-.55469c.55176-.16015,1.80079-.793,2.667-3.28125A13.03431,13.03431,0,0,0,17,15a7.94986,7.94986,0,0,0-.06146-.96106c3.11438-.519,5.86865-5.07727,5.99115-5.28308A.501.501,0,0,0,22.93359,8.25146Z" fill="url(#a)"/></svg>