<?xml version="1.0" ?><svg viewBox="0 0 64 64" xmlns="http://www.w3.org/2000/svg"><defs><style>.cls-1{fill:#0072ff;}</style></defs><title/><g data-name="Layer 2" id="Layer_2"><path class="cls-1" d="M31.13,26.5l-3.46,2A1.73,1.73,0,0,0,26.8,30v4a1.73,1.73,0,0,0,.87,1.5l3.46,2a1.73,1.73,0,0,0,1.73,0l3.46-2A1.73,1.73,0,0,0,37.2,34V30a1.73,1.73,0,0,0-.87-1.5l-3.46-2A1.73,1.73,0,0,0,31.13,26.5Z"/><path class="cls-1" d="M57.23,34.77A2,2,0,0,0,54.5,34L47,38.36l-1.76-1V26.65l1.75-1L54.5,30a2,2,0,1,0,2-3.46L51,23.33l4.51-2.6a2,2,0,1,0-2-3.46L49,19.87V13.54a2,2,0,1,0-4,0v8.64l-1.76,1L34,17.85v-2l7.49-4.32a2,2,0,1,0-2-3.46L34,11.2V6a2,2,0,0,0-4,0v5.2L24.52,8a2,2,0,1,0-2,3.46L30,15.82v2l-9.26,5.35-1.75-1V13.54a2,2,0,1,0-4,0v6.33l-4.51-2.6a2,2,0,1,0-2,3.46l4.5,2.6L7.51,26.5a2,2,0,1,0,2,3.46L17,25.64l1.75,1V37.35l-1.75,1L9.51,34a2,2,0,1,0-2,3.46L13,40.67l-4.51,2.6a2,2,0,1,0,2,3.46l4.5-2.6v6.33a2,2,0,0,0,4,0V41.82l1.75-1L30,46.16v2L22.52,52.5a2,2,0,1,0,2,3.46L30,52.8V58a2,2,0,0,0,4,0V52.8L39.49,56a2,2,0,1,0,2-3.46L34,48.18v-2l9.26-5.34,1.75,1v8.64a2,2,0,0,0,4,0V44.13l4.51,2.6a2,2,0,1,0,2-3.46L51,40.67,56.5,37.5A2,2,0,0,0,57.23,34.77Zm-16,2.58L32,42.69l-9.26-5.35V26.65L32,21.31l9.26,5.35Z"/></g></svg>