<?xml version="1.0" ?><svg id="Layer_1" style="enable-background:new 0 0 24 24;" version="1.1" viewBox="0 0 24 24" xml:space="preserve" xmlns="http://www.w3.org/2000/svg" xmlns:xlink="http://www.w3.org/1999/xlink"><title/><g id="Ornament_1"><g><g><path d="M3,7.18c1,0.71,1.64,0.31,2.7,1.38     s0.52,1.91,1.74,3.12s1.91,0.52,3.12,1.73s0.52,1.91,1.73,3.12s1.91,0.52,3.12,1.73S16.12,20,16.82,21" style="fill:none;stroke:#303C42;stroke-linecap:round;stroke-linejoin:round;"/><path d="M20,17.71     c-1.06-0.94-1.73-0.41-2.84-1.53s-0.5-1.84-1.68-3s-1.84-0.5-3-1.67s-0.5-1.84-1.67-3S9,8,7.81,6.81S7.23,5,6.29,4" style="fill:none;stroke:#303C42;stroke-linecap:round;stroke-linejoin:round;"/></g><circle cx="11.5" cy="12.5" r="10" style="fill:none;stroke:#303C42;stroke-linecap:round;stroke-linejoin:round;"/><ellipse cx="13.996" cy="14.997" rx="0.5" ry="0.5" style="fill:none;stroke:#303C42;stroke-linecap:round;stroke-linejoin:round;" transform="matrix(0.7071 -0.7071 0.7071 0.7071 -6.5052 14.2893)"/><ellipse cx="8.995" cy="9.997" rx="0.5" ry="0.5" style="fill:none;stroke:#303C42;stroke-linecap:round;stroke-linejoin:round;" transform="matrix(0.7071 -0.7071 0.7071 0.7071 -4.4344 9.2885)"/><ellipse cx="4.998" cy="5.997" rx="0.5" ry="0.5" style="fill:none;stroke:#303C42;stroke-linecap:round;stroke-linejoin:round;" transform="matrix(0.7071 -0.7071 0.7071 0.7071 -2.7767 5.2908)"/><ellipse cx="18.003" cy="18.997" rx="0.5" ry="0.5" style="fill:none;stroke:#303C42;stroke-linecap:round;stroke-linejoin:round;" transform="matrix(0.7071 -0.7071 0.7071 0.7071 -8.16 18.2941)"/><path d="M20.87,3.92    c0.122,0.047,0.25,0.074,0.38,0.08c0.69,0,1.25-0.56,1.25-1.25S21.94,1.5,21.25,1.5S20,2.06,20,2.75    c0.006,0.13,0.033,0.258,0.08,0.38" style="fill:none;stroke:#303C42;stroke-linecap:round;stroke-linejoin:round;"/><path d="M20.47,8.1l2-2    c-1.113-1.883-2.672-3.463-4.54-4.6l-2,2" style="fill:none;stroke:#303C42;stroke-linecap:round;stroke-linejoin:round;"/></g></g></svg>