<?xml version="1.0" ?><svg height="60px" version="1.1" viewBox="0 0 60 60" width="60px" xmlns="http://www.w3.org/2000/svg" xmlns:xlink="http://www.w3.org/1999/xlink"><title/><desc/><defs/><g fill="none" fill-rule="evenodd" id="Page-1" stroke="none" stroke-width="1"><g id="023---Icicle" transform="translate(1.000000, 1.000000)"><g id="Colour" transform="translate(15.000000, 15.000000)"><polygon fill="#00C6DB" id="Shape" points="22 14 28 20 20 20 20 28 14 22 8 28 8 20 0 20 6 14 0 8 8 8 8 0 14 6 20 0 20 8 28 8"/><circle cx="14" cy="14" fill="#00939F" fill-rule="nonzero" id="Oval" r="4"/></g><g id="Outline" stroke="#000000" stroke-linecap="round" stroke-linejoin="round"><polyline id="Shape" points="29 25 29 21 29 10 29 5 29 0" stroke-width="2"/><polyline id="Shape" points="25 1 29 5 33 1" stroke-width="2"/><polyline id="Shape" points="25 6 29 10 33 6"/><polyline id="Shape" points="29 33 29 37 29 48 29 53 29 58" stroke-width="2"/><polyline id="Shape" points="25 57 29 53 33 57" stroke-width="2"/><polyline id="Shape" points="25 52 29 48 33 52"/><polyline id="Shape" points="26.17 26.17 23 23 15.56 15.56 12.03 12.03 8.49 8.49"/><polyline id="Shape" points="6.373 12.029 12.029 12.029 12.029 6.373"/><polyline id="Shape" points="9.908 15.565 15.565 15.565 15.565 9.908"/><polyline id="Shape" points="31.83 31.83 35 35 42.44 42.44 45.97 45.97 49.51 49.51"/><polyline id="Shape" points="45.971 51.627 45.971 45.971 51.627 45.971"/><polyline id="Shape" points="42.435 48.092 42.435 42.435 48.092 42.435"/><polyline id="Shape" points="25 29 21 29 10 29 5 29 0 29" stroke-width="2"/><polyline id="Shape" points="1 33 5 29 1 25" stroke-width="2"/><polyline id="Shape" points="6 33 10 29 6 25"/><polyline id="Shape" points="33 29 37 29 48 29 53 29 58 29" stroke-width="2"/><polyline id="Shape" points="57 33 53 29 57 25" stroke-width="2"/><polyline id="Shape" points="52 33 48 29 52 25"/><polyline id="Shape" points="26.17 31.83 23 35 15.56 42.44 12.03 45.97 8.49 49.51"/><polyline id="Shape" points="12.029 51.627 12.029 45.971 6.373 45.971"/><polyline id="Shape" points="15.565 48.092 15.565 42.435 9.908 42.435"/><polyline id="Shape" points="31.83 26.17 35 23 42.44 15.56 45.97 12.03 49.51 8.49"/><polyline id="Shape" points="51.627 12.029 45.971 12.029 45.971 6.373"/><polyline id="Shape" points="48.092 15.565 42.435 15.565 42.435 9.908"/><polyline id="Shape" points="29 21 35 15 35 23" stroke-width="2"/><polyline id="Shape" points="29 21 23 15 23 23" stroke-width="2"/><polyline id="Shape" points="29 37 23 43 23 35" stroke-width="2"/><polyline id="Shape" points="29 37 35 43 35 35" stroke-width="2"/><polyline id="Shape" points="21 29 15 23 23 23" stroke-width="2"/><polyline id="Shape" points="21 29 15 35 23 35" stroke-width="2"/><polyline id="Shape" points="37 29 43 23 35 23" stroke-width="2"/><polyline id="Shape" points="37 29 43 35 35 35" stroke-width="2"/><circle cx="29" cy="29" id="Oval" r="4" stroke-width="2"/></g></g></g></svg>