<?xml version="1.0" ?><svg viewBox="0 0 24 24" xmlns="http://www.w3.org/2000/svg" xmlns:xlink="http://www.w3.org/1999/xlink"><defs><linearGradient gradientUnits="userSpaceOnUse" id="a" x1="4.66436" x2="19.33564" y1="6.12852" y2="20.7998"><stop offset="0" stop-color="#fff" stop-opacity="0"/><stop offset="1" stop-color="#fff" stop-opacity="0.1"/></linearGradient></defs><title/><path d="M20.91309,13a1,1,0,1,0,0,2c.01019,0,.01867-.00555.0288-.00586a8.94291,8.94291,0,0,1-.14581.89789,2.84858,2.84858,0,0,1-.60956-.31488,3.24962,3.24962,0,0,0-3.69824.00049,2.25855,2.25855,0,0,1-2.63086-.00049A3.05829,3.05829,0,0,0,12.00879,15a3.05928,3.05928,0,0,0-1.84961.57715A2.10442,2.10442,0,0,1,8.84277,16a2.11138,2.11138,0,0,1-1.31933-.42285A3.06932,3.06932,0,0,0,5.6709,15a3.06835,3.06835,0,0,0-1.85156.57715,2.859,2.859,0,0,1-.61524.31561,8.95165,8.95165,0,0,1-.14581-.89715c.00769.00018.0141.00439.02179.00439a1,1,0,0,0,0-2c-.00769,0-.0141.00421-.02179.00439a8.937,8.937,0,0,1,.14563-.89642,2.84858,2.84858,0,0,1,.60956.31488A3.05733,3.05733,0,0,0,5.66113,13a3.06155,3.06155,0,0,0,1.85059-.57764A2.09917,2.09917,0,0,1,8.82617,12a2.10444,2.10444,0,0,1,1.31641.42285A3.05829,3.05829,0,0,0,11.99121,13a3.05928,3.05928,0,0,0,1.84961-.57715,2.26508,2.26508,0,0,1,2.63574,0,3.26015,3.26015,0,0,0,3.7041,0,2.859,2.859,0,0,1,.61524-.31561,8.94373,8.94373,0,0,1,.146.89862C20.93176,13.00555,20.92328,13,20.91309,13Z" fill="#3d5afe"/><polygon points="21 14 21 14 20.913 14 20.913 14 21 14 21 14"/><path d="M16,4.84082V3a.49945.49945,0,0,0-.3418-.47412,11.80768,11.80768,0,0,0-2.27374-.45056,1.5,1.5,0,1,0-2.76892,0,11.80768,11.80768,0,0,0-2.27374.45056A.49945.49945,0,0,0,8,3V4.84082a10,10,0,1,0,8,0ZM12,2a.5.5,0,1,1,.5-.5A.50065.50065,0,0,1,12,2Z"/><path d="M20.91309,13c-.55176,0-.55176,2,0,2,.01019,0,.01867-.00555.0288-.00586a8.94291,8.94291,0,0,1-.14581.89789,2.84858,2.84858,0,0,1-.60956-.31488,3.24962,3.24962,0,0,0-3.69824.00049,2.25855,2.25855,0,0,1-2.63086-.00049A3.05829,3.05829,0,0,0,12.00879,15a3.05928,3.05928,0,0,0-1.84961.57715A2.10442,2.10442,0,0,1,8.84277,16a2.11138,2.11138,0,0,1-1.31933-.42285A3.06932,3.06932,0,0,0,5.6709,15a3.06835,3.06835,0,0,0-1.85156.57715,2.859,2.859,0,0,1-.61524.31561,8.95165,8.95165,0,0,1-.14581-.89715c.00769.00018.0141.00439.02179.00439.55176,0,.55176-2,0-2-.00769,0-.0141.00421-.02179.00439a8.937,8.937,0,0,1,.14563-.89642,2.84858,2.84858,0,0,1,.60956.31488A3.05733,3.05733,0,0,0,5.66113,13a3.06155,3.06155,0,0,0,1.85059-.57764A2.09917,2.09917,0,0,1,8.82617,12a2.10444,2.10444,0,0,1,1.31641.42285A3.05829,3.05829,0,0,0,11.99121,13a3.05928,3.05928,0,0,0,1.84961-.57715,2.26508,2.26508,0,0,1,2.63574,0,3.26015,3.26015,0,0,0,3.7041,0,2.859,2.859,0,0,1,.61524-.31561,8.94373,8.94373,0,0,1,.146.89862C20.93176,13.00555,20.92328,13,20.91309,13Z" fill="#3d5afe"/><polygon points="3 14 3 14 3.08 14 3.08 14 3 14 3 14"/><path d="M9,3.37744a12.11114,12.11114,0,0,1,6,0v1.0838a9.98693,9.98693,0,0,0-6,0Z" fill="#e3f2fd"/><path d="M9,4.46124a9.99726,9.99726,0,0,1,1-.25232V3.37744A5.69449,5.69449,0,0,1,12,3a12.34787,12.34787,0,0,0-3,.37744Z" fill="#fff" opacity="0.2"/><path d="M12,3a5.69449,5.69449,0,0,1,2,.37744v.83148a9.99726,9.99726,0,0,1,1,.25232V3.37744A12.34787,12.34787,0,0,0,12,3Z" opacity="0.2"/><path d="M12,5a9.01022,9.01022,0,0,1,8.52887,6.14709,3.72093,3.72093,0,0,0-.88141.43006,2.26813,2.26813,0,0,1-2.63769,0,3.257,3.257,0,0,0-3.70215,0,2.25855,2.25855,0,0,1-2.63086.00049A3.06155,3.06155,0,0,0,8.82617,11a3.05829,3.05829,0,0,0-1.84863.57715A2.10442,2.10442,0,0,1,5.66113,12a2.09525,2.09525,0,0,1-1.3125-.42236,3.70379,3.70379,0,0,0-.87768-.43A9.01017,9.01017,0,0,1,12,5Z" fill="#03a9f4"/><path d="M12,23a9.01022,9.01022,0,0,1-8.52887-6.14709,3.72132,3.72132,0,0,0,.88141-.43006A2.11048,2.11048,0,0,1,5.6709,16a2.11136,2.11136,0,0,1,1.31933.42285A3.06934,3.06934,0,0,0,8.84277,17a3.05925,3.05925,0,0,0,1.84961-.57715,2.25855,2.25855,0,0,1,2.63086-.00049,3.25119,3.25119,0,0,0,3.69922.00049,2.25552,2.25552,0,0,1,2.62891-.00049,3.70379,3.70379,0,0,0,.87768.43A9.01017,9.01017,0,0,1,12,23Z" fill="#03a9f4"/><path d="M19.64746,11.57715a3.72093,3.72093,0,0,1,.88141-.43006A9.05025,9.05025,0,0,0,17.276,6.718a8.94528,8.94528,0,0,1,1.71912,5.18481A2.75219,2.75219,0,0,0,19.64746,11.57715Z" opacity="0.2"/><path d="M10,21a8.94754,8.94754,0,0,1-5.27307-1.71735,8.98338,8.98338,0,0,0,15.80212-2.43029,3.70379,3.70379,0,0,1-.87768-.43A2.09525,2.09525,0,0,0,18.33887,16a2.455,2.455,0,0,0-.29645.02289A8.99179,8.99179,0,0,1,10,21Z" opacity="0.2"/><path d="M15.26953,13a1,1,0,1,0,1,1A1.001,1.001,0,0,0,15.26953,13Zm0,1v-.001l.5.001Z" fill="#e3f2fd"/><path d="M8.72363,13a1,1,0,1,0,1,1A1.001,1.001,0,0,0,8.72363,13Zm0,1.001-.5-.001h.5Z" fill="#e3f2fd"/><path d="M3.5,14.00049H3a9.06438,9.06438,0,0,0,.057.98846.98959.98959,0,0,0-.00013-1.977A9.06545,9.06545,0,0,0,3,13.99951Z" fill="#e3f2fd"/><path d="M19.91309,14.00049a1.001,1.001,0,0,0,1,1c.01031,0,.01886-.00562.02911-.00592a8.59059,8.59059,0,0,0,.00018-1.98816c-.01031-.00031-.01892-.00592-.02929-.00592A1.001,1.001,0,0,0,19.91309,14.00049Z" fill="#e3f2fd"/><path d="M21,14c.20776-.22506-.14075-1.59814-.2041-1.89276a2.859,2.859,0,0,0-.61524.31561,3.19615,3.19615,0,0,1-1.23138.52533,8.92969,8.92969,0,0,1-.47644,2.063,3.1007,3.1007,0,0,1,1.71368.56592,2.84858,2.84858,0,0,0,.60956.31488c.0633-.29437.41151-1.16753.20392-1.39242C20.99312,14.49216,20.99312,14.00745,21,14Z" opacity="0.2"/><path d="M16,4.84082V3a.49945.49945,0,0,0-.3418-.47412,11.80768,11.80768,0,0,0-2.27374-.45056,1.5,1.5,0,1,0-2.76892,0,11.80768,11.80768,0,0,0-2.27374.45056A.49945.49945,0,0,0,8,3V4.84082a10,10,0,1,0,8,0ZM12,2a.5.5,0,1,1,.5-.5A.50065.50065,0,0,1,12,2Z" fill="url(#a)"/></svg>