<?xml version="1.0" ?><svg viewBox="0 0 24 24" xmlns="http://www.w3.org/2000/svg"><title/><path d="M20.293,19.001C19.7168,17.83984,19,16.39453,19,12.5a8.77082,8.77082,0,0,0-1.56219-5.504c.02.00067.0429.004.06219.004a1.24879,1.24879,0,0,0,.91309-.37695c.63574-.64893.60937-1.95508.59179-2.81934L19,3.5a5.76155,5.76155,0,0,1,.084-.72754c.12989-.85937.27637-1.833-.208-2.396A1.10743,1.10743,0,0,0,18,0c-1.2276,0-3.19934,1.033-4.753,2.44891a1.95966,1.95966,0,0,0-2.43347-.0498A8.582,8.582,0,0,0,6,0a1.10743,1.10743,0,0,0-.876.37646c-.48437.563-.33789,1.53663-.208,2.396A5.76155,5.76155,0,0,1,5,3.5l-.00488.30371c-.01758.86426-.04395,2.17041.59179,2.81934A1.24879,1.24879,0,0,0,6.5,7c.019,0,.04193-.00323.06177-.00391A8.77167,8.77167,0,0,0,5,12.5c0,3.89453-.7168,5.33984-1.293,6.501A5.06749,5.06749,0,0,0,3,21.5a.50011.50011,0,0,0,.5.5H9.1214a3.07158,3.07158,0,0,0,5.7572,0H20.5a.49971.49971,0,0,0,.5-.5A5.06749,5.06749,0,0,0,20.293,19.001ZM14.66992,7.69629l-.51172-.17041a.50228.50228,0,0,0-.63281.31592l-.05273.16015-.79828-2.12726a1.98768,1.98768,0,0,0,.63141-.37225c.17352.08655.40387.1991.675.32611Zm-4.6062-1.825c.27771-.12268.51453-.23175.69428-.31623a1.98346,1.98346,0,0,0,.56762.31958L10.52734,8.002l-.05273-.16015a.49951.49951,0,0,0-.63281-.31592l-.48828.1626Zm8.05444-4.84253c.18555.21533.04981,1.1123-.02246,1.59424A6.60722,6.60722,0,0,0,18,3.5l.00488.32422c.01172.56787.03614,1.75-.30566,2.09863-.28821.29572-2.44275-.58337-3.82233-1.25549a1.91857,1.91857,0,0,0-.02551-1.41669C15.21289,1.98987,17.01019,1,18,1A.16547.16547,0,0,1,18.11816,1.02881ZM12,3a1,1,0,1,1-1,1A1.001,1.001,0,0,1,12,3ZM6.30078,5.92285c-.3418-.34863-.31738-1.53076-.30566-2.09863L6,3.5a6.60722,6.60722,0,0,0-.0957-.87695c-.07227-.48194-.208-1.37891-.02246-1.59424A.16547.16547,0,0,1,6,1a7.7949,7.7949,0,0,1,4.18213,2.17676,1.94976,1.94976,0,0,0-.03748,1.55981C8.72327,5.38654,6.58484,6.21429,6.30078,5.92285ZM12,23a2.04944,2.04944,0,0,1-1.78925-1h3.5785A2.04944,2.04944,0,0,1,12,23ZM4.0332,21a4.91789,4.91789,0,0,1,.56934-1.55469C5.19238,18.25684,6,16.62891,6,12.5,6,7.60693,8.57422,6.50928,8.67969,6.46631a.48457.48457,0,0,0,.09814-.05213L8.03418,8.31787a.49991.49991,0,0,0,.624.65625l1.02539-.3418.3418,1.02588A.50152.50152,0,0,0,10.49121,10H10.5a.49952.49952,0,0,0,.46777-.32422L12,6.92316l1.03223,2.75262A.49952.49952,0,0,0,13.5,10h.00879a.50152.50152,0,0,0,.46582-.3418l.3418-1.02588,1.02539.3418a.49962.49962,0,0,0,.627-.64746L15.27252,6.4411c.01508.00769.02912.01776.04389.02374C15.42578,6.50928,18,7.60693,18,12.5c0,4.12891.80762,5.75684,1.39746,6.94531A4.91789,4.91789,0,0,1,19.9668,21Z"/></svg>