<?xml version="1.0" ?><svg height="60px" version="1.1" viewBox="0 0 60 60" width="60px" xmlns="http://www.w3.org/2000/svg" xmlns:xlink="http://www.w3.org/1999/xlink"><title/><desc/><defs/><g fill="none" fill-rule="evenodd" id="Page-1" stroke="none" stroke-width="1"><g id="004---Bauble" transform="translate(0.000000, 1.000000)"><g fill-rule="nonzero" id="Colour" transform="translate(1.000000, 1.000000)"><path d="M52.14084,13.73373 L55.60192,10.27265 C56.4154199,9.45437055 56.4154199,8.13273945 55.60192,7.31446 L49.68554,1.39808 C48.8672606,0.584580064 47.5456294,0.584580064 46.72735,1.39808 L43.26627,4.85916 L52.14084,13.73373 Z" fill="#FFC900" id="Shape"/><path d="M51.93,44.15 C51.27,43.73 50.61,43.29 49.93,42.83 C49.2919665,44.0123858 48.5666207,45.1455298 47.76,46.22 C47.1067296,47.0975045 46.4021679,47.9356325 45.65,48.73 C45.47,48.92 45.29,49.11 45.1,49.28 C44.1430245,50.2588256 43.1024057,51.1522186 41.99,51.95 C42.38,52.22 42.76,52.48 43.15,52.74 C35.2401842,57.6595267 25.4131244,58.3618372 16.8841028,54.6171449 C8.35508129,50.8724526 2.22143093,43.1625448 0.49,34.01 C0.47,33.89 0.45,33.76995 0.43,33.64 C0.35,33.16 0.27,32.67 0.21,32.18 C0.2,32.07 0.18,31.96 0.17,31.85 C0.15,31.64 0.13,31.44 0.11,31.23 C0.07,30.86 0.05,30.49 0.03,30.12 C-0.01,29.21 -0.01,28.31 0.03,27.4 C0.05,27.01005 0.08,26.63 0.12,26.24 C0.14,25.95 0.18,25.65 0.21,25.36 C0.26,24.92 0.33,24.49 0.4,24.05 C0.42,23.93 0.44,23.82 0.46,23.7 C0.5,23.45995 0.54,23.23 0.59,22.99 C0.65,22.7 0.71,22.42 0.78,22.13 C1.48791637,19.2010576 2.66296407,16.4052545 4.26,13.85 C4.44,13.56 4.63,13.26 4.83,12.97 C5.03,12.67 5.25,12.36 5.46,12.06 C5.66,11.78 5.88,11.51 6.09,11.24 C6.53,10.69 6.99,10.14 7.49,9.61 C7.74,9.34 8,9.06 8.27,8.8 L8.27,8.79 C8.31748397,8.7407084 8.36755462,8.6939758 8.42,8.65 C8.46837272,8.59495864 8.5219555,8.54472479 8.58,8.5 C8.76,8.32 8.94,8.15 9.12,7.98 C9.29,7.83 9.47,7.67 9.64,7.52 C10.6481131,6.62831309 11.7210646,5.81273621 12.85,5.08 C24.0345891,-2.18664456 38.7778896,-0.639555528 48.2104048,8.79054598 C57.6429199,18.2206475 59.193782,32.9635516 51.93,44.15 Z" fill="#00939F" id="Shape"/><path d="M49.93,42.83 C49.2919665,44.0123858 48.5666207,45.1455298 47.76,46.22 C47.1067296,47.0975045 46.4021679,47.9356325 45.65,48.73 C45.47,48.92 45.29,49.11 45.1,49.28 C44.1430245,50.2588256 43.1024057,51.1522186 41.99,51.95 C31.4500583,59.7512723 16.7265098,58.3633969 7.83,48.73 C3.99874463,44.6451295 1.44714327,39.5280215 0.49,34.01 C0.47,33.89 0.45,33.76995 0.43,33.64 C0.35,33.16 0.27,32.67 0.21,32.18 C0.2,32.07 0.18,31.96 0.17,31.85 C0.15,31.64 0.13,31.44 0.11,31.23 C0.07,30.86 0.05,30.49 0.03,30.12 C-0.01,29.21 -0.01,28.31 0.03,27.4 C0.05,27.01005 0.08,26.63 0.12,26.24 C0.14,25.95 0.18,25.65 0.21,25.36 C0.26,24.92 0.33,24.49 0.4,24.05 C0.42,23.93 0.44,23.82 0.46,23.7 C0.5,23.45995 0.54,23.23 0.59,22.99 C0.65,22.7 0.71,22.42 0.78,22.13 C1.89105104,17.1315204 4.32611285,12.5238998 7.83,8.79 C12.7080157,3.5233829 19.5614004,0.529661031 26.74,0.529661031 C33.9185996,0.529661031 40.7719843,3.5233829 45.65,8.79 C54.2176206,18.0499921 55.9385836,31.7372771 49.93,42.83 Z" fill="#00C6DB" id="Shape"/><path d="M46.55,50.25 C46.28,50.48 46.01,50.71 45.73,50.93 C45.15,51.39 44.56,51.82 43.96,52.23 C43.69,52.4 43.42,52.57 43.15,52.74 C42.76,52.48 42.38,52.22 41.99,51.95 C43.1024057,51.1522186 44.1430245,50.2588256 45.1,49.28 C45.58,49.61 46.07,49.93 46.55,50.25 Z" fill="#354AA3" id="Shape"/><path d="M45.1,49.28 C44.1430245,50.2588256 43.1024057,51.1522186 41.99,51.95 C34.8177842,46.9270081 28.1048559,41.278243 21.93,35.07 C15.3815999,28.5719217 9.46504416,21.4666974 4.26,13.85 C4.44,13.56 4.63,13.26 4.83,12.97 C5.03,12.67 5.25,12.36 5.46,12.06 C5.87,11.51 6.3,10.97 6.76,10.45 C12.0103477,18.3013714 18.0410111,25.6018246 24.76,32.24 C30.998488,38.5367497 37.8076623,44.2411907 45.1,49.28 L45.1,49.28 Z" fill="#5068C1" id="Shape"/><path d="M49.48,47.36 C49.33,47.54 49.18,47.71 49.02,47.88 C48.76,48.17 48.49,48.45 48.21,48.73 C47.91,49.03 47.61,49.32 47.3,49.6 C47.05,49.82 46.8,50.04 46.55,50.25 C46.07,49.93 45.58,49.61 45.1,49.28 C45.29,49.11 45.47,48.92 45.65,48.73 C46.4021679,47.9356325 47.1067296,47.0975045 47.76,46.22 C47.95,46.34 48.13,46.47 48.31,46.59 C48.35,46.62 48.39,46.64 48.42,46.66 C48.78,46.9 49.13,47.13 49.48,47.36 Z" fill="#583EAF" id="Shape"/><path d="M37.94,38.85 C41.32,41.65 44.61,44.1 47.76,46.22 C47.1067296,47.0975045 46.4021679,47.9356325 45.65,48.73 C45.47,48.92 45.29,49.11 45.1,49.28 C37.8076623,44.2411907 30.998488,38.5367497 24.76,32.24 C18.0410111,25.6018246 12.0103477,18.3013714 6.76,10.45 C7,10.16 7.24,9.88 7.49,9.61 C7.74,9.34 8,9.06 8.27,8.8 L8.42,8.65 C8.46837272,8.59495864 8.5219555,8.54472479 8.58,8.5 C8.76,8.32 8.94,8.15 9.12,7.98 C9.29,7.83 9.47,7.67 9.64,7.52 C14.8395561,15.4256408 20.8559664,22.7626447 27.59,29.41 C28.07,29.89 28.54,30.36 29.02,30.82 C29.49,31.28 29.96,31.74 30.43,32.19 C30.79,32.52 31.15,32.86 31.5,33.2 C31.5744351,33.2582518 31.6446137,33.3217468 31.71,33.39 C32.3,33.93 32.88,34.46 33.45,34.98 C33.86,35.35 34.27,35.72 34.68,36.07 C34.92,36.28 35.15,36.49 35.39,36.69 C36.09,37.3 36.78,37.89 37.47,38.46 C37.63,38.6 37.78,38.73 37.94,38.85 Z" fill="#7B54C3" id="Shape"/><path d="M51.93,44.15 C51.78,44.38 51.62,44.61 51.46,44.84 C51.34,45.01 51.23,45.17 51.11,45.33 C51.08,45.37 51.05,45.42 51.02,45.46 C50.99,45.5 50.96,45.53 50.93,45.57005 C50.66,45.94005 50.38,46.31005 50.08,46.66005 C49.88,46.90005 49.68,47.13005 49.48,47.36005 C49.13,47.13005 48.78,46.90005 48.42,46.66005 C48.39,46.64005 48.35,46.62005 48.31,46.59005 C48.13,46.47005 47.95,46.34005 47.76,46.22005 C48.5666207,45.1455798 49.2919665,44.0124358 49.93,42.83005 C50.61,43.29 51.27,43.73 51.93,44.15 Z" fill="#354AA3" id="Shape"/><path d="M49.93,42.83 C49.2919665,44.0123858 48.5666207,45.1455298 47.76,46.22 C44.61,44.1 41.32,41.65 37.94,38.85 C37.78,38.72 37.63,38.59 37.47,38.46 C36.78,37.89 36.09,37.3 35.39,36.69 C35.15,36.49 34.92,36.28 34.68,36.07 C34.27,35.70995 33.86,35.35 33.45,34.98 C32.88,34.46 32.3,33.93 31.71,33.39 C31.64,33.32 31.57,33.26 31.5,33.2 C31.15,32.86 30.79,32.51995 30.43,32.19 C29.96,31.74 29.49,31.28 29.02,30.82 C28.54,30.36 28.07,29.89 27.59,29.41 C20.8559664,22.7626447 14.8395561,15.4256408 9.64,7.52 C10.6481131,6.62831309 11.7210646,5.81273621 12.85,5.08 C17.9176017,12.8598782 23.8082242,20.0714485 30.42,26.59 C36.382588,32.6218093 42.9165554,38.0606422 49.93,42.83 L49.93,42.83 Z" fill="#5068C1" id="Shape"/><circle cx="31" cy="10" fill="#00939F" id="Oval" r="5"/><circle cx="23.5" cy="47.5" fill="#00939F" id="Oval" r="5.5"/></g><g id="Outline" stroke="#000000" stroke-linecap="round" stroke-linejoin="round"><path d="M49.20682,49.73307 C48.67649,50.2634 48.12497,50.77254 47.55217,51.24633 C46.4882515,52.1695078 45.3507511,53.0042998 44.151,53.74239 C33.0053304,60.6763122 18.5512322,59.0149723 9.26938652,49.7331314 C-0.0124591159,40.4512905 -1.67380648,25.9971932 5.26011,14.85152 C5.99820417,13.6517659 6.83299941,12.5142622 7.75618,11.45034 C8.22997,10.87754 8.73911,10.32602 9.26944,9.79569 C9.71488,9.35025 10.16744,8.92596 10.64123,8.52291 C11.6499407,7.62984128 12.7229131,6.81210276 13.85148,6.0763 C25.0371185,-1.18469135 39.7770162,0.36595946 49.2067734,9.79570942 C58.6365306,19.2254594 60.1871928,33.9653559 52.92621,45.151 C52.1904072,46.2795669 51.3726687,47.3525393 50.4796,48.36125 C50.07655,48.835 49.65226,49.28763 49.20682,49.73307 Z" id="Shape" stroke-width="2"/><path d="M53.14261,14.73446 L56.60369,11.27338 C57.4171899,10.4551006 57.4171899,9.13346945 56.60369,8.31519 L50.68731,2.39882 C49.869034,1.58532122 48.547406,1.58532122 47.72913,2.39882 L44.26805,5.8599" id="Shape" stroke-width="2"/><circle cx="55.86414" cy="3.13837" id="Oval" r="3.13763" stroke-width="2"/><path d="M49.20682,49.73307 C48.67649,50.2634 48.12497,50.77254 47.55217,51.24633 C46.4882515,52.1695078 45.3507511,53.0042998 44.151,53.74239 C36.5346174,48.5365897 29.4293479,42.6198796 22.93071,36.0718 C16.3826307,29.5731627 10.4659175,22.4678969 5.26011,14.85152 C5.99820417,13.6517659 6.83299941,12.5142622 7.75618,11.45034 C8.22997,10.87754 8.73911,10.32602 9.26944,9.79569 C9.71488,9.35025 10.16744,8.92596 10.64123,8.52291 C11.6499407,7.62984128 12.7229131,6.81210276 13.85148,6.0763 C25.0371185,-1.18469135 39.7770162,0.36595946 49.2067734,9.79570942 C58.6365306,19.2254594 60.1871928,33.9653559 52.92621,45.151 C52.1904072,46.2795669 51.3726687,47.3525393 50.4796,48.36125 C50.07655,48.835 49.65226,49.28763 49.20682,49.73307 Z" id="Shape"/><path d="M49.20682,49.73307 C48.67649,50.2634 48.12497,50.77254 47.55217,51.24633 C39.7029018,45.9908053 32.4018594,39.9594971 25.75917,33.24338 C19.0430529,26.6006906 13.0117447,19.2996482 7.75622,11.45038 C8.23001,10.87758 8.73915,10.32606 9.26948,9.79573 C9.71492,9.35029 10.16748,8.926 10.64127,8.52295 C11.6499665,7.62986909 12.7229255,6.81211721 13.85148,6.0763 C25.0371185,-1.18469135 39.7770162,0.36595946 49.2067734,9.79570942 C58.6365306,19.2254594 60.1871928,33.9653559 52.92621,45.151 C52.1904072,46.2795669 51.3726687,47.3525393 50.4796,48.36125 C50.07655,48.835 49.65226,49.28763 49.20682,49.73307 Z" id="Shape"/><path d="M50.4796,48.36128 C42.5753482,43.1603991 35.2379255,37.1454529 28.58756,30.415 C21.8570942,23.7646474 15.8421314,16.4272384 10.64123,8.523 C11.6499376,7.62990028 12.7229101,6.81213163 13.85148,6.0763 C25.0371185,-1.18469135 39.7770162,0.36595946 49.2067734,9.79570942 C58.6365306,19.2254594 60.1871928,33.9653559 52.92621,45.151 C52.1904085,46.2795772 51.3726699,47.3525597 50.4796,48.36128 L50.4796,48.36128 Z" id="Shape"/><path d="M52.92621,45.151 C45.1467248,40.0848782 37.9351215,34.1961369 31.416,27.58652 C24.8063686,21.0673975 18.9176138,13.8557906 13.85148,6.0763 C25.0371185,-1.18469135 39.7770162,0.36595946 49.2067734,9.79570942 C58.6365306,19.2254594 60.1871928,33.9653559 52.92621,45.151 Z" id="Shape"/><circle cx="32" cy="11" id="Oval" r="5"/><circle cx="24.5" cy="48.5" id="Oval" r="5.5"/></g></g></g></svg>