<?xml version="1.0" ?><svg id="Слой_4" style="enable-background:new 0 0 192 192;" version="1.1" viewBox="0 0 192 192" xml:space="preserve" xmlns="http://www.w3.org/2000/svg" xmlns:xlink="http://www.w3.org/1999/xlink"><style type="text/css">
	.st0{enable-background:new    ;}
	.st1{clip-path:url(#SVGID_4_);}
	.st2{clip-path:url(#SVGID_5_);}
	.st3{clip-path:url(#SVGID_9_);}
	.st4{clip-path:url(#SVGID_13_);}
	.st5{fill-rule:evenodd;clip-rule:evenodd;fill:#FF563B;stroke:#000000;stroke-width:6;stroke-miterlimit:10;}
	.st6{fill-rule:evenodd;clip-rule:evenodd;fill:#FF6E50;}
</style><g class="st0" id="бант_копия_2_"><defs><path class="st0" d="M72.5,35.1c-5-5.7-6.4-9.6-15.3-16.1c-9.9,0-28,18-21.9,27.6c11.1,12.7,54.1,14,59.8,13.1    C95.8,58.6,76,39.4,72.5,35.1z" id="SVGID_1_"/></defs><defs><path class="st0" d="M67.4,33.2C63,27.7,61.7,24,53.6,17.9c-8.9,0-25.2,17.2-19.7,26.3c10,12.1,48.7,13.4,53.8,12.5    C88.4,55.6,70.5,37.3,67.4,33.2z" id="SVGID_2_"/></defs><defs><path class="st0" d="M131.9,19c-8.9,6.4-10.4,10.3-15.3,16.1c-3.5,4.3-23.4,23.6-22.5,24.7    c5.6,1,48.7-0.4,59.7-13.1C159.8,37,141.8,19.1,131.9,19z" id="SVGID_3_"/></defs><use style="overflow:visible;fill:#FFCF48;" xlink:href="#SVGID_1_"/><use style="overflow:visible;fill:#FFBC33;" xlink:href="#SVGID_2_"/><use style="overflow:visible;fill:#FFCF48;" xlink:href="#SVGID_3_"/><clipPath id="SVGID_4_"><use style="overflow:visible;" xlink:href="#SVGID_1_"/></clipPath><clipPath class="st1" id="SVGID_5_"><use style="overflow:visible;" xlink:href="#SVGID_2_"/></clipPath><clipPath class="st2" id="SVGID_6_"><use style="overflow:visible;" xlink:href="#SVGID_3_"/></clipPath><use style="overflow:visible;fill:none;stroke:#000000;stroke-width:6;stroke-miterlimit:10;" xlink:href="#SVGID_1_"/><use style="overflow:visible;fill:none;stroke:#000000;stroke-width:6;stroke-miterlimit:10;" xlink:href="#SVGID_3_"/></g><g class="st0" id="коробка_тень_2_"><defs><path class="st0" d="M154,70H35c-6.6,0-12,5.4-12,12v79c0,6.6,5.4,12,12,12h119c6.6,0,12-5.4,12-12V82    C166,75.4,160.6,70,154,70z" id="SVGID_7_"/></defs><defs><path class="st0" d="M163.1,88h-126c0,0.3-0.1,0.5-0.1,0.8v70.5c0,5.9,4.7,10.7,10.6,10.7h105    c9.5,0.7,10.6-3.9,10.6-10.7V88.8C163.2,88.5,163.1,88.3,163.1,88z" id="SVGID_8_"/></defs><use style="overflow:visible;fill:#FF563B;" xlink:href="#SVGID_7_"/><use style="overflow:visible;fill:#FF6E50;" xlink:href="#SVGID_8_"/><clipPath id="SVGID_9_"><use style="overflow:visible;" xlink:href="#SVGID_7_"/></clipPath><clipPath class="st3" id="SVGID_10_"><use style="overflow:visible;" xlink:href="#SVGID_8_"/></clipPath><use style="overflow:visible;fill:none;stroke:#000000;stroke-width:6;stroke-miterlimit:10;" xlink:href="#SVGID_7_"/></g><g class="st0" id="крышка_2_"><defs><rect class="st0" height="92" id="SVGID_11_" width="29" x="80" y="81"/></defs><defs><path class="st0" d="M104,40H85c-2.8,0-5,2.2-5,5v17c0,2.8,2.2,5,5,5h19c2.8,0,5-2.2,5-5V45    C109,42.2,106.8,40,104,40z" id="SVGID_12_"/></defs><use style="overflow:visible;fill:#FFCF48;" xlink:href="#SVGID_11_"/><use style="overflow:visible;fill:#FFCF48;" xlink:href="#SVGID_12_"/><clipPath id="SVGID_13_"><use style="overflow:visible;" xlink:href="#SVGID_11_"/></clipPath><clipPath class="st4" id="SVGID_14_"><use style="overflow:visible;" xlink:href="#SVGID_12_"/></clipPath><use style="overflow:visible;fill:none;stroke:#000000;stroke-width:6;stroke-miterlimit:10;" xlink:href="#SVGID_11_"/><use style="overflow:visible;fill:none;stroke:#000000;stroke-width:6;stroke-miterlimit:10;" xlink:href="#SVGID_12_"/></g><path class="st5" d="M17,85V71c0-7.2,5.4-13,12-13h132c6.6,0,12,5.8,12,13v14H17z"/><path class="st6" d="M37,81.8V71c0-5.5,4.6-10,10.2-10h112.7c6.2-0.5,10.1,4.7,10.2,10v10.8H37z"/></svg>