<?xml version="1.0" ?><svg height="60px" version="1.1" viewBox="0 0 51 60" width="51px" xmlns="http://www.w3.org/2000/svg" xmlns:xlink="http://www.w3.org/1999/xlink"><title/><desc/><defs/><g fill="none" fill-rule="evenodd" id="Page-1" stroke="none" stroke-width="1"><g id="011---Santa" transform="translate(1.000000, 1.000000)"><g id="Colour"><path d="M7,26.34 L5.80005,34.94 L5.80005,34.97 C5.62411297,34.9902506 5.44714843,35.0002675 5.27005,35 C3.45250112,34.9943139 1.81682107,33.8957987 1.12393997,32.2154915 C0.431058863,30.5351844 0.817031801,28.6030328 2.1023014,27.3178876 C3.387571,26.0327423 5.31975992,25.6469563 7,26.34 L7,26.34 Z" fill="#FFE4BE" id="Shape"/><path d="M47.69,30.5 C47.6921334,32.966699 45.7065689,34.9745733 43.24,35 L42,26.16 C42.3871613,26.0509347 42.7877805,25.9970699 43.19,26 C44.3839625,25.9984049 45.5294822,26.4719984 46.3737419,27.3162581 C47.2180016,28.1605178 47.6915951,29.3060375 47.69,30.5 L47.69,30.5 Z" fill="#FFE4BE" id="Shape"/><path d="M44,41.06 C44.0058761,42.3253581 43.8649339,43.587126 43.58,44.82 C42.9323819,47.8198269 41.0957116,50.4286926 38.49,52.05 C37.8813639,52.4201459 37.2424029,52.7379537 36.58,53 C26.58,57 24.58,58 24.58,58 L24,58 C24,58 23.75,57.88 23,57.54 C21.61,56.93 18.49,55.6 12,53 C11.3375961,52.7379558 10.698635,52.4201479 10.09,52.05 C7.48428279,50.4286985 5.64761061,47.8198302 5,44.82 C4.71506606,43.587126 4.5741239,42.3253581 4.58,41.06 C4.60828379,39.6322107 4.71176049,38.2069026 4.89,36.79 C4.9,36.58 4.92,36.37 4.94,36.16 C4.97,35.76 5,35.36 5.03,34.97 L5.03,34.94 L6.23,26.34 C6.27,26.13 6.33,25.92 6.38,25.71 C6.76316146,24.0903622 7.30581059,22.5126601 8,21 L8.06,20.84 C8.09,20.85 7.54,20.14 7.87,20.01 L7.88,20.01 C7.9192935,20.0008021 7.95972606,19.9974327 8,20 C8.64,20.01 9.61,20.02 10.82,20.02 C11.93,20.01005 13.14,20.01005 14.42,20.01005 C19.59,20 26.52,19.96 31.79,19.95 C35.17,19.95 37.87,19.95995 39,20 C39.39,20.01 38.61,21 38.61,21 C39.2339556,22.2407342 40.3119461,23.193377 41.62,23.66 C41.84,24.34 42.02,25.03 42.2,25.71 C42.24,25.86 42.28,26.01005 42.31,26.16 L43.55,34.96 L43.55,35 C43.58,35.38 43.61,35.77 43.64,36.16 C43.66,36.41 43.68,36.65 43.7,36.9 C43.83,38.28 44,39.67 44,41.06 Z" fill="#D7DEE2" id="Shape"/><path d="M41.42,41.06 C41.4258761,42.3253581 41.2849339,43.587126 41,44.82 C40.3523894,47.8198302 38.5157172,50.4286985 35.91,52.05 C35.301365,52.4201479 34.6624039,52.7379558 34,53 C27.51,55.6 24.39,56.93 23,57.54 C21.61,56.93 18.49,55.6 12,53 C11.3375961,52.7379558 10.698635,52.4201479 10.09,52.05 C7.48428279,50.4286985 5.64761061,47.8198302 5,44.82 C4.71506606,43.587126 4.5741239,42.3253581 4.58,41.06 C4.60828379,39.6322107 4.71176049,38.2069026 4.89,36.79 C4.9,36.58 4.92,36.37 4.94,36.16 C4.97,35.76 5,35.36 5.03,34.97 L5.03,34.94 L6.23,26.34 C6.27,26.13 6.33,25.92 6.38,25.71 C6.76316146,24.0903622 7.30581059,22.5126601 8,21 L8.06,20.84 C8.09,20.85 7.54,20.14 7.87,20.01 L7.88,20.01 C8.74,20.01995 9.73,20.01995 10.82,20.01995 C11.93,20.01 13.14,20.01 14.42,20.01 C20.14,19.98 27.12,19.95 31.79,19.95 C33.94,19.95 35.59,19.97 36.42,20 C36.82,20.01 36.03,21 36.03,21 C36.6539489,22.2407394 37.7319418,23.1933842 39.04,23.66 C39.26,24.34 39.44,25.03 39.62,25.71 C39.66,25.86 39.7,26.01005 39.73,26.16 L40.97,34.96 L40.97,35 C41,35.38 41.03006,35.77 41.06,36.16 C41.08,36.41 41.1,36.65 41.12,36.9 C41.25,38.28 41.42,39.67 41.42,41.06 Z" fill="#FFFFFF" id="Shape"/><path d="M39.94,37.01 C38,39.89 30.51,38.14 29.98,38.01 L29.82,38.05 C29.9401124,38.3522674 30.0012133,38.6747446 30,39 C29.9284565,40.1798828 29.2666194,41.2440867 28.24,41.83 C25.6285859,43.3900605 22.3714141,43.3900605 19.76,41.83 C18.7333806,41.2440867 18.0715435,40.1798828 18,39 C18.0012369,38.6823873 18.0587949,38.367511 18.17,38.07 L18,38 C18,38 10.07,39.98 8.03,37.04 C8.3,32.85 9.69,25.21 16,21 L31.97,21 C38.26,25.2 39.67,32.81 39.94,37.01 Z" fill="#FFEEBF" id="Shape"/><path d="M46,12.5 C46.0019083,12.8578705 45.9785166,13.2154283 45.93,13.57 L43.33,13.26 L9.66,9.18 C11.31,5.12 15.92,1.88 21.83,0.6 C23.6930883,0.197706088 25.5939762,-0.00344606972 27.5,2.22051381e-16 C37.72,6.77626358e-21 46,5.6 46,12.5 Z" fill="#BC2B6A" id="Shape"/><path d="M43.34,12.93 C43.34,13.04 43.34,13.15 43.33,13.26 L9.66,9.18 C11.31,5.12 15.92,1.88 21.83,0.6 C22.8293693,0.487142596 23.8342786,0.430386922 24.84,0.43 C35.06,0.43 43.34,6.03 43.34,12.93 Z" fill="#EF3A76" id="Shape"/><path d="M41.93,13.23 L38.61,21 L9,21 C8.6795729,21.0039024 8.36109175,20.9496928 8.06,20.84 C6.82954002,20.4410186 5.99720396,19.2935262 6,18 L6,14 C5.99676875,12.6729296 6.52251526,11.3992818 7.46089851,10.4608985 C8.39928177,9.52251526 9.67292961,8.99676875 11,9 L37,9 C39.4636938,8.99567805 41.5599109,10.7942579 41.93,13.23 L41.93,13.23 Z" fill="#FFFFFF" id="Shape"/><path d="M39.99,38 L39.99,37.94" id="Shape" stroke="#000000" stroke-linecap="round" stroke-linejoin="round"/><circle cx="17" cy="32" fill="#FFFFFF" fill-rule="nonzero" id="Oval" r="4"/><circle cx="31" cy="32" fill="#FFFFFF" fill-rule="nonzero" id="Oval" r="4"/><path d="M49,18.5 C49.0008204,19.958942 48.4216212,21.3583652 47.3899932,22.3899932 C46.3583652,23.4216212 44.958942,24.0008204 43.5,24 C40.4677324,23.987246 38.012754,21.5322676 38,18.5 C38,15.4624339 40.4624339,13 43.5,13 C46.5375661,13 49,15.4624339 49,18.5 L49,18.5 Z" fill="#D7DEE2" id="Shape"/><path d="M46,18.5 C46,21.54 44.21089,24 42,24 C41.5235796,23.9978682 41.0546501,23.88126 40.63272,23.66 C39.5904365,23.0850259 38.807313,22.1334393 38.44363,21 C38.1464395,20.2001736 37.9961506,19.3532465 38,18.5 C38,16 39.20725,13.9 40.85818,13.23 C41.2200143,13.0791751 41.6079909,13.0010239 42,13 C44.21089,13 46,15.46 46,18.5 Z" fill="#FFFFFF" id="Shape"/><circle cx="18" cy="32" fill="#00C6DB" fill-rule="nonzero" id="Oval" r="1"/><circle cx="30" cy="32" fill="#00C6DB" fill-rule="nonzero" id="Oval" r="1"/><path d="M28,46 C28,48.209139 26.209139,50 24,50 C21.790861,50 20,48.209139 20,46 L28,46 Z" fill="#F85B44" id="Shape"/></g><g id="Outline" stroke="#000000" stroke-linecap="round" stroke-linejoin="round"><path d="M41.93,13.23 C41.5598871,10.7942711 39.4636843,8.99570364 37,9 L11,9 C9.67293614,8.99679016 8.39930074,9.52254354 7.46092214,10.4609221 C6.52254354,11.3993007 5.99679016,12.6729361 6,14 L6,18 C5.99893657,18.795975 6.31466559,19.5596548 6.87750541,20.1224946 C7.44034523,20.6853344 8.204025,21.0010634 9,21 L38.61,21" id="Shape" stroke-width="2"/><path d="M16,21 C9.69,25.21 8.3,32.85 8.03,37.04 C8,37.46 7.98,37.84 7.98,38.18" id="Shape"/><path d="M31.97,21 C38.26,25.2 39.67,32.81 39.94,37.01 C39.96,37.35 39.98,37.66 39.99,37.94 L39.99,38 C40.0167498,38.6665821 40.0100748,39.3340861 39.97,40 L39.46,40" id="Shape"/><path d="M6.23,26.34 C4.54807607,25.6411077 2.61075128,26.0244031 1.32167222,27.3111019 C0.0325931577,28.5978007 -0.354282204,30.5344138 0.341500439,32.2176266 C1.03728308,33.9008393 2.67864948,34.9990465 4.5,35 C4.67709823,35.0002602 4.85406235,34.9902434 5.03,34.97" id="Shape" stroke-width="2"/><path d="M43.55,35 C46.0253693,34.9723855 48.013624,32.9506247 47.9998713,30.4751396 C47.9861187,27.9996545 45.9755233,26.0001096 43.5,26 C43.0977798,25.9970583 42.6971589,26.0509233 42.31,26.16" id="Shape" stroke-width="2"/><path d="M19.76,36.17 C19.0413487,36.6180346 18.4843508,37.2836296 18.17,38.07 C18.0587886,38.3675093 18.0012304,38.6823866 18,39 C18.0715668,40.1798753 18.7333976,41.2440691 19.76,41.83 C22.3714311,43.3899989 25.6285689,43.3899989 28.24,41.83 C29.2666024,41.2440691 29.9284332,40.1798753 30,39 C30.0012165,38.6747443 29.9401155,38.3522665 29.82,38.05 C29.5086448,37.2700665 28.9547049,36.6109482 28.24,36.17" id="Shape" stroke-width="2"/><path d="M41.62,23.66 C41.84,24.34 42.02,25.03 42.2,25.71 C42.24,25.86 42.28,26.01 42.31,26.16 C42.724854,27.8391995 43.035447,29.5424515 43.24,31.26 C43.38,32.5 43.47,33.75 43.55,35 C43.58,35.38 43.61,35.77 43.64,36.16 C43.66,36.41 43.68,36.65 43.7,36.9 C43.83,38.28 44,39.67 44,41.06 C44.0058911,42.3253589 43.8649487,43.5871285 43.58,44.82 C42.9323787,47.8198255 41.0957092,50.42869 38.49,52.05 C37.8813696,52.4201563 37.2424078,52.7379646 36.58,53 C26.58,57 24.58,58 24.58,58 L24,58 C24,58 22,57 12,53 C11.3375922,52.7379646 10.6986304,52.4201563 10.09,52.05 C7.48429083,50.42869 5.64762134,47.8198255 5,44.82 C4.7150513,43.5871285 4.57410895,42.3253589 4.58,41.06 C4.6082938,39.6322112 4.71177046,38.2069035 4.89,36.79 C4.9,36.58 4.92,36.37 4.94,36.16 C5.07,34.53 5.14,32.89 5.34,31.26 C5.56584418,29.389389 5.91324568,27.5354675 6.38,25.71 C6.76315617,24.0903606 7.30580547,22.512658 8,21" id="Shape" stroke-width="2"/><circle cx="17" cy="32" id="Oval" r="4"/><circle cx="31" cy="32" id="Oval" r="4"/><circle cx="18" cy="32" id="Oval" r="1"/><circle cx="30" cy="32" id="Oval" r="1"/><path d="M14,44 C9.15,42.61 8.14,39.78 7.98,38.18 C7.94280837,37.8209606 7.94280837,37.4590394 7.98,37.1 C7.99,37.04 8,37 8,37 C8.01,37.01 8.02,37.03 8.03,37.04 C10.07,39.98 18,38 18,38" id="Shape" stroke-width="2"/><path d="M33.95,44 C37.25,43.06 38.77,41.45 39.46,40 C39.7599409,39.3722541 39.9397042,38.6939019 39.99,38 L39.99,37.94 C40.0079441,37.7168556 40.0045956,37.4925094 39.98,37.27 C39.9756403,37.1794625 39.9656207,37.0892863 39.95,37 C39.9500579,37.0026695 39.9490229,37.0052468 39.9471349,37.0071349 C39.9452468,37.0090229 39.9426695,37.0100579 39.94,37.01 C37.93,40 29.95,38 29.95,38" id="Shape" stroke-width="2"/><path d="M19,46 L29,46" id="Shape" stroke-width="2"/><path d="M20,46 C20,48.209139 21.790861,50 24,50 C26.209139,50 28,48.209139 28,46" id="Shape" stroke-width="2"/><path d="M18,24 C16.4641299,24.1452855 15.0377504,24.8584752 14,26" id="Shape" stroke-width="2"/><path d="M30,24 C31.5358701,24.1452855 32.9622496,24.8584752 34,26" id="Shape" stroke-width="2"/><path d="M45.93,13.57 C45.9785239,13.215429 46.0019156,12.8578707 46,12.5 C46,5.6 37.72,0 27.5,0 C18.98,0 11.81,3.89 9.66,9.18" id="Shape" stroke-width="2"/><circle cx="43.5" cy="18.5" id="Oval" r="5.5" stroke-width="2"/></g></g></g></svg>