<?xml version="1.0" ?><svg height="60px" version="1.1" viewBox="0 0 60 60" width="60px" xmlns="http://www.w3.org/2000/svg" xmlns:xlink="http://www.w3.org/1999/xlink"><title/><desc/><defs/><g fill="none" fill-rule="evenodd" id="Page-1" stroke="none" stroke-width="1"><g id="003---Bauble" transform="translate(1.000000, 1.000000)"><g fill-rule="nonzero" id="Colour" transform="translate(0.000000, 1.000000)"><path d="M52.14084,13.73373 L55.60192,10.27265 C56.4154199,9.45437055 56.4154199,8.13273945 55.60192,7.31446 L49.68554,1.39808 C48.8672606,0.584580064 47.5456294,0.584580064 46.72735,1.39808 L43.26627,4.85916 L52.14084,13.73373 Z" fill="#FFC900" id="Shape"/><circle cx="28.23868" cy="28.76132" fill="#BC2B6A" id="Oval" r="28.23868"/><ellipse cx="26.73868" cy="28.76132" fill="#EF3A76" id="Oval" rx="26.73868" ry="28.23868"/></g><g id="Outline" stroke="#000000" stroke-linecap="round" stroke-linejoin="round"><circle cx="28.23868" cy="29.76132" id="Oval" r="28.23868" stroke-width="2"/><path d="M52.14084,14.73373 L55.60192,11.27265 C56.4154199,10.4543706 56.4154199,9.13273945 55.60192,8.31446 L49.68554,2.39808 C48.8672606,1.58458006 47.5456294,1.58458006 46.72735,2.39808 L43.26627,5.85916" id="Shape" stroke-width="2"/><circle cx="54.86237" cy="3.13763" id="Oval" r="3.13763" stroke-width="2"/><path d="M42.43503,15.56497 L28.23868,29.76132" id="Shape"/><path d="M39.6066,14.15076 L39.6066,18.3934" id="Shape"/><path d="M43.84924,18.3934 L39.6066,18.3934" id="Shape"/><path d="M14.15076,43.84924 L28.3471,29.6529" id="Shape"/><path d="M12.73654,41.02082 L16.97918,41.02081" id="Shape"/><path d="M16.97918,45.26346 L16.97919,41.02082" id="Shape"/><path d="M28.29289,9.70711 L28.29289,29.78377" id="Shape"/><path d="M25.29289,10.70711 L28.29289,13.70711" id="Shape"/><path d="M31.29289,10.70711 L28.29289,13.70711" id="Shape"/><path d="M28.29289,49.70711 L28.29289,29.63044" id="Shape"/><path d="M25.29289,48.70711 L28.29289,45.70711" id="Shape"/><path d="M31.29289,48.70711 L28.29289,45.70711" id="Shape"/><path d="M14.15076,15.56497 L28.3471,29.76132" id="Shape"/><path d="M12.73654,18.3934 L16.97918,18.3934" id="Shape"/><path d="M16.97918,14.15076 L16.97919,18.3934" id="Shape"/><path d="M42.43503,43.84924 L28.23868,29.6529" id="Shape"/><path d="M39.6066,45.26346 L39.6066,41.02082" id="Shape"/><path d="M43.84924,41.02082 L39.6066,41.02081" id="Shape"/><path d="M8.29289,29.70711 L28.36956,29.70711" id="Shape"/><path d="M9.29289,32.70711 L12.29289,29.70711" id="Shape"/><path d="M9.29289,26.70711 L12.29289,29.70711" id="Shape"/><path d="M48.29289,29.70711 L28.21623,29.70711" id="Shape"/><path d="M47.29289,32.70711 L44.29289,29.70711" id="Shape"/><path d="M47.29289,26.70711 L44.29289,29.70711" id="Shape"/><path d="M36.16789,21.83211 C36.16789,21.83211 33.91789,26.33211 39.54289,29.70711" id="Shape"/><path d="M36.16789,21.83211 C36.16789,21.83211 31.66789,24.08211 28.29289,18.45711" id="Shape"/><path d="M20.41789,37.58211 C20.41789,37.58211 24.91789,35.33211 28.29289,40.95711" id="Shape"/><path d="M20.41789,37.58211 C20.41789,37.58211 22.66789,33.08211 17.04289,29.70711" id="Shape"/><path d="M20.41789,21.83211 C20.41789,21.83211 24.91789,24.08211 28.29289,18.45711" id="Shape"/><path d="M20.41789,21.83211 C20.41789,21.83211 22.66789,26.33211 17.04289,29.70711" id="Shape"/><path d="M36.16789,37.58211 C36.16789,37.58211 33.91789,33.08211 39.54289,29.70711" id="Shape"/><path d="M36.16789,37.58211 C36.16789,37.58211 31.66789,35.33211 28.29289,40.95711" id="Shape"/></g></g></g></svg>