<?xml version="1.0" ?><svg height="60px" version="1.1" viewBox="0 0 54 60" width="54px" xmlns="http://www.w3.org/2000/svg" xmlns:xlink="http://www.w3.org/1999/xlink"><title/><desc/><defs/><g fill="none" fill-rule="evenodd" id="Page-1" stroke="none" stroke-width="1"><g id="021---Icicle" transform="translate(1.000000, 1.000000)"><g fill="#00C6DB" id="Colour"><polygon id="Shape" points="26 0 27.545 3.131 31 3.633 28.5 6.07 29.09 9.511 26 7.886 22.91 9.511 23.5 6.07 21 3.633 24.455 3.131"/><polygon id="Shape" points="26 58 27.545 54.869 31 54.367 28.5 51.93 29.09 48.489 26 50.114 22.91 48.489 23.5 51.93 21 54.367 24.455 54.869"/><polygon id="Shape" points="0.885 14.5 4.369 14.727 6.531 11.986 7.392 15.37 10.667 16.579 7.715 18.443 7.577 21.931 4.892 19.7 1.531 20.646 2.824 17.403"/><circle cx="17.33975" cy="24" fill-rule="nonzero" id="Oval" r="3"/><polygon id="Shape" points="51.115 43.5 49.176 40.597 50.469 37.354 47.108 38.3 44.423 36.069 44.285 39.557 41.333 41.421 44.608 42.63 45.469 46.014 47.631 43.273"/><circle cx="34.66025" cy="34" fill-rule="nonzero" id="Oval" r="3"/><polygon id="Shape" points="0.885 43.5 2.824 40.597 1.531 37.354 4.892 38.3 7.577 36.069 7.715 39.557 10.667 41.421 7.392 42.63 6.531 46.014 4.369 43.273"/><circle cx="17.33975" cy="34" fill-rule="nonzero" id="Oval" r="3"/><polygon id="Shape" points="51.115 14.5 47.631 14.727 45.469 11.986 44.608 15.37 41.333 16.579 44.285 18.443 44.423 21.931 47.108 19.7 50.469 20.646 49.176 17.403"/><circle cx="34.66025" cy="24" fill-rule="nonzero" id="Oval" r="3"/><polygon id="Shape" points="26 58 24.455 54.869 21 54.367 23.5 51.93 22.91 48.489 26 50.114 29.09 48.489 28.5 51.93 31 54.367 27.545 54.869"/><circle cx="26" cy="39" fill-rule="nonzero" id="Oval" r="3"/><polygon id="Shape" points="26 0 24.455 3.131 21 3.633 23.5 6.07 22.91 9.511 26 7.886 29.09 9.511 28.5 6.07 31 3.633 27.545 3.131"/><circle cx="26" cy="19" fill-rule="nonzero" id="Oval" r="3"/><polygon id="Shape" points="32.49 29 29.46 31 29.24 34.62 26 33 22.76 34.62 22.54 31 19.51 29 22.54 27 22.76 23.38 26 25 29.24 23.38 29.46 27"/></g><g id="Outline" stroke="#000000" stroke-linecap="round" stroke-linejoin="round"><polygon id="Shape" points="26 0 27.545 3.131 31 3.633 28.5 6.07 29.09 9.511 26 7.886 22.91 9.511 23.5 6.07 21 3.633 24.455 3.131" stroke-width="2"/><path d="M26,25 L26,22" id="Shape"/><path d="M26,16 L26,7.89" id="Shape"/><path d="M20,12 L26,15" id="Shape"/><path d="M32,12 L26,15" id="Shape"/><circle cx="26" cy="19" id="Oval" r="3"/><polygon id="Shape" points="26 58 27.545 54.869 31 54.367 28.5 51.93 29.09 48.489 26 50.114 22.91 48.489 23.5 51.93 21 54.367 24.455 54.869" stroke-width="2"/><path d="M26,36 L26,33" id="Shape"/><path d="M26,50.11 L26,42" id="Shape"/><path d="M20,46 L26,43" id="Shape"/><path d="M32,46 L26,43" id="Shape"/><circle cx="26" cy="39" id="Oval" r="3"/><polygon id="Shape" points="0.885 14.5 4.369 14.727 6.531 11.986 7.392 15.37 10.667 16.579 7.715 18.443 7.577 21.931 4.892 19.7 1.531 20.646 2.824 17.403" stroke-width="2"/><path d="M22.54,27 L19.94,25.5" id="Shape"/><path d="M14.74167,22.5 L7.7182,18.445" id="Shape"/><path d="M8.27757,25.69615 L13.87564,22" id="Shape"/><path d="M14.27757,15.30385 L13.87564,22" id="Shape"/><circle cx="17.33975" cy="24" id="Oval" r="3"/><polygon id="Shape" points="51.115 43.5 49.176 40.597 50.469 37.354 47.108 38.3 44.423 36.069 44.285 39.557 41.333 41.421 44.608 42.63 45.469 46.014 47.631 43.273" stroke-width="2"/><path d="M32.06,32.5 L29.46,31" id="Shape"/><path d="M44.2818,39.555 L37.25833,35.5" id="Shape"/><path d="M37.72243,42.69615 L38.12436,36" id="Shape"/><path d="M43.72243,32.30385 L38.12436,36" id="Shape"/><polygon id="Shape" points="32.49 29 29.46 31 29.24 34.62 26 33 22.76 34.62 22.54 31 19.51 29 22.54 27 22.76 23.38 26 25 29.24 23.38 29.46 27" stroke-width="2"/><circle cx="34.66025" cy="34" id="Oval" r="3"/><polygon id="Shape" points="0.885 43.5 2.824 40.597 1.531 37.354 4.892 38.3 7.577 36.069 7.715 39.557 10.667 41.421 7.392 42.63 6.531 46.014 4.369 43.273" stroke-width="2"/><path d="M22.54,31 L19.94,32.5" id="Shape"/><path d="M14.74167,35.5 L7.7182,39.555" id="Shape"/><path d="M14.27757,42.69615 L13.87564,36" id="Shape"/><path d="M8.27757,32.30385 L13.87564,36" id="Shape"/><circle cx="17.33975" cy="34" id="Oval" r="3"/><polygon id="Shape" points="51.115 14.5 47.631 14.727 45.469 11.986 44.608 15.37 41.333 16.579 44.285 18.443 44.423 21.931 47.108 19.7 50.469 20.646 49.176 17.403" stroke-width="2"/><path d="M32.06,25.5 L29.46,27" id="Shape"/><path d="M44.2818,18.445 L37.25833,22.5" id="Shape"/><path d="M43.72243,25.69615 L38.12436,22" id="Shape"/><path d="M37.72243,15.30385 L38.12436,22" id="Shape"/><circle cx="34.66025" cy="24" id="Oval" r="3"/><polygon id="Shape" points="26 58 24.455 54.869 21 54.367 23.5 51.93 22.91 48.489 26 50.114 29.09 48.489 28.5 51.93 31 54.367 27.545 54.869" stroke-width="2"/><path d="M26,36 L26,33" id="Shape"/><path d="M26,42 L26,50.11" id="Shape"/><path d="M32,46 L26,43" id="Shape"/><path d="M20,46 L26,43" id="Shape"/><circle cx="26" cy="39" id="Oval" r="3"/><polygon id="Shape" points="26 0 24.455 3.131 21 3.633 23.5 6.07 22.91 9.511 26 7.886 29.09 9.511 28.5 6.07 31 3.633 27.545 3.131" stroke-width="2"/><path d="M26,7.89 L26,16" id="Shape"/><path d="M32,12 L26,15" id="Shape"/><path d="M20,12 L26,15" id="Shape"/><circle cx="26" cy="19" id="Oval" r="3"/></g></g></g></svg>