<?xml version="1.0" ?><svg id="Christmas_Icon" style="enable-background:new 0 0 56 56;" version="1.1" viewBox="0 0 56 56" xml:space="preserve" xmlns="http://www.w3.org/2000/svg" xmlns:xlink="http://www.w3.org/1999/xlink"><style type="text/css">
	.st0{fill:#F5F5F5;stroke:#3E2723;stroke-linecap:round;stroke-linejoin:round;stroke-miterlimit:10;}
	.st1{fill:#E0E0E0;}
	.st2{fill:#8D6E63;stroke:#3E2723;stroke-linecap:round;stroke-linejoin:round;stroke-miterlimit:10;}
	.st3{fill:#5D4037;}
	.st4{fill:none;stroke:#3E2723;stroke-linecap:round;stroke-linejoin:round;stroke-miterlimit:10;}
	.st5{fill:#FFD54F;stroke:#3E2723;stroke-linecap:round;stroke-linejoin:round;stroke-miterlimit:10;}
	.st6{fill:#E53935;stroke:#3E2723;stroke-linecap:round;stroke-linejoin:round;stroke-miterlimit:10;}
	.st7{fill:#B71C1C;}
	.st8{fill:#FFA000;}
	.st9{fill:#FFECB3;stroke:#3E2723;stroke-linecap:round;stroke-linejoin:round;stroke-miterlimit:10;}
	.st10{fill:#FFE082;}
	.st11{fill:#3E2723;}
	.st12{fill:#81C784;stroke:#3E2723;stroke-linecap:round;stroke-linejoin:round;stroke-miterlimit:10;}
	.st13{fill:#43A047;}
	.st14{fill:#263238;}
	.st15{fill:#4E342E;stroke:#3E2723;stroke-linecap:round;stroke-linejoin:round;stroke-miterlimit:10;}
	.st16{fill:none;}
	.st17{fill:#A1887F;stroke:#3E2723;stroke-linecap:round;stroke-linejoin:round;stroke-miterlimit:10;}
	.st18{fill:#6D4C41;}
	.st19{fill:#6D4C41;stroke:#3E2723;stroke-linecap:round;stroke-linejoin:round;stroke-miterlimit:10;}
	.st20{fill:#E0E0E0;stroke:#3E2723;stroke-miterlimit:10;}
	.st21{fill:#D81B60;stroke:#3E2723;stroke-linecap:round;stroke-linejoin:round;stroke-miterlimit:10;}
	.st22{fill:#E0E0E0;stroke:#3E2723;stroke-linecap:round;stroke-linejoin:round;stroke-miterlimit:10;}
	.st23{fill:#FBC02D;stroke:#3E2723;stroke-linecap:round;stroke-linejoin:round;stroke-miterlimit:10;}
</style><g id="Christmas_Tree"><path class="st19" d="M31,55.5h-6c-1.1,0-2-0.9-2-2V47h10v6.5C33,54.6,32.1,55.5,31,55.5z"/><path class="st3" d="M32.5,47.5H28v6c0,0.6-0.3,1.1-0.7,1.5H31c0.8,0,1.5-0.7,1.5-1.5V47.5z"/><path class="st12" d="M51.3,45.3L40.7,34.7c-0.6-0.6-0.2-1.7,0.7-1.7h5.2c0.9,0,1.3-1.1,0.7-1.7L36.7,20.7   c-0.6-0.6-0.2-1.7,0.7-1.7h4.8c0.9,0,1.4-1.2,0.6-1.8L28.6,5.5c-0.4-0.3-0.9-0.3-1.3,0L13.2,17.2c-0.7,0.6-0.3,1.8,0.6,1.8h4.8   c0.9,0,1.3,1.1,0.7,1.7L8.7,31.3C8.1,31.9,8.5,33,9.4,33h5.2c0.9,0,1.3,1.1,0.7,1.7L4.7,45.3C4.1,45.9,4.5,47,5.4,47h45.2   C51.5,47,51.9,45.9,51.3,45.3z"/><line class="st4" x1="41.4" x2="16" y1="33" y2="24"/><path class="st13" d="M50.6,46.5c0.3,0,0.4-0.2,0.5-0.3c0-0.1,0.1-0.3-0.1-0.5L40.4,35.1c-0.4-0.4-0.6-1.1-0.3-1.6   c0.1-0.2,0.2-0.3,0.3-0.4h-3.9c-0.9,0-1.3,1.1-0.7,1.7l10.6,10.6c0.4,0.4,0.4,0.8,0.1,1.2H50.6z"/><g><path class="st13" d="M37.8,17.2c0.4,0.3,0.4,0.9,0.2,1.3h4.1c0.3,0,0.4-0.3,0.5-0.3c0-0.1,0.1-0.3-0.2-0.6L28.3,5.9    c-0.1-0.1-0.2-0.1-0.3-0.1s-0.2,0-0.3,0.1l-1.8,1.5L37.8,17.2z"/><path class="st13" d="M42.3,31.3c0.4,0.4,0.4,0.8,0.1,1.2h4.1c0.3,0,0.4-0.2,0.5-0.3c0-0.1,0.1-0.3-0.1-0.5L36.4,21.1    c-0.4-0.4-0.6-1.1-0.3-1.6c0.1-0.2,0.2-0.3,0.3-0.4h-3.9c-0.9,0-1.3,1.1-0.7,1.7L42.3,31.3z"/></g><line class="st4" x1="18.6" x2="36.5" y1="19" y2="12"/><circle class="st21" cx="19.4" cy="19.2" r="3"/><line class="st4" x1="40.7" x2="5.4" y1="34.7" y2="47"/><circle class="st22" cx="40.4" cy="33" r="3"/><path class="st23" d="M28.9,1.1l0.8,1.6c0.2,0.3,0.4,0.5,0.8,0.6l1.6,0.2c0.9,0.1,1.2,1.3,0.6,1.9l-1.1,1.1c-0.3,0.3-0.4,0.6-0.3,1   l0.3,1.6c0.2,0.9-0.7,1.6-1.5,1.2l-1.5-0.8c-0.3-0.2-0.6-0.2-0.9,0L26,10.4c-0.8,0.4-1.6-0.3-1.5-1.2l0.3-1.6   c0.1-0.4-0.1-0.7-0.3-1l-1.1-1.1c-0.6-0.6-0.3-1.8,0.6-1.9l1.6-0.2c0.3-0.1,0.6-0.3,0.8-0.6l0.8-1.6C27.5,0.3,28.5,0.3,28.9,1.1z"/></g></svg>