<?xml version="1.0" ?><svg viewBox="0 0 24 24" xmlns="http://www.w3.org/2000/svg" xmlns:xlink="http://www.w3.org/1999/xlink"><defs><linearGradient gradientUnits="userSpaceOnUse" id="a" x1="4.66436" x2="19.33564" y1="6.12852" y2="20.7998"><stop offset="0" stop-color="#fff" stop-opacity="0"/><stop offset="1" stop-color="#fff" stop-opacity="0.1"/></linearGradient></defs><title/><path d="M16,4.84082V3a.49945.49945,0,0,0-.3418-.47412,11.80768,11.80768,0,0,0-2.27374-.45056,1.5,1.5,0,1,0-2.76892,0,11.80768,11.80768,0,0,0-2.27374.45056A.49945.49945,0,0,0,8,3V4.84082a10,10,0,1,0,8,0ZM12,2a.5.5,0,1,1,.5-.5A.50065.50065,0,0,1,12,2Z"/><path d="M21,14a9.00079,9.00079,0,0,1-.1756,1.76215l-2.33514-.73871a.49422.49422,0,0,0-.30078,0l-3.01465.95215-3.01465-.95215a.49422.49422,0,0,0-.30078,0l-3.01563.95215L5.82129,15.023a.50947.50947,0,0,0-.30078,0l-2.34485.7395a8.92942,8.92942,0,0,1-.00006-3.5246l2.33514.73871a.49422.49422,0,0,0,.30078,0l3.01465-.95215,3.01465.95215a.49422.49422,0,0,0,.30078,0l3.01563-.95215,3.02148.95264a.50422.50422,0,0,0,.30078,0l2.34485-.7395A9.00332,9.00332,0,0,1,21,14Z" fill="#b388ff"/><path d="M9,3.37744a12.11114,12.11114,0,0,1,6,0v1.0838a9.98693,9.98693,0,0,0-6,0Z" fill="#e3f2fd"/><path d="M12,5a9.01388,9.01388,0,0,1,8.57312,6.26782l-2.244.70777L15.30762,11.023a.50172.50172,0,0,0-.30078.00049l-3.01563.95215-3.01465-.95215a.49422.49422,0,0,0-.30078,0l-3.01465.95215-2.23462-.70673A9.01394,9.01394,0,0,1,12,5Z" fill="#a0f"/><path d="M12,23a9.01388,9.01388,0,0,1-8.57312-6.26782l2.244-.70777,3.02148.95264A.50838.50838,0,0,0,8.84277,17a.49339.49339,0,0,0,.15039-.02344l3.01563-.95215,3.01465.95215a.49422.49422,0,0,0,.30078,0l3.01465-.95215,2.23468.70673A9.014,9.014,0,0,1,12,23Z" fill="#a0f"/><path d="M9,4.46124a9.99726,9.99726,0,0,1,1-.25232V3.37744A5.69449,5.69449,0,0,1,12,3a12.34787,12.34787,0,0,0-3,.37744Z" fill="#fff" opacity="0.2"/><path d="M12,3a5.69449,5.69449,0,0,1,2,.37744v.83148a9.99726,9.99726,0,0,1,1,.25232V3.37744A12.34787,12.34787,0,0,0,12,3Z" opacity="0.2"/><path d="M18.48926,15.02344l2.33514.73871a8.92942,8.92942,0,0,0-.00006-3.5246l-1.9361.61059a8.94448,8.94448,0,0,1-.60528,2.1753A.4885.4885,0,0,1,18.48926,15.02344Z" opacity="0.2"/><path d="M18.98645,11.76825l1.58667-.50043A9.0294,9.0294,0,0,0,17.926,7.2356,8.9584,8.9584,0,0,1,19,11.5C19,11.59058,18.98914,11.67834,18.98645,11.76825Z" opacity="0.2"/><path d="M10,20.5a8.95584,8.95584,0,0,1-5.90411-2.21808,8.9894,8.9894,0,0,0,16.47766-1.55078l-2.23468-.70673-.70233.22181A8.985,8.985,0,0,1,10,20.5Z" opacity="0.2"/><path d="M16,4.84082V3a.49945.49945,0,0,0-.3418-.47412,11.80768,11.80768,0,0,0-2.27374-.45056,1.5,1.5,0,1,0-2.76892,0,11.80768,11.80768,0,0,0-2.27374.45056A.49945.49945,0,0,0,8,3V4.84082a10,10,0,1,0,8,0ZM12,2a.5.5,0,1,1,.5-.5A.50065.50065,0,0,1,12,2Z" fill="url(#a)"/></svg>