<?xml version="1.0" ?><svg id="Layer_1" style="enable-background:new 0 0 24 24;" version="1.1" viewBox="0 0 24 24" xml:space="preserve" xmlns="http://www.w3.org/2000/svg" xmlns:xlink="http://www.w3.org/1999/xlink"><g id="XMLID_1749_"><ellipse cx="14.008" cy="10" id="XMLID_1724_" rx="8.492" ry="8.499" style="fill:#F8F8F8;"/><path d="M14.008,10l0.006-0.002l-0.005-0.005c0,0,1.54-3.503,6.363-5.606   C18.816,2.621,16.545,1.5,14.007,1.5c-0.571,0-1.128,0.058-1.667,0.166C11.743,6.907,14.008,10,14.008,10z" id="XMLID_1731_" style="fill:#D51C29;"/><path d="M14.008,10l-0.005-0.005L14.001,10c0,0-3.804,0.418-8.037-2.708   c-0.751,2.231-0.586,4.758,0.683,6.956c0.285,0.494,0.615,0.948,0.977,1.361C12.463,13.508,14.008,10,14.008,10z" id="XMLID_1734_" style="fill:#D51C29;"/><path d="M14.008,10l-0.002,0.006l0.006-0.002c0,0,2.264,3.085,1.674,8.314   c2.308-0.465,4.413-1.872,5.682-4.069c0.285-0.494,0.513-1.006,0.69-1.527C17.818,9.583,14.008,10,14.008,10z" id="XMLID_1737_" style="fill:#D51C29;"/><path d="M14.008,1.5c-4.69,0-8.492,3.806-8.492,8.5   s3.802,8.499,8.492,8.499S22.5,14.694,22.5,10S18.698,1.5,14.008,1.5z M12.992,14.995C9.683,14.995,7,12.31,7,8.998   S9.683,3,12.992,3s5.992,2.685,5.992,5.997S16.301,14.995,12.992,14.995z" id="XMLID_1743_" style="opacity:0.1;enable-background:new    ;"/><circle cx="11.992" cy="8.005" id="XMLID_1739_" r="3.992" style="opacity:0.2;fill:#FFFFFF;enable-background:new    ;"/><path d="M22.543,12.814C22.836,11.928,23,10.983,23,10c0-2.25-0.835-4.305-2.205-5.885   c-0.032-0.049-0.069-0.091-0.114-0.125C19.034,2.159,16.656,1,14.007,1c-0.566,0-1.117,0.059-1.654,0.159   c-0.074-0.003-0.143,0.01-0.206,0.037c-3.119,0.66-5.641,2.943-6.65,5.921C5.49,7.137,5.48,7.155,5.476,7.175   c-0.295,0.889-0.46,1.837-0.46,2.824c0,2.297,0.872,4.389,2.292,5.981l-6.161,6.166c-0.195,0.195-0.195,0.512,0,0.707   C1.245,22.951,1.373,23,1.501,23s0.256-0.049,0.354-0.146l6.16-6.165c1.593,1.431,3.69,2.31,5.994,2.31   c3.956,0,7.317-2.573,8.516-6.133C22.53,12.848,22.54,12.832,22.543,12.814z M21.763,11.897c-2.92-1.968-5.553-2.361-6.886-2.415   c0.684-1.055,2.305-3.055,5.361-4.479C21.338,6.373,22,8.11,22,10C22,10.654,21.912,11.287,21.763,11.897z M19.538,4.238   c-3.152,1.543-4.826,3.622-5.541,4.752c-0.57-1.123-1.482-3.534-1.187-6.889c0.392-0.059,0.79-0.1,1.198-0.1   C16.154,2,18.101,2.856,19.538,4.238z M11.783,2.322c-0.246,3.519,0.731,6.002,1.352,7.186c-1.257-0.066-3.801-0.47-6.565-2.414   C7.469,4.797,9.395,3.016,11.783,2.322z M6.258,8.082c2.918,1.969,5.561,2.38,6.896,2.435c-0.682,1.055-2.307,3.051-5.378,4.478   c-1.099-1.37-1.76-3.106-1.76-4.995C6.016,9.337,6.105,8.697,6.258,8.082z M8.487,15.769c3.168-1.546,4.828-3.634,5.543-4.764   c0.571,1.122,1.492,3.528,1.195,6.89c-0.398,0.061-0.802,0.103-1.217,0.103C11.867,17.999,9.924,17.147,8.487,15.769z    M16.236,17.676c0.244-3.512-0.722-6.007-1.342-7.192c1.253,0.064,3.787,0.474,6.554,2.416   C20.55,15.198,18.625,16.981,16.236,17.676z" id="XMLID_1400_" style="fill:#303C42;"/><linearGradient gradientUnits="userSpaceOnUse" id="XMLID_2_" x1="4.1479" x2="20.4358" y1="9.8828" y2="17.4779"><stop offset="0" style="stop-color:#FFFFFF;stop-opacity:0.2"/><stop offset="1" style="stop-color:#FFFFFF;stop-opacity:0"/></linearGradient><path d="M22.543,12.814C22.836,11.928,23,10.983,23,10   c0-2.25-0.835-4.305-2.205-5.885c-0.032-0.049-0.069-0.091-0.114-0.125C19.034,2.159,16.656,1,14.007,1   c-0.566,0-1.117,0.059-1.654,0.159c-0.074-0.003-0.143,0.01-0.206,0.037c-3.119,0.66-5.641,2.943-6.65,5.921   C5.49,7.137,5.48,7.155,5.476,7.175c-0.295,0.889-0.46,1.837-0.46,2.824c0,2.297,0.872,4.389,2.292,5.981l-6.161,6.166   c-0.195,0.195-0.195,0.512,0,0.707C1.245,22.951,1.373,23,1.501,23s0.256-0.049,0.354-0.146l6.16-6.165   c1.593,1.431,3.69,2.31,5.994,2.31c3.956,0,7.317-2.573,8.516-6.133C22.53,12.848,22.54,12.832,22.543,12.814z" id="XMLID_1761_" style="fill:url(#XMLID_2_);"/></g></svg>