<svg id="Layer_1" enable-background="new 0 0 512.011 512.011" height="512" viewBox="0 0 512.011 512.011" width="512" xmlns="http://www.w3.org/2000/svg"><g><g clip-rule="evenodd" fill-rule="evenodd"><g><path d="m299.997 462.005h-189.995-40.001-39.997c-11.048 0-20.003 8.956-20.003 20.003 0 11.048 8.956 20.003 20.003 20.003h343.242c26.902 0 52.187-7.594 73.819-20.755 22.227-13.522 40.528-33.014 52.668-56.237 5.092-9.753 1.314-21.787-8.438-26.879-9.753-5.092-21.787-1.314-26.879 8.439-8.736 16.71-21.988 30.786-38.135 40.61-15.442 9.395-33.602 14.816-53.035 14.816h-33.247z" fill="#ffc144"/><path d="m299.997 422.004h40.001v40.001h-40.001z" fill="#ffda8f"/><path d="m70.001 422.004h40.001v40.001h-40.001z" fill="#ffda8f"/><path d="m400 302.006h-72.117c-10.888 0-19.09 4.816-21.824 15.753-2.021 8.083-4.042 16.166-6.062 24.249h113.336l4.718-14.152c4.139-12.419-4.8-25.85-18.051-25.85z" fill="#ffc144"/><path d="m157.198 282.005c-23.227-39.618-54.37-40.314-108.585-40.067-5.922.027-12.12.065-18.613.065-11 0-20 8.999-20 19.999v20.002h147.198z" fill="#ffc144"/><path d="m157.198 282.005h-147.198v99.999c0 22 18 40 40 40h20.001 40.001 189.995 40.001 20.002c21.998 0 33.044-19.132 40-40l13.333-39.997h-113.336c-1.334 5.335-4.501 10-10 10h-96.376c-1.785 0-3.435-.272-4.931-.769-4.473-1.487-7.557-4.986-8.694-9.23-7.042-26.281-14.403-45.684-22.798-60.003z" fill="#ff5d7d"/></g><g><path d="m350.027 54.33c4.017 4.137 9.729 6.721 16.066 6.721 12.16 0 22.018-9.518 22.018-21.258s-9.858-21.258-22.018-21.258c-8.404 0-15.708 4.546-19.419 11.229-1.659 2.987-2.599 6.402-2.599 10.028-.001 5.624 2.26 10.736 5.952 14.538z" fill="#fff"/><path d="m327.552 65.307c7.559-3.465 15.06-7.144 22.474-10.977-3.691-3.802-5.952-8.914-5.952-14.537 0-3.626.941-7.041 2.6-10.028-64.376-35.883-167.738-27.418-167.738 63.173h154.128c0-9.536-1.897-18.907-5.512-27.631z" fill="#ff5d7d"/><path d="m333.064 82.937h-154.128-.445c-5.81 0-10.564 4.783-10.564 10.629v20.629c0 5.846 4.754 10.629 10.564 10.629h.445 11.701 130.725 11.701.445c5.81 0 10.564-4.783 10.564-10.629v-20.629c0-5.846-4.754-10.629-10.564-10.629z" fill="#fff"/><path d="m239.155 180.477c-45.694 19.573-52.289-13.138-48.518-55.653h-11.701c-5.321 8.203-8.443 24.526-8.787 40.921-.053 2.51-.04 5.023.04 7.508.623 19.456-7.766 19.96-7.766 36.483 0 22.176 18.62 40.153 41.59 40.153 6.386 0 12.026 2.61 14.784 7.925 6.828 13.158 20.922 22.191 37.203 22.191s30.375-9.033 37.203-22.191c2.758-5.316 8.399-7.925 14.784-7.925 22.969 0 41.59-17.977 41.59-40.153 0-16.523-8.39-17.027-7.766-36.483.08-2.485.092-4.997.04-7.508-.344-16.395-3.466-32.718-8.787-40.921h-11.701c3.771 42.515-2.824 75.226-48.518 55.653-5.149-2.205-10.849-3.431-16.845-3.431s-11.696 1.226-16.845 3.431z" fill="#fff"/><g fill="#ffdcd5"><path d="m190.637 124.824c-3.771 42.515 2.824 75.226 48.518 55.653 5.149-2.205 10.848-3.431 16.845-3.431 5.996 0 11.696 1.225 16.845 3.431 45.694 19.573 52.289-13.138 48.518-55.653z"/><path d="m170.149 165.745c.343-16.395 3.466-32.718 8.787-40.921h-.445-9.188c-11.656 0-21.193 9.207-21.193 20.461s9.537 20.46 21.193 20.46z"/><path d="m333.064 124.824c5.321 8.203 8.443 24.526 8.787 40.921h.847c11.656 0 21.192-9.207 21.192-20.46s-9.537-20.461-21.192-20.461h-9.188z"/></g></g><path d="m256 280.005c-16.281 0-30.375-9.033-37.203-22.191-2.758-5.316-8.399-7.925-14.784-7.925-22.969 0-41.59-17.977-41.59-40.153-16.735 4.484-34.187 26.01-34.967 42.385 11.503 5.927 21.163 15.25 29.742 29.884 8.395 14.319 15.756 33.722 22.798 60.002 1.517 5.663 6.501 10 13.625 10h96.376c5.499 0 8.666-4.665 10-10 2.021-8.083 4.041-16.166 6.062-24.249 2.734-10.937 10.936-15.753 21.824-15.753h36.058c0-25.001-15.412-51.636-26.805-63.629-7.505 7.12-17.796 11.512-29.149 11.512-6.386 0-12.026 2.61-14.784 7.925-6.828 13.159-20.922 22.192-37.203 22.192z" fill="#ff5d7d"/><path d="m127.456 252.121c.78-16.376 18.232-37.901 34.967-42.385 0-16.523 8.39-17.027 7.766-36.483-.08-2.485-.092-4.997-.04-7.508h-.846c-11.656 0-21.193-9.207-21.193-20.46 0-11.217 9.476-20.402 21.081-20.46h-7.688c-4.652 0-8.963 1.537-12.449 4.129-6.23-1.252-12.569-1.883-18.923-1.883-53.019 0-96 42.981-96 96 0 6.354.631 12.692 1.883 18.924 40.76-.125 69.466-1.197 91.442 10.126z" fill="#5cd0b3"/></g><g><path d="m510.622 406.835c-2.394-7.625-7.614-13.862-14.699-17.562-14.625-7.637-32.736-1.949-40.369 12.67-7.887 15.088-19.807 27.779-34.47 36.7-14.366 8.74-30.908 13.36-47.838 13.36h-23.247v-20.001h10.001c33.873 0 45.624-35.253 49.485-46.837l18.051-54.148c3.029-9.084 1.483-19.162-4.134-26.957-5.521-7.661-14.052-12.055-23.402-12.055h-26.838c-2.689-20.95-13.423-40.979-22.969-53.48 5.904-8.155 9.385-18.082 9.385-28.79 0-9.881-2.556-15.692-4.609-20.361-1.643-3.736-2.986-6.805-3.166-12.697 16.459-.687 29.639-14.286 29.639-30.91 0-15.867-12.006-28.976-27.41-30.736.011-.28.042-.554.042-.837v-20.63c0-8.735-5.466-16.2-13.149-19.204-.299-1.286-.636-2.561-.997-3.829 2.963-1.424 5.949-2.882 8.962-4.398 4.973 3.106 10.874 4.916 17.204 4.916 17.655 0 32.019-14.022 32.019-31.257 0-17.236-14.363-31.258-32.019-31.258-8.528 0-16.281 3.278-22.025 8.603-18.83-9.178-40.357-15.041-61.502-16.661-25.693-1.969-49.258 2.223-68.16 12.117-24.418 12.782-39.537 34.149-44.031 62.043-7.315 3.174-12.448 10.46-12.448 18.928v20.629c0 .282.031.557.042.837-3.927.449-7.632 1.633-10.974 3.415-5.571-.897-11.23-1.378-16.863-1.378-58.449 0-106.001 47.552-106.001 106 0 3.144.144 6.297.425 9.438-13.952 2.57-24.557 14.814-24.557 29.496v120c0 27.57 22.43 50 50 50h10.001v20.001h-29.997c-16.544.001-30.004 13.461-30.004 30.004 0 16.544 13.46 30.003 30.004 30.003h343.242c27.808 0 55.131-7.681 79.017-22.212 23.877-14.526 43.356-35.325 56.335-60.151 3.699-7.085 4.419-15.186 2.024-22.811zm-180.623 45.168h-20.002v-20.001h20.002zm77.178-136.25c1.869 2.594 2.388 5.935 1.386 8.938l-2.438 7.315h-93.32l2.956-11.823c1.012-4.044 3.242-8.178 12.124-8.178h72.115c3.894-.001 6.168 2.347 7.177 3.748zm-79.293-23.749c-16.329 0-27.82 8.502-31.526 23.327l-6.062 24.248c-.305 1.217-.685 2.005-.946 2.426h-23.35v-52.945c15.46-2.932 28.783-12.583 36.079-26.642 1.144-2.203 4.192-2.532 5.908-2.532 10.083 0 19.491-2.837 27.447-7.718 7.279 9.973 14.972 24.983 17.505 39.835h-25.055zm-189.249-44.928c2.45-7.805 8.976-16.535 16.216-22.143 6.639 20.246 26.163 34.953 49.161 34.953 1.382 0 4.723.247 5.908 2.531 7.296 14.058 20.619 23.71 36.079 26.642v52.944h-52.379c-2.704 0-3.649-1.407-3.966-2.588-13.535-50.512-28.444-77.603-51.019-92.339zm22.869-112.254h2.64c-1.85 6.883-2.975 14.47-3.546 21.841-5.612-.463-10.039-5.169-10.039-10.898.001-6.033 4.91-10.943 10.945-10.943zm16.423-20.629v-20.629c0-.323.306-.629.629-.629h154.889c.323 0 .629.306.629.629v20.629c0 .323-.304.627-.627.628h-.383c-.003 0-.006 0-.01 0h-154.498c-.324.001-.629-.304-.629-.628zm78.073 155.81c-12.096 0-22.95-6.437-28.327-16.796-4.327-8.34-13.172-13.32-23.66-13.32-17.419 0-31.59-13.526-31.59-30.153 0-5.678 1.16-8.316 2.917-12.31 2.337-5.315 5.246-11.93 4.844-24.494-.16-5.005-.02-10.096.378-14.98 1.63 13.157 5.971 25.417 15.801 32.479 11.142 8.005 26.864 7.748 46.729-.761 4.064-1.741 8.408-2.624 12.908-2.624 4.501 0 8.844.882 12.907 2.623 19.864 8.51 35.588 8.766 46.73.762 9.831-7.062 14.172-19.321 15.801-32.48.397 4.885.539 9.976.378 14.981-.402 12.564 2.507 19.179 4.844 24.495 1.757 3.994 2.917 6.632 2.917 12.31 0 16.626-14.171 30.153-31.59 30.153-10.486 0-19.332 4.979-23.66 13.319-5.377 10.36-16.231 16.796-28.327 16.796zm56.035-135.181c1.306 26.574-3.551 36.119-8.067 39.363-6.3 4.526-18.263.92-27.187-2.903-6.566-2.812-13.559-4.238-20.782-4.238s-14.214 1.426-20.782 4.238c-8.925 3.823-20.886 7.431-27.187 2.903-4.516-3.244-9.373-12.789-8.066-39.363zm49.405 10.944c0 5.729-4.427 10.435-10.039 10.898-.571-7.371-1.696-14.957-3.546-21.841h2.641c6.035-.001 10.944 4.909 10.944 10.943zm4.653-117.233c6.627 0 12.019 5.05 12.019 11.258 0 6.207-5.392 11.257-12.019 11.257s-12.019-5.05-12.019-11.257 5.392-11.258 12.019-11.258zm-142.412 1.779c29.436-15.408 73.95-13.417 110.824 4.395-.279 1.656-.43 3.353-.43 5.085 0 3.664.655 7.18 1.846 10.449-1.258.62-2.508 1.228-3.755 1.831-2.607-4.567-5.644-8.913-9.105-12.966-3.587-4.199-9.898-4.696-14.099-1.109s-4.696 9.899-1.11 14.099c5.295 6.199 9.318 13.275 11.893 20.841h-128.67c4.319-19.212 15.238-33.534 32.606-42.625zm-93.549 106.756c.556 0 1.113.027 1.67.038-.803 2.75-1.242 5.654-1.242 8.66 0 16.624 13.18 30.223 29.639 30.91-.18 5.892-1.523 8.96-3.166 12.697-1.519 3.453-3.309 7.535-4.14 13.42-13.95 6.512-26.804 20.897-32.371 35.619-20.241-6.723-44.503-6.609-75.538-6.457-.123.001-.25.001-.373.002-.307-2.955-.48-5.925-.48-8.888 0-47.422 38.58-86.001 86.001-86.001zm-100.132 114.934c5.214 0 10.237-.024 15.081-.048 36.231-.173 62.405-.305 80.83 10.745 4.081 2.447 7.902 5.521 11.511 9.305h-117.422v-10.002c0-5.515 4.486-10 10-10zm-10 130v-89.999h131.287c6.905 13.127 13.085 30.334 19.05 52.591 2.791 10.414 12.148 17.411 23.284 17.411h96.376c6.984 0 12.927-3.693 16.647-10h92.813l-8.945 26.834c-9.797 29.393-21.452 33.162-30.512 33.162h-110.004c-5.522 0-10 4.477-10 10s4.478 10 10 10h40.001v20.001h-169.995v-20.001h39.994c5.522 0 10-4.477 10-10s-4.478-10-10-10h-109.996c-16.542.001-30-13.457-30-29.999zm60.001 50h20.001v20.001h-20.001zm410.87-11.618c-11.29 21.598-28.235 39.692-49.003 52.326-20.753 12.625-44.482 19.299-68.622 19.299h-343.242c-5.517 0-10.004-4.488-10.004-10.003s4.487-10.003 10.004-10.003h343.242c20.597 0 40.733-5.627 58.232-16.273 17.772-10.812 32.227-26.208 41.802-44.525 2.532-4.85 8.538-6.734 13.386-4.203 2.35 1.227 4.081 3.295 4.874 5.823.794 2.528.556 5.215-.669 7.559z"/><path d="m224.975 163.167c5.522 0 10-4.477 10-10s-4.478-10-10-10h-.006c-5.522 0-9.997 4.477-9.997 10s4.48 10 10.003 10z"/><path d="m287.026 163.167h.005c5.522 0 9.998-4.477 9.998-10s-4.48-10-10.003-10-10 4.477-10 10 4.478 10 10 10z"/><path d="m281.441 203.58c-3.904-3.905-10.237-3.905-14.142 0-3.019 3.019-7.031 4.681-11.3 4.681s-8.281-1.662-11.3-4.681c-3.903-3.905-10.236-3.906-14.142 0-3.906 3.905-3.906 10.237-.001 14.142 6.796 6.796 15.831 10.539 25.442 10.539s18.646-3.743 25.442-10.539c3.908-3.905 3.908-10.237.001-14.142z"/><path d="m205 432.002c5.522 0 10-4.477 10-10s-4.478-10-10-10h-.008c-5.522 0-9.996 4.477-9.996 10s4.482 10 10.004 10z"/></g></g></svg>