<?xml version="1.0" encoding="UTF-8"?>
<svg xmlns="http://www.w3.org/2000/svg" viewBox="0 0 100 100"><g><circle cx="46.8" cy="68.9" r="23.8" fill="#f2f2f2" stroke="#000" stroke-width="3" stroke-linecap="round" stroke-miterlimit="10"/><circle cx="45.7" cy="63.5" r="2.7" fill="#8cc63f" stroke="#000" stroke-width="3" stroke-linecap="round" stroke-miterlimit="10"/><circle cx="45.7" cy="73" r="2.7" fill="#8cc63f" stroke="#000" stroke-width="3" stroke-linecap="round" stroke-miterlimit="10"/><circle cx="45.7" cy="82.5" r="2.7" fill="#8cc63f" stroke="#000" stroke-width="3" stroke-linecap="round" stroke-miterlimit="10"/></g><g><path fill="none" stroke="#000" stroke-width="3" stroke-linecap="round" stroke-miterlimit="10" d="M29.7 53.6l-17.5-16"/><path fill="none" stroke="#000" stroke-width="3" stroke-linecap="round" stroke-miterlimit="10" d="M12.1 52l9.4-5.7"/></g><g><path fill="none" stroke="#000" stroke-width="3" stroke-linecap="round" stroke-miterlimit="10" d="M61.8 56.1L84.9 39"/><path fill="none" stroke="#000" stroke-width="3" stroke-linecap="round" stroke-miterlimit="10" d="M87.9 49.5l-15.4-1.3"/></g><g><circle transform="rotate(-3.642 45.717 39.027) scale(1.00002)" cx="45.7" cy="39" fill="#f2f2f2" stroke="#000" stroke-width="3" stroke-linecap="round" stroke-miterlimit="10" r="13.8"/><circle cx="39.9" cy="37.6" r="1" stroke="#000" stroke-width="3" stroke-miterlimit="10"/><circle cx="49.4" cy="39.7" r="1" stroke="#000" stroke-width="3" stroke-miterlimit="10"/><path d="M35.2 50.9c1.8-2.6 3.5-5.2 5.3-7.8.5-.7 1.5-.8 2-.1 1.1 1.6 2.2 3.3 3.4 4.9.4.6.1 1.5-.7 1.8l-8.7 2.9c-1 .3-1.9-.8-1.3-1.7z" fill="#ed1c24" stroke="#000" stroke-width="3" stroke-miterlimit="10"/></g><g><g><path d="M72.4 14.9c-3.8 2.9-6.2 7.3-6.6 12.1-.3 3.7-1.1 5-2 5.2-6.3 1.7-15-2.5-23.1-7.9-.6-.4-1.5-1.1-1.8-2.2-.2-.8-.1-1.6.7-3.5.4-1 1.3-3.2 2.4-4.6 2.9-3.8 9.5-5 11.6-5.3 9.7-1.5 19-.2 25.1 1.1-1.3 1.3-1.6 1.6-6.3 5.1z" fill="red" stroke="#000" stroke-width="3" stroke-miterlimit="10"/></g><path d="M64.1 37.2L34 27.1c-2-.7-3.1-2.9-2.5-5l.1-.3c.7-2 2.9-3.1 5-2.5l30 10.1c2 .7 3.1 2.9 2.5 5l-.1.4c-.7 2-2.9 3.1-4.9 2.4z" fill="#fff" stroke="#000" stroke-width="3" stroke-miterlimit="10"/><circle transform="rotate(-41.384 78.336 10.532)" cx="78.3" cy="10.5" fill="#fff" stroke="#000" stroke-width="3" stroke-miterlimit="10" r="3.2"/></g><metadata xmlns:d="https://loading.io/stock/">
<d:name>snowman</d:name>
<d:tags>snowman,christmas,cold,snowball,snow</d:tags>
<d:license>by</d:license>
<d:slug>rqhh1t</d:slug>
</metadata><script xmlns=""/></svg>