<svg id="icons" xmlns="http://www.w3.org/2000/svg" viewBox="0 0 110 110"><title>snowman</title><circle cx="55" cy="55" r="55" fill="#bfc9fe"/><g id="snowman"><path d="M39.78,57.31,35,64l-.25.3L32,62c.09,0,3.85-5.36,4.79-6.7L37,55Z" fill="#8096fe"/><polygon points="73 55 78 62 75.25 64.3 75 64 70.22 57.31 73 55" fill="#8096fe"/><path d="M37,49.5V55l-.21.3L32,62l-2.85-2.43a6,6,0,0,1-1-8,3.68,3.68,0,0,1,4.62-1.14L34,51V49.5a1.51,1.51,0,0,1,3,0Z" fill="#fff"/><path d="M81.87,51.53a6,6,0,0,1-1,8L78,62l-5-7V49.5a1.51,1.51,0,0,1,3,0V51l1.23-.61A3.68,3.68,0,0,1,81.87,51.53Z" fill="#fff"/><path d="M64,75V57c1.13,1.13,3.94,2.21,5.17,1.19l1-.88L75,64l.25.3-2.17,1.8A3,3,0,0,0,72,68.41l-.21,1.7a16.91,16.91,0,0,1-33.58,0L38,68.41a3,3,0,0,0-1.08-2.31l-2.17-1.8L35,64l4.78-6.69,1,.88c1.23,1,4-.06,5.17-1.19V75h4V60l.2-.42a12,12,0,0,0,9.6,0L60,60V75Z" fill="#fff"/><path d="M47.62,58a12,12,0,0,0,2.58,1.54L50,60V75H46V57l.21-.19a5.15,5.15,0,0,0,.71.69Z" fill="#fe66bd"/><path d="M64,57V75H60V60l-.2-.42A12,12,0,0,0,62.38,58l.7-.54a5.15,5.15,0,0,0,.71-.69Z" fill="#fe66bd"/><path d="M55,54.5a13,13,0,0,0,9.91-4.58L65,50v3.56a4.9,4.9,0,0,1-.2,1.38,4.8,4.8,0,0,1-1,1.87,5.15,5.15,0,0,1-.71.69l-.7.54a12,12,0,0,1-14.76,0l-.7-.54a5.15,5.15,0,0,1-.71-.69,4.8,4.8,0,0,1-1-1.87,4.9,4.9,0,0,1-.2-1.38V50l.09-.08A13,13,0,0,0,55,54.5Z" fill="#fe66bd"/><path d="M72,42c0,5.65-2.76,9.91-7,13l-.2-.06a4.9,4.9,0,0,0,.2-1.38V50l-.09-.08a13,13,0,0,1-19.82,0L45,50v3.56a4.9,4.9,0,0,0,.2,1.38L45,55c-4.24-3.09-7-7.35-7-13a17,17,0,0,1,34,0Z" fill="#8096fe"/><circle cx="55" cy="42" r="13.5" fill="#fff"/><polyline points="52 39 55 28 58 39" fill="#fe66bd"/><path d="M36.79,55.3C35.85,56.64,32.09,62,32,62l2.75,2.3,2.17,1.8A3,3,0,0,1,38,68.41l.21,1.7a16.91,16.91,0,0,0,33.58,0l.21-1.7a3,3,0,0,1,1.08-2.31l2.17-1.8L78,62l-5-7-2.78,2.31-1,.88c-1.23,1-4-.06-5.17-1.19" fill="none" stroke="#300f9e" stroke-linecap="round" stroke-linejoin="round" stroke-width="2"/><path d="M46,57c-1.13,1.13-3.94,2.21-5.17,1.19l-1-.88L37,55" fill="none" stroke="#300f9e" stroke-linecap="round" stroke-linejoin="round" stroke-width="2"/><path d="M45,55c-4.24-3.09-7-7.35-7-13a17,17,0,0,1,34,0c0,5.65-2.76,9.91-7,13" fill="none" stroke="#300f9e" stroke-linecap="round" stroke-miterlimit="10" stroke-width="2"/><path d="M59.65,29.5A12.93,12.93,0,0,1,68,41.58a12.78,12.78,0,0,1-3.09,8.34,13,13,0,0,1-19.82,0A12.78,12.78,0,0,1,42,41.58,12.93,12.93,0,0,1,50.36,29.5" fill="none" stroke="#300f9e" stroke-linecap="round" stroke-linejoin="round" stroke-width="2"/><path d="M62,38c0,4.42-3.13,8-7,8s-7-3.58-7-8" fill="none" stroke="#300f9e" stroke-linecap="round" stroke-linejoin="round" stroke-width="2"/><polyline points="52 38 55 28 58 38" fill="none" stroke="#300f9e" stroke-linecap="round" stroke-linejoin="round" stroke-width="2"/><path d="M65,50v3.56a4.9,4.9,0,0,1-.2,1.38,4.8,4.8,0,0,1-1,1.87,5.15,5.15,0,0,1-.71.69l-.7.54a12,12,0,0,1-14.76,0l-.7-.54a5.15,5.15,0,0,1-.71-.69,4.8,4.8,0,0,1-1-1.87,4.9,4.9,0,0,1-.2-1.38V50" fill="none" stroke="#300f9e" stroke-linecap="round" stroke-linejoin="round" stroke-width="2"/><polyline points="50 60 50 75 46 75 46 57" fill="none" stroke="#300f9e" stroke-linecap="round" stroke-linejoin="round" stroke-width="2"/><polyline points="60 60 60 75 64 75 64 57" fill="none" stroke="#300f9e" stroke-linecap="round" stroke-linejoin="round" stroke-width="2"/><path d="M37,55V49.5a1.51,1.51,0,0,0-3,0V51l-1.23-.61a3.68,3.68,0,0,0-4.62,1.14,6,6,0,0,0,1,8L32,62l4.83-6.7Z" fill="none" stroke="#300f9e" stroke-linecap="round" stroke-linejoin="round" stroke-width="2"/><path d="M81.87,51.53a3.68,3.68,0,0,0-4.62-1.14L76,51V49.5a1.51,1.51,0,0,0-3,0V55l5,7,2.85-2.43A6,6,0,0,0,81.87,51.53Z" fill="none" stroke="#300f9e" stroke-linecap="round" stroke-linejoin="round" stroke-width="2"/><polyline points="40 57 39.78 57.31 35 64" fill="none" stroke="#300f9e" stroke-linejoin="round" stroke-width="2"/><polyline points="70 57 70.22 57.31 75 64" fill="none" stroke="#300f9e" stroke-linejoin="round" stroke-width="2"/><line x1="55" y1="65" x2="55" y2="65" fill="none" stroke="#300f9e" stroke-linecap="round" stroke-linejoin="round" stroke-width="2"/><line x1="55" y1="70" x2="55" y2="70" fill="none" stroke="#300f9e" stroke-linecap="round" stroke-linejoin="round" stroke-width="2"/><line x1="55" y1="75" x2="55" y2="75" fill="none" stroke="#300f9e" stroke-linecap="round" stroke-linejoin="round" stroke-width="2"/><line x1="80" y1="39" x2="80" y2="35.5" fill="none" stroke="#fff" stroke-linecap="round" stroke-miterlimit="10" stroke-width="2"/><line x1="80" y1="39" x2="80" y2="42.5" fill="none" stroke="#fff" stroke-linecap="round" stroke-miterlimit="10" stroke-width="2"/><line x1="80" y1="39" x2="77" y2="37.25" fill="none" stroke="#fff" stroke-linecap="round" stroke-miterlimit="10" stroke-width="2"/><line x1="80" y1="39" x2="83" y2="40.75" fill="none" stroke="#fff" stroke-linecap="round" stroke-miterlimit="10" stroke-width="2"/><line x1="80" y1="39" x2="83" y2="37.25" fill="none" stroke="#fff" stroke-linecap="round" stroke-miterlimit="10" stroke-width="2"/><line x1="80" y1="39" x2="77" y2="40.75" fill="none" stroke="#fff" stroke-linecap="round" stroke-miterlimit="10" stroke-width="2"/><line x1="30" y1="39" x2="30" y2="35.5" fill="none" stroke="#fff" stroke-linecap="round" stroke-miterlimit="10" stroke-width="2"/><line x1="30" y1="39" x2="30" y2="42.5" fill="none" stroke="#fff" stroke-linecap="round" stroke-miterlimit="10" stroke-width="2"/><line x1="30" y1="39" x2="27" y2="37.25" fill="none" stroke="#fff" stroke-linecap="round" stroke-miterlimit="10" stroke-width="2"/><line x1="30" y1="39" x2="33" y2="40.75" fill="none" stroke="#fff" stroke-linecap="round" stroke-miterlimit="10" stroke-width="2"/><line x1="30" y1="39" x2="33" y2="37.25" fill="none" stroke="#fff" stroke-linecap="round" stroke-miterlimit="10" stroke-width="2"/><line x1="30" y1="39" x2="27" y2="40.75" fill="none" stroke="#fff" stroke-linecap="round" stroke-miterlimit="10" stroke-width="2"/><line x1="46" y1="78" x2="46" y2="75" fill="none" stroke="#300f9e" stroke-linecap="round" stroke-linejoin="round" stroke-width="2"/><line x1="50" y1="75" x2="50" y2="78" fill="none" stroke="#300f9e" stroke-linecap="round" stroke-linejoin="round" stroke-width="2"/><line x1="60" y1="75" x2="60" y2="78" fill="none" stroke="#300f9e" stroke-linecap="round" stroke-linejoin="round" stroke-width="2"/><line x1="64" y1="75" x2="64" y2="78" fill="none" stroke="#300f9e" stroke-linecap="round" stroke-linejoin="round" stroke-width="2"/></g></svg>