<svg id="Layer_1" data-name="Layer 1" xmlns="http://www.w3.org/2000/svg" viewBox="0 0 500 500"><defs><style>.cls-1{fill:#efefef;}.cls-2{fill:#d3d3d3;}.cls-3{fill:#df3333;}.cls-4{fill:#b52d2d;}.cls-5{fill:#992828;}.cls-6{fill:none;stroke:#000;stroke-linecap:round;stroke-linejoin:round;stroke-width:15px;}</style></defs><title>snowman</title><path class="cls-1" d="M364.14,229c-11.68,7.73-52.72,31.61-114.14,31.61S147.54,236.73,135.86,229a156.05,156.05,0,1,0,228.28,0Z"/><path class="cls-1" d="M250,221.12c46.28,0,81-13.56,100.29-23.55a121.1,121.1,0,1,0-200.58,0C169,207.56,203.72,221.12,250,221.12Z"/><path class="cls-2" d="M364.14,229a166.44,166.44,0,0,1-22.76,12.37,156,156,0,0,1-108,249.17A156,156,0,0,0,364.14,229Z"/><path class="cls-2" d="M250,8.58a121.38,121.38,0,0,0-22.3,2.06,133.71,133.71,0,0,1,91.6,199.75,202.55,202.55,0,0,0,31-12.82A121.11,121.11,0,0,0,250,8.58Z"/><circle class="cls-3" cx="250" cy="156.92" r="22.61"/><path class="cls-4" d="M250,134.3a22.6,22.6,0,0,0-8.29,1.58,22.61,22.61,0,0,1,0,42.08A22.62,22.62,0,1,0,250,134.3Z"/><path class="cls-3" d="M132.44,226.61s44.27,34,117.56,34,117.56-34,117.56-34V198.75a6.31,6.31,0,0,0-9.5-5.46c-16.71,9.8-54.69,27.83-108.06,27.83s-91.35-18-108.06-27.83a6.31,6.31,0,0,0-9.5,5.46Z"/><path class="cls-4" d="M303.5,254.32V354.81h44.75V238.1A210,210,0,0,1,303.5,254.32Z"/><path class="cls-5" d="M348.25,265V238.1a210,210,0,0,1-44.75,16.22v26.93A209.45,209.45,0,0,0,348.25,265Z"/><circle cx="203.01" cy="126.33" r="15.34"/><circle cx="296.99" cy="126.33" r="15.34"/><circle cx="250" cy="308.39" r="11.92"/><circle cx="250" cy="354.81" r="11.92"/><circle cx="250" cy="401.23" r="11.92"/><circle class="cls-6" cx="250" cy="156.92" r="22.61"/><path class="cls-6" d="M132.44,226.61s44.27,34,117.56,34,117.56-34,117.56-34V198.75a6.31,6.31,0,0,0-9.5-5.46c-16.71,9.8-54.69,27.83-108.06,27.83s-91.35-18-108.06-27.83a6.31,6.31,0,0,0-9.5,5.46Z"/><path class="cls-6" d="M364.14,229c-11.68,7.73-52.72,31.61-114.14,31.61S147.54,236.73,135.86,229a156.05,156.05,0,1,0,228.28,0Z"/><path class="cls-6" d="M250,221.12c46.28,0,81-13.56,100.29-23.55a121.1,121.1,0,1,0-200.58,0C169,207.56,203.72,221.12,250,221.12Z"/><path class="cls-6" d="M303.5,254.32V354.81h44.75V238.1A210,210,0,0,1,303.5,254.32Z"/></svg>