<?xml version="1.0" encoding="UTF-8"?>
<svg width="300px" height="200px" viewBox="0 0 300 200" version="1.1" xmlns="http://www.w3.org/2000/svg" xmlns:xlink="http://www.w3.org/1999/xlink">
    <!-- Generator: Sketch 51.3 (57544) - http://www.bohemiancoding.com/sketch -->
    <title>snowman-with-hat-and-scarf</title>
    <desc>Created with Sketch.</desc>
    <defs></defs>
    <g id="snowman-with-hat-and-scarf" stroke="none" stroke-width="1" fill="none" fill-rule="evenodd">
        <g id="Snowman" transform="translate(66.000000, 0.000000)" fill-rule="nonzero">
            <ellipse id="Oval" fill="#FFFFFF" cx="83.5486009" cy="148.430108" rx="48.7725725" ry="48.7096774"></ellipse>
            <ellipse id="Oval" fill="#FFFFFF" cx="83.5486009" cy="9.29032258" rx="7.149004" ry="7.13978495"></ellipse>
            <ellipse id="Oval" fill="#F7DCDC" cx="18.2170403" cy="106.064516" rx="14.8578698" ry="14.8387097"></ellipse>
            <path d="M33.7424375,158.688172 C39.1793363,185.226702 64.489351,202.852525 91.3033681,198.773442 C118.117385,194.69436 137.024956,170.341935 134.303635,143.390298 C131.582313,116.43866 108.187154,96.3465566 81.0975364,97.6961248 C54.0079187,99.0456929 32.7310138,121.363299 32.7088466,148.451613 C32.7088466,149.639322 33.6729183,150.602151 34.8621611,150.602151 C36.0514038,150.602151 37.0154755,149.639322 37.0154755,148.451613 C37.041147,123.713992 56.4742001,103.336353 81.2131047,102.105663 C105.952009,100.874973 127.316535,119.223048 129.803584,143.835669 C132.290634,168.448289 115.027568,190.689534 90.5412716,194.420119 C66.0549757,198.150704 42.9370473,182.061663 37.9629339,157.827957 C37.8090728,157.059644 37.25648,156.431671 36.5133116,156.180591 C35.7701433,155.92951 34.9493045,156.093466 34.3599972,156.610698 C33.7706899,157.12793 33.5024439,157.919859 33.656305,158.688172 L33.7424375,158.688172 Z" id="Shape" fill="#662059"></path>
            <path d="M83.5916672,184.967742 C95.6397766,184.961092 106.913171,179.034108 113.73807,169.11828 C114.392267,168.138747 114.136109,166.815931 113.163397,166.15063 C112.190686,165.485329 110.863124,165.724936 110.185101,166.688172 C104.162984,175.433189 94.218934,180.660151 83.5916672,180.666667 C82.4024245,180.666667 81.4383528,181.629495 81.4383528,182.817204 C81.4383528,184.004913 82.4024245,184.967742 83.5916672,184.967742 Z" id="Shape" fill="#662059"></path>
            <path d="M0.624461193,94.4301075 L36.5848126,130.387097 C37.1110609,131.000809 37.937349,131.268133 38.7239561,131.079162 C39.5105631,130.89019 40.1247288,130.276816 40.3139444,129.491224 C40.5031601,128.705631 40.2354906,127.880408 39.620986,127.354839 L3.59603514,91.3763441 C2.7416855,90.6456413 1.46814235,90.6947693 0.672774634,91.4891114 C-0.122593079,92.2834534 -0.171784528,93.5553542 0.559861759,94.4086022" id="Shape" fill="#662059"></path>
            <path d="M15.9991264,83.1827957 L15.9991264,108.989247 C15.9991264,110.176956 16.9631981,111.139785 18.1524409,111.139785 C19.3416836,111.139785 20.3057553,110.176956 20.3057553,108.989247 L20.3057553,83.1827957 C20.3057553,81.9950866 19.3416836,81.0322581 18.1524409,81.0322581 C16.9631981,81.0322581 15.9991264,81.9950866 15.9991264,83.1827957" id="Shape" fill="#662059"></path>
            <path d="M164.254827,91.3763441 L115.568387,140 C114.836741,140.853248 114.885932,142.125149 115.6813,142.919491 C116.476667,143.713833 117.750211,143.762961 118.60456,143.032258 L167.291,94.4086022 C167.905505,93.8830325 168.173174,93.0578099 167.983959,92.2722173 C167.794743,91.4866246 167.180577,90.8732509 166.39397,90.6842793 C165.607363,90.4953076 164.781075,90.7626319 164.254827,91.3763441" id="Shape" fill="#662059"></path>
            <path d="M147.609706,83.1827957 L147.609706,108.989247 C147.609706,110.176956 148.573778,111.139785 149.76302,111.139785 C150.952263,111.139785 151.916335,110.176956 151.916335,108.989247 L151.916335,83.1827957 C151.916335,81.9950866 150.952263,81.0322581 149.76302,81.0322581 C148.573778,81.0322581 147.609706,81.9950866 147.609706,83.1827957" id="Shape" fill="#662059"></path>
            <ellipse id="Oval" fill="#FFFFFF" cx="83.5486009" cy="74.9462366" rx="33.2256421" ry="33.1827957"></ellipse>
            <path d="M116.75271,74.9462366 L118.906024,74.9462366 C118.906024,55.4440525 103.075967,39.6344086 83.5486009,39.6344086 C64.0212352,39.6344086 48.1911775,55.4440525 48.1911775,74.9462366 C48.1911775,94.4484206 64.0212352,110.258065 83.5486009,110.258065 C103.071044,110.246201 118.894146,94.4435046 118.906024,74.9462366 L114.599395,74.9462366 C114.606692,89.7513477 104.140949,102.499769 89.6028831,105.394727 C75.0648177,108.289685 60.5037233,100.524845 54.8249825,86.8490858 C49.1462417,73.1733266 53.9315564,57.3957632 66.2542883,49.1657551 C78.5770201,40.935747 95.0049136,42.5456019 105.490875,53.0107527 C111.329056,58.8205859 114.60721,66.715161 114.599395,74.9462366 L116.75271,74.9462366 Z" id="Shape" fill="#662059"></path>
            <path d="M89.4271494,89.9354839 C97.1839985,89.5705835 103.616042,83.8116699 104.823348,76.1505376 C104.94259,75.3822245 104.642355,74.6087408 104.035739,74.1214504 C103.429122,73.6341601 102.608283,73.5070941 101.882424,73.7881171 C101.156565,74.06914 100.635961,74.7155578 100.516719,75.483871 C99.6239499,81.1274333 94.8834543,85.3677152 89.1687517,85.6344086 C87.979509,85.6878556 87.0588206,86.6940114 87.1123365,87.8817204 C87.1658525,89.0694295 88.1733073,89.9889307 89.36255,89.9354839 L89.4271494,89.9354839 Z" id="Shape" fill="#662059"></path>
            <path d="M81.330687,90.3010753 C82.3576157,90.2951457 83.2374457,89.565793 83.4323962,88.5588214 C83.6273467,87.5518498 83.0831597,86.5475169 82.1324599,86.1597037 C81.1817602,85.7718904 80.0891439,86.108532 79.5224538,86.9638621 C78.9557637,87.8191922 79.0727194,88.9551577 79.8018338,89.6774194 C80.2082048,90.079971 80.7583296,90.3043801 81.330687,90.3010753" id="Shape" fill="#662059"></path>
            <path d="M101.184246,34.2580645 C101.184246,34.2580645 96.8776174,16.4516129 83.6347335,16.4516129 C70.3918496,16.4516129 65.8914224,34.2580645 65.8914224,34.2580645" id="Shape" fill="#FB5956"></path>
            <path d="M66.731215,26.344086 C65.4828045,28.6961967 64.493667,31.1766677 63.7811742,33.7419355 C63.5926945,34.4871992 63.8166388,35.2762743 64.3686496,35.811924 C64.9206604,36.3475736 65.7168741,36.5484198 66.4573646,36.3388057 C67.1978552,36.1291916 67.7701245,35.5409626 67.9586043,34.7956989 C68.590573,32.5604654 69.4566834,30.3979819 70.5425816,28.344086 C70.9221293,27.6619979 70.9019326,26.8280943 70.4898085,26.1651306 C70.0776844,25.502167 69.3383073,25.1141817 68.5578469,25.1513412 C67.7773865,25.1885007 67.0783199,25.6449737 66.731215,26.344086 Z" id="Shape" fill="#662059"></path>
            <path d="M103.186829,33.7634409 C102.296586,30.4121638 100.933521,27.2044036 99.1385976,24.2365591 C97.5993925,21.6327371 95.5746208,19.3477685 93.1739166,17.5053763 C90.4066375,15.4228627 87.0350863,14.297945 83.5701341,14.3010753 C79.6033544,14.3112097 75.7760267,15.7637188 72.8035618,18.3870968 C71.8997376,19.1591078 71.7936898,20.5166958 72.5666975,21.4193546 C73.3397052,22.3220134 74.6990461,22.4279247 75.6028706,21.655914 C77.7928862,19.6951775 80.6289515,18.6081452 83.5701341,18.6021505 C86.1207355,18.5941928 88.6029375,19.4255651 90.6330055,20.9677419 C93.4553452,23.2672078 95.6728664,26.2200899 97.0929489,29.5698925 C97.6616862,30.7941856 98.1578057,32.0508371 98.5787358,33.3333333 C98.7294679,33.8064516 98.8371336,34.1935484 98.9232662,34.4516129 L98.9232662,34.7311828 C99.2593061,35.8161915 100.382211,36.4531897 101.487432,36.1857753 C102.592653,35.9183608 103.299137,34.8387317 103.100696,33.7204301 L103.186829,33.7634409 Z" id="Shape" fill="#662059"></path>
            <path d="M83.5486009,-1.08943209e-14 C79.2980153,-0.0139423584 75.5786258,2.85138872 74.5128729,6.96091459 C73.4471199,11.0704405 75.3061233,15.3787276 79.0290574,17.4272858 C82.7519915,19.475844 87.3917688,18.7435349 90.300737,15.648245 C93.2097051,12.5529551 93.6478437,7.88210365 91.3651324,4.30107527 C90.9458611,3.65569227 90.2136861,3.28272392 89.4444107,3.32266379 C88.6751353,3.36260366 87.9856307,3.80938393 87.6356266,4.4947068 C87.2856225,5.18002967 87.3282928,5.99977829 87.7475641,6.64516129 C88.988102,8.56062496 88.7698031,11.0724346 87.2173647,12.7457891 C85.6649263,14.4191437 83.173798,14.8277927 81.1669673,13.7383068 C79.1601366,12.648821 78.1487996,10.338723 78.7106543,8.12759171 C79.2725091,5.91646042 81.2644353,4.3675332 83.5486009,4.3655914 C84.7378437,4.3655914 85.7019154,3.4027629 85.7019154,2.21505376 C85.7019154,1.02734462 84.7378437,0.064516129 83.5486009,0.064516129 L83.5486009,-1.08943209e-14 Z" id="Shape" fill="#662059"></path>
            <ellipse id="Oval" fill="#662059" cx="64.1041714" cy="63.7419355" rx="3.22997169" ry="3.22580645"></ellipse>
            <ellipse id="Oval" fill="#662059" cx="85.6157828" cy="63.8709677" rx="3.22997169" ry="3.22580645"></ellipse>
            <path d="M72.394432,71.2043011 L46.1885951,76.7956989 C45.215504,77.0681601 44.5630648,77.9798119 44.6199831,78.987517 C44.6769014,79.9952221 45.4278606,80.8278099 46.4254597,80.9892473 L73.0834927,83.1397849 C74.1943162,83.2136604 75.1563632,82.3777589 75.2368071,81.2688172 C75.5825412,78.334326 75.3928549,75.3615484 74.6769454,72.4946237 C74.2964052,71.5979846 73.3600414,71.0686508 72.394432,71.2043011 Z" id="Shape" fill="#FB5956"></path>
            <path d="M56.6537034,97.483871 C56.6537034,97.483871 96.1239574,104.860215 110.486565,97.6774194 C114.974214,100.852517 116.259346,106.941999 113.436606,111.655914 C93.5727819,115.073199 73.2523039,114.854589 53.466798,111.010753 C53.466798,111.010753 51.0766189,102.602151 56.6537034,97.483871 Z" id="Shape" fill="#C93E4F"></path>
            <path d="M56.6537034,97.483871 L56.2661068,99.6344086 C67.6001463,101.663401 79.0773334,102.792382 90.5899392,103.010753 C94.4132591,103.04248 98.2340719,102.805334 102.024039,102.301075 C105.286892,101.916614 108.469305,101.024075 111.455556,99.655914 L110.486565,97.7419355 L109.323775,99.5483871 C110.031843,100.066999 110.656343,100.690695 111.175625,101.397849 C112.191086,102.734512 112.7429,104.365171 112.747545,106.043011 C112.707469,107.693256 112.287491,109.312131 111.520156,110.774194 L113.458139,111.72043 L113.027476,109.569892 L112.91981,109.569892 C103.742724,111.181689 94.4381957,111.959066 85.1205205,111.892473 C74.6459377,111.921261 64.1943041,110.912744 53.918994,108.88172 L53.4883311,111.032258 L55.6416456,110.451613 L55.404781,110.451613 L55.6416456,110.451613 L55.404781,110.451613 L55.6416456,110.451613 C55.3614659,109.26792 55.2241129,108.054998 55.2325158,106.83871 C55.216455,105.474604 55.4200271,104.116787 55.8354439,102.817204 C56.3048942,101.384053 57.1353783,100.095501 58.2471561,99.0752688 L56.7829022,97.483871 L56.3953056,99.6344086 L56.7829022,97.483871 L55.3186484,95.8924731 C53.6725836,97.4069931 52.4420377,99.3170619 51.7441464,101.44086 C51.1745132,103.183125 50.8909172,105.005965 50.9043538,106.83871 C50.8977382,108.441025 51.0930715,110.037802 51.4857487,111.591398 C51.7024857,112.365919 52.3338115,112.95495 53.1222677,113.11828 C63.6810059,115.207208 74.4212462,116.244548 85.1851199,116.215054 C94.8369902,116.288823 104.474899,115.468102 113.974934,113.763441 C114.622677,113.625171 115.17066,113.196868 115.460721,112.602151 C116.52153,110.552022 117.096193,108.285766 117.140306,105.978495 C117.135969,103.242453 116.20221,100.58884 114.49173,98.4516129 C113.725162,97.4575653 112.810072,96.5871758 111.778553,95.8709677 C111.135657,95.4461032 110.31439,95.3968907 109.625239,95.7419355 C107.046033,96.8713217 104.307851,97.5966931 101.507244,97.8924731 C97.9382879,98.3645976 94.3406884,98.5873612 90.7406712,98.5591398 C83.1413335,98.4732423 75.5544965,97.9202251 68.0232037,96.9032258 C64.8147652,96.4946237 62.1015889,96.0860215 60.2066722,95.7634409 L58.0533578,95.3978495 L57.0413,95.3333333 C56.3736718,95.2110355 55.6873863,95.4102799 55.1894495,95.8709677 L56.6537034,97.483871 Z" id="Shape" fill="#662059"></path>
            <path d="M62.8337159,98.3010753 C62.8337159,98.3010753 74.9784094,102.215054 70.5425816,151.268817 L86.1110451,151.268817 C86.1110451,151.268817 86.9723709,142.989247 85.4435177,120.215054 C83.7208661,94.1505376 70.607181,90.2150538 62.8337159,98.3010753 Z" id="Shape" fill="#FB5956"></path>
            <path d="M87.6183653,120.086022 C86.9723709,110.709677 84.9267222,103.935484 81.9551482,99.3548387 C80.6551567,97.2614044 78.9044411,95.4835606 76.8302598,94.1505376 C75.017635,93.0102736 72.9216457,92.3994213 70.7794462,92.3870968 C67.1438144,92.4987557 63.7123968,94.0918021 61.2833294,96.7956989 C60.7734972,97.3292455 60.5729889,98.0864961 60.752094,98.8019924 C60.931199,99.5174887 61.4649315,100.091416 62.1661884,100.322581 L62.5107187,99.2473118 L62.0585227,100.27957 L62.1661884,100.27957 L62.5107187,99.2043011 L62.0585227,100.236559 C62.3815198,100.430108 64.2118371,101.526882 65.8914224,106 C67.5710077,110.473118 69.2936592,118.27957 69.2936592,131.505376 C69.2936592,137.010753 69.0137283,143.462366 68.3246677,150.989247 C68.270094,151.592327 68.4726312,152.190438 68.8825216,152.636643 C69.2924121,153.082847 69.8716679,153.335791 70.4779822,153.333333 L86.1110451,153.333333 C87.2210315,153.338889 88.1533735,152.500863 88.2643596,151.397849 C88.2643596,151.397849 88.5227573,148.924731 88.5227573,143.333333 C88.5227573,140.236559 88.5227573,136.172043 88.2212933,130.967742 C88.1677774,129.780033 87.1603224,128.860532 85.9710797,128.913978 C84.781837,128.967425 83.8611485,129.973581 83.9146644,131.16129 C84.1299958,136.301075 84.2161284,140.322581 84.2161284,143.333333 C84.2161284,146.344086 84.2161284,148 84.1084627,149.225806 C84.1084627,149.849462 84.1084627,150.27957 84.1084627,150.55914 L84.1084627,150.946237 L86.2617771,151.16129 L86.2617771,149.010753 L70.6502473,149.010753 L70.6502473,151.16129 L72.8035618,151.354839 C73.4926224,143.72043 73.7940864,137.139785 73.7940864,131.483871 C73.7940864,116.021505 71.640772,107.397849 69.2505929,102.451613 C66.8604139,97.5053763 64.190304,96.2795699 63.6304422,96.1290323 L62.9629147,98.2795699 L64.5133011,99.7634409 C66.1462549,97.884847 68.4842166,96.7640726 70.9732445,96.6666667 C72.3166372,96.676392 73.6301017,97.0639606 74.7630779,97.7849462 C77.2728626,99.5384184 79.1882047,102.0139 80.2540298,104.88172 C82.200374,109.816684 83.2996173,115.04408 83.5055346,120.344086 C83.5555395,121.112399 84.0121653,121.795707 84.7034055,122.136614 C85.3946457,122.477521 86.2154846,122.424235 86.85672,121.996829 C87.4979553,121.569423 87.8621684,120.832829 87.8121636,120.064516 L87.6183653,120.086022 Z" id="Shape" fill="#662059"></path>
            <path d="M68.3892672,150.967742 C68.2303573,152.287769 68.1584254,153.616794 68.1739357,154.946237 C68.1739357,157.72043 68.367734,160.408602 68.367734,160.451613 C68.4215854,161.219926 68.8817655,161.901184 69.574929,162.238764 C70.2680925,162.576344 71.0889313,162.51896 71.7282434,162.088227 C72.3675556,161.657494 72.7282143,160.918851 72.6743629,160.150538 L72.6743629,159.72043 C72.6743629,158.860215 72.5236309,156.903226 72.5236309,154.967742 C72.508576,153.832618 72.5661148,152.697692 72.6958961,151.569892 C72.8623901,150.382183 72.0332884,149.284559 70.8440456,149.11828 C69.6548029,148.952 68.5557611,149.780033 68.3892672,150.967742 Z" id="Shape" fill="#662059"></path>
            <path d="M76.2057986,151.247312 L76.2057986,160.27957 C76.2057986,161.467279 77.1698704,162.430108 78.3591131,162.430108 C79.5483558,162.430108 80.5124275,161.467279 80.5124275,160.27957 L80.5124275,151.247312 C80.5124275,150.059603 79.5483558,149.096774 78.3591131,149.096774 C77.1698704,149.096774 76.2057986,150.059603 76.2057986,151.247312" id="Shape" fill="#662059"></path>
            <path d="M83.9577307,151.096774 C83.8069987,152.688172 83.7639324,154.258065 83.7639324,155.634409 C83.7639324,158.408602 83.9577307,160.473118 83.9577307,160.516129 C84.0647625,161.703838 85.1156007,162.580012 86.3048434,162.473118 C87.4940862,162.366224 88.3713914,161.316741 88.2643596,160.129032 L88.2643596,159.849462 C88.2643596,159.204301 88.1136276,157.698925 88.1136276,155.677419 C88.1136276,154.387097 88.1136276,152.946237 88.2858927,151.526882 C88.3929246,150.339173 87.5156193,149.28969 86.3263766,149.182796 C85.1371338,149.075902 84.0862957,149.952076 83.9792638,151.139785 L83.9577307,151.096774 Z" id="Shape" fill="#662059"></path>
            <rect id="Rectangle-path" fill="#F4C95E" x="60.917266" y="34.2580645" width="45.284203" height="13.8924731" rx="6.10752688"></rect>
            <path d="M81.2876208,46 L67.0111459,46 C64.8229393,46 63.0490473,44.2283956 63.0490473,42.0430108 L63.0490473,40.3655914 C63.0490473,38.1802066 64.8229393,36.4086022 67.0111459,36.4086022 L100.064523,36.4086022 C102.252729,36.4086022 104.026621,38.1802066 104.026621,40.3655914 L104.026621,42.0430108 C104.026621,44.2283956 102.252729,46 100.064523,46 L90.6976049,46 C89.5083622,46 88.5442905,46.9628285 88.5442905,48.1505376 C88.5442905,49.3382468 89.5083622,50.3010753 90.6976049,50.3010753 L100.064523,50.3010753 C104.631215,50.3010753 108.33325,46.6038138 108.33325,42.0430108 L108.33325,40.3655914 C108.33325,35.8047883 104.631215,32.1075269 100.064523,32.1075269 L67.0111459,32.1075269 C62.4444538,32.1075269 58.7424184,35.8047883 58.7424184,40.3655914 L58.7424184,42.0430108 C58.7424184,46.6038138 62.4444538,50.3010753 67.0111459,50.3010753 L81.2876208,50.3010753 C82.4768635,50.3010753 83.4409352,49.3382468 83.4409352,48.1505376 C83.4409352,46.9628285 82.4768635,46 81.2876208,46 Z" id="Shape" fill="#662059"></path>
        </g>
    </g>
</svg>