<svg id="Layer_1" enable-background="new 0 0 512 512" height="512" viewBox="0 0 512 512" width="512" xmlns="http://www.w3.org/2000/svg"><g><g><g><g><g><g id="XMLID_935_"><g id="XMLID_936_"><g id="XMLID_937_"><g id="XMLID_938_"><g id="XMLID_939_"><g id="XMLID_940_"><g id="XMLID_941_"><g id="XMLID_1094_"><g id="XMLID_1109_"><g id="XMLID_1110_"><g id="XMLID_1111_"><g id="XMLID_1112_"><g id="XMLID_1113_"><g id="XMLID_1114_"><g id="XMLID_1197_"><circle cx="256" cy="256" fill="#ffa07a" r="256"/></g></g></g></g></g></g></g></g></g></g></g></g></g></g></g></g></g></g></g><path d="m511.169 276.646-248.526-249.677-50.136 130.564-69.949 62.702 30.619 30.526-51.896 87.232c-5.009-5.673-38.995 42.373-38.995 42.373l124.746 126.935c15.852 3.072 32.219 4.699 48.968 4.699 134.434 0 244.655-103.625 255.169-235.354z" fill="#ff6b6b"/><g><path d="m217.026 363.868h77.947v115.974h-77.947z" fill="#ce3b00"/><g><path d="m256 363.873h38.97v115.97h-38.97z" fill="#af3345"/></g><g><g><path d="m318.187 207.322h50.973l-114.798-164.151-114.799 164.151h50.973l-102.723 154.101h333.097z" fill="#006369"/><path d="m420.91 361.42h-164.91v-315.9l45.24 64.68 45.76 65.44 22.16 31.68h-50.97l8.26 12.38 71.68 107.54z" fill="#08475e"/><path d="m246.081 26.969-46.179 67.513c-5.617 8.212 2.858 18.712 12.071 14.953 3.512-1.433 7.533-.762 10.39 1.733l17.533 15.313c8.287 7.238 20.647 7.238 28.934 0l17.532-15.313c2.857-2.495 6.877-3.166 10.39-1.733 9.212 3.759 17.688-6.741 12.071-14.953l-46.179-67.513c-3.986-5.824-12.579-5.824-16.563 0z" fill="#fff"/><g><path d="m301.24 110.2c-.2.01-.41.02-.61.02-1.25 0-2.56-.24-3.88-.78-3.51-1.44-7.53-.77-10.39 1.73l-17.53 15.31c-3.71 3.24-8.23 5.03-12.83 5.37v-109.12c2.57.42 5 1.84 6.64 4.24l46.18 67.51c4.68 6.84-.42 15.27-7.58 15.72z" fill="#e7f9fb"/></g></g><path d="m369.63 192.421c-3.331-4.722-6.472-9.151-9.038-12.727-2.175-3.03-5.694-4.836-9.422-4.836-.01 0-.02 0-.029 0-3.735.009-7.257 1.834-9.42 4.88-.98 1.382-2.819 1.891-4.373 1.21l-12.158-5.34c-9.348-4.107-20.181-2.217-27.587 4.814-5.684 5.396-14.31 6.292-20.982 2.179l-8.984-5.539c-8.189-5.048-18.359-5.048-26.549 0l-8.984 5.539c-6.669 4.113-15.298 3.218-20.982-2.179-7.407-7.032-18.236-8.923-27.587-4.814l-12.158 5.34c-1.552.68-3.392.173-4.373-1.209-2.163-3.047-5.684-4.871-9.421-4.881-.01 0-.018 0-.028 0-3.728 0-7.248 1.807-9.422 4.836-2.566 3.577-5.707 8.005-9.04 12.73-5.029 7.143-5.113 16.434-.214 23.668 4.9 7.235 13.557 10.603 22.063 8.586l19.665-4.689c5.032-1.194 10.259.726 13.313 4.895 4.937 6.727 12.867 10.743 21.214 10.743 5.179 0 10.214-1.523 14.565-4.409l17.569-11.68c4.311-2.866 9.881-2.866 14.191 0l17.57 11.681c4.487 2.982 9.557 4.417 14.572 4.417 8.103 0 16.065-3.744 21.21-10.758 2.399-3.282 6.266-5.241 10.342-5.241.997 0 1.991.118 2.962.351l19.67 4.69.003.001c8.502 2.022 17.159-1.351 22.06-8.587 4.898-7.235 4.814-16.525-.218-23.671z" fill="#fff"/><path d="m369.85 216.09c-4.9 7.24-13.56 10.61-22.06 8.59h-.01l-19.67-4.69c-.55-.14-1.1-.23-1.66-.29-.43-.04-.86-.06-1.3-.06-4.07 0-7.94 1.96-10.34 5.24-5.15 7.01-13.11 10.76-21.21 10.76-5.02 0-10.08-1.44-14.57-4.42l-17.57-11.68c-1.68-1.12-3.55-1.8-5.46-2.04v-44.17c4.04.26 8.03 1.51 11.64 3.73l8.98 5.54c6.67 4.11 15.3 3.22 20.98-2.18 7.41-7.03 18.24-8.92 27.59-4.81l12.16 5.34c1.55.68 3.39.17 4.37-1.21 1.33-1.88 3.18-3.29 5.28-4.1 1.31-.51 2.71-.78 4.14-.78h.03c3.73 0 7.25 1.8 9.42 4.83 2.57 3.58 5.71 8.01 9.04 12.73 5.03 7.15 5.12 16.44.22 23.67z" fill="#e7f9fb"/><path d="m404.995 387.202-31.063-7.406c-2.037-.49-4.106-.726-6.143-.726-8.338 0-16.36 3.932-21.43 10.865-11.133 15.176-32.231 18.903-47.912 8.48l-27.746-18.445c-8.907-5.922-20.498-5.922-29.404 0l-27.746 18.445c-6.001 3.979-12.775 5.906-19.503 5.906-10.849 0-21.524-5.006-28.409-14.386-6.317-8.622-17.181-12.602-27.572-10.138l-31.062 7.406c-23.798 5.654-41.958-21.145-27.872-41.153 5.249-7.441 10.198-14.421 14.243-20.056 4.8-6.688 14.753-6.668 19.519.044 3.292 4.637 9.389 6.323 14.596 4.036l19.2-8.433c12.399-5.446 26.854-2.923 36.675 6.401 11.064 10.504 27.813 12.244 40.799 4.237l14.189-8.748c10.819-6.67 24.475-6.67 35.294 0l14.188 8.748c12.986 8.007 29.735 6.267 40.799-4.237 9.821-9.324 24.276-11.847 36.675-6.401l19.2 8.434c5.207 2.287 11.304.601 14.596-4.035 4.766-6.712 14.719-6.732 19.519-.044 4.044 5.636 8.994 12.616 14.243 20.056 14.085 20.005-4.075 46.803-27.873 41.15z" fill="#fff"/><g><path d="m405 387.2-31.07-7.4c-2.03-.49-4.1-.73-6.14-.73-8.34 0-16.36 3.93-21.43 10.86-11.13 15.18-32.23 18.91-47.91 8.48l-3.48-2.31-24.27-16.13c-4.45-2.96-9.58-4.44-14.7-4.44v-57c6.12 0 12.24 1.67 17.65 5l14.19 8.75c12.98 8 29.73 6.26 40.79-4.24 6.38-6.05 14.71-9.24 23.17-9.24 4.56 0 9.16.93 13.51 2.84l19.2 8.43c4.73 2.08 10.19.88 13.62-2.83.35-.38.68-.78.98-1.2 2.39-3.37 6.08-5.05 9.77-5.05 3.67 0 7.35 1.66 9.74 5 4.05 5.64 9 12.62 14.25 20.06 14.08 20.01-4.08 46.81-27.87 41.15z" fill="#e7f9fb"/></g></g></g></g></svg>